<svg xmlns="http://www.w3.org/2000/svg" viewBox="0 0 571.99 355.31"><g id="Layer_2" data-name="Layer 2"><g id="Layer_1-2" data-name="Layer 1"><path d="M156.34,211.69c4.55-1.19,11.37-3.63,20.91-11.24,5.84-4.69,14-11.14,20.62-22.5.29-.49.8-1.35,1.4-2.51a1,1,0,0,0,.09-.18c.07-.09.13-.2.2-.31.2-.39.42-.81.68-1.23,4.43-8.74,12.36-27.82,4.62-43.5-.43-.9-6.14-12.26-12.82-11.57-8.35.95-12.32,19.94-16.06,19.21-1.89-.39-1.4-5.18-2.79-10.82-3-12.7-14.53-26.61-26-25.51a17.2,17.2,0,0,0-13.58,9.9c-4.14,8.95,5.13,20,4.13,20.65-1.48.9-12.58-24.81-28.53-25.16-5.59-.09-12.25,2.93-13.94,7.52-2.46,6.74,7,14,4.86,16.76-2.22,2.88-12.26-5.68-26.81-4.08-3.69.43-12.37,1.39-16.36,7.95-3.52,5.64-2.69,13.63,1.34,18.61a16.7,16.7,0,0,0,10.79,5.59c9.86,1.35,13.94-5.93,30-9,5.58-1.1,11.89-1.54,12.57.27.41,1.36-2.77,2.75-5.26,7.23a2.11,2.11,0,0,0-.23.42c-.75,1.37-3.37,6.29-1.88,11.26,0,.22,1.76,5.58,5.9,6.46A7.48,7.48,0,0,0,115,175c8.34-3.92,19.85-6.26,20.53-4.91.82,1.51-12.68,7.71-11.84,13.41.7,4.73,10.88,6.44,12.19,6.66,11,1.76,20.64-3.23,20.91-2.45s-8.37,2.65-13.6,9.95c-2.46,3.38-5.51,9.68-3.15,13.11C142.87,215.06,152.35,212.7,156.34,211.69Z" style="fill:#ffd9e8"/><path d="M145,181.34c-.27-2,1.47-3.51,3.1-4.33a18.79,18.79,0,0,1,6.66-1.76c4.8-.5,9.82.16,14.47-1.4a11.79,11.79,0,0,0,6-4.17,172.94,172.94,0,0,1-20.08-10.88c-2.44-1.47-4.87-3-7.32-4.42-7.66.17-13.12,6.87-20.47,8.23a11.21,11.21,0,0,1-5.83-.37c-.32-.12-.12-.6.2-.48,3.61,1.27,7.44.13,10.74-1.47s6.24-3.75,9.61-5.14a16.12,16.12,0,0,1,5-1.23,118.31,118.31,0,0,0-20.7-10.18c-8.82-3.11-18.46-4.64-27.72-2.72-1.16.25-2.3.55-3.43.9-.32.09-.51-.39-.2-.5,8.75-2.68,18.11-2.06,26.84.36,1.48.41,3,.88,4.4,1.39a.22.22,0,0,1-.06-.18c.48-4.61-3.44-7.85-6.88-10.14a41.14,41.14,0,0,1-5.47-4A7.7,7.7,0,0,1,111,124c0-.34.49-.4.52-.07.16,2.28,2,4.06,3.69,5.41,1.83,1.47,3.87,2.64,5.77,4,3.13,2.25,6.13,5.53,5.7,9.67a.22.22,0,0,1-.21.2c8.16,2.89,15.77,7.16,23.18,11.61,4.11,2.47,8.19,5,12.34,7.4a22.77,22.77,0,0,0,.63-16.77,21.32,21.32,0,0,0-4.88-7.6c-2.3-2.44-4.87-4.7-6.56-7.64s-2.36-6.57-.68-9.63c.16-.29.64-.09.48.21-1.7,3.08-.87,6.74.91,9.59s4.45,5.16,6.76,7.68a20.9,20.9,0,0,1,4.52,7.38,23.46,23.46,0,0,1,1.25,8.1,22.43,22.43,0,0,1-2,8.95,123.6,123.6,0,0,0,15.67,7.8,68.73,68.73,0,0,0,11.68,3.55c-3.84-7.52.14-16.1-.56-24a14.34,14.34,0,0,0-2.07-6.56c-.18-.29.24-.6.42-.32,4.62,7.26.77,16.11,1.08,24a15.92,15.92,0,0,0,1.68,6.85.25.25,0,0,1,0,.17,50.5,50.5,0,0,0,9.17.95c-.07.11-.13.22-.2.31a1,1,0,0,1-.09.18,55,55,0,0,1-15.58-2.58,76.54,76.54,0,0,1-7.95-3c-2.41,3.48-6.64,4.92-10.68,5.36-4.69.51-9.51-.09-14.1,1.22-2.11.6-5.77,2-5.4,4.8A.26.26,0,0,1,145,181.34Z" style="fill:#fff"/><path d="M250.81,105.51a31.6,31.6,0,0,1-1.56,9.73s-2.63,13-8.28,23.46a47.42,47.42,0,0,1-11.1,14.49l-2,1.54a16.08,16.08,0,0,1-2,1.36c-.52.33-1,.66-1.58.95a7.61,7.61,0,0,1-.82.48,45.07,45.07,0,0,1-47.6-2.61c-6.8-4.86-14.69-13.49-12.22-18.16.53-.87,1.31-1.51,1.44-2.82.35-2.58-2.17-4.39-5.27-7.11-5.75-5-8.66-7.48-9.11-10.16-.24-1.23.3-4.06,1.33-9.67.71-3.9.9-4.09.68-4.87-1.23-3.83-7.5-2.38-12.78-6.49-4-3.19-6.68-9-5.45-13.93.77-2.89,2.28-3.26,4.37-8.53,1.47-3.73,2.19-5.67,2.06-7.68-.51-7.83-13.79-8.79-13.63-15.29.08-3.2,3.39-6.38,6.55-9.42s4.73-3.17,5.91-4.55c6.84-7.85-17.49-32.41-14-35.77,2.67-2.55,23.68,5.82,34.47,16.35,1.64,1.67,4.76,5,9.74,5.38,5.73.49,8.16-3.41,11.88-2.3,1.86.61,2.58,2,8.43,15,1.84,4.17,3.11,7.07,5.32,7.11s3.59-2.69,6.66-2.54a5.11,5.11,0,0,1,3,1.12c4.84,3.21,7.31,11.09,8.44,15,2.28,7.77,2.78,11.91,4.62,12s2.58-3.89,5.91-4.61c2.38-.46,4.7,1,6,2.24,1.78,1.78,1.92,4,1.66,10.79-.25,6.93-.53,8-.52,11.67-.1,6.33-.15,12.09,2.39,12.81,2.29.65,4.3-3.36,8.89-3.44a7.74,7.74,0,0,1,8.2,8.48Z" style="fill:#d9d1ff"/><path d="M235.68,112.63c1.34,4-2.21,7.34-4.27,10.28a63.12,63.12,0,0,0-5.17,8.85,62.21,62.21,0,0,0-5.48,18.67l0-.07c-3.78-6.57-8.13-12.86-12.28-19.11a162.25,162.25,0,0,1-11.81-20,100.2,100.2,0,0,1-6.2-18.15h0c2.8-6.63,8-11.71,11.34-18,2.91-5.53,3.84-12.93-1-17.68-.43-.43-1,.3-.6.72,5.14,5,3.1,12.86-.2,18.26-3.17,5.2-7.28,9.73-9.88,15.27v0c-.18-.73-.37-1.46-.55-2.19-1.49-6-3.1-12-6.09-17.46a105.54,105.54,0,0,0-6.89-10.84,33,33,0,0,0,.82-20.1c-.17-.58-1.05-.26-.88.32a32,32,0,0,1-.61,18.82c-.13-.18-.27-.35-.39-.53a292.72,292.72,0,0,0-19.26-24c-.6-.66-1.2-1.34-1.82-2-.4-.44-1.16.1-.76.54a278,278,0,0,1,18.47,22.47c3.07,4.12,6,8.33,8.74,12.73.6,1,1.19,2,1.7,3.06h0c-3.42.93-6.57-1.08-9.44-2.67A29.41,29.41,0,0,0,148.18,68a.47.47,0,0,0,.32.88,28.76,28.76,0,0,1,17.8-.9,38.82,38.82,0,0,1,8.38,3.73c2.56,1.38,5.37,2.41,8.28,1.57l0,0h0a57.45,57.45,0,0,1,4,10.27c2.11,7.33,3.43,14.87,6.16,22a111.75,111.75,0,0,0,10.3,19.76c.33.54.68,1.08,1,1.61h0c-8-.23-16.49-.56-23.61-4.74a22.16,22.16,0,0,1-4.5-3.51,31,31,0,0,0-4-3.88c-2.83-2-6.34-2-9.67-1.8-.61,0-.53,1,.07.94a23.3,23.3,0,0,1,5.72.2,9.51,9.51,0,0,1,4.87,2.74c1.36,1.35,2.56,2.83,4,4.06a24.35,24.35,0,0,0,4.35,2.82c7.07,3.62,15.17,3.89,22.94,4.12a.37.37,0,0,0,.28-.12h0c5.2,8,10.85,15.87,15.52,24.22l0,.07a.36.36,0,0,0,.11.21l0,0c1,1.73,1.89,3.48,2.74,5.25a7.61,7.61,0,0,0,.82-.48c-.87-1.8-1.81-3.56-2.78-5.31h0a61.66,61.66,0,0,1,6.26-20.93,63.13,63.13,0,0,1,6-9.45c2-2.61,4-5.64,2.83-9A.47.47,0,0,0,235.68,112.63Z" style="fill:#fff"/><path d="M391.59,235.46c-4.65.7-11.89,1.14-23.65-2.1-7.21-2-17.22-4.75-27.81-12.57-.45-.34-1.26-.93-2.27-1.76l-.16-.13-.3-.21c-.34-.27-.7-.58-1.11-.86-7.51-6.29-22.31-20.72-21.36-38.17,0-1,.82-13.69,7.24-15.68,8-2.41,19.17,13.48,22.31,11.33,1.59-1.09-.75-5.31-1.68-11-2.23-12.86,2.89-30.18,13.89-33.7a17.2,17.2,0,0,1,16.37,3.77c7.33,6.6,3.15,20.39,4.33,20.61,1.72.24,1.81-27.76,16.33-34.36,5.11-2.29,12.42-2.13,15.78,1.43,4.91,5.22-.88,15.64,2.12,17.32,3.17,1.77,9.05-10.05,23.05-14.31,3.56-1,11.92-3.58,18.16.87,5.46,3.81,7.84,11.48,6.1,17.64a16.65,16.65,0,0,1-7.73,9.39c-8.53,5.12-15.15,0-31.09,3.48-5.57,1.19-11.54,3.27-11.45,5.19.16,1.42,3.62,1.44,7.67,4.58a2,2,0,0,1,.39.29c1.22,1,5.56,4.46,6.15,9.62.06.21.58,5.82-2.88,8.26a7.51,7.51,0,0,1-4.8,1.15c-9.2-.33-20.71,2.06-20.81,3.56-.15,1.71,14.7,2.1,16.17,7.67,1.22,4.63-7.46,10.2-8.59,10.92-9.38,5.93-20.25,5.15-20.19,6s8.74-.85,16.42,3.8c3.59,2.14,8.87,6.73,8.06,10.81C405.3,233.26,395.65,234.82,391.59,235.46Z" style="fill:#ffd9e8"/><path d="M390,203.12c-.55-2-2.73-2.65-4.56-2.77a19.21,19.21,0,0,0-6.81,1c-4.61,1.44-9,4-13.86,4.42a11.73,11.73,0,0,1-7.13-1.49,173.56,173.56,0,0,0,14.18-17.9c1.66-2.31,3.31-4.64,5-6.94,7.1-2.87,14.77,1.15,22.06-.49a11.29,11.29,0,0,0,5.21-2.64c.25-.23-.13-.59-.38-.36-2.81,2.59-6.78,3.05-10.45,2.88s-7.21-1-10.86-1a16.32,16.32,0,0,0-5,.82,118.44,118.44,0,0,1,15-17.51c6.88-6.32,15.14-11.52,24.41-13.39a34.79,34.79,0,0,1,3.5-.53c.33-.05.32-.56,0-.54-9.1,1-17.45,5.24-24.53,10.89-1.2,1-2.36,2-3.49,3a.32.32,0,0,0,0-.19c-2.26-4,.08-8.57,2.33-12a41.13,41.13,0,0,0,3.46-5.82,7.66,7.66,0,0,0,.69-5.54c-.11-.31-.61-.17-.5.15.74,2.16-.26,4.52-1.27,6.42-1.1,2.08-2.52,3.95-3.73,6-2,3.3-3.46,7.49-1.43,11.13a.21.21,0,0,0,.27.1c-6.37,5.87-11.68,12.79-16.74,19.8-2.8,3.88-5.57,7.81-8.44,11.66a22.85,22.85,0,0,1-7.18-15.17,21.41,21.41,0,0,1,1.5-8.91c1.16-3.15,2.63-6.24,3-9.61s-.41-7-3.17-9.11c-.26-.21-.62.17-.36.37,2.77,2.16,3.45,5.86,2.94,9.17s-2.06,6.51-3.19,9.72a21.06,21.06,0,0,0-1.26,8.57,23.74,23.74,0,0,0,2,7.94,22.43,22.43,0,0,0,5.33,7.45A121,121,0,0,1,355.27,206a68.19,68.19,0,0,1-9.34,7.86c.57-8.43-6.46-14.75-8.94-22.3a14.59,14.59,0,0,1-.68-6.84c.06-.33-.45-.46-.5-.12-1.39,8.49,5.62,15.1,8.44,22.47a15.89,15.89,0,0,1,1.15,7,.18.18,0,0,0,.06.16,49.65,49.65,0,0,1-8.06,4.48l.3.21.16.13a55,55,0,0,0,13.31-8.5,79.11,79.11,0,0,0,6.15-5.85c3.58,2.25,8,1.9,11.92.72,4.51-1.38,8.71-3.82,13.44-4.43,2.18-.27,6.1-.41,6.86,2.29A.26.26,0,0,0,390,203.12Z" style="fill:#fff"/><path d="M318.87,249.34a31.4,31.4,0,0,0-4.87,8.58s-6.06,11.78-8.19,23.49a47.51,47.51,0,0,0-.39,18.24l.57,2.43a17.23,17.23,0,0,0,.75,2.34c.2.58.4,1.17.63,1.73.11.31.22.6.35.89a45.08,45.08,0,0,0,38.8,27.7c8.34.45,19.89-1.36,20.88-6.55.13-1-.08-2,.64-3.1,1.34-2.23,4.43-2.07,8.55-2.26,7.63-.32,11.44-.43,13.46-2.24,1-.81,2.32-3.36,5-8.38,1.88-3.49,1.85-3.75,2.51-4.22,3.35-2.23,7.35,2.82,14,2.91,5.13,0,10.83-2.84,12.95-7.47,1.21-2.74.26-4,1.92-9.39,1.18-3.83,1.83-5.8,3.19-7.29,5.29-5.8,16.26,1.75,20.2-3.41,1.94-2.56,1.34-7.1.77-11.45s-1.71-5.43-1.77-7.25c-.44-10.4,33.9-14.38,33.26-19.19-.5-3.66-22.13-10.26-37.13-8.77-2.32.27-6.84.92-11-1.89-4.78-3.2-4.25-7.76-7.85-9.22-1.83-.68-3.25,0-16,6.47-4.05,2.1-6.85,3.58-8.61,2.23s-1.11-4.35-3.6-6.15a5.17,5.17,0,0,0-3-1c-5.79-.52-12.64,4.1-15.95,6.43-6.64,4.64-9.61,7.56-11.1,6.46s.42-4.64-1.73-7.29c-1.57-1.84-4.29-2.15-6.06-2-2.5.28-4,2-8,7.39s-4.57,6.57-6.88,9.44c-3.88,5-7.43,9.53-9.87,8.51-2.19-.93-1.26-5.31-4.8-8.24a9,9,0,0,0-6.06-2A9.16,9.16,0,0,0,318.87,249.34Z" style="fill:#d9d1ff"/><path d="M326.23,264.35c-3.51,2.25-2.86,7.11-3.09,10.7a61.26,61.26,0,0,1-8.87,28.14l.07,0c7.05-2.77,14.38-5,21.53-7.25a161.83,161.83,0,0,0,21.73-8.25,100.79,100.79,0,0,0,16.18-10.3h0c1.95-6.93,1.06-14.15,2.4-21.15,1.17-6.14,5.07-12.49,11.84-13.17.61-.06.62.88,0,.94-7.16.71-10.45,8.11-11.26,14.39-.77,6-.39,12.15-1.82,18.09l0,0c.6-.46,1.2-.92,1.81-1.37,4.91-3.76,9.92-7.44,15.65-9.83a105.59,105.59,0,0,1,12.16-4.15,33,33,0,0,1,11.91-16.21c.5-.35,1,.45.49.8a31.92,31.92,0,0,0-11.28,15.08c.22-.07.43-.11.64-.18a294.28,294.28,0,0,1,30.05-6.73c.88-.14,1.78-.3,2.67-.42.58-.09.84.8.26.89a278.87,278.87,0,0,0-28.46,6c-5,1.3-9.93,2.72-14.78,4.48-1.11.42-2.2.84-3.25,1.33h0c2.09,2.86,5.81,3.26,9,3.82a29.43,29.43,0,0,1,20.55,14.19c.3.52-.5,1-.8.49a28.88,28.88,0,0,0-13.34-11.83,39.37,39.37,0,0,0-8.88-2.32c-2.86-.52-5.7-1.47-7.44-3.94,0,0,0,0,0,0h0a57.07,57.07,0,0,0-9.55,5.51c-6.22,4.4-12,9.46-18.56,13.34a111.67,111.67,0,0,1-20.39,9l-1.82.61h0c6.42,4.83,13.22,9.86,21.4,11a22.19,22.19,0,0,0,5.7.08,32.09,32.09,0,0,1,5.52-.56c3.48.2,6.18,2.44,8.68,4.64.46.41-.19,1.09-.64.69a23.08,23.08,0,0,0-4.59-3.41,9.54,9.54,0,0,0-5.52-.9c-1.91.19-3.77.6-5.69.63a24.91,24.91,0,0,1-5.17-.51c-7.78-1.6-14.27-6.44-20.48-11.12a.38.38,0,0,1-.14-.27h0c-9.08,3-18.39,5.62-27.25,9.21l-.08,0a.51.51,0,0,1-.22.09h0c-1.84.75-3.65,1.53-5.42,2.39-.13-.29-.24-.58-.35-.89,1.81-.87,3.64-1.66,5.49-2.41h0a61.69,61.69,0,0,0,8.18-20.25,63.87,63.87,0,0,0,1.26-11.11c.09-3.26.4-6.89,3.42-8.82A.47.47,0,0,1,326.23,264.35Z" style="fill:#fff"/><path d="M211.14,268.81c13.31,7.77,33.26,12,48.18,4.74,13.55-6.62,25.12-16.7,23.95-26.91l0,0v-.06c-22.45,22.84-52.5-27.11-34.14-43.83,9-6.72,28.12,8.4,35.69,12.49,4.49,1.21,8.76-6.75,10.43-11,0,0,0,0,0,0a35.46,35.46,0,0,0,1.62-5.47c-.56-12.24,10.69-20.36,19.39-25.56h0l0,0a21.75,21.75,0,0,1-3.56-3.66v0c-.31-.4-.6-.79-.89-1.21,0,0,0,0,0,0a30.79,30.79,0,0,1-5.38-17,19.24,19.24,0,0,1,.82-6.64c-32.55,6.16-91.91,2.86-112.65-9.19C165.09,174.86,167.33,243.57,211.14,268.81Z" style="fill:#35349c"/><path d="M350.85,339.27c-.14,1.42-.34,2.78-.59,4.07H130.33c.21-1.39.46-2.75.73-4.07,9.65-47.67,50.35-50.71,37.5-105.11-8.41-35.62,3.22-65.43,22.46-93.39.95-1.37,1.9-2.73,2.88-4.09,0,0,60.11,39.6,99,72.39,19.06,16.09,40.53,13.42,39.77,20.75-1.51,14.73,2.08,43.95,1.14,55.85-1.35,17,10.15,27.87,14.34,36.52A32.06,32.06,0,0,1,350.85,339.27Z" style="fill:#35349c"/><path d="M178.49,197.81c-5.44,19.42,23.16,67.07,11.93,90.37-9.67,20.07-37.25,35.77-41,55.16H130.33c.21-1.39.46-2.75.73-4.07,9.65-47.67,50.35-50.71,37.5-105.11-8.41-35.62,3.22-65.43,22.46-93.39C197.49,142.14,200,142,200,142S186.37,169.69,178.49,197.81Z" style="fill:#282787"/><path d="M124,216.28s-3.37,19-8.3,20.32c-2.23.59-5.1.09-7.83-.83-4.63-1.57-8.88-4.35-9-5.11L94.1,216.4c2.71,1.17,18.1,9.94,19.36,10.79,2-3.06,6.45-11,6.6-11.6,0,0-1-4.29-.11-5.5.74-1.06,1,2.44,1.34,2s2.38-5.42,3.74-4C128,211.36,124,216.28,124,216.28Z" style="fill:#f9cbcb"/><path d="M110.86,225.17c-.35,3.72-2.51,8.74-2.73,11.07-4.63-1.56-10.21-2.09-10.36-2.85l-3.67-17C96.81,217.57,105.49,222,110.86,225.17Z" style="fill:#8988f7"/><path d="M92.86,297.44A64.19,64.19,0,0,0,91,307.33c-.82,7.72-.58,19.6.83,27.11l4-.39s5.6-20.3,8.24-30.68c.68-2.63,1.2-5,1.48-6.76,1.59-10.13-4.32-38.84-4.7-40.69v-.1l-15.92-2.23C76.37,273.73,86.4,278.79,92.86,297.44Z" style="fill:#f1cccd"/><path d="M85.36,280.9c2.24,4.62,5.12,9.65,7.5,16.54-.88,3.28-1.88,6.69-3,10.66L103.59,310c.68-2.64,1.6-11.65,1.88-13.42,1.59-10.13-4.32-38.84-4.7-40.69v-.1l-15.92-2.23C79.49,266.29,81.51,273,85.36,280.9Z" style="fill:#262487"/><path d="M85.36,280.9c2.24,4.62,5.12,9.65,7.5,16.54-.88,3.28-1.88,6.69-3,10.66l2.54.36c.44-3.94,3.91-10.4,5.08-10.19-1-.26-10.5-18.8-11.22-25.22Z" style="fill:#222078"/><path d="M76.19,339.08l-9.7-11.25s7.12-11.13,12.89-18.52c1.37-1.77,2.66-3.32,3.76-4.47,7.9-8.17,12-49.38,12-49.38h-13c-10.23,9.4-7.66,22.35-8,35.15a24.13,24.13,0,0,1-3.92,12.44c-.49.75-.94,1.52-1.37,2.3-3,5.45-4.76,11.83-6.39,22.33l-2,6.81Z" style="fill:#f1cccd"/><path d="M68.2,305.12,72,306.85l7.67,3.51c1.36-1.77,2.4-4.37,3.5-5.52,7.9-8.17,13-49.54,13-49.54l-13.47.15h-.55c-9.89,9.09-7.82,21.49-7.94,33.86a23.27,23.27,0,0,1-4.76,14A15.12,15.12,0,0,0,68.2,305.12Z" style="fill:#35349c"/><path d="M68.2,305.12,72,306.85a57,57,0,0,0,4-8c2.56-6.5,1-15.32,1.6-27.72.45-9.13,8.18-13.57,8.18-13.57l-3.13-2.1h-.55c-9.89,9.09-7.82,21.49-7.94,33.86a23.27,23.27,0,0,1-4.76,14A15.12,15.12,0,0,0,68.2,305.12Z" style="fill:#262487"/><path d="M75.48,228.86c.11,8.23,2.14,22.49,2.91,27.63a2.63,2.63,0,0,0,2.2,2.22,71.87,71.87,0,0,0,10.81.84,54.13,54.13,0,0,0,9.25-.76,2.67,2.67,0,0,0,2.2-2.33c.42-3.88-.8-12.4-.6-20.69.12-5.24-1.52-18.66-11.31-20.77l-5.74-.06c-6.43,1.67-9.12,6.59-9.57,10A27.84,27.84,0,0,0,75.48,228.86Z" style="fill:#706fe3"/><path d="M96.22,332.92c6.09,2.34,12.85,2.1,13.27,7.6l-19.16-.67a13.72,13.72,0,0,1,1.16-6.93Z" style="fill:#262487"/><path d="M66.49,327.83c4.88,4.34,12.17,7.39,10.63,12.69l-17.7-5.92c.61-2.26,1.43-5.89,3.17-7.68Z" style="fill:#262487"/><path d="M89.15,209.94c-1.87.58-2.62,1.51-5,.43-3.63-1.64-6.7-7.93-1.87-10.78.33-1,.67-1.38,1.94-1.66s2.57.28,4.33.25,4.23-1.83,5.76.72-2.27,4.53-4.16,5.78S88.85,208.1,89.15,209.94Z" style="fill:#35349c"/><path d="M85.12,215c2.09,2.09,4.06,2.49,5.82,0l-.5-4-.2-1.69H85.62l-.09,1.05Z" style="fill:#f9cbcb"/><path d="M85.46,211.08c1.14,1.37,4.29,1.77,5.14,1.18l-.36-3-4.65-1.95Z" style="fill:#f0b4b4"/><path d="M92.6,201.2c.85,2.4,1.68,7.7-.35,9.67-1.28,1.24-6,.76-6.91-2.67-1.12-.81-2-2.8-.91-3.7.74-.65,1.68,1.05,3,.77.49-.11-1-3.38.52-3.94S91.06,202,92.6,201.2Z" style="fill:#f9cbcb"/><path d="M131.41,190.63s-.18.18-.46.49l-.12.13,0,0-.07.08h0l-.51.58-.07.08-.43.52-.11.13-.13.16-.4.51-.07.09-.15.19-.16.22-.17.22c-.5.68-1,1.43-1.54,2.26h0l0,0c-.47.74-.94,1.54-1.37,2.38a22.68,22.68,0,0,0-2.24,6.41h0a15.1,15.1,0,0,0-.21,3.62c0,.87.15,1.76.28,2.69h0c0,.05,0,.1,0,.16.36,2.49.93,5.15,1.48,7.74l.12.57,0,.12c0,.21.09.42.13.62v0a1.29,1.29,0,0,1,0,.19c.18.82.35,1.63.5,2.45,0,.13,0,.25.08.38a.11.11,0,0,0,0,.05.22.22,0,0,1,0,.08c.21,1.06.39,2.11.54,3.14l.06.5a28.52,28.52,0,0,1,.29,5.12h-.53a29.19,29.19,0,0,0-.35-5.55c0-.05,0-.11,0-.16-.15-1-.33-2-.53-3.07l-.24-1.22,0-.14c-.11-.53-.21-1.05-.33-1.58l-.15-.71c0-.11,0-.23-.07-.34s0-.24-.08-.36c-.19-.87-.37-1.75-.56-2.64a.43.43,0,0,0,0-.11c-.36-1.74-.69-3.48-.92-5.15,0-.12,0-.24,0-.36s0-.28,0-.42c-.09-.68-.15-1.34-.19-2a16.24,16.24,0,0,1,.41-4.73h0a25.69,25.69,0,0,1,3-7.13s0,0,0,0l0,0c.25-.43.5-.84.76-1.24h0c.27-.43.55-.83.82-1.22l.37-.51,0-.07.4-.53a.86.86,0,0,1,.07-.1l.74-.94.59-.71.06-.06,0-.06.13-.15.09-.1.08-.08h0l.07-.08.14-.15c.37-.41.6-.64.61-.65l.2.2.13.14Z" style="fill:#008e91"/><path d="M123.45,211.66l-.26,0a14.91,14.91,0,0,1-7.39-2.59c-.13-.09-.25-.19-.37-.29a8,8,0,0,1-1.13-1.19,9.23,9.23,0,0,1-1.7-3.84,2.56,2.56,0,0,1,0-.27,16.37,16.37,0,0,1,0-5.59l0-.17h.16a17.17,17.17,0,0,1,3.32.59l.23.07a11.68,11.68,0,0,1,4.42,2.33,2,2,0,0,1,.21.19,8.55,8.55,0,0,1,.81.89c2.79,3.58,1.88,9,1.73,9.79A.62.62,0,0,0,123.45,211.66Z" style="fill:#008e91"/><path d="M123.45,211.66l-.26,0c-.79-.84-1.52-1.65-2.22-2.44a26.33,26.33,0,0,1-5.17-.15c-.13-.09-.25-.19-.37-.29a26.8,26.8,0,0,0,5.34.21c-1.44-1.66-2.71-3.23-3.93-4.87a14.67,14.67,0,0,1-4.24-.37,2.56,2.56,0,0,1,0-.27,15.34,15.34,0,0,0,4.12.41c-1.37-1.85-2.68-3.79-4.12-6l0-.17h.16c.92,1.41,1.78,2.71,2.65,3.94a20.7,20.7,0,0,0,.67-3.35l.23.07a18.45,18.45,0,0,1-.73,3.53c1.09,1.56,2.18,3,3.37,4.49a23,23,0,0,0,1.78-5.69,2,2,0,0,1,.21.19,22.26,22.26,0,0,1-1.83,5.7c1.3,1.6,2.72,3.21,4.37,5A.62.62,0,0,0,123.45,211.66Z" style="fill:#a5f1f2"/><path d="M125.68,223.81a2.46,2.46,0,0,1-.07-.24,15.09,15.09,0,0,1,.13-7.83c.06-.15.11-.3.17-.44a8.18,8.18,0,0,1,.77-1.46,9.38,9.38,0,0,1,3.11-2.82l.24-.13a16.86,16.86,0,0,1,5.3-1.76l.18,0s0,0,0,.15a16.71,16.71,0,0,1,.48,3.34c0,.08,0,.16,0,.24a11.81,11.81,0,0,1-.82,4.93l-.12.26a7.8,7.8,0,0,1-.59,1.05c-2.52,3.77-8,4.62-8.74,4.72Z" style="fill:#008e91"/><path d="M125.68,223.81a2.46,2.46,0,0,1-.07-.24c.56-1,1.09-2,1.62-2.88a27.15,27.15,0,0,1-1.49-4.95c.06-.15.11-.3.17-.44a27.3,27.3,0,0,0,1.48,5.13c1.12-1.89,2.22-3.59,3.39-5.26a14.7,14.7,0,0,1-1-4.15l.24-.13a15.35,15.35,0,0,0,.91,4c1.33-1.88,2.75-3.73,4.39-5.8l.18,0s0,0,0,.15c-1.05,1.32-2,2.55-2.91,3.75a19,19,0,0,0,3.39-.41c0,.08,0,.16,0,.24a18.81,18.81,0,0,1-3.58.42c-1.13,1.53-2.18,3-3.2,4.6a22.73,22.73,0,0,0,6-.09l-.12.26a22.13,22.13,0,0,1-6,.06c-1.11,1.73-2.2,3.59-3.35,5.71Z" style="fill:#a5f1f2"/><path d="M132.56,185.53c-.48-1.26-1.42-.64-2.34-.43-.66,0-1.22-.69-1.89-.49-1.31.76-.06,4.16.26,5.38l2.71.09C131.83,188.63,133.17,187.15,132.56,185.53Z" style="fill:#ff6aa5"/><path d="M132.56,185.53c-.19-.5-.46-.71-.76-.76l.11.19c.82,1.52-.3,3.17-.63,4.68l-2.69.28a1.17,1.17,0,0,1-.05-.11c0,.07,0,.13.05.18l2.71.09C131.83,188.63,133.17,187.15,132.56,185.53Z" style="fill:#eb5590"/><path d="M125.48,186.48c-1.32-.21-1.26.91-1.53,1.81-.3.59-1.22.71-1.38,1.39,0,1.52,3.58,2.14,4.79,2.47l1.43-2.3C127.8,188.67,127.19,186.76,125.48,186.48Z" style="fill:#ff6aa5"/><path d="M125.48,186.48a1,1,0,0,0-1,.28h.22c1.73.05,2.59,1.85,3.73,2.88l-1.1,2.48-.11,0,.17.05,1.43-2.3C127.8,188.67,127.19,186.76,125.48,186.48Z" style="fill:#eb5590"/><path d="M122.77,193.08c-.85,1,.15,1.55.8,2.24.36.55,0,1.41.52,1.89,1.32.75,3.64-2,4.53-2.92l-1.28-2.39C125.82,192.17,123.87,191.75,122.77,193.08Z" style="fill:#ff6aa5"/><path d="M122.77,193.08a1,1,0,0,0-.27,1l.1-.19c.91-1.47,2.9-1.32,4.37-1.79l1.59,2.19-.07.09.13-.13-1.28-2.39C125.82,192.17,123.87,191.75,122.77,193.08Z" style="fill:#eb5590"/><path d="M127.13,198.74c.48,1.25,1.42.64,2.34.42.66,0,1.22.7,1.89.5,1.31-.77.07-4.17-.26-5.39l-2.7-.08C127.87,195.64,126.53,197.12,127.13,198.74Z" style="fill:#ff6aa5"/><path d="M127.13,198.74c.19.5.46.7.77.75l-.12-.19c-.82-1.52.31-3.17.63-4.67l2.7-.29s0,.07,0,.11a1.21,1.21,0,0,0-.05-.18l-2.7-.08C127.87,195.64,126.53,197.12,127.13,198.74Z" style="fill:#eb5590"/><path d="M134.21,197.78c1.33.22,1.26-.9,1.53-1.81.3-.59,1.22-.71,1.38-1.39,0-1.52-3.57-2.14-4.79-2.47l-1.43,2.31C131.89,195.6,132.5,197.5,134.21,197.78Z" style="fill:#ff6aa5"/><path d="M134.21,197.78a1,1,0,0,0,1-.28H135c-1.72,0-2.59-1.85-3.73-2.89l1.1-2.48.12,0-.18,0-1.43,2.31C131.89,195.6,132.5,197.5,134.21,197.78Z" style="fill:#eb5590"/><path d="M136.92,191.18c.85-1-.15-1.55-.8-2.24-.36-.55,0-1.4-.51-1.89-1.33-.75-3.64,2-4.54,2.92l1.28,2.39C133.87,192.09,135.82,192.51,136.92,191.18Z" style="fill:#ff6aa5"/><path d="M136.92,191.18a1,1,0,0,0,.27-1,1.74,1.74,0,0,1-.1.19c-.91,1.48-2.9,1.33-4.37,1.8l-1.59-2.19.07-.1-.13.13,1.28,2.39C133.87,192.09,135.82,192.51,136.92,191.18Z" style="fill:#eb5590"/><path d="M127.12,192.13a2.73,2.73,0,1,1,2.73,2.73A2.72,2.72,0,0,1,127.12,192.13Z" style="fill:#ffc3db"/><polygon points="135.21 229.89 134.95 231.91 133.26 245.32 118.31 245.32 116.43 231.91 116.15 229.89 135.21 229.89" style="fill:#ff6aa5"/><path d="M134.84,229.89H116.52a2,2,0,0,1-2.22-1.82h0a2,2,0,0,1,2.22-1.81h18.32a2,2,0,0,1,2.22,1.81h0A2,2,0,0,1,134.84,229.89Z" style="fill:#ff6aa5"/><path d="M116.15,229.89l.38,2.74c8.72-.7,15.91,5,16.73,12.69l2-15.43Z" style="fill:#db5389"/><path d="M83.28,235.54s5.13,6.17,9.79,9.57a14.05,14.05,0,0,0,3.17,1.82c6.78,2.58,22.44.55,22.44.55,4.93,2.52,11.16,1,12.39-.83,2.18-3.33-5.9-.19-6.68-2.18,0,0,3.72-2,2.67-3.5s-7.51,2.47-7.51,2.47a62.23,62.23,0,0,0-19.38-4.6c-.5-.7-1-1.41-1.51-2.1-3.74-5-8.07-9.48-14-12.48C81.84,228,81.93,231.76,83.28,235.54Z" style="fill:#f9cbcb"/><path d="M91.61,245.27l8.1-9c-3.74-5-10.89-15.84-15.88-11.5C77.18,230.5,87,241.88,91.61,245.27Z" style="fill:#8988f7"/><path d="M360.23,52.68h-.06l-.54-.24a.17.17,0,0,1-.1-.23.18.18,0,0,1,.23-.1l.56.24a.17.17,0,0,1,.08.24A.16.16,0,0,1,360.23,52.68Z" style="fill:#706fe3"/><path d="M327.23,63.2l-.06,0a.18.18,0,0,1-.08-.24c.17-.34.35-.7.55-1a.18.18,0,0,1,.24-.06.17.17,0,0,1,.07.24c-.19.34-.37.69-.54,1A.17.17,0,0,1,327.23,63.2Zm1.15-2-.08,0a.19.19,0,0,1-.05-.25c.21-.33.43-.66.66-1a.2.2,0,0,1,.26,0,.19.19,0,0,1,0,.25q-.34.48-.66,1A.2.2,0,0,1,328.38,61.16Zm1.38-1.9-.1,0a.18.18,0,0,1,0-.25c.25-.31.51-.61.77-.9a.18.18,0,0,1,.25,0,.19.19,0,0,1,0,.26c-.26.28-.52.58-.76.88A.19.19,0,0,1,329.76,59.26Zm1.56-1.74a.24.24,0,0,1-.11-.06.18.18,0,0,1,0-.25c.28-.28.57-.55.86-.81a.18.18,0,0,1,.24.26c-.29.26-.57.53-.84.8A.22.22,0,0,1,331.32,57.52ZM333.06,56a.21.21,0,0,1-.12-.07.18.18,0,0,1,0-.25q.45-.37.93-.72a.18.18,0,0,1,.21.29c-.31.23-.62.46-.92.71A.2.2,0,0,1,333.06,56ZM335,54.56a.16.16,0,0,1-.13-.08.18.18,0,0,1,.05-.25c.33-.21.66-.42,1-.62a.19.19,0,0,1,.25.06.18.18,0,0,1-.07.25c-.33.2-.66.4-1,.61A.14.14,0,0,1,335,54.56Zm2-1.19a.17.17,0,0,1-.14-.09.18.18,0,0,1,.07-.24c.35-.19.7-.36,1.06-.53a.18.18,0,0,1,.24.09.17.17,0,0,1-.09.23l-1,.52A.12.12,0,0,1,337,53.37Zm2.12-1a.21.21,0,0,1-.15-.11A.19.19,0,0,1,339,52c.36-.15.73-.29,1.1-.42a.18.18,0,0,1,.23.1.18.18,0,0,1-.11.23c-.36.13-.73.28-1.08.42A.15.15,0,0,1,339.09,52.38Zm2.2-.8a.17.17,0,0,1-.15-.13.17.17,0,0,1,.12-.22c.37-.12.75-.22,1.13-.32a.18.18,0,1,1,.09.34l-1.12.32Zm2.27-.59a.17.17,0,0,1-.16-.14.17.17,0,0,1,.14-.21c.38-.08.77-.16,1.16-.22a.18.18,0,1,1,.06.36c-.38.06-.77.13-1.15.21Zm15,1h0q-.54-.2-1.11-.36a.18.18,0,0,1-.12-.22.17.17,0,0,1,.22-.12c.38.11.76.23,1.13.36a.18.18,0,0,1,.11.23A.2.2,0,0,1,358.58,52Zm-12.71-1.43a.17.17,0,0,1-.16-.15.18.18,0,0,1,.16-.2c.39,0,.78-.08,1.17-.11a.18.18,0,1,1,0,.35l-1.16.11Zm10.47.76h0l-1.14-.27a.17.17,0,0,1-.13-.21.17.17,0,0,1,.21-.14l1.15.27a.2.2,0,0,1,.13.22A.2.2,0,0,1,356.34,51.37Zm-8.13-.93a.18.18,0,0,1,0-.35c.39,0,.79,0,1.18,0a.18.18,0,0,1,0,.36c-.39,0-.78,0-1.17,0Zm5.83.43h0l-1.15-.18a.18.18,0,1,1,.05-.35l1.16.18a.19.19,0,0,1,.15.21A.18.18,0,0,1,354,50.87Zm-3.49-.4a.18.18,0,0,1-.16-.18.18.18,0,0,1,.19-.17l1,.07h.13a.19.19,0,0,1,.17.2.18.18,0,0,1-.2.16h-.13l-1-.08Z" style="fill:#706fe3"/><path d="M326.56,64.84h0a.18.18,0,0,1-.12-.22s.07-.22.21-.58a.18.18,0,0,1,.33.13c-.13.35-.19.55-.19.55A.21.21,0,0,1,326.56,64.84Z" style="fill:#706fe3"/><path d="M328.59,64.86l-.06,0a.17.17,0,0,1-.08-.24c.17-.35.35-.7.55-1a.19.19,0,0,1,.25-.06.17.17,0,0,1,.06.24c-.19.34-.37.69-.54,1A.19.19,0,0,1,328.59,64.86Zm1.15-2a.11.11,0,0,1-.07,0,.18.18,0,0,1-.06-.25c.22-.33.44-.65.67-1a.18.18,0,0,1,.29.21c-.22.31-.45.63-.65,1A.18.18,0,0,1,329.74,62.82Zm1.38-1.9a.12.12,0,0,1-.09,0,.17.17,0,0,1,0-.25c.24-.3.5-.6.77-.89a.18.18,0,0,1,.25,0,.19.19,0,0,1,0,.26c-.26.28-.51.58-.76.88A.17.17,0,0,1,331.12,60.92Zm1.58-1.73a.22.22,0,0,1-.11,0,.19.19,0,0,1,0-.26c.28-.27.57-.55.86-.81a.18.18,0,0,1,.24.27c-.29.26-.57.53-.85.8A.19.19,0,0,1,332.7,59.19Zm1.74-1.56a.25.25,0,0,1-.12-.07.18.18,0,0,1,0-.25c.31-.25.62-.49.94-.72a.18.18,0,1,1,.21.29l-.92.71A.23.23,0,0,1,334.44,57.63Zm1.9-1.38a.18.18,0,0,1-.13-.08.19.19,0,0,1,.05-.25l1-.62a.17.17,0,0,1,.24.07.18.18,0,0,1-.06.24c-.34.2-.67.4-1,.61A.18.18,0,0,1,336.34,56.25Zm2-1.18a.18.18,0,0,1-.06-.34c.34-.18.7-.36,1.06-.52a.18.18,0,0,1,.23.08.17.17,0,0,1-.08.24l-1.05.52A.16.16,0,0,1,338.36,55.07Zm2.13-1a.19.19,0,0,1-.15-.11.19.19,0,0,1,.1-.24c.36-.14.73-.29,1.1-.42a.19.19,0,0,1,.23.11.19.19,0,0,1-.11.23c-.36.13-.73.27-1.09.42Zm2.2-.79a.17.17,0,0,1-.15-.13.17.17,0,0,1,.12-.22l1.14-.32a.18.18,0,0,1,.21.13.17.17,0,0,1-.13.22l-1.12.31Zm2.27-.58a.17.17,0,0,1-.15-.14.18.18,0,0,1,.13-.21l1.17-.21a.17.17,0,0,1,.2.14.18.18,0,0,1-.15.21c-.38.06-.77.13-1.14.21Zm15,1.1h0l-1.11-.36a.17.17,0,0,1-.12-.22.18.18,0,0,1,.22-.12l1.13.37a.18.18,0,0,1,.11.22A.17.17,0,0,1,360,53.81Zm-12.71-1.47a.17.17,0,0,1-.15-.15.18.18,0,0,1,.15-.2c.39-.05.79-.08,1.18-.11a.18.18,0,1,1,0,.36c-.38,0-.77.06-1.15.1Zm10.46.79h0c-.37-.1-.76-.19-1.13-.27a.18.18,0,0,1-.14-.22.18.18,0,0,1,.21-.13c.39.08.77.17,1.15.27a.18.18,0,0,1,.13.22A.18.18,0,0,1,357.73,53.13Zm-8.12-1a.18.18,0,0,1-.16-.17.19.19,0,0,1,.18-.19h1.18A.17.17,0,0,1,351,52a.18.18,0,0,1-.18.18h-1.19Zm5.83.45h0c-.38-.07-.76-.13-1.15-.18a.18.18,0,0,1-.15-.2.18.18,0,0,1,.2-.16l1.17.19a.18.18,0,0,1,.14.21A.18.18,0,0,1,355.44,52.63ZM352,52.22a.17.17,0,0,1-.15-.19.18.18,0,0,1,.19-.17l1.17.1a.18.18,0,1,1,0,.35L352,52.22Z" style="fill:#706fe3"/><path d="M327.91,66.49h0a.2.2,0,0,1-.12-.23s.07-.21.21-.57a.18.18,0,0,1,.24-.1.18.18,0,0,1,.1.23,4.8,4.8,0,0,0-.2.55A.18.18,0,0,1,327.91,66.49Z" style="fill:#706fe3"/><path d="M359,54.88h0s-.2-.06-.57-.14a.17.17,0,0,1-.13-.21.17.17,0,0,1,.21-.14c.38.08.58.14.59.14a.17.17,0,0,1,.12.22A.16.16,0,0,1,359,54.88Z" style="fill:#706fe3"/><path d="M328.3,70.83h0a.19.19,0,0,1-.13-.23c.11-.37.23-.75.37-1.12a.18.18,0,0,1,.23-.11.19.19,0,0,1,.11.23c-.14.37-.26.74-.36,1.1A.18.18,0,0,1,328.3,70.83Zm.79-2.2-.06,0a.17.17,0,0,1-.09-.23c.15-.36.31-.72.49-1.08a.18.18,0,0,1,.32.16c-.17.35-.33.7-.48,1.06A.2.2,0,0,1,329.09,68.63Zm1-2.11-.07,0a.18.18,0,0,1-.07-.25c.19-.34.39-.68.6-1a.19.19,0,0,1,.25-.06.18.18,0,0,1,.05.25c-.2.33-.4.66-.59,1A.18.18,0,0,1,330.12,66.52Zm1.25-2a.16.16,0,0,1-.09,0,.18.18,0,0,1,0-.25c.22-.32.46-.64.7-1a.18.18,0,0,1,.25,0,.17.17,0,0,1,0,.25c-.23.31-.47.62-.69.93A.18.18,0,0,1,331.37,64.54Zm1.45-1.84a.22.22,0,0,1-.11-.05.17.17,0,0,1,0-.25c.25-.29.52-.59.8-.87a.18.18,0,0,1,.25.25c-.27.28-.53.57-.78.86A.22.22,0,0,1,332.82,62.7ZM334.44,61a.16.16,0,0,1-.11,0,.19.19,0,0,1,0-.26c.28-.26.58-.53.88-.78a.18.18,0,0,1,.25,0,.17.17,0,0,1,0,.25c-.29.25-.59.51-.87.78A.18.18,0,0,1,334.44,61Zm1.79-1.51a.19.19,0,0,1-.13-.07.18.18,0,0,1,0-.25c.31-.24.63-.47.95-.7a.18.18,0,1,1,.2.3c-.31.22-.63.45-.93.68A.22.22,0,0,1,336.23,59.5Zm1.92-1.34a.18.18,0,0,1-.13-.08.18.18,0,0,1,.05-.25c.33-.21.67-.42,1-.61a.18.18,0,0,1,.25.07.17.17,0,0,1-.07.24l-1,.6A.2.2,0,0,1,338.15,58.16Zm2-1.16a.18.18,0,0,1-.15-.1.18.18,0,0,1,.08-.24c.35-.18.71-.35,1.07-.51a.17.17,0,0,1,.23.09.18.18,0,0,1-.09.24l-1.05.5A.15.15,0,0,1,340.19,57Zm2.13-1a.2.2,0,0,1-.15-.12.19.19,0,0,1,.1-.23l1.11-.41a.19.19,0,0,1,.23.11.18.18,0,0,1-.11.23c-.37.13-.74.26-1.09.41Zm2.22-.77a.17.17,0,0,1-.16-.12.19.19,0,0,1,.12-.23l1.14-.31a.18.18,0,0,1,.22.14.18.18,0,0,1-.13.21c-.38.1-.76.2-1.12.31Zm2.27-.56a.19.19,0,0,1-.16-.14.18.18,0,0,1,.14-.21l1.16-.21a.18.18,0,0,1,.21.15.18.18,0,0,1-.15.2c-.38.06-.77.13-1.15.21Zm2.32-.37a.16.16,0,0,1-.16-.15.17.17,0,0,1,.15-.2c.39-.05.78-.09,1.18-.12a.19.19,0,0,1,.19.17.18.18,0,0,1-.17.19l-1.16.11Zm2.33-.17a.19.19,0,0,1-.16-.18.17.17,0,0,1,.17-.18c.39,0,.79,0,1.18,0a.18.18,0,0,1,0,.36c-.39,0-.78,0-1.16,0Zm5.84.35h0l-1.15-.16a.18.18,0,1,1,0-.36l1.17.17a.18.18,0,1,1-.05.35Zm-3.49-.35a.18.18,0,0,1-.17-.18.19.19,0,0,1,.19-.18l1.18.07a.19.19,0,0,1,.16.2.17.17,0,0,1-.19.16l-1.16-.07Z" style="fill:#706fe3"/><path d="M327.91,72.56h0a.18.18,0,0,1-.16-.2s0-.22.11-.6a.17.17,0,0,1,.21-.14.18.18,0,0,1,.14.21,5.2,5.2,0,0,0-.1.57A.19.19,0,0,1,327.91,72.56Z" style="fill:#706fe3"/><path d="M330.57,72.47h0a.19.19,0,0,1-.12-.23c.11-.37.23-.75.36-1.12A.18.18,0,0,1,331,71a.17.17,0,0,1,.11.23c-.13.37-.25.74-.36,1.1A.16.16,0,0,1,330.57,72.47Zm.78-2.21h-.05a.18.18,0,0,1-.1-.23c.16-.36.32-.73.49-1.08a.18.18,0,0,1,.24-.08.18.18,0,0,1,.09.24c-.17.35-.34.7-.49,1.05A.16.16,0,0,1,331.35,70.26Zm1-2.1-.07,0a.19.19,0,0,1-.07-.25c.19-.34.4-.68.61-1a.17.17,0,0,1,.24-.06.18.18,0,0,1,.06.25c-.21.33-.41.66-.59,1A.19.19,0,0,1,332.38,68.16Zm1.25-2-.08,0a.17.17,0,0,1-.05-.25c.23-.32.47-.64.71-1a.18.18,0,0,1,.28.22c-.24.3-.47.62-.69.93A.2.2,0,0,1,333.63,66.18Zm1.45-1.84a.24.24,0,0,1-.1,0,.19.19,0,0,1,0-.25c.26-.29.53-.59.8-.87a.19.19,0,0,1,.26,0,.18.18,0,0,1,0,.25c-.27.28-.53.57-.79.86A.2.2,0,0,1,335.08,64.34Zm1.63-1.69a.16.16,0,0,1-.11,0,.19.19,0,0,1,0-.26c.29-.26.59-.53.89-.78a.17.17,0,0,1,.25,0,.19.19,0,0,1,0,.25q-.45.38-.87.78A.18.18,0,0,1,336.71,62.65Zm1.79-1.51a.21.21,0,0,1-.13-.07.19.19,0,0,1,0-.25c.31-.24.63-.47,1-.7a.18.18,0,0,1,.25,0,.19.19,0,0,1-.05.25l-.94.69A.17.17,0,0,1,338.5,61.14Zm1.92-1.34a.19.19,0,0,1-.14-.09.17.17,0,0,1,.06-.24c.33-.21.67-.42,1-.61a.17.17,0,0,1,.24.07.18.18,0,0,1-.06.24c-.34.19-.67.39-1,.6A.23.23,0,0,1,340.42,59.8Zm2-1.16a.18.18,0,0,1-.14-.1.17.17,0,0,1,.08-.24c.35-.18.7-.35,1.06-.51a.18.18,0,1,1,.15.33l-1.05.5A.16.16,0,0,1,342.45,58.64Zm2.14-1a.17.17,0,0,1-.15-.12.18.18,0,0,1,.1-.23c.36-.14.73-.28,1.11-.41a.18.18,0,0,1,.22.11.17.17,0,0,1-.11.23l-1.09.4Zm2.21-.77a.16.16,0,0,1-.15-.13.17.17,0,0,1,.12-.22l1.14-.31a.2.2,0,0,1,.22.13.18.18,0,0,1-.14.22c-.37.09-.75.2-1.12.31Zm2.28-.56a.18.18,0,0,1-.16-.14.18.18,0,0,1,.14-.22l1.16-.2a.18.18,0,0,1,.21.14.2.2,0,0,1-.15.21c-.39.06-.77.13-1.15.21Zm2.31-.37a.18.18,0,0,1-.16-.16.19.19,0,0,1,.16-.2l1.17-.11a.17.17,0,0,1,.19.17.17.17,0,0,1-.16.19l-1.16.11Zm2.34-.18a.18.18,0,0,1,0-.35c.39,0,.79,0,1.18,0a.18.18,0,0,1,.18.18.18.18,0,0,1-.18.17l-1.17,0Zm5.84.36h0c-.38-.06-.76-.12-1.16-.16a.19.19,0,0,1-.15-.2.18.18,0,0,1,.2-.16c.39,0,.79.1,1.17.17a.17.17,0,0,1,.14.2A.17.17,0,0,1,359.57,56.16Zm-3.5-.35a.19.19,0,0,1-.16-.19.18.18,0,0,1,.19-.17l1.17.07a.19.19,0,0,1,.17.2.18.18,0,0,1-.19.16l-1.17-.07Z" style="fill:#706fe3"/><path d="M330.18,74.2h0A.18.18,0,0,1,330,74s0-.22.11-.6a.18.18,0,0,1,.21-.14.17.17,0,0,1,.14.21c-.07.36-.1.57-.1.57A.18.18,0,0,1,330.18,74.2Z" style="fill:#706fe3"/><path d="M383.12,55.37s.06,3.46-5.19,3.72-16.81-4.41-16.81-4.41l-.83-2.82a5.69,5.69,0,0,0-2.53,4.72l2.75-.51s15.31,8.93,24.38,6.3Z" style="fill:#ff6ea7"/><path d="M383.12,55.37a2.63,2.63,0,0,1,0,.39l-.36,2.4c-.26,2.19,1.28,3.51-.19,3.92-5.72,1.59-18.59-4.21-21.73-6.4l-3,.64a2.11,2.11,0,0,0,0,.26l2.75-.51s15.31,8.93,24.38,6.3Z" style="fill:#e04e88"/><path d="M402.65,56.3l-.23-1c1.92-.47,2.93-1.59,2.9-3.25,0-2.24-2-4.92-3.94-5.31-3.08-.63-5,4.7-5,4.75l-.95-.33c.08-.25,2.22-6.23,6.17-5.41,2.39.49,4.7,3.54,4.75,6.28C406.37,54.18,405,55.73,402.65,56.3Z" style="fill:#ff6ea7"/><path d="M401.64,46.83a2.25,2.25,0,0,0-.54-.17c-3.09-.64-5,4.7-5,4.75l-.67-.23h0l.95.33s1.93-5.38,5-4.75Z" style="fill:#e04e88"/><path d="M402,45.87A7.25,7.25,0,0,1,406.05,52a4.17,4.17,0,0,1-3.44,4.18l0,.17c2.38-.57,3.72-2.12,3.69-4.25A7.18,7.18,0,0,0,402,45.87Z" style="fill:#e04e88"/><path d="M399,61.43,389,63.29A5.28,5.28,0,0,1,382.72,58a10.52,10.52,0,0,1,2.51-6.55,10.49,10.49,0,0,1,17.69,2.81A5.27,5.27,0,0,1,399,61.43Z" style="fill:#ff6ea7"/><path d="M402.92,54.24a10.51,10.51,0,0,0-7.18-6.19l-.43-.09a10.47,10.47,0,0,1,5.88,5.77,5.27,5.27,0,0,1-3.92,7.19l-10,1.86a5.48,5.48,0,0,1-1.56.06,5.24,5.24,0,0,0,3.29.45L399,61.43A5.27,5.27,0,0,0,402.92,54.24Z" style="fill:#e04e88"/><path d="M395.74,48.05c-.38.77-2,1.58-4.08,2s-3.85.21-4.5-.35a10.34,10.34,0,0,1,4.14-1.75A10.51,10.51,0,0,1,395.74,48.05Z" style="fill:#e04e88"/><path d="M410.81,49.77s-3.88-1.69-4.85-2.27c-1.46-.86-2.64-.2-1,1,.87.66-1.57.38-1.31,2s-.25,3.56,2.19,3.14,3.2.79,3.2.79Z" style="fill:#f9cbcb"/><path d="M451.29,55.35c-4.81,4.24-18,10.24-22.39,9.41-4.18-.8-20.71-10.22-20.71-10.22l2.35-5.32,18.84,7.56s12.64-10.24,19.14-10A4.8,4.8,0,0,1,451.29,55.35Z" style="fill:#706fe3"/><path d="M444.45,62c.33-1.35.9-2.64,1.29-4,.88-3,.86-6.2,1.38-9.28s1.75-6.3,4.35-8l-1.93-4.63c-2-1.67-1.81-5.19.08-7a6.67,6.67,0,0,1,7.3-.88,5.15,5.15,0,0,1,2.57,2.32c.37.76.47,1.61.77,2.4a12.74,12.74,0,0,0,2.94,3.85,6.44,6.44,0,0,1,2.13,4.27c0,1.11-.55,2.64-.66,3.74-.3,2.79,2.54,3.4,4.52,5.36s3.47,5.7,2.95,8.45A12.36,12.36,0,0,1,470.58,62a15.78,15.78,0,0,0-1.45,3.88,30.61,30.61,0,0,1-1.12,5c-.64,1.57-2,3-3.67,3-2.13,0-3.7-2.08-5.78-2.56-2.4-.56-4.72,1.2-7.18,1.38a6.75,6.75,0,0,1-6.12-3.48A9.82,9.82,0,0,1,444.45,62Z" style="fill:#35349c"/><path d="M462.56,86.05c-3.26-8.76-3.94-13.58-.32-21.26,4.85-10.24-.89-16.58-.89-16.58L456,45.92h-4.53c-5.34,1.95-12,3.66-7.66,18.63,2.82,9.66-.78,14.62-4.36,21.5Z" style="fill:#3e3279"/><path d="M462.24,65a26.07,26.07,0,0,0-2.07,6l-3.91-24.06c-3.11,10.89-6.1,27.86-6.55,39.5H439.46c3.57-6.94,7.07-11.91,4.36-21.7-4-14.58,1.31-17.28,7.66-18.81,1.62,3,3.1,2.34,4.53,0l5.34,2.31S467.09,54.63,462.24,65Z" style="fill:#fff"/><path d="M457.89,133c2.53,9,5.9,14.5,2.22,33.84,0,.24-.09.47-.13.71-.32,1.61-5.05.05-5.05.05-2.38-16.88-5.83-26.17-7.69-30.25a15.33,15.33,0,0,1-1.37-6.18c0-.59,0-1.25,0-2,0-2.57,0-5.88.15-9.66h0c.3-9.67,1.19-22.39,3.55-33.43l0-.14h8.27l4.61-.16a1.49,1.49,0,0,1,.09.3c6.77,20.19-2.39,29.87-4.33,43,0,0,0,.05,0,.08A29.18,29.18,0,0,0,457.89,133Z" style="fill:#f9cbcb"/><path d="M460.11,166.79l-.24.1c4.25-19.75-4.18-34-4.18-34l1.05-3.5,1.49-.35s0,.05,0,.08a29.18,29.18,0,0,0-.33,3.8C460.42,142,463.79,147.45,460.11,166.79Z" style="fill:#f0b4b4"/><path d="M446,119.48c-.55.94-1.14,1.86-1.74,2.76-1.54,2.29-3.22,4.52-5,6.91-1.36,1.82-2.77,3.74-4.22,5.84,1.89,9.89,2.46,14.85,1.2,24.4h0c-.24,1.85-.55,3.86-.94,6.11-.11.66-.23,1.34-.35,2h-5.11c0-10.12-3.34-20.2-6-30.63a7.07,7.07,0,0,1-.15-2.59c.19-1.57.41-3.3.68-5.18,1.64-11.7,4.93-28.94,14.94-43.1l.21-.3,12.33.11v0a.66.66,0,0,1,0,.14C453,103.11,450.4,112,446,119.48Z" style="fill:#f9cbcb"/><path d="M434.16,167.55a6.34,6.34,0,0,0,1.14-2c-.11.66-.23,1.34-.35,2Z" style="fill:#f0b4b4"/><path d="M439.27,129.15c-1.36,1.82-2.77,3.74-4.22,5.84,1.89,9.89,2.46,14.85,1.2,24.4.24-9.88-3.41-23.95-3.41-23.95s2.52-3.67,2.62-5.65-1.59-1.72-1.59-1.72l10.3-6.16s0,.12.1.33C442.73,124.53,441.05,126.76,439.27,129.15Z" style="fill:#f0b4b4"/><path d="M458.22,129.15a32.56,32.56,0,0,1-4.85.64c-11.77.61-22.07-4-29-.64,1.1-7.91,2.94-18.33,7.07-28.65a77.38,77.38,0,0,1,4.63-9.65c1-1.73,2.07-3.44,3.24-5.1h23.22C469.35,106.13,460.14,115.86,458.22,129.15Z" style="fill:#35349c"/><path d="M444.71,100.5c-2.32.71-8.6-2.23-13.24,0a77.38,77.38,0,0,1,4.63-9.65c5.5-2.13,10.77-4,10.77-4S447.84,99.55,444.71,100.5Z" style="fill:#262487"/><path d="M462.56,86.43H449.71c.45-11.64,3.44-28.61,6.55-39.5L460.17,71C459.21,75.78,460.22,80.08,462.56,86.43Z" style="fill:#f0e2e2"/><path d="M458.22,129.15a32.56,32.56,0,0,1-4.85.64c3.4-6.68,7.1-16.43,7.44-20.1,1-10.67-8-5.87-10.31-12.71-.75-2.23-1-6-.79-10.55h12.85c-2.34-6.35-3.35-10.65-2.39-15.44l2.39,14.76C469.35,106.13,460.14,115.86,458.22,129.15Z" style="fill:#262487"/><path d="M451.39,42l0,2,.05,1.9c-.09,3.44,4.21,3.34,4.53,0l-.81-3.73-.4-1.86-.14-.66-1.2.86Z" style="fill:#f9cbcb"/><rect x="441.92" y="85.24" width="17.2" height="1.63" style="fill:#182f57"/><path d="M453,95.51a4,4,0,0,0,3.38,3.39,21.71,21.71,0,0,0,4.77.17,24.83,24.83,0,0,0,4.88-.8c-4.9-16-1.89-23.47-1.66-33.06v0c.1-4.72,2.34-11.76-3-17-1.51-1.47-5.34-2.29-5.34-2.29C456.37,64.64,450.17,76.55,453,95.51Z" style="fill:#706fe3"/><path d="M451.48,45.92a9.4,9.4,0,0,0-8.21,4.88c-5,8.2-.72,14.26-3.81,28.44-1.12,5.1-4.15,10.37-7.54,18.4,3.28.93,6.57,1.84,9.91,1.36a4,4,0,0,0,3.32-3.06C449.69,76.91,446.41,66,451.48,45.92Z" style="fill:#706fe3"/><path d="M457.91,60.21c6.85,12.33-2.47,25.7,3.21,38.86a24.83,24.83,0,0,0,4.88-.8c-4.9-16-1.89-23.47-1.66-33.06v0Z" style="fill:#5857d4"/><path d="M462.72,85.18a2.08,2.08,0,0,0,0,2.18,11,11,0,0,1,1.26,3c0,.87-1.1,3-.79,3.67,1.44,2.94,6.35-2.17,3.92-7.71,0,0,1.48-1.12,3.47-2.83,3.91-3.39,9.78-9.1,10.05-13.12.47-7-19.25-22.12-19.25-22.12l1.18,14.68a51.28,51.28,0,0,0,10.93,8c-3,2.33-5.21,5.64-7.25,8.86C465,81.67,463.89,83.55,462.72,85.18Z" style="fill:#f9cbcb"/><path d="M461.93,63.12c4,3.7,6.36,4.69,11.53,7.78-3,2.33-5.21,5.64-7.25,8.86l4.34,3.69c3.91-3.39,9.78-9.1,10.05-13.12.47-7-19.25-22.12-19.25-22.12Z" style="fill:#706fe3"/><path d="M475.11,70.13c-1.87.42-10.54-4.76-10.54-4.76,2.89,2.21,3.78,2.48,8.89,5.53A3.33,3.33,0,0,1,475.11,70.13Z" style="fill:#5857d4"/><path d="M469.77,82.78l.78.67a52,52,0,0,0,7.82-8.15A51.21,51.21,0,0,1,469.77,82.78Z" style="fill:#5857d4"/><path d="M466.44,79.4c-.07.12-.15.24-.23.36l3.54,3Z" style="fill:#5857d4"/><path d="M435.07,166.89l1,3.43-.65,5.34-1,.05-1-4.67-1.68,3.1a2.84,2.84,0,0,1-2.06,1.64c-2.46.32-7.26.41-7.46-1.23s4.45-1.75,5.81-3.6a11.61,11.61,0,0,0,1.76-4.2A12.81,12.81,0,0,0,435.07,166.89Z" style="fill:#182f57"/><path d="M460.06,166.77l1,3.43-.65,5.34-1,.05-1-4.67-1.68,3.1a2.84,2.84,0,0,1-2.06,1.64c-2.46.33-7.26.41-7.46-1.23s4.45-1.75,5.81-3.6a11.82,11.82,0,0,0,1.76-4.2A7.11,7.11,0,0,0,460.06,166.77Z" style="fill:#182f57"/><path d="M451.39,42l0,2a4.67,4.67,0,0,0,2.27-.39,2.54,2.54,0,0,0,1.5-1.44l-.4-1.86-1.34.2Z" style="fill:#f0b4b4"/><path d="M449.56,31.23s2.14,5.53,5.64,5.8c0,0,2.68-2.16,3.06-1.38.85,1.72-2,3.23-2,3.23-.46,2.14-3.73,4.94-6,4.2C446.22,41.73,449.56,31.23,449.56,31.23Z" style="fill:#f9cbcb"/><path d="M283.27,246.7h0v0Z" style="fill:#f9cbcb"/><path d="M386.26,223.11c-1,3.74-9.18,4.37-10.78,6.95-2.07,4.33,2.36,9.79,3.07,14,.25,3.83-5.56,7-1.83,10.66h0c2.41,2.6.67,5.48-2.11,6.74-6.78,5,7.64,22.88-15.42,24.48-10.58-.43-19.48-1.52-25.39-.82h0a16,16,0,0,0-3.65.82,6.39,6.39,0,0,0-3,2.18,10.84,10.84,0,0,0-1.15,4.11c-1.4,10.09.24,34,4.06,47,.4,1.35.82,2.6,1.26,3.7l.15.37H252c.44-1.37,0-3.7,1.33-4.07,35.11-9.54,44.61-57,30-92.46l-.05-.1v-.12h0v0c-18.37,17.95-39.26-9.85-39.72-28-1.43-31.12,28.3-11.59,42-3.15,2.83.08,5.44-3.05,7.36-6.36a39.36,39.36,0,0,0,2.34-4.83c2.36-4.38.51-7.73,2.39-12.17,3-7.15,12.15-15.82,18.66-18.84l0,0h0a23,23,0,0,1-3.51-3.69v0c-.31-.4-.6-.79-.89-1.21v0a23.76,23.76,0,0,1-5.38-17,26.17,26.17,0,0,1,1.51-6.76c12.71-2.36,26.89-5.14,36.57-13,12.84,11.27,20.17,36.26,21.6,55.84C368.93,206.85,387,215.91,386.26,223.11Z" style="fill:#f9cbcb"/><path d="M333.83,285.11a16,16,0,0,0-3.65.82,6.39,6.39,0,0,0-3,2.18,10.84,10.84,0,0,0-1.15,4.11c-13-1.93-23.86-10.92-23.86-10.92C308.05,284.25,333.83,285.11,333.83,285.11Z" style="fill:#f0b9b9"/><path d="M331.48,343.34H252c.44-1.37,0-3.7,1.33-4.07,35.11-9.54,44.61-57,30-92.46,1.25,3,17.09,36.48,11.28,69.73-4.12,23.52,21.12,26.67,36.73,26.43Z" style="fill:#f0b9b9"/><path d="M322.44,141.44c.83,2.81,3.38,4.9,8.91,5.19l.67.05.56,0a22.57,22.57,0,0,1,4.64,1c15.67,5.09,26,25.57,26,25.57.13-1.15.24-2.26.31-3.36,1.36-20.92-8.65-32.71-18.32-39.16-.22.23-.45.45-.69.67a35.89,35.89,0,0,1-10,5.94c-1.41.6-2.92,1.18-4.51,1.73l-.14.06C327.55,140,325.07,140.73,322.44,141.44Z" style="fill:#35349c"/><path d="M308.4,232.2a67.87,67.87,0,0,0,2.52,14.74,76,76,0,0,1-1.75-14.76,43.48,43.48,0,0,1,2.16-14.53,40.07,40.07,0,0,1,7-12.81c3.17-3.75,6.61-7.45,9.56-11.5a49.91,49.91,0,0,0,7.34-13.18A32.18,32.18,0,0,0,337,170.3h0a39.64,39.64,0,0,0-.21-5.12,93.19,93.19,0,0,0-4.22-18.45c-.82-2.55-1.7-5.08-2.6-7.6l-.14.06c.75,2.49,1.49,5,2.18,7.49.36,1.33.72,2.66,1.05,4a85.59,85.59,0,0,1,2.64,14.59,37.74,37.74,0,0,1-.57,10.35h0a29.33,29.33,0,0,1-1.14,4.1,48.16,48.16,0,0,1-7.25,12.74c-1.49,2-3.06,3.88-4.64,5.79s-3.24,3.72-4.84,5.71a40.63,40.63,0,0,0-7.1,13.31A44.39,44.39,0,0,0,308.4,232.2Z" style="fill:#35349c"/><path d="M280.33,222.84a6.75,6.75,0,0,0-3.45-6.34c-5.7-3.31-18.6-10-22-5.22-4.46,6.22-1.66,19.22,3.93,26.19s15.86,8.41,20.34,3.43-2.44-6.87-3.05-10.49C275.58,227.57,279.92,227.27,280.33,222.84Z" style="fill:#f0b4b4"/><path d="M285,212.63c.13.9.29,1.81.5,2.74,0,0,0,0,0,.06,3.94,17.7,20.74,39.12,20.74,39.12-6.39-22.78-3.08-49.8,18.91-66.49a31.74,31.74,0,0,0,10-12.43h0A34.61,34.61,0,0,0,337,170.3h0c1.94-7.34,1.61-15.24.21-22.56a78.36,78.36,0,0,0-2.73-10.34c-1.41.6-2.92,1.18-4.51,1.73l-.14.06c-2.29.79-4.77,1.54-7.4,2.25-4.4,1.17-9.26,2.2-14.49,3.07q-.34.08-.69.12c-6,1-12.46,1.75-19.28,2.28l-1.53,1.55S282.4,194.48,285,212.63Z" style="fill:#35349c"/><path d="M194.25,136.71c.11,3,4.87,5.6,12.93,7.59h0l.34.08c12.68,3.08,33.31,4.71,56.9,4.13l3.42-.1,2.82-.11q3.13-.12,6.2-.3c2.17-.12,4.3-.25,6.41-.4,21.79-1.58,40.08-4.8,51-8.72.41-.14.8-.29,1.17-.43h0c6.22-2.37,10.12-4.74,10.12-7.41,0-2.09-8.46-5.62-21.61-8.22l-1.72-.33c-1.13-.21-2.29-.42-3.48-.61q-3.15-.52-6.59-1l-1.51-.2a251.72,251.72,0,0,0-38.85-1.79l-2.34.08c-1.91.08-3.8.17-5.68.28h0l-1.78.1-1.46.09a306.53,306.53,0,0,0-36.9,4.39h0C205.59,127.26,194.05,132,194.25,136.71Z" style="fill:#232265"/><path d="M265,106a6.23,6.23,0,0,0,.84,1.82,19.56,19.56,0,0,0,2.91,4.15,9.45,9.45,0,0,0,3,2.23l.47.2a2.57,2.57,0,0,0,.47.15,2.42,2.42,0,0,0,.36.1l.19,0a9.16,9.16,0,0,0,9.19-3.12c1.07-1.33,2.14-3.45,1.4-4.23-.15-.14-.34-.23-.43-.48-.21-.48.18-1,.64-1.68.85-1.3,1.29-1.94,1.23-2.49a8.56,8.56,0,0,0-.79-1.83c-.35-.72-.4-.75-.4-.91,0-.82,1.34-.88,2.15-2a3,3,0,0,0,.3-3c-.31-.52-.62-.51-1.32-1.43a3.74,3.74,0,0,1-.83-1.4c-.33-1.56,2.22-2.48,1.84-3.74-.19-.63-1-1.07-1.8-1.49s-1.11-.36-1.41-.57c-1.77-1.16,1.65-7.31.78-7.78-.67-.35-4.33,2.44-5.87,5.1a3.14,3.14,0,0,1-1.61,1.59c-1.1.41-1.79-.23-2.46.2-.33.22-.39.53-.83,3.41-.13.92-.22,1.55-.65,1.68s-.85-.33-1.45-.13a1.08,1.08,0,0,0-.52.38,5.79,5.79,0,0,0-.83,3.4c0,1.65.11,2.49-.25,2.61s-.72-.62-1.41-.58a1.45,1.45,0,0,0-1.05.76c-.25.45-.16.9.26,2.21s.55,1.54.75,2.26c.36,1.24.69,2.36.23,2.64s-1-.42-1.93-.18A1.57,1.57,0,0,0,265,106Z" style="fill:#00b7bb"/><path d="M268.32,106.53c0,.85.84,1.32,1.4,1.78a12.11,12.11,0,0,1,1.5,1.45,12.48,12.48,0,0,1,2.1,3.36h0c.38-1.5.89-3,1.36-4.43a33.79,33.79,0,0,0,1.22-4.57,21.27,21.27,0,0,0,.22-3.9h0c-.92-1.15-2.22-1.86-3.22-2.91a3,3,0,0,1-.76-3.53c.06-.1.21,0,.15.11-.73,1.27.1,2.7,1,3.57a32.57,32.57,0,0,1,2.78,2.46h0c0-.15,0-.31,0-.46a14.79,14.79,0,0,1,.23-3.76,24,24,0,0,1,.76-2.5,6.76,6.76,0,0,1-1.26-3.9c0-.12.19-.11.19,0A6.48,6.48,0,0,0,277.18,93a1.12,1.12,0,0,1,.05-.13,59.6,59.6,0,0,1,2.45-5.76c.09-.17.17-.33.25-.5s.24,0,.18.07a55.69,55.69,0,0,0-2.39,5.42c-.37,1-.73,2-1,3a6.46,6.46,0,0,0-.17.7h0a2.64,2.64,0,0,0,1.71-1,5.72,5.72,0,0,1,1.41-1A6,6,0,0,1,283,93c.12,0,.1.2,0,.19a5.85,5.85,0,0,0-3.54.8A7.79,7.79,0,0,0,278,95.15a2.22,2.22,0,0,1-1.54.76h0a11.88,11.88,0,0,0-.23,2.23c0,1.56.15,3.11,0,4.66a23.24,23.24,0,0,1-.94,4.44l-.12.37h0a9.85,9.85,0,0,0,4.37-2.23,4.16,4.16,0,0,0,.69-.93,6.78,6.78,0,0,1,.57-1,3,3,0,0,1,1.8-.89.1.1,0,0,1,0,.19,5.5,5.5,0,0,0-1.11.35,2,2,0,0,0-.8.81c-.19.34-.35.7-.57,1a4.77,4.77,0,0,1-.7.79,10.74,10.74,0,0,1-4.27,2.06h-.07c-.58,1.86-1.25,3.71-1.71,5.6v0a.09.09,0,0,1,0,0h0c-.09.4-.18.79-.25,1.18l-.19,0c.07-.4.16-.79.26-1.19h0a12.63,12.63,0,0,0-2.38-3.76,11.68,11.68,0,0,0-1.69-1.53,2,2,0,0,1-1.05-1.62A.1.1,0,0,1,268.32,106.53Z" style="fill:#fff"/><path d="M241.69,110.93a1.49,1.49,0,0,1,1-1.77,3.2,3.2,0,0,1,2.23.2,12.52,12.52,0,0,1,3,1.84c-.54-1-1-2-1.52-3.07-.31-.68-.6-1.38-.89-2.08a8.69,8.69,0,0,1-5.05.22,2.07,2.07,0,0,1-1.52-1.08,1.51,1.51,0,0,1,1-1.78,3.2,3.2,0,0,1,2.21.2,12.87,12.87,0,0,1,3.14,1.91,45.29,45.29,0,0,1-2-6.66,8.63,8.63,0,0,1-4.94-.6A2,2,0,0,1,237,97a1.51,1.51,0,0,1,1.28-1.59,3.15,3.15,0,0,1,2.15.55,12.2,12.2,0,0,1,2.71,2.29,20.05,20.05,0,0,1-.33-7.36l0-.15a8.59,8.59,0,0,1-4.86-1.3,2,2,0,0,1-1.14-1.48,1.51,1.51,0,0,1,1.49-1.39,3.19,3.19,0,0,1,2.06.85A13,13,0,0,1,243,90.28c.58-2.78,1.67-5.47,2.15-8.26a8.64,8.64,0,0,1-4.95-1.3A2,2,0,0,1,239,79.24a1.49,1.49,0,0,1,1.49-1.39,3.2,3.2,0,0,1,2.05.84,13.79,13.79,0,0,1,2.6,3,13.68,13.68,0,0,0,.18-2.12,11.41,11.41,0,0,0-.81-4.27,8.65,8.65,0,0,1-5.23.06,2,2,0,0,1-1.48-1.14,1.5,1.5,0,0,1,1.09-1.73,3.14,3.14,0,0,1,2.2.29A13.63,13.63,0,0,1,244.43,75a15.06,15.06,0,0,0-4.16-5.67,8.61,8.61,0,0,1-4.74-.38,2.06,2.06,0,0,1-1.41-1.23,1.51,1.51,0,0,1,1.2-1.66,3.19,3.19,0,0,1,2.18.43,12.47,12.47,0,0,1,2.78,2.1.38.38,0,0,1,.13.06,15.56,15.56,0,0,1,3.76,4.51,12.72,12.72,0,0,1,.6,1.16,8.71,8.71,0,0,1,1-4.53,2.06,2.06,0,0,1,1.41-1.23,1.51,1.51,0,0,1,1.49,1.4,3.24,3.24,0,0,1-.72,2.11A13.9,13.9,0,0,1,245,75a11.16,11.16,0,0,1,.77,2.63,13.15,13.15,0,0,1,0,4.06,8.59,8.59,0,0,1,3-3.7,2,2,0,0,1,1.81-.45,1.5,1.5,0,0,1,.69,1.92A3.22,3.22,0,0,1,249.7,81a14.7,14.7,0,0,1-4,1.24c-.4,2.2-1.16,4.36-1.73,6.49-.18.68-.34,1.35-.47,2a8.69,8.69,0,0,1,3.17-4.1,2.08,2.08,0,0,1,1.81-.45,1.49,1.49,0,0,1,.69,1.92,3.16,3.16,0,0,1-1.59,1.55,14.64,14.64,0,0,1-4.11,1.27,13.33,13.33,0,0,0-.21,2.2,24,24,0,0,0,.35,4.06c.06.36.13.71.2,1.07a8.77,8.77,0,0,1,2.4-4.06,2.05,2.05,0,0,1,1.72-.72,1.48,1.48,0,0,1,1,1.79,3.18,3.18,0,0,1-1.33,1.78,14.17,14.17,0,0,1-3.64,1.79,43.73,43.73,0,0,0,2,6.51,8.69,8.69,0,0,1,1.44-4.69,2,2,0,0,1,1.52-1.09,1.49,1.49,0,0,1,1.35,1.53,3.27,3.27,0,0,1-.91,2,14.56,14.56,0,0,1-3.24,2.61c.11.28.22.56.34.84q1,2.28,2.14,4.47a8.66,8.66,0,0,1,1.44-4.57,2,2,0,0,1,1.52-1.08,1.5,1.5,0,0,1,1.35,1.53,3.22,3.22,0,0,1-.92,2,13.82,13.82,0,0,1-3.14,2.55,38.65,38.65,0,0,0,3.1,4.71c.24.32-.26.67-.49.36a38.4,38.4,0,0,1-3.13-4.77,8.71,8.71,0,0,1-5.08.21A2.08,2.08,0,0,1,241.69,110.93Z" style="fill:#c5c4ff"/><path d="M295.35,106.51a1.24,1.24,0,0,0-.89-1.44,2.76,2.76,0,0,0-1.84.24,10.69,10.69,0,0,0-2.46,1.62c.42-.85.8-1.71,1.16-2.59.24-.58.46-1.16.67-1.75a7.12,7.12,0,0,0,4.19,0,1.65,1.65,0,0,0,1.23-.94,1.23,1.23,0,0,0-.89-1.43,2.66,2.66,0,0,0-1.83.23,10.77,10.77,0,0,0-2.54,1.68,37.3,37.3,0,0,0,1.48-5.58,7.14,7.14,0,0,0,4.07-.65,1.69,1.69,0,0,0,1.07-1.13,1.24,1.24,0,0,0-1.11-1.27,2.72,2.72,0,0,0-1.77.51,11.07,11.07,0,0,0-2.17,2,16.41,16.41,0,0,0,0-6.09l0-.13a7.11,7.11,0,0,0,4-1.23,1.69,1.69,0,0,0,.89-1.26,1.24,1.24,0,0,0-1.28-1.11,2.65,2.65,0,0,0-1.67.77,10.93,10.93,0,0,0-2,2.49c-.57-2.28-1.55-4.47-2-6.77a7.16,7.16,0,0,0,4.06-1.23,1.66,1.66,0,0,0,.89-1.26,1.24,1.24,0,0,0-1.28-1.11,2.67,2.67,0,0,0-1.67.77,11.3,11.3,0,0,0-2.06,2.56,11.43,11.43,0,0,1-.21-1.76,9.58,9.58,0,0,1,.53-3.55,7.15,7.15,0,0,0,4.34-.12,1.67,1.67,0,0,0,1.19-1,1.26,1.26,0,0,0-1-1.4,2.71,2.71,0,0,0-1.82.31,11.55,11.55,0,0,0-2.68,2,12.45,12.45,0,0,1,3.27-4.82,7.21,7.21,0,0,0,3.92-.47,1.7,1.7,0,0,0,1.12-1.06,1.25,1.25,0,0,0-1-1.34,2.67,2.67,0,0,0-1.79.43,10.15,10.15,0,0,0-2.24,1.82.3.3,0,0,0-.11.06,12.83,12.83,0,0,0-3,3.85c-.17.32-.32.64-.46,1a7.14,7.14,0,0,0-1-3.72,1.69,1.69,0,0,0-1.2-1,1.23,1.23,0,0,0-1.19,1.2,2.65,2.65,0,0,0,.65,1.72,11.83,11.83,0,0,0,2.51,2.28,10.45,10.45,0,0,0-.56,2.2,11.11,11.11,0,0,0,.16,3.36,7.17,7.17,0,0,0-2.62-3,1.69,1.69,0,0,0-1.51-.32,1.25,1.25,0,0,0-.51,1.62A2.67,2.67,0,0,0,287.78,82a11.77,11.77,0,0,0,3.36.9c.4,1.81,1.1,3.58,1.64,5.33.17.55.32,1.1.45,1.66a7.15,7.15,0,0,0-2.76-3.29,1.69,1.69,0,0,0-1.51-.32,1.23,1.23,0,0,0-.51,1.61,2.68,2.68,0,0,0,1.37,1.24,12.22,12.22,0,0,0,3.44.91,11.06,11.06,0,0,1,.24,1.82,19,19,0,0,1-.17,3.37c0,.3-.08.6-.13.89a7.14,7.14,0,0,0-2.11-3.28,1.69,1.69,0,0,0-1.45-.54,1.24,1.24,0,0,0-.75,1.51,2.65,2.65,0,0,0,1.17,1.43,11.38,11.38,0,0,0,3.06,1.37,35.64,35.64,0,0,1-1.46,5.45,7.09,7.09,0,0,0-1.34-3.84,1.68,1.68,0,0,0-1.29-.85A1.23,1.23,0,0,0,288,98.64a2.64,2.64,0,0,0,.82,1.65,12.12,12.12,0,0,0,2.76,2.06c-.08.24-.16.47-.25.7a40.51,40.51,0,0,1-1.64,3.77,7.17,7.17,0,0,0-1.33-3.73,1.71,1.71,0,0,0-1.29-.86,1.25,1.25,0,0,0-1.07,1.32,2.66,2.66,0,0,0,.82,1.65,11.26,11.26,0,0,0,2.68,2,32.47,32.47,0,0,1-2.42,4c-.19.27.23.54.42.28a31.3,31.3,0,0,0,2.44-4,7.19,7.19,0,0,0,4.21,0A1.7,1.7,0,0,0,295.35,106.51Z" style="fill:#c5c4ff"/><path d="M241.71,106.06a7.78,7.78,0,0,1-.34,2.45,24.59,24.59,0,0,1-2,5.92,11.7,11.7,0,0,1-2.7,3.69l-.48.4a4.2,4.2,0,0,1-.51.35l-.39.25-.2.12a11.31,11.31,0,0,1-11.95-.4c-1.73-1.18-3.75-3.3-3.16-4.49a1.53,1.53,0,0,0,.35-.71c.07-.65-.57-1.09-1.36-1.76-1.47-1.22-2.21-1.83-2.34-2.49A10.35,10.35,0,0,1,217,107c.16-1,.21-1,.15-1.22-.33-1-1.89-.56-3.24-1.56a3.64,3.64,0,0,1-1.44-3.46c.18-.73.55-.83,1-2.16a4.78,4.78,0,0,0,.48-1.94c-.17-2-3.51-2.13-3.5-3.76,0-.8.81-1.62,1.59-2.4s1.17-.81,1.46-1.17c1.67-2-4.56-8-3.7-8.89.66-.65,6,1.33,8.73,3.92A3.82,3.82,0,0,0,221,85.6c1.44.09,2-.9,3-.64.47.15.65.49,2.19,3.73.48,1,.82,1.75,1.37,1.75s.89-.69,1.66-.67A1.27,1.27,0,0,1,230,90c1.23.78,1.89,2.74,2.19,3.71.62,1.94.76,3,1.23,3s.62-1,1.45-1.19a1.83,1.83,0,0,1,1.51.53c.46.44.5,1,.47,2.7s-.09,2-.06,2.93c0,1.58,0,3,.66,3.2s1.06-.87,2.21-.91a2.19,2.19,0,0,1,1.51.53A2.25,2.25,0,0,1,241.71,106.06Z" style="fill:#00b7bb"/><path d="M238,107.92c.36,1-.52,1.85-1,2.6a17.65,17.65,0,0,0-1.25,2.25,15.66,15.66,0,0,0-1.27,4.71v0c-1-1.63-2.11-3.18-3.18-4.72a40.89,40.89,0,0,1-3.07-5,26,26,0,0,1-1.65-4.52h0c.67-1.68,2-3,2.75-4.57.7-1.4.89-3.26-.35-4.43-.11-.1-.26.08-.15.18,1.32,1.24.85,3.21.05,4.58a40.93,40.93,0,0,0-2.4,3.88h0l-.15-.54A17.66,17.66,0,0,0,224.64,98a26.49,26.49,0,0,0-1.78-2.68,8.34,8.34,0,0,0,.1-5c-.05-.15-.27-.06-.22.08a8,8,0,0,1-.06,4.73l-.1-.14a73.53,73.53,0,0,0-5-5.92l-.47-.49c-.1-.11-.29,0-.19.14a69.25,69.25,0,0,1,4.75,5.53c.79,1,1.56,2.06,2.26,3.15a8.31,8.31,0,0,1,.44.76h0A3.27,3.27,0,0,1,222,97.5a7.29,7.29,0,0,0-2-.72,7.39,7.39,0,0,0-4.21.41c-.14.06-.06.28.08.22a7.32,7.32,0,0,1,4.46-.32,10.12,10.12,0,0,1,2.12.89,2.69,2.69,0,0,0,2.08.35h0a14,14,0,0,1,1.06,2.55c.57,1.83.94,3.71,1.66,5.49a27.78,27.78,0,0,0,2.69,4.9c.08.13.17.26.27.4h0a12.23,12.23,0,0,1-5.95-1.07,5.55,5.55,0,0,1-1.14-.85,7,7,0,0,0-1-1,3.65,3.65,0,0,0-2.43-.4.12.12,0,0,0,0,.23,6.21,6.21,0,0,1,1.43,0,2.46,2.46,0,0,1,1.24.66c.35.33.66.7,1,1a5.93,5.93,0,0,0,1.1.68,13.17,13.17,0,0,0,5.77.91s.06,0,.07,0h0c1.34,2,2.8,3.92,4,6v0a.05.05,0,0,0,0,.05h0c.25.43.5.86.72,1.3l.2-.12q-.34-.68-.72-1.32h0a15.45,15.45,0,0,1,1.46-5.28,15.78,15.78,0,0,1,1.45-2.4,2.51,2.51,0,0,0,.66-2.28A.12.12,0,0,0,238,107.92Z" style="fill:#fff"/><path d="M319.37,117.4a1.37,1.37,0,0,1,1-1,2.06,2.06,0,0,1,1.43.25,4.71,4.71,0,0,1,1.12,1,5.59,5.59,0,0,1,1.26,2.1,25,25,0,0,0,1.44-3.32l.1-.31-2.49-.67a4.33,4.33,0,0,1-1.58-.65,1.55,1.55,0,0,1-.67-1.49,1.36,1.36,0,0,1,1-1,2,2,0,0,1,1.43.25,4.34,4.34,0,0,1,1.13,1,5.44,5.44,0,0,1,1.27,2.17,23.75,23.75,0,0,0,.87-3.91l-2.5-.78a4.47,4.47,0,0,1-1.55-.71,1.53,1.53,0,0,1-.61-1.51,1.36,1.36,0,0,1,1.06-.93,2.08,2.08,0,0,1,1.43.31,4.49,4.49,0,0,1,1.09,1,5.87,5.87,0,0,1,1.15,2.07,21.58,21.58,0,0,0,.14-2.9c0-.29,0-.57,0-.86l-2.55-.88a4.48,4.48,0,0,1-1.53-.76,1.56,1.56,0,0,1-.56-1.53,1.38,1.38,0,0,1,1.1-.9,2,2,0,0,1,1.41.36,4.15,4.15,0,0,1,1.05,1,5.75,5.75,0,0,1,1,1.86,23.7,23.7,0,0,0-.43-2.89c-.6-.64-1.19-1.29-1.78-1.93a4.49,4.49,0,0,1-1-1.4,1.51,1.51,0,0,1,.24-1.61,1.36,1.36,0,0,1,1.38-.27,2.11,2.11,0,0,1,1.08,1,4.67,4.67,0,0,1,.43,1.42,5.18,5.18,0,0,1-.16,2.71h0a21.26,21.26,0,0,1,.46,3.07,6,6,0,0,1,1-2,4.59,4.59,0,0,1,1.06-1,2,2,0,0,1,1.41-.35,1.33,1.33,0,0,1,1.09.89,1.53,1.53,0,0,1-.55,1.53,4.5,4.5,0,0,1-1.53.77l-2.47.86a24.1,24.1,0,0,1-.12,3.8,5.76,5.76,0,0,1,1.55-1.75,4.35,4.35,0,0,1,1.28-.75,2,2,0,0,1,1.46,0,1.36,1.36,0,0,1,.84,1.13,1.54,1.54,0,0,1-.92,1.35,4.5,4.5,0,0,1-1.67.36l-2.61.22s0,.08,0,.12a26.2,26.2,0,0,1-.86,3.83,5.33,5.33,0,0,1,2-1.62,4.65,4.65,0,0,1,1.4-.48A2.06,2.06,0,0,1,331,114a1.36,1.36,0,0,1,.59,1.28,1.54,1.54,0,0,1-1.17,1.13,4.68,4.68,0,0,1-1.71,0l-2.68-.33,0,.06v0h0a23.57,23.57,0,0,1-1.47,3.52,5.93,5.93,0,0,1,2.24-.74,4.44,4.44,0,0,1,1.5,0,2.1,2.1,0,0,1,1.29.74,1.4,1.4,0,0,1,.16,1.43,1.55,1.55,0,0,1-1.49.72,4.49,4.49,0,0,1-1.66-.53l-2.26-1.06-.07,0a22.8,22.8,0,0,1-2.36,3.47c-.09.12-.29,0-.19-.12a23.37,23.37,0,0,0,2.32-3.42l-2.37-.63a4.48,4.48,0,0,1-1.58-.65A1.53,1.53,0,0,1,319.37,117.4Z" style="fill:#c5c4ff"/><path d="M318.06,111.71a14.87,14.87,0,0,1-6.28,1.68,21.5,21.5,0,0,1-8.32-.63c-.15,0-.41-.12-.75-.24h0l-.09,0-.37-.12c-2.52-.91-7.67-3.23-9.06-7.8-.09-.26-1.07-3.6.39-4.71,1.84-1.37,6.18,1.67,6.79.82.31-.43-.69-1.29-1.47-2.67-1.77-3.1-2.08-8,.42-10a4.69,4.69,0,0,1,4.56-.57c2.5,1,2.71,4.94,3,4.89s-2.14-7.3,1-10.35c1.09-1.07,3-1.71,4.18-1.11,1.75.88,1.24,4.1,2.17,4.25s1.38-3.43,4.58-5.84c.81-.6,2.73-2,4.75-1.47a4.34,4.34,0,0,1,2.11,7.09c-1.71,2.12-3.89,1.43-7.66,3.81-1.32.82-2.66,1.92-2.46,2.4s1.07,0,2.4.46a.3.3,0,0,1,.13,0,4.22,4.22,0,0,1,2.48,1.89,2.66,2.66,0,0,1,0,2.39,2,2,0,0,1-1.12.75c-2.4.78-5.13,2.47-5,2.86s4-.83,4.87.46c.74,1.07-1,3.32-1.18,3.61-1.86,2.4-4.72,3.22-4.63,3.42s2.16-1,4.57-.56c1.12.21,2.91.9,3.08,2C321.37,109.86,319,111.17,318.06,111.71Z" style="fill:#00b7bb"/><path d="M314.63,103.55a1.28,1.28,0,0,0-1.43-.28,5.22,5.22,0,0,0-1.66.89,17.94,17.94,0,0,1-3.14,2.43,3.16,3.16,0,0,1-2,.29,46.82,46.82,0,0,0,2-5.93L309,98.7c1.56-1.4,3.9-1.08,5.62-2.19a3,3,0,0,0,1.09-1.16c0-.09-.08-.14-.13-.06A3.84,3.84,0,0,1,313.19,97c-.95.29-1.95.42-2.88.77a4.71,4.71,0,0,0-1.22.68,32.5,32.5,0,0,1,2.22-5.9,14.27,14.27,0,0,1,5-5.73c.28-.17.56-.32.85-.46.08-.05,0-.18-.05-.14a13.15,13.15,0,0,0-5.29,5.09c-.22.36-.42.73-.61,1.1a.08.08,0,0,0,0,0c-1-.83-.79-2.21-.53-3.31a11.22,11.22,0,0,0,.34-1.82,2.07,2.07,0,0,0-.34-1.49c-.06-.07-.17,0-.11.09a2.31,2.31,0,0,1,.27,1.77c-.09.63-.28,1.25-.4,1.88a3,3,0,0,0,.68,3,.06.06,0,0,0,.08,0,34.89,34.89,0,0,0-2.45,6.65c-.36,1.26-.7,2.53-1.08,3.79a6.24,6.24,0,0,1-3.26-3.23,5.88,5.88,0,0,1-.45-2.42,12.14,12.14,0,0,0-.12-2.76,2.69,2.69,0,0,0-1.67-2c-.09,0-.14.1-.06.13a2.61,2.61,0,0,1,1.62,2.08,15.37,15.37,0,0,1,.09,2.8,5.56,5.56,0,0,0,.48,2.31,6.32,6.32,0,0,0,1.26,1.85,6.12,6.12,0,0,0,2.07,1.42,32.55,32.55,0,0,1-1.66,4.48,18.17,18.17,0,0,1-1.67,2.9c-.64-2.22-3-3.18-4.38-4.89a4,4,0,0,1-.81-1.7.08.08,0,0,0-.15,0c.44,2.31,2.86,3.35,4.28,5a4.24,4.24,0,0,1,.94,1.68s0,0,0,0a13,13,0,0,1-1.64,1.91l.09,0h0a15,15,0,0,0,2.63-3.43c.38-.67.72-1.37,1-2.07a4,4,0,0,0,3.13-.94,23.33,23.33,0,0,1,3-2.39c.53-.28,1.53-.68,2-.06A.07.07,0,0,0,314.63,103.55Z" style="fill:#fff"/><path d="M338.92,138a1.24,1.24,0,0,0,.13-1.69,2.69,2.69,0,0,0-1.62-.88,10.45,10.45,0,0,0-2.95-.15c.84-.44,1.66-.91,2.47-1.41.53-.32,1.05-.66,1.57-1a7.07,7.07,0,0,0,3.37,2.48,1.69,1.69,0,0,0,1.55,0,1.25,1.25,0,0,0,.13-1.69,2.72,2.72,0,0,0-1.62-.89,11.09,11.09,0,0,0-3-.14,37.21,37.21,0,0,0,4.48-3.63,7.21,7.21,0,0,0,3.68,1.87,1.66,1.66,0,0,0,1.52-.28,1.23,1.23,0,0,0-.14-1.68,2.62,2.62,0,0,0-1.73-.62,10.55,10.55,0,0,0-2.92.31,16.41,16.41,0,0,0,3.63-4.89l.05-.12a7.17,7.17,0,0,0,3.94,1.36,1.7,1.7,0,0,0,1.47-.49,1.24,1.24,0,0,0-.38-1.65,2.64,2.64,0,0,0-1.81-.37,10.88,10.88,0,0,0-3.08.82c.89-2.17,1.38-4.52,2.34-6.67a7.16,7.16,0,0,0,4,1.41,1.67,1.67,0,0,0,1.46-.5,1.25,1.25,0,0,0-.38-1.65,2.62,2.62,0,0,0-1.8-.36,11.19,11.19,0,0,0-3.17.85,12.81,12.81,0,0,1,.85-1.54,9.66,9.66,0,0,1,2.54-2.56,7.19,7.19,0,0,0,3.56,2.47,1.75,1.75,0,0,0,1.55-.1,1.24,1.24,0,0,0,.06-1.69,2.69,2.69,0,0,0-1.65-.82,11.26,11.26,0,0,0-3.33,0,12.42,12.42,0,0,1,5.48-2,7.17,7.17,0,0,0,3.44,1.94,1.71,1.71,0,0,0,1.53-.2,1.23,1.23,0,0,0-.05-1.69,2.65,2.65,0,0,0-1.7-.71,9.91,9.91,0,0,0-2.88.15l-.12,0a13.09,13.09,0,0,0-4.67,1.35c-.32.17-.64.34-.95.52a7.13,7.13,0,0,0,1.4-3.57,1.71,1.71,0,0,0-.39-1.5,1.26,1.26,0,0,0-1.68.27,2.7,2.7,0,0,0-.48,1.78,11.48,11.48,0,0,0,.68,3.32,9.37,9.37,0,0,0-1.75,1.45,11,11,0,0,0-1.85,2.8,7.17,7.17,0,0,0-.37-3.94,1.68,1.68,0,0,0-1-1.15,1.23,1.23,0,0,0-1.36,1,2.68,2.68,0,0,0,.37,1.8,11.9,11.9,0,0,0,2.19,2.71c-.74,1.7-1.23,3.53-1.82,5.26-.19.55-.39,1.09-.62,1.61a7.12,7.12,0,0,0-.28-4.28,1.71,1.71,0,0,0-1-1.15,1.25,1.25,0,0,0-1.37,1,2.63,2.63,0,0,0,.38,1.8,12.21,12.21,0,0,0,2.24,2.78,11.34,11.34,0,0,1-.88,1.6,19.84,19.84,0,0,1-2.12,2.63l-.63.64a7.25,7.25,0,0,0,.23-3.89,1.7,1.7,0,0,0-.85-1.3,1.24,1.24,0,0,0-1.5.79,2.69,2.69,0,0,0,.09,1.83,11.76,11.76,0,0,0,1.67,2.92,35.59,35.59,0,0,1-4.39,3.54,7.11,7.11,0,0,0,1.18-3.89,1.67,1.67,0,0,0-.54-1.45,1.23,1.23,0,0,0-1.63.43,2.63,2.63,0,0,0-.32,1.81,12,12,0,0,0,1,3.3l-.62.41c-1.15.75-2.33,1.45-3.54,2.08a7.2,7.2,0,0,0,1.12-3.8,1.71,1.71,0,0,0-.54-1.45,1.24,1.24,0,0,0-1.64.43,2.69,2.69,0,0,0-.31,1.81,11.26,11.26,0,0,0,1,3.21,32.6,32.6,0,0,1-4.32,1.81c-.31.1-.13.57.18.47a32.66,32.66,0,0,0,4.36-1.83,7.28,7.28,0,0,0,3.39,2.5A1.74,1.74,0,0,0,338.92,138Z" style="fill:#c5c4ff"/><path d="M221.1,122.82a1.37,1.37,0,0,0-1-1,2.05,2.05,0,0,0-1.43.25,4.37,4.37,0,0,0-1.13,1,5.57,5.57,0,0,0-1.25,2.1,23.78,23.78,0,0,1-1.44-3.32l-.1-.31,2.49-.67a4.48,4.48,0,0,0,1.58-.65,1.53,1.53,0,0,0,.66-1.49,1.36,1.36,0,0,0-1-1A2.08,2.08,0,0,0,217,118a4.71,4.71,0,0,0-1.12,1,5.46,5.46,0,0,0-1.28,2.17,23.84,23.84,0,0,1-.86-3.92l2.49-.77a4.52,4.52,0,0,0,1.56-.71,1.55,1.55,0,0,0,.61-1.51,1.36,1.36,0,0,0-1.07-.93,2.09,2.09,0,0,0-1.42.3,4.55,4.55,0,0,0-1.09,1,5.64,5.64,0,0,0-1.15,2.07,23.38,23.38,0,0,1-.15-2.9l0-.86,2.55-.88a4.77,4.77,0,0,0,1.53-.76,1.53,1.53,0,0,0,.55-1.53,1.35,1.35,0,0,0-1.09-.9,2.08,2.08,0,0,0-1.41.35,4.59,4.59,0,0,0-1.06,1.05,5.81,5.81,0,0,0-1,1.86,21.66,21.66,0,0,1,.43-2.89l1.77-1.93a4.52,4.52,0,0,0,1-1.4,1.55,1.55,0,0,0-.24-1.62,1.35,1.35,0,0,0-1.39-.26,2.13,2.13,0,0,0-1.07,1,4.41,4.41,0,0,0-.43,1.42,5.18,5.18,0,0,0,.16,2.71h0a24.45,24.45,0,0,0-.46,3.07,5.79,5.79,0,0,0-1-2,4.36,4.36,0,0,0-1.05-1,2,2,0,0,0-1.41-.35,1.35,1.35,0,0,0-1.1.89,1.55,1.55,0,0,0,.55,1.53,4.55,4.55,0,0,0,1.54.77l2.47.86a24.1,24.1,0,0,0,.12,3.8,5.79,5.79,0,0,0-1.56-1.75,4.35,4.35,0,0,0-1.28-.75,2,2,0,0,0-1.45,0,1.33,1.33,0,0,0-.84,1.13,1.54,1.54,0,0,0,.91,1.35,4.55,4.55,0,0,0,1.67.36l2.62.22s0,.08,0,.12a23.84,23.84,0,0,0,.86,3.83,5.31,5.31,0,0,0-2-1.62,4.47,4.47,0,0,0-1.4-.48,2.09,2.09,0,0,0-1.43.3,1.36,1.36,0,0,0-.59,1.29,1.54,1.54,0,0,0,1.16,1.13,4.73,4.73,0,0,0,1.72,0l2.68-.33,0,0,0,0h0a23.61,23.61,0,0,0,1.48,3.52,5.87,5.87,0,0,0-2.24-.74,4.78,4.78,0,0,0-1.51,0,2.13,2.13,0,0,0-1.28.75,1.38,1.38,0,0,0-.16,1.43,1.55,1.55,0,0,0,1.49.72,4.49,4.49,0,0,0,1.66-.53l2.25-1.06.08,0a23.24,23.24,0,0,0,2.35,3.47c.1.12.3,0,.2-.12a22.6,22.6,0,0,1-2.32-3.42l2.36-.63a4.45,4.45,0,0,0,1.59-.65A1.55,1.55,0,0,0,221.1,122.82Z" style="fill:#c5c4ff"/><path d="M255.8,56l.6.64.16.17,0,0,.1.11h0l.67.75.09.12c.18.2.37.43.56.67l.15.18.17.21c.2.24.4.51.62.78l.18.24c.78,1,1.62,2.2,2.45,3.52v0A32.62,32.62,0,0,1,266.35,75a19.7,19.7,0,0,1,.27,4.73c-.07,1.14-.2,2.31-.37,3.52a1.5,1.5,0,0,1,0,.2c-.47,3.26-1.21,6.72-1.93,10.11-.13.58-.25,1.15-.37,1.73-.24,1.15-.49,2.3-.71,3.45,0,.16-.06.33-.1.49v.06s0,.08,0,.12c-.26,1.38-.5,2.75-.69,4.09,0,.22-.07.44-.09.66-.63,4.72-.65,9.06.81,12.37l.78,0c-1.62-3.35-1.54-7.94-.82-13l0-.22c.19-1.31.43-2.64.69-4,.36-1.88.77-3.78,1.18-5.68.73-3.45,1.49-7,2-10.31L267,83c0-.19.05-.37.07-.55.11-.88.19-1.75.25-2.59a21.55,21.55,0,0,0-.54-6.17,33.73,33.73,0,0,0-3.88-9.35l0-.06c-.33-.56-.67-1.1-1-1.61h0c-.76-1.18-1.53-2.25-2.24-3.17-.34-.44-.66-.85-1-1.22l-.78-.93-.07-.08-.07-.08c-.06-.07-.11-.14-.17-.2l-.11-.13-.1-.11h0l-.1-.11-.17-.19c-.49-.54-.79-.84-.81-.85l-.25.26-.18.18Z" style="fill:#43969c"/><path d="M256.76,54.84c.22.5.43,1,.59,1.49l0,.07,0,0,.41-.2.15-.08.13-.06c2.9-1.36,8.21-3.51,7-6.88-.58-.91-1.92-1.13-2.44-2.08-.4-.73-.17-1.65-.35-2.46-.64-2.13-2-.75-3.71-.21-1,.33-2-.64-2.78.34C253.21,48.11,255.33,51.61,256.76,54.84Z" style="fill:#ff6ea7"/><path d="M257.33,55.41q.35.77.6,1.5l0,.06v0l.41-.2.16-.07.12-.06c2.91-1.36,8.21-3.51,7-6.88-.57-.92-1.91-1.14-2.43-2.09-.4-.73-.18-1.64-.35-2.46-.64-2.12-2-.74-3.71-.2-1,.32-2.06-.64-2.78.33C253.79,48.69,255.91,52.18,257.33,55.41Z" style="fill:#ff6ea7"/><path d="M258.48,55.91l.12-.06c.49-.23,1-.47,1.61-.75-.73.36-1.45.68-2.06,1l.18-.09Z" style="fill:#db4d84"/><path d="M257.37,56.4l0-.07c-.16-.49-.37-1-.59-1.49-1.43-3.23-3.55-6.73-.95-10a1,1,0,0,1,.69-.43,1.45,1.45,0,0,0-.16.18c-2.6,3.3-.48,6.8.94,10,.23.5.43,1,.6,1.49l0,.06v0l-.11.06-.41.2Z" style="fill:#db4d84"/><path d="M256.4,51.42a12,12,0,0,0,.58,2.86,11.36,11.36,0,0,0,.44,1.15v0a16.47,16.47,0,0,1,.54-3,12.32,12.32,0,0,1,1.18-2.74,16.4,16.4,0,0,1,1.71-2.41,16.52,16.52,0,0,0-1.55,2.5,11.28,11.28,0,0,0-1,2.75,15.24,15.24,0,0,0-.35,2.94,8.22,8.22,0,0,1,.49-.67,12.09,12.09,0,0,1,2.13-2.1,17.58,17.58,0,0,1,2.49-1.6,17.7,17.7,0,0,0-2.38,1.74A12.1,12.1,0,0,0,258.76,55c-.25.36-.47.72-.68,1.09l-.13.06-.15.08-.41.2,0,0,0,0a12.76,12.76,0,0,1-.59-1.6c-.05-.15-.09-.3-.13-.45a12.42,12.42,0,0,1-.41-3,16.16,16.16,0,0,1,.23-3A16,16,0,0,0,256.4,51.42Z" style="fill:#db4d84"/><path d="M259,55.87c-.5.22-1,.43-1.49.6l-.07,0h0c.07.13.14.27.2.41s.05.1.08.16l.06.12c1.36,2.91,3.51,8.21,6.88,7,.91-.58,1.13-1.92,2.08-2.43.73-.41,1.65-.18,2.46-.35,2.13-.64.75-2,.21-3.72-.33-1,.64-2.05-.34-2.78C265.76,52.33,262.26,54.45,259,55.87Z" style="fill:#ff6ea7"/><path d="M257.86,57.26l-.05-.12-.08-.15-.2-.41,0,0,.06,0,.51-.19a1,1,0,0,0,0,.1c1.37,2.91,3.51,8.21,6.89,7,.91-.58,1.13-1.91,2.08-2.43.73-.4,1.64-.18,2.46-.35a2.31,2.31,0,0,0,.82-.41c0,.52-.22.94-1.14,1.22s-1.73-.05-2.46.35c-.95.52-1.17,1.86-2.09,2.44C261.37,65.47,259.22,60.17,257.86,57.26Z" style="fill:#db4d84"/><path d="M262.45,55.52a12,12,0,0,0-2.86.57c-.39.13-.78.28-1.15.44h.05a16.45,16.45,0,0,1,2.95.53,12.32,12.32,0,0,1,2.74,1.18A16.46,16.46,0,0,1,266.59,60a16.58,16.58,0,0,0-2.5-1.56,12.18,12.18,0,0,0-2.75-1,15.24,15.24,0,0,0-2.94-.35,8.33,8.33,0,0,1,.67.5,12.39,12.39,0,0,1,2.1,2.12,17.68,17.68,0,0,1,1.6,2.5A17.09,17.09,0,0,0,261,59.82a11.79,11.79,0,0,0-2.17-2c-.36-.24-.72-.47-1.09-.68l-.06-.12c0-.06,0-.11-.08-.16s-.13-.28-.2-.41h0l0,0a13.37,13.37,0,0,1,1.6-.59l.45-.13a12.42,12.42,0,0,1,3-.41,18.15,18.15,0,0,1,2.95.23A17,17,0,0,0,262.45,55.52Z" style="fill:#db4d84"/><path d="M258,58.27c-.22-.51-.43-1-.6-1.5l0-.06v0l-.41.2-.16.08-.12,0c-2.91,1.36-8.21,3.51-7,6.88.58.92,1.92,1.14,2.43,2.09.41.73.18,1.64.35,2.46.64,2.12,2,.74,3.72.2,1-.32,2.05.64,2.78-.33C261.58,65,259.46,61.5,258,58.27Z" style="fill:#ff6ea7"/><path d="M258,58.27c-.22-.51-.43-1-.6-1.5l0-.06v0l-.41.2-.16.08-.12,0c-2.91,1.36-8.21,3.51-7,6.88.58.92,1.92,1.14,2.43,2.09.41.73.18,1.64.35,2.46.64,2.12,2,.74,3.72.2,1-.32,2.05.64,2.78-.33C261.58,65,259.46,61.5,258,58.27Z" style="fill:#ff6ea7"/><path d="M252.49,68.43c-.17-.82.06-1.73-.35-2.46-.51-1-1.85-1.17-2.43-2.09-.93-2.61,2-4.49,4.79-5.83-2.44,1.3-4.7,3-3.88,5.37.58.91,1.92,1.13,2.44,2.08.4.73.17,1.64.35,2.46.64,2.13,2,.74,3.71.2.64-.2,1.3.11,1.88.12v0c-.73,1-1.78,0-2.78.33C254.52,69.17,253.13,70.55,252.49,68.43Z" style="fill:#db4d84"/><path d="M258.4,61.69a12,12,0,0,0-.57-2.86c-.13-.39-.28-.77-.44-1.15v0a15.63,15.63,0,0,1-.54,3,12.29,12.29,0,0,1-1.17,2.74A18,18,0,0,1,254,65.84a17.19,17.19,0,0,0,1.56-2.51,12.1,12.1,0,0,0,1-2.74,15.43,15.43,0,0,0,.35-3c-.16.23-.33.46-.5.68a12.33,12.33,0,0,1-2.12,2.09,17.36,17.36,0,0,1-2.5,1.6,17.09,17.09,0,0,0,2.38-1.74,12.2,12.2,0,0,0,2-2.17c.24-.35.47-.72.68-1.09l.12-.06.16-.07.41-.2v0l0,0c.22.52.42,1.06.59,1.6,0,.15.09.3.13.46a12.26,12.26,0,0,1,.4,3,17.28,17.28,0,0,1-.22,3A17.11,17.11,0,0,0,258.4,61.69Z" style="fill:#db4d84"/><path d="M255.67,57.22q.77-.34,1.5-.6l.06,0h0l-.2-.41L257,56l-.06-.12c-1.36-2.91-3.51-8.21-6.88-7-.92.58-1.14,1.92-2.09,2.43-.73.4-1.64.18-2.46.35-2.12.64-.74,2-.2,3.71.32,1-.64,2.06.33,2.78C249,60.76,252.44,58.64,255.67,57.22Z" style="fill:#ff6ea7"/><path d="M248.53,50.85c.53-.62.82-1.52,1.53-2l0,0C249.56,49.52,249.26,50.43,248.53,50.85Z" style="fill:#db4d84"/><path d="M245.31,55.38c-.49-1.53-1.68-2.81-.29-3.51-.44.73.42,1.82.82,3.06.32,1-.64,2,.33,2.78,3.3,2.6,6.8.48,10-1l1-.39a2.26,2.26,0,0,1,.11.22h0l-.06,0q-.74.26-1.5.6c-3.23,1.42-6.72,3.54-10,.94C244.67,57.44,245.63,56.39,245.31,55.38Z" style="fill:#db4d84"/><path d="M252.26,57.57a12.09,12.09,0,0,0,2.86-.57c.39-.13.77-.28,1.15-.44h0a15.48,15.48,0,0,1-3-.54,12.29,12.29,0,0,1-2.74-1.17,18,18,0,0,1-2.42-1.72,17.1,17.1,0,0,0,2.5,1.56,12.36,12.36,0,0,0,2.75,1,15.34,15.34,0,0,0,2.95.35c-.24-.16-.46-.33-.68-.5a12.39,12.39,0,0,1-2.1-2.12,17.29,17.29,0,0,1-1.59-2.5,16.25,16.25,0,0,0,1.73,2.38,11.85,11.85,0,0,0,2.18,1.95c.35.24.71.47,1.09.68L257,56l.07.16.2.41h0l0,0a17.12,17.12,0,0,1-1.61.59l-.45.13a11.84,11.84,0,0,1-2.95.4,17.13,17.13,0,0,1-3-.22A17.1,17.1,0,0,0,252.26,57.57Z" style="fill:#db4d84"/><path d="M259.41,57.09a2.08,2.08,0,1,0-2.53,1.5A2.07,2.07,0,0,0,259.41,57.09Z" style="fill:#ffc5dc"/><path d="M266.2,83.49l.33,0c1.29-.1,6.09-.65,9.65-3.38l.48-.39a10.82,10.82,0,0,0,1.48-1.54,12.1,12.1,0,0,0,2.21-5c0-.12,0-.23.07-.35a21.68,21.68,0,0,0,0-7.29c0-.15-.05-.23-.05-.23h-.2a22.36,22.36,0,0,0-4.33.78l-.31.09a15.36,15.36,0,0,0-5.77,3l-.27.25a10.65,10.65,0,0,0-1.06,1.16c-3.63,4.67-2.45,11.77-2.26,12.77Z" style="fill:#00b7bb"/><path d="M266.2,83.49l.33,0q1.55-1.65,2.89-3.19a33.8,33.8,0,0,0,6.76-.19l.48-.39a34.53,34.53,0,0,1-7,.28c1.88-2.16,3.53-4.22,5.12-6.36a19.34,19.34,0,0,0,5.54-.48c0-.12,0-.23.07-.35a19.71,19.71,0,0,1-5.38.53c1.78-2.41,3.5-4.94,5.38-7.82,0-.15-.05-.23-.05-.23h-.2c-1.2,1.84-2.33,3.54-3.45,5.15a25.64,25.64,0,0,1-.88-4.37l-.31.09a24.12,24.12,0,0,0,1,4.6c-1.43,2-2.85,3.94-4.39,5.86a30.44,30.44,0,0,1-2.34-7.42l-.27.25a29,29,0,0,0,2.39,7.44c-1.7,2.08-3.54,4.19-5.71,6.49Z" style="fill:#a5f1f2"/><path d="M263.28,99.36l.09-.32c.31-1.26,1.3-6-.17-10.23-.07-.19-.14-.38-.22-.57a11.52,11.52,0,0,0-1-1.9,12.18,12.18,0,0,0-4.07-3.68l-.31-.17a21.5,21.5,0,0,0-6.92-2.29,1.31,1.31,0,0,0-.23,0l-.06.19a23,23,0,0,0-.62,4.35c0,.11,0,.22,0,.33a15.35,15.35,0,0,0,1.07,6.43l.15.34a10.89,10.89,0,0,0,.77,1.37c3.29,4.92,10.4,6,11.41,6.16Z" style="fill:#00b7bb"/><path d="M263.28,99.36l.09-.32c-.72-1.32-1.42-2.57-2.12-3.75a34.32,34.32,0,0,0,1.95-6.48c-.07-.19-.14-.38-.22-.57a35,35,0,0,1-1.93,6.7c-1.46-2.47-2.89-4.68-4.42-6.86a19.37,19.37,0,0,0,1.28-5.42l-.31-.17a19.59,19.59,0,0,1-1.19,5.28c-1.73-2.46-3.58-4.88-5.73-7.57a1.31,1.31,0,0,0-.23,0l-.06.19c1.38,1.72,2.63,3.33,3.8,4.9a25,25,0,0,1-4.42-.55c0,.11,0,.22,0,.33a24.4,24.4,0,0,0,4.67.54c1.48,2,2.84,3.94,4.18,6a30.05,30.05,0,0,1-7.78-.12l.15.34a29.11,29.11,0,0,0,7.81.08c1.45,2.26,2.87,4.68,4.37,7.45Z" style="fill:#a5f1f2"/><path d="M367.28,84.71s-.39.07-1,.21L366,85l-.08,0-.17,0h0l-1.14.28-.17,0-1,.27-.26.08-.3.09-1.12.34-.34.1c-1.42.46-3,1-4.71,1.76h0a38.21,38.21,0,0,0-12.25,7.92,23,23,0,0,0-3.42,4.36c-.69,1.14-1.35,2.35-2,3.62,0,.07-.07.14-.11.22-1.73,3.44-3.33,7.27-4.89,11l-.8,1.92c-.54,1.26-1.07,2.53-1.62,3.78l-.24.54,0,.07-.06.12c-.66,1.5-1.35,3-2.06,4.4-.12.23-.24.46-.35.69-2.55,5-5.43,9.14-9,11.35l-.76-.5c3.78-2.14,6.77-6.61,9.43-11.91a2.26,2.26,0,0,1,.11-.22c.69-1.39,1.36-2.83,2-4.3.91-2.06,1.78-4.16,2.66-6.25,1.59-3.81,3.22-7.71,5-11.22.08-.17.17-.33.25-.49l.3-.58c.49-.92,1-1.81,1.49-2.66A25.19,25.19,0,0,1,345,94.3a39.68,39.68,0,0,1,10-6.4l.07,0c.69-.31,1.37-.61,2-.88h0c1.53-.63,3-1.14,4.28-1.56.61-.2,1.19-.37,1.73-.53l1.37-.38a.5.5,0,0,0,.13,0l.11,0,.3-.08.2,0,.16,0h0l.17,0,.29-.07c.83-.19,1.31-.28,1.34-.28l.07.42.05.29Z" style="fill:#43969c"/><path d="M362.45,86.73c-.51-.09-1-.15-1.51-.19h-.1c0-.14.05-.28.08-.43l0-.16,0-.12c.53-3,1.21-8.36,4.58-8.09,1,.31,1.51,1.48,2.5,1.72.77.19,1.55-.24,2.33-.28,2.1.07,1.18,1.68,1.09,3.35-.05,1,1.09,1.72.37,2.62C369.47,88.33,365.75,87.24,362.45,86.73Z" style="fill:#ff6ea7"/><path d="M361.79,86.34c-.52-.08-1-.15-1.52-.18h-.1q0-.2.09-.42a.76.76,0,0,1,0-.16.51.51,0,0,1,0-.13c.54-3,1.21-8.36,4.59-8.08,1,.3,1.5,1.47,2.49,1.72.77.19,1.55-.24,2.34-.28,2.1.07,1.17,1.67,1.09,3.34-.05,1,1.08,1.72.37,2.63C368.8,87.94,365.09,86.85,361.79,86.34Z" style="fill:#ff6ea7"/><path d="M361.06,85.41a.59.59,0,0,1,0-.13c.09-.49.18-1.06.29-1.65-.15.76-.27,1.49-.38,2.12l0-.18S361,85.46,361.06,85.41Z" style="fill:#db4d84"/><path d="M360.88,86.54h.06c.49,0,1,.1,1.51.19,3.3.51,7,1.6,9.4-1.58a.91.91,0,0,0,.23-.73,1.45,1.45,0,0,1-.12.19c-2.39,3.18-6.1,2.09-9.4,1.57-.52-.08-1-.15-1.52-.18h-.1a.5.5,0,0,1,0,.12c0,.15-.05.29-.08.43Z" style="fill:#db4d84"/><path d="M365.66,86.22a11.53,11.53,0,0,1-2.75.17c-.39,0-.78-.07-1.16-.12l0,0A15.07,15.07,0,0,0,364.36,85a12.09,12.09,0,0,0,2.22-1.74,16,16,0,0,0,1.79-2.16,15.3,15.3,0,0,1-1.91,2,11.07,11.07,0,0,1-2.27,1.57,15.07,15.07,0,0,1-2.61,1c.17-.2.34-.4.5-.62a11.43,11.43,0,0,0,1.4-2.45,15.64,15.64,0,0,0,.85-2.67,15.73,15.73,0,0,1-1,2.6,11.07,11.07,0,0,1-1.51,2.31c-.27.31-.54.6-.83.89l0,.12,0,.16c0,.15-.05.29-.08.43h0l0,0a14.38,14.38,0,0,0,1.61.15h.45a11.42,11.42,0,0,0,2.8-.34,16.66,16.66,0,0,0,2.65-.93A15.83,15.83,0,0,1,365.66,86.22Z" style="fill:#db4d84"/><path d="M361,84.9c-.09.51-.15,1-.19,1.51v.1l-.43-.08-.16,0-.12,0c-3-.53-8.36-1.21-8.09-4.58.31-1,1.48-1.51,1.72-2.5.19-.77-.24-1.55-.28-2.34.07-2.1,1.68-1.17,3.35-1.08,1,0,1.72-1.09,2.62-.37C362.56,77.88,361.47,81.6,361,84.9Z" style="fill:#ff6ea7"/><path d="M360,86.3l.13,0,.16,0,.43.08v-.1c0-.17,0-.34.05-.51l-.1,0c-3-.54-8.36-1.21-8.08-4.58.3-1,1.47-1.51,1.72-2.5.19-.77-.24-1.55-.28-2.34a2,2,0,0,1,.17-.84c-.49.08-.81.42-.84,1.33s.47,1.57.28,2.34c-.24,1-1.41,1.52-1.72,2.5C351.6,85.09,357,85.77,360,86.3Z" style="fill:#db4d84"/><path d="M360.45,81.69a11.53,11.53,0,0,1,.17,2.75c0,.39-.07.78-.12,1.16l0,0A15.07,15.07,0,0,0,359.27,83a12.09,12.09,0,0,0-1.74-2.22A16,16,0,0,0,355.37,79a15.3,15.3,0,0,1,2,1.91A11.07,11.07,0,0,1,359,83.16a15.07,15.07,0,0,1,1,2.61c-.2-.17-.4-.34-.62-.5a11.43,11.43,0,0,0-2.45-1.4,15.64,15.64,0,0,0-2.67-.85,15.73,15.73,0,0,1,2.6,1,11.07,11.07,0,0,1,2.31,1.51c.31.27.6.54.89.83l.12,0,.16,0,.43.08v0l0,0A14.38,14.38,0,0,0,361,84.9v-.45a11.42,11.42,0,0,0-.34-2.8,16.66,16.66,0,0,0-.93-2.65A15.83,15.83,0,0,1,360.45,81.69Z" style="fill:#db4d84"/><path d="M359,86.39c.52.08,1,.14,1.52.18h.1c0,.13-.06.27-.08.42l0,.16,0,.13c-.54,3-1.21,8.36-4.59,8.08-1-.31-1.5-1.48-2.49-1.72-.77-.19-1.55.24-2.34.28-2.1-.07-1.17-1.67-1.09-3.35,0-1-1.08-1.72-.37-2.62C352,84.78,355.71,85.87,359,86.39Z" style="fill:#ff6ea7"/><path d="M359,86.39c.52.08,1,.14,1.52.18h.1c0,.13-.06.27-.08.42l0,.16,0,.13c-.54,3-1.21,8.36-4.59,8.08-1-.31-1.5-1.48-2.49-1.72-.77-.19-1.55.24-2.34.28-2.1-.07-1.17-1.67-1.09-3.35,0-1-1.08-1.72-.37-2.62C352,84.78,355.71,85.87,359,86.39Z" style="fill:#ff6ea7"/><path d="M351.06,93.93c.79,0,1.57-.47,2.34-.28,1,.24,1.52,1.41,2.49,1.72,2.62.21,3.61-3,4.18-5.8-.6,2.55-1.64,5-4,4.85-1-.31-1.51-1.48-2.5-1.72-.76-.19-1.54.24-2.33.28-2.1-.07-1.17-1.68-1.09-3.35,0-.63-.42-1.16-.56-1.69l0,0c-.71.9.42,1.63.37,2.62C349.89,92.26,349,93.86,351.06,93.93Z" style="fill:#db4d84"/><path d="M355.79,86.89a11.92,11.92,0,0,1,3.91,0l0,0a15.07,15.07,0,0,0-2.57,1.21,11.67,11.67,0,0,0-2.22,1.74A16,16,0,0,0,353.08,92a16.64,16.64,0,0,1,1.91-2,11,11,0,0,1,2.27-1.56,14.35,14.35,0,0,1,2.61-1c-.17.2-.34.41-.5.62A11.93,11.93,0,0,0,358,90.4a16,16,0,0,0-.85,2.68,15.73,15.73,0,0,1,1-2.6,11.07,11.07,0,0,1,1.51-2.31c.27-.31.55-.61.83-.89l0-.13,0-.16c0-.15.05-.29.08-.42h0l0,0a14.38,14.38,0,0,0-1.61-.15h-.45a11.93,11.93,0,0,0-2.8.35,17.67,17.67,0,0,0-2.65.92A15.8,15.8,0,0,1,355.79,86.89Z" style="fill:#db4d84"/><path d="M360.54,88.3c.08-.52.15-1,.18-1.52v-.1l.42.08.16,0,.13,0c3,.54,8.36,1.21,8.08,4.59-.3,1-1.47,1.5-1.72,2.49-.19.77.24,1.55.28,2.34-.07,2.1-1.67,1.17-3.34,1.09-1,0-1.72,1.08-2.63.37C358.94,95.31,360,91.6,360.54,88.3Z" style="fill:#ff6ea7"/><path d="M368.1,93.28c.44-.64,1.19-1.12,1.42-1.87,0,0,0,0,0,0C369.07,92,368.3,92.51,368.1,93.28Z" style="fill:#db4d84"/><path d="M364.74,97.33c1.52.07,3,.85,3.29-.59-.57.58-1.77.05-3,0-1,0-1.72,1.09-2.62.37-3.18-2.39-2.09-6.1-1.57-9.4.05-.33.09-.65.13-1l-.23,0v.1c0,.49-.1,1-.18,1.52-.51,3.3-1.6,7,1.57,9.4C363,98.41,363.74,97.28,364.74,97.33Z" style="fill:#db4d84"/><path d="M361.05,91.51a11.15,11.15,0,0,1-.17-2.76,11.4,11.4,0,0,1,.12-1.16l0,0a15.34,15.34,0,0,0,1.21,2.56A11.37,11.37,0,0,0,364,92.42a15.24,15.24,0,0,0,2.15,1.79,16.64,16.64,0,0,1-2-1.91A11,11,0,0,1,362.53,90a14.35,14.35,0,0,1-1-2.61c.2.18.41.34.62.5a11.49,11.49,0,0,0,2.45,1.4,16.23,16.23,0,0,0,2.67.85,17,17,0,0,1-2.6-1,11.95,11.95,0,0,1-3.19-2.35l-.13,0-.16,0-.42-.08v0l0,0a14.78,14.78,0,0,0-.15,1.62c0,.14,0,.29,0,.44a11.93,11.93,0,0,0,.35,2.8,16.28,16.28,0,0,0,.92,2.65A16,16,0,0,1,361.05,91.51Z" style="fill:#db4d84"/><path d="M359.74,84.84a2,2,0,1,1-.75,2.69A2,2,0,0,1,359.74,84.84Z" style="fill:#ffc5dc"/><path d="M339,104.15l-.3-.24c-1.18-1-5.43-4.69-7-9.69q-.12-.34-.21-.69a12.7,12.7,0,0,1-.39-2.48,14.25,14.25,0,0,1,1.22-6.3c.05-.13.11-.25.17-.38a25.17,25.17,0,0,1,4.87-7l.19-.19.19.15A25.64,25.64,0,0,1,341.32,81c.08.1.17.2.24.3A17.88,17.88,0,0,1,345.08,88c0,.15.07.29.1.43a13.51,13.51,0,0,1,.24,1.82c.37,6.91-5.5,12.94-6.36,13.78A.72.72,0,0,1,339,104.15Z" style="fill:#00b7bb"/><path d="M339,104.15l-.3-.24c-.26-1.74-.48-3.4-.66-5a40.34,40.34,0,0,1-6.36-4.69q-.12-.34-.21-.69A40.59,40.59,0,0,0,338,98.45c-.37-3.34-.58-6.42-.69-9.53a22.87,22.87,0,0,1-5-4.17c.05-.13.11-.25.17-.38a23.55,23.55,0,0,0,4.82,4.11c-.11-3.52-.07-7.09.05-11.12l.19-.19.19.15c-.08,2.57-.12,5-.11,7.25A29.21,29.21,0,0,0,341.32,81c.08.1.17.2.24.3a28.06,28.06,0,0,1-4,3.79c0,2.9.11,5.68.31,8.56a35.19,35.19,0,0,0,7.2-5.58c0,.15.07.29.1.43A34.25,34.25,0,0,1,337.91,94c.24,3.14.61,6.4,1.15,10A.72.72,0,0,1,339,104.15Z" style="fill:#a5f1f2"/><path d="M331.17,121.35s0-.13.13-.36c.54-1.42,2.75-6.63,7-9.72l.59-.41a12.36,12.36,0,0,1,2.23-1.15,14.34,14.34,0,0,1,6.36-.83l.42,0a25.46,25.46,0,0,1,8.18,2.42l.25.13s0,.07-.08.22a26.22,26.22,0,0,1-2.31,4.6,3.45,3.45,0,0,1-.2.32,18,18,0,0,1-5.33,5.47l-.37.23a12.59,12.59,0,0,1-1.65.8c-6.44,2.53-14-1.15-15.08-1.7Z" style="fill:#00b7bb"/><path d="M331.17,121.35s0-.13.13-.36c1.58-.8,3.08-1.52,4.54-2.2a40.22,40.22,0,0,1,2.45-7.52l.59-.41a41,41,0,0,0-2.61,7.74c3-1.4,5.9-2.58,8.83-3.66a22.35,22.35,0,0,1,2.37-6.06l.42,0a23.18,23.18,0,0,0-2.38,5.87c3.3-1.2,6.7-2.29,10.56-3.45l.25.13s0,.07-.08.22c-2.47.74-4.75,1.44-6.92,2.17a28.64,28.64,0,0,0,4.61,2.43,3.45,3.45,0,0,1-.2.32,28.38,28.38,0,0,1-4.86-2.6c-2.75.93-5.36,1.9-8,3a35.23,35.23,0,0,0,7.55,5.08l-.37.23a34.2,34.2,0,0,1-7.56-5.15c-2.9,1.21-5.88,2.59-9.17,4.25Z" style="fill:#a5f1f2"/><path d="M207.18,144.3h0l.34.08c12.68,3.08,33.31,4.71,56.9,4.13l3.42-.1,2.82-.11q3.13-.12,6.2-.3c2.17-.12,4.3-.25,6.41-.4,21.79-1.58,40.08-4.8,51-8.72.41-.14.8-.29,1.17-.43h0a13.89,13.89,0,0,0-8.93-8.92,13.81,13.81,0,0,0-10.56-12,4.54,4.54,0,0,0-.66-.16,5.19,5.19,0,0,0-.14-.77,13.84,13.84,0,0,0-13.59-11.24,13.67,13.67,0,0,0-7.2,2,13.84,13.84,0,0,0-21.77-1.75,9.63,9.63,0,0,0-13.92,2.87,13.84,13.84,0,0,0-24.15,7.6,11.19,11.19,0,0,0-1.43-.11,9.68,9.68,0,0,0-9.48,7.87v0a.3.3,0,0,0,0,.1s0,.07,0,.1,0,.18,0,.27h-.1a4.7,4.7,0,0,0-.53,0,13.83,13.83,0,0,0-13.33,13.84,13.64,13.64,0,0,0,.44,3.47A9.62,9.62,0,0,0,207.18,144.3Z" style="fill:#ffa1c5"/><path d="M334.9,137a15.32,15.32,0,0,1-.62,1.88c.41-.14.8-.29,1.17-.43A14,14,0,0,0,334.9,137Z" style="fill:#f56ea3"/><path d="M207.19,144.31l.34.08a9.56,9.56,0,0,1,1.65-2.1v0A9.39,9.39,0,0,0,207.19,144.31Z" style="fill:#f56ea3"/><path d="M305.58,131.67a10,10,0,0,0-4,1.42,16.6,16.6,0,0,1-4.24,1.6,30.18,30.18,0,0,1-4.73.62,5.15,5.15,0,0,1-3.88-1.22c-.68-.62.34-1.63,1-1,1.17,1.07,2.85.84,4.29.67a23.06,23.06,0,0,0,4.37-.81c1.49-.48,2.82-1.31,4.23-1.92-4.11-1.16-8-3.46-9.07-7.9-.21-.9,1.17-1.28,1.38-.38,1.36,5.87,8.15,7.18,13.21,7.86a34.73,34.73,0,0,1,8.26,1.74,22.5,22.5,0,0,1,7,5c.67.64-.34,1.65-1,1-2.35-2.22-4.69-4.19-7.84-5.13a68.08,68.08,0,0,0-8.86-1.53Z" style="fill:#f56ea3"/><path d="M270.94,119.54c-5.29-1.57-9.54,3-12.37,6.83-.39.52-.77,1-1.16,1.55a5.3,5.3,0,0,1,.89,0,10.09,10.09,0,0,0,2.05.18,22.77,22.77,0,0,0,4.3-.94c.88-.27,1.26,1.11.38,1.38a27,27,0,0,1-4.35,1c-1.41.18-2.76-.38-4.17-.07a.57.57,0,0,1-.29,0,17.77,17.77,0,0,1-7.15,5.86,9.93,9.93,0,0,1-.4,3.64c-.37,1-1.14,2.2-.86,3.35a.72.72,0,0,1-1.38.38,5.89,5.89,0,0,1,.72-3.73,8.28,8.28,0,0,0,.49-3.15c-2.89.76-5.91.73-8.79,1.51a.72.72,0,0,1-.38-1.38c2.65-.72,5.41-.76,8.09-1.34a13,13,0,0,0,6.79-3.94c2.79-2.92,4.79-6.64,7.75-9.38a15.4,15.4,0,0,1-.62-2.28,13,13,0,0,1-.08-2.57,13.39,13.39,0,0,1,.21-2.61,10,10,0,0,1,1-2.35c.43-.81,1.67-.09,1.24.73a7.69,7.69,0,0,0-.86,2.17,15.23,15.23,0,0,0-.14,2.24,11.26,11.26,0,0,0,.07,2.17,11.41,11.41,0,0,0,.39,1.5,13.36,13.36,0,0,1,1.29-.89,9.82,9.82,0,0,1,7.75-1.23A.72.72,0,0,1,270.94,119.54Z" style="fill:#f56ea3"/><path d="M301.56,110.39c-3.4-.94-6.4,2.31-9.35,3.47a15.55,15.55,0,0,1-9.44.56.72.72,0,0,1,.38-1.38,14.08,14.08,0,0,0,9.91-1.13c2.8-1.47,5.49-3.84,8.88-2.9A.72.72,0,0,1,301.56,110.39Z" style="fill:#f56ea3"/><path d="M264.43,148.52l3.42-.1a9.65,9.65,0,0,0,1.39-1.32h.11a5.86,5.86,0,0,1,1.92-.46,7.65,7.65,0,0,1,1.71.29,33,33,0,0,1,3.41.93l.48.16c2.17-.12,4.3-.25,6.41-.4.57-.45.2-1.57-.59-1.27a8.87,8.87,0,0,1-3.55.75,14,14,0,0,1-3.33-.93,35.41,35.41,0,0,0-3.52-.86,5.17,5.17,0,0,0-1.71,0,21.72,21.72,0,0,0,1.79-4c1.31-3.86,2.22-8.79,6.31-10.72.83-.39.1-1.62-.73-1.23-4.79,2.25-5.63,8-7.28,12.47a12.47,12.47,0,0,1-3.38,5.28A7.28,7.28,0,0,1,264.43,148.52Z" style="fill:#f56ea3"/><path d="M223.36,125.25a10,10,0,0,1,6.19,11c-.17.9,1.22,1.29,1.37.39a11.39,11.39,0,0,0-7.17-12.77l-.12,0c0,.16,0,.33-.08.49h-.63A.74.74,0,0,0,223.36,125.25Z" style="fill:#f56ea3"/><path d="M310.09,123.19a.73.73,0,0,0,1-.26,17.36,17.36,0,0,1,1.88-3.12A5.66,5.66,0,0,1,315.5,118a.72.72,0,0,0,.47-.46,4.54,4.54,0,0,0-.66-.16,5.19,5.19,0,0,0-.14-.77h-.06c-2.65.85-4.06,3.31-5.28,5.63A.75.75,0,0,0,310.09,123.19Z" style="fill:#f56ea3"/><path d="M244,108.05a8.15,8.15,0,0,0-5.45,7.85.72.72,0,0,1-1.43,0,9.61,9.61,0,0,1,6.5-9.23c.88-.3,1.25,1.08.38,1.38Z" style="fill:#ffd9e8"/><path d="M318.83,120.4c3.49,1,5.41,4.29,6.29,7.58a.72.72,0,0,1-1.38.38c-.74-2.79-2.3-5.74-5.29-6.58a.72.72,0,0,1,.38-1.38Z" style="fill:#ffd9e8"/><path d="M306.49,134.49a20.46,20.46,0,0,1,12.86,4.9c.7.6-.32,1.61-1,1a18.91,18.91,0,0,0-11.84-4.48.72.72,0,0,1,0-1.43Z" style="fill:#ffd9e8"/><path d="M252.94,125.76a14.72,14.72,0,0,1-13.6,5.39c-.91-.13-.52-1.52.38-1.38a13.34,13.34,0,0,0,12.21-5c.56-.73,1.57.29,1,1Z" style="fill:#ffd9e8"/><path d="M218.36,129A9.51,9.51,0,0,0,214,138.6c.16.9-1.22,1.29-1.38.38a11,11,0,0,1,5-11.19c.79-.48,1.51.76.72,1.24Z" style="fill:#ffd9e8"/><path d="M290.71,111a15.18,15.18,0,0,1-11,.22c-.86-.32-.49-1.7.38-1.38a14,14,0,0,0,10.22-.22.72.72,0,0,1,.88.5.73.73,0,0,1-.5.88Z" style="fill:#ffd9e8"/><path d="M268.92,139.65a9.65,9.65,0,0,1-4.94,6c-2.8,1.38-6,1.32-9,1.92-.9.18-1.29-1.2-.38-1.38,2.7-.54,5.58-.5,8.16-1.56a8.29,8.29,0,0,0,4.74-5.4.72.72,0,0,1,1.38.38Z" style="fill:#ffd9e8"/><path d="M185.38,43.6c-28.34,36.61-22.93,69.13,3,109.16h0Q256.2,91.32,295.82,16.65h0C250.66.44,211.15,10.31,185.38,43.6Z" style="fill:#35349c"/><path d="M198.8,41.19c12.57-16.25,28.42-26.91,46.6-31.69-23.84,2.41-44.44,14-60,34.1-28.34,36.61-22.93,69.13,3,109.16,3.2-2.9,8.05-7.77,11.15-10.72C177.09,104.88,172,75.84,198.8,41.19Z" style="fill:#282787"/><path d="M384.7,342.13H412l2.39-17.75.26-2,2.49-18.55.27-2,2.49-18.56.27-2,2.49-18.56.27-2,2.49-18.55.26-2L428,222.9l.26-2,2.65-19.74.27-2,2.91-21.7h15l2.92,21.7.26,2,2.65,19.74.27,2,2.33,17.38.27,2,2.49,18.55.27,2L463,281.34l.26,2,2.5,18.56.26,2,2.49,18.55.27,2,2.38,17.75H498.5l-2.42-17.75-.27-2-2.53-18.55-.27-2-2.53-18.56-.27-2-2.53-18.56-.27-2-2.53-18.55-.27-2-2.37-17.38-.27-2-2.7-19.74-.26-2-3-21.7h.86v-3.09H406.45v3.09h.7l-3,21.7-.27,2-2.69,19.74-.27,2-2.37,17.38-.27,2-2.53,18.55-.27,2L393,281.34l-.27,2-2.53,18.56-.27,2-2.53,18.55-.27,2Zm85.57-17.75h24.35l2.15,15.77H472.39Zm-2.76-20.53h24.3l2.54,18.55H470Zm-2.76-20.53H489l2.53,18.56h-24.3ZM462,262.78h24.21l2.54,18.56H464.49Zm-2.76-20.52h24.18l2.52,18.55H461.73Zm-2.6-19.36h24.13l2.38,17.38H459Zm-2.92-21.71h24.09l2.7,19.74H456.37Zm-3.18-23.67h24l3,21.7H453.46Zm-20.8,21.7H405.65l3-21.7h24Zm-2.92,21.71H402.69l2.69-19.74h24.09Zm-2.6,19.35H400.05l2.37-17.38h24.14Zm-2.76,20.53H397.25l2.53-18.55H424Zm-2.76,20.53H394.45L397,262.78H421.2ZM416,301.88h-24.3l2.53-18.56h24.26Zm-2.76,20.52H388.85l2.53-18.55h24.3Zm-2.38,17.75H386.43l2.15-15.77h24.34Z" style="fill:#3f4883"/><path d="M572,342.13a2.32,2.32,0,0,1-2,2.52H2a2.31,2.31,0,0,1-2-2.52,2.91,2.91,0,0,1,.59-1.79A1.87,1.87,0,0,1,2,339.6H570A2.32,2.32,0,0,1,572,342.13Z" style="fill:#ded6ff"/><path d="M212.92,166.38c-10.24,10.58-15,25.84-13.84,40.44,1.66,14.39,7.2,28.13,8.24,42.64,1.62,14.2.85,28.8-3.87,42.35-5,13.44-12.32,26.88-11.73,41.62.58-11.74,5.66-22.78,10.59-33.28,7.9-15.68,9.9-33.71,7.89-51-1.13-14.58-6.69-28.21-8.88-42.53C199.77,192.41,203.82,177.48,212.92,166.38Z" style="fill:#282787"/><path d="M231.64,240.54C247,302.4,212,296.65,216.41,336.72,216.39,297.14,252.59,298.83,231.64,240.54Z" style="fill:#282787"/><path d="M238.76,169.29c-14.36,12.86-15.78,44.77-7.69,61.46-3.53-15.51-2.77-31.8,1.23-47.15C233.8,178.63,235.15,173.19,238.76,169.29Z" style="fill:#282787"/><path d="M134.38,355.31H7.32a2.24,2.24,0,0,1-2.25-2.24h0a2.25,2.25,0,0,1,2.25-2.25H134.38a2.25,2.25,0,0,1,2.25,2.25h0A2.24,2.24,0,0,1,134.38,355.31Z" style="fill:#ded6ff"/><path d="M172.29,355.31H148.85a2.24,2.24,0,0,1-2.25-2.24h0a2.25,2.25,0,0,1,2.25-2.25h23.44a2.24,2.24,0,0,1,2.24,2.25h0A2.24,2.24,0,0,1,172.29,355.31Z" style="fill:#ded6ff"/><path d="M384.13,355.31H511.2a2.24,2.24,0,0,0,2.24-2.24h0a2.24,2.24,0,0,0-2.24-2.25H384.13a2.24,2.24,0,0,0-2.24,2.25h0A2.24,2.24,0,0,0,384.13,355.31Z" style="fill:#ded6ff"/><path d="M346.23,355.31h23.43a2.24,2.24,0,0,0,2.25-2.24h0a2.25,2.25,0,0,0-2.25-2.25H346.23a2.25,2.25,0,0,0-2.25,2.25h0A2.24,2.24,0,0,0,346.23,355.31Z" style="fill:#ded6ff"/><path d="M530.71,355.31h23.44a2.24,2.24,0,0,0,2.25-2.24h0a2.25,2.25,0,0,0-2.25-2.25H530.71a2.24,2.24,0,0,0-2.24,2.25h0A2.24,2.24,0,0,0,530.71,355.31Z" style="fill:#ded6ff"/></g></g></svg>