<svg xmlns="http://www.w3.org/2000/svg" viewBox="0 0 543.58 355.87"><g id="Layer_2" data-name="Layer 2"><g id="Layer_1-2" data-name="Layer 1"><path d="M145.81,175a2.34,2.34,0,0,1-2.23-2.29,5.07,5.07,0,0,1,1.28-3.25,20.07,20.07,0,0,1,4.09-3.78c-1.74.38-3.5.69-5.27,1-1.16.17-2.33.31-3.51.43a13.61,13.61,0,0,1-1.88,7.68,3.2,3.2,0,0,1-2.28,1.82,2.35,2.35,0,0,1-2.23-2.29A5,5,0,0,1,135,171a20.31,20.31,0,0,1,4.24-3.89,68.28,68.28,0,0,1-10.89.15,13.6,13.6,0,0,1-3.07,7.17,3.2,3.2,0,0,1-2.54,1.43,2.34,2.34,0,0,1-1.83-2.62,5,5,0,0,1,1.76-3,19.36,19.36,0,0,1,4.62-3.07,31,31,0,0,1-11.19-2.72l-.22-.11a13.59,13.59,0,0,1-4.07,6.75,3.2,3.2,0,0,1-2.73,1,2.34,2.34,0,0,1-1.44-2.85,5,5,0,0,1,2.17-2.71,20.69,20.69,0,0,1,5.48-2.54c-3.92-2.08-7.48-4.9-11.47-6.84a13.46,13.46,0,0,1-4.11,6.88,3.17,3.17,0,0,1-2.72,1,2.34,2.34,0,0,1-1.44-2.85,5,5,0,0,1,2.17-2.71,21.72,21.72,0,0,1,5.64-2.6,25.46,25.46,0,0,0-3.12-1.2,18.13,18.13,0,0,0-6.76-.65,13.55,13.55,0,0,1-2.2,7.9A3.2,3.2,0,0,1,89,164.77a2.35,2.35,0,0,1-2.13-2.39,5,5,0,0,1,1.4-3.18,21.69,21.69,0,0,1,4.85-4A23.42,23.42,0,0,0,82.76,159a13.62,13.62,0,0,1-2.65,7,3.19,3.19,0,0,1-2.47,1.57,2.34,2.34,0,0,1-2-2.51,5,5,0,0,1,1.6-3.09,19.72,19.72,0,0,1,4.37-3.27.75.75,0,0,1,.15-.16,24.6,24.6,0,0,1,8.42-3.69c.66-.16,1.33-.29,2-.39a13.64,13.64,0,0,1-6.36-3.5,3.2,3.2,0,0,1-1.23-2.64,2.34,2.34,0,0,1,2.75-1.63,5,5,0,0,1,2.85,2,21.76,21.76,0,0,1,3,5.64,18.57,18.57,0,0,1,4.28,0,20.64,20.64,0,0,1,6.09,1.83,13.49,13.49,0,0,1-4.24-6.16,3.16,3.16,0,0,1,.11-2.91,2.35,2.35,0,0,1,3.19-.2,5.06,5.06,0,0,1,1.63,3.08,23,23,0,0,1,.11,6.57c3.13,1.56,6,3.64,9,5.44.93.56,1.87,1.1,2.84,1.58a13.54,13.54,0,0,1-4.77-6.55,3.22,3.22,0,0,1,.11-2.92,2.36,2.36,0,0,1,3.19-.2,5,5,0,0,1,1.64,3.07,23.4,23.4,0,0,1,.1,6.74,22.32,22.32,0,0,0,3.21,1.27,37.08,37.08,0,0,0,6.26,1.24l1.69.17a13.53,13.53,0,0,1-5-5.38,3.22,3.22,0,0,1-.34-2.9,2.36,2.36,0,0,1,3.13-.68,5,5,0,0,1,2.08,2.79,22.05,22.05,0,0,1,1.1,6.24,67.62,67.62,0,0,0,10.65-.17,13.53,13.53,0,0,1-6.41-4.22,3.2,3.2,0,0,1-1-2.75,2.36,2.36,0,0,1,2.9-1.36,5,5,0,0,1,2.65,2.25,22.51,22.51,0,0,1,2.51,6c.47,0,.93-.09,1.4-.15A76.69,76.69,0,0,0,149,164.7a13.49,13.49,0,0,1-6.22-4.16,3.18,3.18,0,0,1-1-2.75,2.36,2.36,0,0,1,2.9-1.36,5,5,0,0,1,2.65,2.26,21.86,21.86,0,0,1,2.45,5.83,60.66,60.66,0,0,0,8.45-2.6c.57-.22.88.68.31.9a60.45,60.45,0,0,1-8.53,2.62,13.61,13.61,0,0,1-1.91,7.72A3.2,3.2,0,0,1,145.81,175Z" style="fill:#5dafb0"/><path d="M213.25,84.54a35.27,35.27,0,0,1-9.11-11.13A25.57,25.57,0,0,1,201.69,67l.16.14c.56.22,4.46,1.67,7.18-.29,2.22-1.59,2.74-4.78,3.15-7.32a19.61,19.61,0,0,0,.23-2.2,13.89,13.89,0,0,1-4,2.66c-1.44.63-2.14.63-3.08,1.06-1.22.56-2.71,1.79-3.87,4.7a18.16,18.16,0,0,1,.78-6.7,38.39,38.39,0,0,0,1.48-6.6,10.18,10.18,0,0,0-.77-4.93c1,.37,4.47,1.4,7-.38,2.21-1.59,2.73-4.78,3.14-7.32a17.49,17.49,0,0,0,.23-2.2,14,14,0,0,1-4,2.66c-1.44.63-2.15.63-3.09,1.06-1.25.57-2.77,1.84-3.94,4.89a33.57,33.57,0,0,0-4.73-5.77c-.84-.87-1.73-1.68-2.62-2.49,1.33.42,4.33,1.09,6.56-.51s2.73-4.78,3.15-7.32a19.2,19.2,0,0,0,.22-2.2,13.82,13.82,0,0,1-4,2.66c-1.44.63-2.14.63-3.09,1.06-1.29.59-2.88,1.93-4.07,5.23-.45-.42-.91-.84-1.35-1.28-1.93-1.9-3.46-4.13-3.53-6.92l.33.3c.56.22,4.46,1.68,7.18-.28,2.22-1.6,2.74-4.78,3.15-7.33a19.61,19.61,0,0,0,.23-2.2,13.76,13.76,0,0,1-4,2.66c-1.45.63-2.15.63-3.09,1.07-1.19.54-2.63,1.72-3.78,4.48a18.06,18.06,0,0,1,1.78-5.59l.71-.1c.55-.31,4.28-2.48,4.51-6,.18-2.83-2-5.35-3.82-7.36a19.12,19.12,0,0,0-1.62-1.63,14.22,14.22,0,0,1-.47,4.94c-.44,1.58-.91,2.14-1.18,3.18-.38,1.44-.35,3.6,1.53,6.75a19.46,19.46,0,0,0-1.79,5.48,9,9,0,0,0,1,5.55c-1-1-3-2.51-5.34-2.19-2.51.34-4.32,2.72-5.76,4.62a16.72,16.72,0,0,0-1.14,1.7,12.88,12.88,0,0,1,4.4-.46c1.45.11,2,.42,3,.48,1.35.07,3.3-.35,5.79-2.68l0-.08a33.12,33.12,0,0,0,4.37,4.33c1.13,1,2.21,2.1,3.25,3.22l-.09-.07c-.54-.15-4.27-1.14-6.6.92-1.9,1.67-2.08,4.65-2.23,7a15.63,15.63,0,0,0,0,2.05,12.49,12.49,0,0,1,3.41-2.82c1.27-.71,1.92-.78,2.75-1.26,1.15-.67,2.5-2.07,3.29-5.29.64.72,1.26,1.45,1.86,2.2a18.77,18.77,0,0,1,1.64,2.39l0,.09.16.15a9.18,9.18,0,0,1,1.16,4.19,17.12,17.12,0,0,1-.64,4.55l-.48-.43c-.53-.19-4.16-1.46-6.65.41-2,1.52-2.44,4.48-2.77,6.85a16.59,16.59,0,0,0-.17,2A12.76,12.76,0,0,1,196.32,62c1.32-.61,2-.62,2.84-1a6.88,6.88,0,0,0,3.18-3.68l-.18.68A22.86,22.86,0,0,0,201,64.65a12.74,12.74,0,0,0,.18,1.86v0h0a23,23,0,0,0,1.91,5.65A35.61,35.61,0,0,0,213,84.84C213.2,85,213.45,84.69,213.25,84.54Z" style="fill:#5dafb0"/><path d="M341.67,247.08a35.08,35.08,0,0,1,6.67-12.74,25.37,25.37,0,0,1,4.94-4.77l-.07.2c0,.6.21,4.76,3.08,6.5,2.33,1.41,5.47.64,8,0a18.92,18.92,0,0,0,2.11-.66,13.66,13.66,0,0,1-4-2.6c-1.14-1.08-1.42-1.72-2.19-2.42-1-.91-2.7-1.79-5.83-1.72a18,18,0,0,1,6.46-1.91,37.56,37.56,0,0,0,6.66-1.23,10,10,0,0,0,4.23-2.63c.07,1.1.47,4.66,3.07,6.24,2.34,1.41,5.47.64,8,0a17.84,17.84,0,0,0,2.11-.65,13.74,13.74,0,0,1-4-2.6c-1.15-1.08-1.42-1.73-2.19-2.43-1-.92-2.78-1.83-6.05-1.71a33.55,33.55,0,0,0,3.46-6.61c.47-1.11.87-2.25,1.27-3.39.13,1.39.69,4.42,3,5.84s5.46.65,8,0a19.63,19.63,0,0,0,2.11-.66,13.66,13.66,0,0,1-4-2.6c-1.15-1.08-1.42-1.72-2.19-2.42-1-1-2.9-1.9-6.41-1.7.21-.58.42-1.17.65-1.75,1-2.52,2.45-4.8,5-6l-.14.41c0,.61.2,4.76,3.08,6.5,2.33,1.42,5.47.65,8,0a20,20,0,0,0,2.11-.65,13.73,13.73,0,0,1-4-2.61c-1.15-1.08-1.42-1.72-2.19-2.42-1-.88-2.61-1.75-5.6-1.72a17.86,17.86,0,0,1,5.84-.55l.37.61c.49.38,4,3,7.25,1.81,2.68-.95,4.13-4,5.28-6.39a19.71,19.71,0,0,0,.87-2.13,14.44,14.44,0,0,1-4.73,1.5c-1.63.21-2.32,0-3.39.16-1.47.22-3.45,1.09-5.61,4a19.48,19.48,0,0,0-5.75.5,9,9,0,0,0-4.72,3.07c.49-1.32,1.12-3.77-.08-5.78-1.29-2.17-4.19-2.9-6.51-3.48a15.32,15.32,0,0,0-2-.38,12.79,12.79,0,0,1,2.15,3.86c.46,1.38.41,2,.73,2.94.46,1.27,1.61,2.89,4.74,4.27l.06-.06a32.54,32.54,0,0,0-2.27,5.73c-.5,1.44-1.07,2.86-1.69,4.25l0-.12c-.08-.55-.63-4.36-3.44-5.7-2.28-1.09-5.1-.1-7.35.7a15.75,15.75,0,0,0-1.88.8,12.78,12.78,0,0,1,3.92,2c1.16.89,1.47,1.46,2.24,2,1.07.8,2.89,1.5,6.16,1-.41.87-.84,1.73-1.3,2.57a17.86,17.86,0,0,1-1.55,2.45H372l-.08.22a9.25,9.25,0,0,1-3.4,2.7,17.41,17.41,0,0,1-4.43,1.2l.2-.61c0-.56-.29-4.4-3-6-2.19-1.27-5.08-.49-7.38.13a16.88,16.88,0,0,0-1.95.65,12.66,12.66,0,0,1,3.76,2.33c1.08,1,1.35,1.57,2.07,2.2a6.91,6.91,0,0,0,4.64,1.49l-.7.09a23.18,23.18,0,0,0-6.57,1.57,11.9,11.9,0,0,0-1.64.9h0v0a22.72,22.72,0,0,0-4.45,4,35.39,35.39,0,0,0-7.75,14A.19.19,0,0,0,341.67,247.08Z" style="fill:#5dafb0"/><path d="M121.94,145.13c1.86,0,4.1-1,8.6-3.15,7.61-3.59,15.09-8.46,21.65-8.69.75,0,1.79,0,2.13.6.72,1.28-1.88,5-5.19,6.94-6.12,3.66-11.92-.11-18.53,4.29-1.32.88-1.49,1.29-1.53,1.6-.5,3.79,16,13.45,27.88,9.69,9.87-3.1,8.28-12.83,22.25-28.85.08-.08.15-.17.23-.24a2.52,2.52,0,0,1,.21-.25l.15-.17c.14-.17.3-.34.45-.51,11.61-12.86,17.16-11.76,20.37-20.54,5.87-16.08-6.79-35.93-8.91-35.39-.85.22.4,3.63-.85,11.26-.24,1.45-5.07,22.29-11.24,20.82-1-.23-1.41-1.77-1.54-2.74-1.74-13.58,14.57-18.52,9.36-34.87C183.53,52.68,165.7,47.87,165,49c-.29.44,2.05,1.45,4.07,4.8,2.64,4.36,2.16,9.55,1.09,19.79-.71,6.85-1.6,10.35-4.31,13-.54.52-2.28,2.23-3.47,1.74-1.52-.62-1.27-4.41-1-8,.84-11.6,1.29-14.43,1.45-17.73.34-7.11.75-15.5-4.23-19.73-1.79-1.52-5-2-11.4-2.78a139,139,0,0,0-19.2-1c-7.28.09-26.6-1.23-27.06-2.43-.35.57.72,1.4,1.27,3.2.94,3.07-.52,6-1.39,7.87a76.69,76.69,0,0,0-5.64,19.67c-.57,4.38-.85,6.57,0,8.66,3.16,7.66,15.7,9.77,17.74,10.11,6.25,1,10,0,14.27,3.19,1,.76,3.22,2.48,3.34,5,.14,2.85-2.48,5-3.19,5.6-5.74,4.74-15.31,2.59-22.2,1-11.41-2.7-14.73-6.24-16.6-4.51-2.95,2.72,1.26,15.26,10.42,20.78a22.57,22.57,0,0,0,8.27,2.86c7.45,1.26,13.91-.69,23.06-3.57,4.63-1.45,11.11-3.78,16-2,.66.24,2.26.84,2.53,2.06.09.37.28,1.82-3.12,4.4-4.44,3.38-11,5.65-22.52,7-7,.8-10.53,1.17-14.2,0-5.38-1.8-8.38-5.29-9.14-4.6s2.6,6.14,6,10.19C110.25,138.9,115.3,145,121.94,145.13Z" style="fill:#73c4c5"/><path d="M142.71,149a17.9,17.9,0,0,0,8.53-.78,18.79,18.79,0,0,0,7-4.39,64.76,64.76,0,0,0,5.89-7,82.73,82.73,0,0,1,6.53-7.47,39.71,39.71,0,0,1,3.28-3.08,4.38,4.38,0,0,1,3.43-1.23h0l.48.49c.53.57,1.05,1.15,1.54,1.76a2.52,2.52,0,0,1,.21-.25,36.69,36.69,0,0,0-2.88-3.1s0,0,0,0a6.13,6.13,0,0,1-.66-1.71,3.4,3.4,0,0,1-.1-1.76,7.65,7.65,0,0,1,1.37-2.27c.54-.67,1.1-1.34,1.67-2,4-4.61,8.68-8.7,12.09-13.81,2.81-4.2,4.8-9.15,4.37-14.28,0-.21-.34-.16-.33,0a19.19,19.19,0,0,1-1.46,8.75c-2.19,5.42-6.18,9.78-10.17,14-2.2,2.32-4.44,4.62-6.43,7.13a5.1,5.1,0,0,0-1.5,3.25,6.51,6.51,0,0,0,.5,2.09,76.64,76.64,0,0,0-9.56-7l-.46-.31h0a16.42,16.42,0,0,1-1.57-8.4c.35-5.87,3.22-11,6.22-15.93.82-1.34,1.65-2.69,2.45-4.05a31.53,31.53,0,0,0,2.07-3.95c.95-2.34,1.33-5.11,0-7.41-.11-.18-.41,0-.3.13,1.61,2.89.52,6.25-.92,9-2.87,5.41-6.76,10.31-8.71,16.18-1.5,4.51-1.83,9.72.2,14.11a63,63,0,0,1-8.86-6.73,34.51,34.51,0,0,1-3.95-4.6s0,0,0,0l0,0c-1.07-1.48-2.06-3-3-4.61-1.54-2.64-3-5.34-4.48-8a30.19,30.19,0,0,1,.55-9.57c1.05-5.64,3.12-11.2,2.88-17-.22-5.17-2.82-10.84-8-12.57-.2-.07-.32.23-.12.3a11.14,11.14,0,0,1,6.37,6c2.49,5.28,1.38,11.26.07,16.7-1.2,5-2.61,10.22-2.1,15.42l-.59-1a53.71,53.71,0,0,0-7-9.31c-5.52-5.82-12.12-10.46-18.66-15a.17.17,0,0,0-.2.27c.8.55,1.61,1.11,2.4,1.68C127,72,133.27,76.6,138.37,82.41a15.38,15.38,0,0,0-6.11-1.24c-2.56-.17-5.52-.48-7.2-2.68a.16.16,0,0,0-.26.2c1.58,2.07,4.31,2.57,6.74,2.76s5.37.18,7.5,1.76c0,0,0,0,0,0h0a61.91,61.91,0,0,1,6.44,9.6c1.81,3.24,3.52,6.53,5.54,9.65l.6.88a12.28,12.28,0,0,0-8.56-1.87c-3.39.38-6.54,1.85-9.6,3.26a49.82,49.82,0,0,1-9.38,3.39,42.7,42.7,0,0,1-19.15.07c-.2,0-.24.28,0,.32a42.81,42.81,0,0,0,10.46,1,42.17,42.17,0,0,0,9.35-1.26,52.66,52.66,0,0,0,9.08-3.36c3.08-1.41,6.24-2.87,9.66-3.18,3.15-.29,6.69.33,9,2.7a37,37,0,0,0,6,6.48,118.5,118.5,0,0,0,10,7l.86.58a14.58,14.58,0,0,0-6.64.82,32.9,32.9,0,0,0-6.38,3.35,72.11,72.11,0,0,1-6.44,3.71,55.45,55.45,0,0,1-13.66,4.62c-.21,0-.16.37.05.32a55.23,55.23,0,0,0,14.18-4.86c2.16-1.1,4.21-2.37,6.27-3.66a30,30,0,0,1,6.48-3.31,13.75,13.75,0,0,1,6.73-.57h0a52.22,52.22,0,0,1,7.11,5.72,4.8,4.8,0,0,0-3.14,1.19,37.55,37.55,0,0,0-3.68,3.45,81.92,81.92,0,0,0-6.37,7.31,61.66,61.66,0,0,1-6,7.16,18.55,18.55,0,0,1-7.19,4.3,17.75,17.75,0,0,1-7.9.6C142.54,148.69,142.5,149,142.71,149Z" style="fill:#fff"/><path d="M303.3,275.56c0,1.85,1,4.1,3.13,8.6,3.57,7.62,8.43,15.11,8.64,21.67,0,.75,0,1.79-.6,2.13-1.28.72-5-1.9-6.93-5.21-3.65-6.13.14-11.92-4.25-18.53-.88-1.33-1.29-1.5-1.6-1.54-3.79-.51-13.48,15.94-9.75,27.86,3.09,9.88,12.82,8.31,28.8,22.32l.25.22.25.21.16.15.51.45c12.84,11.64,11.73,17.19,20.51,20.42,16.06,5.9,35.94-6.71,35.4-8.83-.22-.86-3.63.39-11.26-.88-1.44-.24-22.27-5.12-20.79-11.29.23-.94,1.77-1.41,2.74-1.53,13.58-1.71,18.49,14.6,34.85,9.44,12.26-3.88,17.11-21.7,15.95-22.45-.44-.29-1.46,2.05-4.81,4.06-4.36,2.62-9.56,2.13-19.79,1-6.85-.72-10.35-1.62-13-4.33-.52-.54-2.23-2.29-1.74-3.48.63-1.51,4.42-1.25,8-1,11.6.86,14.43,1.32,17.73,1.48,7.11.37,15.5.79,19.74-4.18,1.52-1.79,2-5,2.8-11.39a135.24,135.24,0,0,0,1.09-19.2c-.07-7.29,1.29-26.6,2.49-27.06-.57-.35-1.4.72-3.2,1.26-3.07.94-6-.53-7.86-1.4a77,77,0,0,0-19.67-5.69c-4.37-.57-6.56-.86-8.65,0-7.67,3.15-9.81,15.68-10.15,17.72-1.07,6.25,0,10-3.22,14.26-.77,1-2.49,3.21-5,3.33-2.85.14-5-2.49-5.59-3.2-4.73-5.75-2.56-15.32-.92-22.2,2.73-11.4,6.27-14.72,4.55-16.6-2.72-2.94-15.27,1.24-20.81,10.38a22.62,22.62,0,0,0-2.87,8.27c-1.28,7.44.66,13.9,3.52,23.06,1.44,4.64,3.76,11.12,2,16-.24.66-.85,2.26-2.07,2.53-.37.08-1.82.27-4.39-3.14-3.37-4.44-5.63-11-6.92-22.53-.78-7-1.15-10.54.08-14.2,1.8-5.37,5.31-8.37,4.61-9.13s-6.14,2.59-10.2,5.93C309.55,263.88,303.43,268.92,303.3,275.56Z" style="fill:#73c4c5"/><path d="M299.35,296.32a17.9,17.9,0,0,0,.75,8.53,18.93,18.93,0,0,0,4.38,7,65.9,65.9,0,0,0,7,5.9,84.29,84.29,0,0,1,7.45,6.55,39.71,39.71,0,0,1,3.08,3.28,4.37,4.37,0,0,1,1.22,3.43s0,0,0,0l-.49.49c-.57.52-1.15,1-1.76,1.53l.25.21a36.58,36.58,0,0,0,3.1-2.87h0a6.13,6.13,0,0,1,1.71-.66,3.29,3.29,0,0,1,1.76-.09A7.43,7.43,0,0,1,330.1,331c.67.54,1.34,1.1,2,1.67,4.6,4,8.68,8.69,13.78,12.12,4.2,2.81,9.14,4.81,14.27,4.39.21,0,.17-.34,0-.32a19.15,19.15,0,0,1-8.74-1.49c-5.42-2.2-9.77-6.2-13.95-10.19-2.32-2.21-4.61-4.45-7.12-6.45-.92-.73-2-1.59-3.25-1.51a6.66,6.66,0,0,0-2.08.5,76.61,76.61,0,0,0,7.05-9.55c.11-.15.21-.31.31-.46h0a16.42,16.42,0,0,1,8.4-1.56c5.87.36,11,3.25,15.92,6.25,1.34.83,2.68,1.66,4,2.46a32.18,32.18,0,0,0,3.94,2.08c2.34,1,5.11,1.34,7.41.06.18-.1.06-.4-.12-.29-2.9,1.6-6.26.51-9-.94-5.4-2.88-10.3-6.78-16.17-8.75-4.5-1.51-9.71-1.85-14.11.17a63,63,0,0,1,6.76-8.84,33.82,33.82,0,0,1,4.6-3.94l.05,0,0-.05c1.49-1.07,3-2.05,4.62-3,2.64-1.54,5.35-2.95,8-4.46a30.19,30.19,0,0,1,9.57.57c5.63,1.06,11.19,3.14,17,2.91,5.17-.21,10.85-2.8,12.59-8,.07-.2-.23-.32-.3-.12a11.12,11.12,0,0,1-6,6.35c-5.29,2.48-11.26,1.36-16.7,0-5-1.21-10.22-2.63-15.42-2.13l1-.59a53.62,53.62,0,0,0,9.33-7c5.83-5.51,10.48-12.1,15.07-18.63.12-.17-.14-.36-.26-.2l-1.69,2.4c-4.44,6.28-9.1,12.53-14.91,17.61a15.48,15.48,0,0,0,1.25-6.1c.17-2.56.49-5.52,2.69-7.2.17-.12,0-.38-.2-.25-2.07,1.56-2.58,4.29-2.77,6.73s-.19,5.37-1.78,7.49c0,0,0,0,0,0h0a60.66,60.66,0,0,1-9.61,6.41c-3.24,1.81-6.54,3.51-9.66,5.53-.3.19-.59.39-.88.59a12.28,12.28,0,0,0,1.88-8.56c-.37-3.39-1.84-6.54-3.24-9.6a50.72,50.72,0,0,1-3.37-9.38,42.6,42.6,0,0,1,0-19.16c.05-.2-.28-.24-.33,0a42.72,42.72,0,0,0,.17,19.8,53.53,53.53,0,0,0,3.34,9.09c1.41,3.08,2.86,6.24,3.16,9.66.28,3.16-.34,6.69-2.71,9a37,37,0,0,0-6.49,6,116.43,116.43,0,0,0-7.08,10l-.58.86a14.73,14.73,0,0,0-.81-6.64,32.53,32.53,0,0,0-3.33-6.38,73.78,73.78,0,0,1-3.7-6.46,55,55,0,0,1-4.59-13.66c0-.21-.37-.16-.32,0a54.64,54.64,0,0,0,4.83,14.19c1.09,2.17,2.36,4.22,3.64,6.28a30,30,0,0,1,3.3,6.49,13.75,13.75,0,0,1,.56,6.73s0,0,0,0a50.37,50.37,0,0,1-5.73,7.11,4.72,4.72,0,0,0-1.18-3.14,34.4,34.4,0,0,0-3.45-3.69,83.53,83.53,0,0,0-7.29-6.39,60.72,60.72,0,0,1-7.14-6.05,18.52,18.52,0,0,1-4.29-7.2,17.61,17.61,0,0,1-.58-7.9C299.7,296.15,299.38,296.11,299.35,296.32Z" style="fill:#fff"/><path d="M371.51,173.11c0-66.71-51.2-120.79-114.37-120.79-30.22,0-57.68,12.4-78.13,32.62v0a73.88,73.88,0,0,0-5.47,5.81,123.56,123.56,0,0,0-30.39,73.16c0,.34-.07.66-.1,1-2.26,27.88-33.29,42.92-24.07,52.94,3.57,4.62,11,5.2,14.16,7.82,8.62,9.11-11.16,23,10.9,25-4.32.58-12.67,5.27-7.72,11.6,12.6,8.76-7.47,32.83,22.17,36.3,55.71-9.05,78.11-.38,71.77,54.66H334.41c-7-2.23-13-32-15.3-54.77a40.89,40.89,0,0,1,13.05-34.21C356.26,242.11,371.51,209.5,371.51,173.11Z" style="fill:#edb6d3"/><path d="M274.64,149.75a10.92,10.92,0,0,1-10.91,10.91,9.46,9.46,0,0,1-1.07-.06V138.9c.35,0,.71-.05,1.07-.05A10.91,10.91,0,0,1,274.64,149.75Z" style="fill:#ff87b6"/><path d="M274.64,149.75a10.92,10.92,0,0,1-10.91,10.91c-.36,0-.72,0-1.07-.06v13.06c-.91-.35-1.83-.72-2.75-1.12a166.28,166.28,0,0,0-30.21-9.2c-30-6.52-51.93-6.44-51.93-36.89,0-.2,0-.39,0-.59,13.73,0,32,0,51.92,0h33v13a9.46,9.46,0,0,1,1.07-.06A10.91,10.91,0,0,1,274.64,149.75Z" style="fill:#fff"/><path d="M229.7,125.85v37.49c-30-6.52-51.93-6.44-51.93-36.89,0-.2,0-.39,0-.59C191.51,125.85,209.81,125.84,229.7,125.85Z" style="fill:#384e97"/><path d="M252.83,103.74a9.82,9.82,0,0,0,9.83,9.82v12.3h-33a10.9,10.9,0,0,1-21.74,0h-30.1c.47-28.28,34.58-50.15,76.57-51.13,2.81-.06,5.58,0,8.31.08V93.92A9.83,9.83,0,0,0,252.83,103.74Z" style="fill:#d86ba5"/><path d="M340.87,129.41a31.52,31.52,0,0,0-.18-3.36H313.61v0a10.86,10.86,0,0,0-21.72,0v0H262.66v13c.35,0,.71-.05,1.07-.05a10.86,10.86,0,0,1,0,21.72c-.36,0-.72,0-1.07,0v13c10.61,4.14,20.2,5.84,28.74,5.69,6,11.42,15.68,25,25.31,22.3,5.14-1.46-9.25-10-.09-29.31C332.57,162.66,340.87,144.8,340.87,129.41Z" style="fill:#db516d"/><path d="M149.76,296.47a32.2,32.2,0,0,0,8.72,2.1c6.66-1.08,12.83-1.91,18.54-2.43C169.42,295.11,160.35,295.32,149.76,296.47Z" style="fill:#d492b5"/><path d="M332.16,264.25c24.1-22.14,39.35-54.75,39.35-91.14,0-66.71-51.2-120.79-114.37-120.79a107.46,107.46,0,0,0-12,.66c42.14,4.64,77.48,33.45,93.37,73.07h2.14a31.52,31.52,0,0,1,.18,3.36c0,.88,0,1.78-.09,2.68a126.62,126.62,0,0,1,6.77,41c0,36.39-15.25,69-39.36,91.14a40.91,40.91,0,0,0-13,34.21c2.31,22.79,8.34,52.54,15.3,54.77h24c-7-2.23-13-32-15.3-54.77A40.89,40.89,0,0,1,332.16,264.25Z" style="fill:#d492b5"/><path d="M104.32,350.75a8.32,8.32,0,0,1-2.84,2.62H64.39c-1.52-.27-2.83-1.59-4.17-2.37a4.56,4.56,0,0,1-2.45-3.68A3.5,3.5,0,0,1,61.69,344a5.16,5.16,0,0,0,2.07.28c1.13-.28,1.49-1.77,1.2-2.91s-1-2.15-1.15-3.3a3.86,3.86,0,0,1,4-4.19c2,.21,3.4,1.89,4.5,3.52.59.88,1.35,1.89,2.41,1.84a2.13,2.13,0,0,0,1.73-1.57,8.16,8.16,0,0,0,.2-2.47,15.5,15.5,0,0,1,1.69-6.8c.84-1.64,2.15-3.23,4-3.54a4.71,4.71,0,0,1,4.77,2.91,9.1,9.1,0,0,1,.2,5.88c-.36,1.43-.85,3.1.07,4.24a2.49,2.49,0,0,0,.78.63,3.31,3.31,0,0,0,3.67-.41c.45-.39.79-.91,1.25-1.3a3.38,3.38,0,0,1,4.16.08A4.1,4.1,0,0,1,98.47,341c-.21.83-.66,1.58-.93,2.39a2.77,2.77,0,0,0,.18,2.47c1.3,1.76,4.45,0,6.18,1.36A2.85,2.85,0,0,1,104.32,350.75Z" style="fill:#73c4c5"/><path d="M86.37,338.83a3.47,3.47,0,0,1-1.5,2.4c-.87.59-2.09.8-2.63,1.79a.13.13,0,0,1-.06.05c-.26,1.05-.52,2.1-.74,3.15a22.65,22.65,0,0,0-.54,7.15h-.26a15,15,0,0,1-.1-2,23.58,23.58,0,0,1,.3-3.37.11.11,0,0,1-.11-.1,3,3,0,0,0-.92-1.46L78.39,345a4.77,4.77,0,0,1-1.7-3.15.14.14,0,0,1,.27,0c0,1.32,1,2.3,1.84,3.18.45.47.92.93,1.37,1.41a3.38,3.38,0,0,1,.75,1.13c.43-2.52,1.16-5,1.69-7.5a27,27,0,0,0,.64-4.91l0,0a3.75,3.75,0,0,1-1.54-2.78c0-.17.28-.17.27,0a3.29,3.29,0,0,0,1.3,2.44,13.26,13.26,0,0,0-1.07-5.59c-.07-.16.16-.3.23-.14a12.17,12.17,0,0,1,.84,2.69,4.21,4.21,0,0,0,.91-2c0-.17.29-.09.26.07a4.42,4.42,0,0,1-1.11,2.27,15.62,15.62,0,0,1,.21,2.82,33.85,33.85,0,0,1-1.19,7.55,8.47,8.47,0,0,1,2.15-1.29,3.26,3.26,0,0,0,1.63-2.4C86.14,338.59,86.4,338.66,86.37,338.83Z" style="fill:#fff"/><path d="M74.76,353.37h-.27a17.85,17.85,0,0,0,0-1.79l0-.44a.11.11,0,0,1-.11.05,7.14,7.14,0,0,1-4.72-2.5c-.11-.13.08-.32.19-.18a6.85,6.85,0,0,0,4.53,2.41.19.19,0,0,1,.09.05,12.46,12.46,0,0,0-.91-3.65,15.55,15.55,0,0,0-1.72-2.92.09.09,0,0,1-.07,0c-1.47-.42-3.37.21-4.53-1.06-.11-.13.08-.32.19-.19a2.82,2.82,0,0,0,1.91.77,16.93,16.93,0,0,1,2.26.16l-.11-.15c-.83-1.08-1.72-2.1-2.57-3.15-.41-.52-.82-1-1.2-1.6a7,7,0,0,1-1-1.86c0-.16.21-.23.26-.07a7.58,7.58,0,0,0,1.17,2.12c.31.42.63.83,1,1.24a3.2,3.2,0,0,0,.27-3c-.07-.16.16-.3.23-.14a3.52,3.52,0,0,1-.31,3.33l.29.37a30.73,30.73,0,0,1,3.81,5.22c.22-.57.67-1,.92-1.59a3.68,3.68,0,0,0-.23-2.68c-.06-.16.2-.23.25-.07a4,4,0,0,1,.28,2.71c-.26.71-.89,1.24-1,2a10.63,10.63,0,0,1,.46,1.1A14.41,14.41,0,0,1,74.76,353.37Z" style="fill:#fff"/><path d="M68.37,353.37h-.28a5.36,5.36,0,0,0-.91-2.09,3.37,3.37,0,0,0-.29-.35h-.07c-.5-.12-.94.27-1.38.43a1.83,1.83,0,0,1-1.36-.09c-.16-.08,0-.31.14-.23a1.57,1.57,0,0,0,1.37,0,2.74,2.74,0,0,1,1-.36,8.94,8.94,0,0,0-1.27-1c-.74-.5-1.54-.91-2.32-1.34-.39-.22-.79-.44-1.16-.7a1.29,1.29,0,0,1-.61-.8c0-.16.22-.24.25-.07.1.46.57.7.93.92s.93.53,1.4.79l.1.06a3.23,3.23,0,0,0-.17-1.63c-.06-.16.2-.23.26-.07a3.48,3.48,0,0,1,.17,1.78s0,0,0,.05a8.62,8.62,0,0,1,3.51,3A5.8,5.8,0,0,1,68.37,353.37Z" style="fill:#fff"/><path d="M96.7,341.36c-.1.37-.49.55-.82.68a4.15,4.15,0,0,1-1.26.25h0c-.14.18-.29.36-.44.53a27.19,27.19,0,0,0-2.26,2.76,18.38,18.38,0,0,0-1.64,3,17.27,17.27,0,0,0-.8,2.29c.88-.45,1.85-.67,2.74-1.1A2.85,2.85,0,0,0,94,347.62c0-.17.29-.17.27,0a3,3,0,0,1-1.75,2.29c-1,.54-2.18.75-3.19,1.32a17.55,17.55,0,0,0-.41,2.14h-.27a17.23,17.23,0,0,1,.34-1.88,18.94,18.94,0,0,1,1.29-3.66v0c-.36-1.29-1.3-2.64-.63-4,.07-.15.3,0,.23.14-.58,1.16.2,2.4.58,3.52a17.9,17.9,0,0,1,1.32-2.23c.3-.43.62-.86,1-1.27h0a5.54,5.54,0,0,1-.39-3.19c0-.17.29-.1.26.07a5.25,5.25,0,0,0,.33,2.9c.35-.42.73-.82,1.09-1.23a5.34,5.34,0,0,0,1.58-3.19c0-.17.28-.17.27,0A4.82,4.82,0,0,1,94.82,342a3.43,3.43,0,0,0,.89-.18c.26-.1.66-.23.74-.53A.13.13,0,1,1,96.7,341.36Z" style="fill:#fff"/><path d="M102.05,349.79a6.86,6.86,0,0,0-1.89.45.11.11,0,0,1-.11,0l-.35.15a7.38,7.38,0,0,0-1.46.93,6.61,6.61,0,0,1,2.38.66c.15.08,0,.31-.14.23a6.14,6.14,0,0,0-2.45-.64l-.07,0a7,7,0,0,0-1.41,1.76v0h-.3a7.84,7.84,0,0,1,.41-.69,7,7,0,0,1,1.48-1.58,7.61,7.61,0,0,1,1.8-1.06,5.58,5.58,0,0,1,.33-1.72c.06-.16.32-.09.26.07a5.16,5.16,0,0,0-.32,1.55,7.41,7.41,0,0,1,1.85-.42C102.22,349.51,102.22,349.78,102.05,349.79Z" style="fill:#fff"/><path d="M543.23,352.37a7,7,0,0,1-2.36,2.18h-30.8c-1.27-.23-2.35-1.33-3.47-2a3.8,3.8,0,0,1-2-3.06,2.92,2.92,0,0,1,3.26-2.78,4.08,4.08,0,0,0,1.71.24c.95-.24,1.24-1.47,1-2.42a25.39,25.39,0,0,1-1-2.74,3.2,3.2,0,0,1,3.35-3.48c1.63.18,2.82,1.57,3.74,2.93.49.73,1.12,1.57,2,1.52a1.72,1.72,0,0,0,1.44-1.3,6.67,6.67,0,0,0,.17-2.05,13,13,0,0,1,1.4-5.65,5,5,0,0,1,3.3-2.94,3.91,3.91,0,0,1,3.95,2.42,7.57,7.57,0,0,1,.17,4.89c-.3,1.18-.71,2.57.06,3.52a2,2,0,0,0,.65.52,2.75,2.75,0,0,0,3-.34c.38-.33.66-.76,1-1.08a2.78,2.78,0,0,1,3.45.07,3.38,3.38,0,0,1,1,3.39c-.18.69-.55,1.31-.77,2a2.25,2.25,0,0,0,.15,2c1.08,1.46,3.69,0,5.13,1.14A2.37,2.37,0,0,1,543.23,352.37Z" style="fill:#73c4c5"/><path d="M528.32,342.47a2.9,2.9,0,0,1-1.25,2c-.72.48-1.73.66-2.18,1.48l0,0c-.22.87-.43,1.74-.61,2.62a18.84,18.84,0,0,0-.45,5.94h-.22a13.34,13.34,0,0,1-.08-1.67,17.35,17.35,0,0,1,.25-2.8.09.09,0,0,1-.09-.08,2.41,2.41,0,0,0-.77-1.21l-1.18-1.22a3.9,3.9,0,0,1-1.41-2.61.11.11,0,0,1,.22,0A4.07,4.07,0,0,0,522,347.6c.38.39.77.78,1.14,1.18a2.62,2.62,0,0,1,.62.93c.36-2.09,1-4.15,1.41-6.23a23,23,0,0,0,.53-4.08h0a3.09,3.09,0,0,1-1.27-2.31c0-.14.23-.14.22,0a2.71,2.71,0,0,0,1.08,2,11.11,11.11,0,0,0-.89-4.65c-.06-.12.13-.24.19-.11a10.49,10.49,0,0,1,.7,2.23,3.46,3.46,0,0,0,.75-1.65c0-.15.24-.09.22.05a3.7,3.7,0,0,1-.92,1.88,13.21,13.21,0,0,1,.17,2.35,27.78,27.78,0,0,1-1,6.27,7,7,0,0,1,1.79-1.07,2.74,2.74,0,0,0,1.36-2C528.13,342.27,528.34,342.33,528.32,342.47Z" style="fill:#fff"/><path d="M518.68,354.55h-.23a14.81,14.81,0,0,0,0-1.49l0-.37a.11.11,0,0,1-.09.05,6,6,0,0,1-3.92-2.08c-.09-.1.07-.26.16-.15a5.7,5.7,0,0,0,3.76,2,.14.14,0,0,1,.08.05,10.45,10.45,0,0,0-.76-3,13,13,0,0,0-1.43-2.44h-.06c-1.21-.36-2.8.17-3.75-.89-.1-.1.06-.26.15-.15a2.36,2.36,0,0,0,1.59.64,14.72,14.72,0,0,1,1.88.13.64.64,0,0,1-.1-.13c-.68-.89-1.43-1.74-2.13-2.61-.35-.43-.68-.87-1-1.33a5.65,5.65,0,0,1-.8-1.54c-.05-.14.17-.2.21-.06a6.31,6.31,0,0,0,1,1.76c.26.35.53.69.79,1a2.64,2.64,0,0,0,.22-2.47c0-.13.14-.24.2-.11a2.91,2.91,0,0,1-.26,2.76l.24.31a25.8,25.8,0,0,1,3.17,4.34c.17-.48.55-.86.76-1.33a3,3,0,0,0-.2-2.22c0-.14.17-.19.22-.06a3.37,3.37,0,0,1,.23,2.25c-.22.59-.74,1-.87,1.65a7.47,7.47,0,0,1,.39.92A12.34,12.34,0,0,1,518.68,354.55Z" style="fill:#fff"/><path d="M513.37,354.55h-.23a4.37,4.37,0,0,0-.75-1.74l-.24-.29h-.06c-.42-.09-.78.23-1.15.36a1.48,1.48,0,0,1-1.13-.07c-.13-.06,0-.26.11-.19a1.33,1.33,0,0,0,1.15,0,2.14,2.14,0,0,1,.86-.29,6.11,6.11,0,0,0-1.05-.85c-.61-.42-1.28-.76-1.93-1.12-.32-.18-.66-.37-1-.58a1.11,1.11,0,0,1-.51-.66c0-.14.19-.2.21-.06.08.38.47.58.78.76s.77.44,1.15.65l.09.05a2.7,2.7,0,0,0-.14-1.35c-.05-.13.16-.19.21-.06a2.92,2.92,0,0,1,.15,1.49l0,0a7.23,7.23,0,0,1,2.91,2.48A4.42,4.42,0,0,1,513.37,354.55Z" style="fill:#fff"/><path d="M536.9,344.57c-.08.31-.41.46-.69.56a3.06,3.06,0,0,1-1,.21h0l-.37.44a21.8,21.8,0,0,0-1.88,2.29,14.83,14.83,0,0,0-1.36,2.51,14.28,14.28,0,0,0-.67,1.9c.73-.38,1.54-.56,2.28-.91a2.38,2.38,0,0,0,1.52-1.8c0-.14.24-.14.23,0a2.48,2.48,0,0,1-1.46,1.9c-.85.45-1.81.62-2.65,1.1a15.11,15.11,0,0,0-.34,1.78h-.23c.07-.53.17-1.05.29-1.57a15.59,15.59,0,0,1,1.07-3s0,0,0,0c-.29-1.07-1.08-2.19-.52-3.31.06-.13.25,0,.19.11-.48,1,.17,2,.48,2.92a15,15,0,0,1,1.1-1.85c.25-.36.52-.71.8-1.05h0a4.64,4.64,0,0,1-.33-2.65c0-.15.24-.09.22,0a4.32,4.32,0,0,0,.27,2.41l.91-1A4.44,4.44,0,0,0,536,342.9c0-.15.23-.15.22,0a4,4,0,0,1-.89,2.21,3,3,0,0,0,.73-.16c.22-.08.55-.19.62-.44S536.94,344.43,536.9,344.57Z" style="fill:#fff"/><path d="M541.34,351.57a6.09,6.09,0,0,0-1.57.37.08.08,0,0,1-.09,0l-.29.13a5.57,5.57,0,0,0-1.22.77,5.46,5.46,0,0,1,2,.54c.13.07,0,.26-.11.2a5,5,0,0,0-2-.53l0,0a5.49,5.49,0,0,0-1.17,1.46v0h-.25a4.88,4.88,0,0,1,.34-.58,5.89,5.89,0,0,1,1.23-1.31,6.22,6.22,0,0,1,1.49-.88,4.37,4.37,0,0,1,.27-1.43c0-.13.27-.07.22.06a4.42,4.42,0,0,0-.26,1.29,6.08,6.08,0,0,1,1.53-.35C541.48,351.34,541.48,351.56,541.34,351.57Z" style="fill:#fff"/><path d="M358.85,89.78s3,17.08,7.46,18.26c2,.53,4.58.09,7-.75,4.16-1.4,8-3.91,8.11-4.59l4.22-12.81c-2.43,1-16.26,8.94-17.39,9.69-1.83-2.75-5.8-9.89-5.93-10.42,0,0,.86-3.85.1-4.94s-.92,2.19-1.2,1.81-2.15-4.88-3.36-3.57C355.19,85.36,358.85,89.78,358.85,89.78Z" style="fill:#f9cbcb"/><path d="M370.62,97.77c.32,3.34,2.26,7.86,2.46,10,4.16-1.4,9.17-1.88,9.3-2.56l3.3-15.27C383.25,90.94,375.45,94.9,370.62,97.77Z" style="fill:#9dc0f0"/><path d="M386.79,162.71a56.11,56.11,0,0,1,1.7,8.89,98.72,98.72,0,0,1-.74,24.37l-3.55-.35s-5-18.25-7.4-27.58c-.61-2.36-1.08-4.48-1.33-6.07-1.44-9.11,3.88-34.9,4.22-36.57v-.09l14.31-2C401.62,141.4,392.6,146,386.79,162.71Z" style="fill:#ffd8d9"/><path d="M393.54,147.85c-2,4.15-4.6,8.67-6.75,14.86.8,2.95,1.7,6,2.74,9.58L377.15,174c-.61-2.36-1.43-10.46-1.68-12.05-1.44-9.11,3.88-34.9,4.22-36.57v-.09l14.31-2C398.82,134.73,397,140.75,393.54,147.85Z" style="fill:#353d78"/><path d="M393.54,147.85c-2,4.15-4.6,8.67-6.75,14.86.8,2.95,1.7,6,2.74,9.58l-2.28.32c-.39-3.53-3.52-9.34-4.56-9.15.92-.23,9.43-16.89,10.08-22.66Z" style="fill:#30386e"/><path d="M401.78,200.13,410.49,190s-6.4-10-11.58-16.64a51.35,51.35,0,0,0-3.38-4C388.44,162,384.73,125,384.73,125h11.73c9.2,8.45,6.88,20.09,7.15,31.59a21.8,21.8,0,0,0,3.53,11.18c.43.67.84,1.36,1.23,2.06,2.68,4.89,4.27,10.64,5.74,20.07l1.81,6.12Z" style="fill:#ffd8d9"/><path d="M409,169.62l-3.39,1.55-6.89,3.15c-1.23-1.59-2.16-3.92-3.15-4.95-7.09-7.35-11.67-44.53-11.67-44.53L396,125h.5c8.89,8.17,7,19.31,7.13,30.43A20.91,20.91,0,0,0,407.87,168,12.28,12.28,0,0,1,409,169.62Z" style="fill:#3f4883"/><path d="M409,169.62l-3.39,1.55a52,52,0,0,1-3.63-7.2c-2.3-5.83-.88-13.76-1.44-24.9-.4-8.22-7.34-12.21-7.34-12.21L396,125h.5c8.89,8.17,7,19.31,7.13,30.43A20.91,20.91,0,0,0,407.87,168,12.28,12.28,0,0,1,409,169.62Z" style="fill:#353d78"/><path d="M402.42,101.09c-.1,7.39-1.92,20.21-2.62,24.82a2.35,2.35,0,0,1-1,1.61,2.23,2.23,0,0,1-1,.39,65.13,65.13,0,0,1-9.72.75,48.38,48.38,0,0,1-8.31-.68,2.41,2.41,0,0,1-2-2.09c-.37-3.49.72-11.15.54-18.59-.11-4.71,1.37-16.77,10.17-18.67l5.15,0a11.09,11.09,0,0,1,8.6,9A25.48,25.48,0,0,1,402.42,101.09Z" style="fill:#5c96e6"/><path d="M383.78,194.6c-5.47,2.1-11.55,1.88-11.92,6.82l17.22-.6A12.36,12.36,0,0,0,388,194.6Z" style="fill:#353d78"/><path d="M410.49,190c-4.38,3.9-10.93,6.65-9.54,11.4l15.9-5.31c-.55-2-1.28-5.29-2.85-6.9Z" style="fill:#353d78"/><path d="M390.13,84.08c1.68.52,2.36,1.36,4.5.39,3.27-1.47,6-7.13,1.69-9.68-.3-.9-.6-1.24-1.75-1.49s-2.31.25-3.88.22-3.81-1.65-5.18.64,2,4.07,3.74,5.2S390.4,82.43,390.13,84.08Z" style="fill:#3f4883"/><path d="M393.75,88.6c-1.87,1.87-3.64,2.23-5.22,0L389,85l.19-1.52h4.15l.08.94Z" style="fill:#f9cbcb"/><path d="M393.45,85.11c-1,1.23-3.86,1.59-4.62,1.06l.33-2.68,4.17-1.75Z" style="fill:#f0b4b4"/><path d="M387,76.24c-.76,2.15-1.51,6.91.32,8.68,1.15,1.12,5.35.68,6.2-2.4,1-.73,1.76-2.52.83-3.33-.67-.58-1.52,1-2.68.7-.44-.1.91-3-.46-3.55S388.42,76.94,387,76.24Z" style="fill:#f9cbcb"/><path d="M375.4,122.54l-18.13-5.72-3.7-1.17-4.1-1.29,0,0a10.9,10.9,0,0,0-20.8-6.55v0l-13.88-4.38-7-2.22L300.7,99l3.69-11.73a9.82,9.82,0,0,1,5.9-18.74L316,50.27C356.8,65,380.6,97.26,375.4,122.54Z" style="fill:#384e97"/><path d="M395.4,107.09a60.8,60.8,0,0,1-8.79,8.6,13.36,13.36,0,0,1-2.85,1.64c-6.09,2.31-20.16.49-20.16.49-4.43,2.26-10,.92-11.14-.75-2-3,5.3-.17,6-1.95,0,0-3.34-1.82-2.41-3.15s6.75,2.22,6.75,2.22a56,56,0,0,1,17.42-4.14c.45-.63.89-1.26,1.36-1.88,3.36-4.46,7.25-8.52,12.54-11.21C396.7,100.31,396.62,103.7,395.4,107.09Z" style="fill:#f9cbcb"/><path d="M387.92,115.84l-7.28-8.13c3.36-4.46,9.79-14.24,14.27-10.34C400.89,102.56,392.1,112.78,387.92,115.84Z" style="fill:#9dc0f0"/><path d="M199.45,351.66l-1.86-11.06-.2-1.17-1.74-10.36-.2-1.17-2-11.76-.19-1.18L191.09,302h.63V300.2H139.81V302h.51L138.14,315l-.2,1.18-2,11.76-.2,1.17L134,339.43l-.2,1.17L132,351.66l-.2,1.17h20l.2-1.17,1.83-11.06.19-1.17,1.72-10.36.2-1.17,2-11.76L158,315,160.19,302h11L173.37,315l.19,1.18,1.95,11.76.2,1.17,1.72,10.36.19,1.17,1.84,11.06.19,1.17h20Zm-48.58,0H133l1.86-11.06H152.7Zm2-12.23H135.09l1.75-10.36h17.78Zm1.91-11.53H137l2-11.76h17.75ZM157,315H139.22L141.4,302h17.71ZM172.29,302H190L192.19,315H174.44Zm2.35,14.11h17.75l2,11.76H176.59Zm2.15,12.93h17.78l1.74,10.36H178.5Zm3.75,22.59L178.7,340.6h17.81l1.87,11.06Z" style="fill:#3f4883"/><path d="M172.47,292.27c.1,1.24-1.29,2.55-1.37,3.83,5.29,1.13,10.63,2,16,3-.91-4.31-6.25-4.07-9.78-5.46,0-21.47,9.05-46.44,4.07-67.61-1.67,0-1.79.46-3.74.38s-5.3-.32-7.55-.45C169.4,245.53,172.34,290.55,172.47,292.27Z" style="fill:#ffd8d9"/><path d="M141.44,272.46c-1.19-.41-2.57.88-3.77.58,1.08,4.9,2.65,7.91,4.9,12.41,1.37-2.79.92-5.55,1.44-8.54,25.63-1.4,37.47-27.23,33.75-50.52-3.15-.1-6.29-.37-9.42-.52C160,237.84,166.39,267,141.44,272.46Z" style="fill:#ffd8d9"/><path d="M183.51,295.1c1.31.64,5.59,1.56,4.55,4s-13.79,0-16-1.28-.17-3.87.51-5.38c2,4,7.92,6.19,11.83,4.5C185.84,296.34,183.77,295.36,183.51,295.1Z" style="fill:#3f4883"/><path d="M143.44,282.07c-.07.9.79,5.73-1.43,5.27s-6.07-12.44-5.14-14.71c1.07-2.61,3.67-.53,4.53-.18-3.18,2.22-1.51,9.05,1,10.74C143.26,283.77,143.46,282.49,143.44,282.07Z" style="fill:#3f4883"/><path d="M152.66,257.89s3,3.31,5.8,2.62c0,0,3.11,4.72,8,1.46a9.84,9.84,0,0,0,11.11,0c4.88,3.26,8-1.46,8-1.46,2.81.69,5.8-2.62,5.8-2.62-2.68-12.61-8.48-23.39-9.88-32.36L168,226C163.86,230.12,161.2,247.39,152.66,257.89Z" style="fill:#3f4883"/><path d="M175.81,192.84c1.05-2.23,1.34-5.94-2.23-7.22-2.59-.94-4.72-1.1-7.09.69s-3.28,5.7-2.77,8.5c.6,3.37-3.38,6.29-1.83,9,2.09,3.67,13.26.51,16.85,0C176.39,200,173.38,198,175.81,192.84Z" style="fill:#3f4883"/><path d="M177,211.41c6.17-1.17,12.25-3.31,15.79-8.8,2.51-3.89,3.94-9.87,5.44-13.67.89-2.26.54-1.94,1.22-3.81,2-.7,6.54-3.48,3.84-5.63-3.7-2.95-6.26,1.47-7.36,3.74a13,13,0,0,1-1.95,3.21c-2.27,3.28-4,7.33-7.3,10.21-2.84,2.51-7.88,3.35-11.48,4.63C175.77,204.65,176.47,208,177,211.41Z" style="fill:#ffd8d9"/><path d="M177,211.42c6.23-1.3,12.17-3.16,15.81-8.85,2.59-4,3.69-9.38,5.53-13.84-1.44-.82-2.87-1.57-4.25-2.33-2.59,3.39-4,7.36-7.4,10.26-2.92,2.52-7.84,3.34-11.49,4.63C175.77,204.66,176.47,208,177,211.42Z" style="fill:#c2397f"/><path d="M173.68,200.55c10.82,3.4,6.11,19.12,8,25.39-3,2.74-9.5.15-13.67,0,1-9.12-6.84-18.38,1.84-25.4C171.13,200.55,172.46,200.16,173.68,200.55Z" style="fill:#e14294"/><path d="M169.86,200.61c1.25.71,4.55,3.1,3.8-.1a6.56,6.56,0,0,0-.4-1.06,29.78,29.78,0,0,0-1.08-2.83c-.51-.77-1.78-1.06-2.47-1.64,0,1.09.06,2.74.09,3.68S169.83,199.8,169.86,200.61Z" style="fill:#ffd8d9"/><path d="M169.8,198.73a5,5,0,0,0,1,.44,6.11,6.11,0,0,0,2.51.3c-.5-.85-.58-2.05-1.11-2.85s-1.76-1-2.47-1.65C169.72,196.24,169.77,197.47,169.8,198.73Z" style="fill:#f0b4b4"/><path d="M175.19,198.06c1.84-.83,1.38-6.93-.15-8.88-1.56,2-4.34,1.95-6.58,1.24.19.51.12,2.15.5,2.79-.36-.6-2.2-.87-2,.31s1.43,1.68,2.37,2A4.32,4.32,0,0,0,175.19,198.06Z" style="fill:#ffd8d9"/><path d="M176.13,192a3.89,3.89,0,0,0-1.36-2.45,4,4,0,0,1-2.07,2.5,2,2,0,0,0-.49-1.24,4.5,4.5,0,0,1-1.62,2.45c-1.27,1-.09,3.27.37,3.77a4.35,4.35,0,0,1-2.08-3.94s-1.88-1.61-1.91-1.69.13-1.91.13-1.91,4.39-1.15,4.4-1.19,1.79-.63,1.79-.63l1.37.13,1,.37Z" style="fill:#3f4883"/><path d="M222.5,158.14l-1.95-.77-2.41-1-1.57-.62-2.68-1.06-2.35-.93-1.18-.47-1.85-.73-1.2-.47-1.75-.7-1.63-.64,1.93,4.61,3.25,7.78-11.63,30.43c-.4,1-.16,2.07.51,2.33s1.55-.36,1.95-1.39l11.65-30.47,7.19-3.87,1.89-1,1.68-.91.23-.12Zm-11.35,3.27-2-4.79-.51-1.21,7.87,3.11-.92.5Z" style="fill:#8a90ba"/><path d="M225.13,158.38a2.78,2.78,0,0,1-.18,1,0,0,0,0,1,0,0,2.89,2.89,0,0,1-3.74,1.71l-2.42-.89L215.59,159l-6.44-2.4-3.29-1.22-1.31-.49a2.92,2.92,0,0,1-1.9-2.73,3,3,0,0,1,.75-1.94,2.9,2.9,0,0,1,3.18-.79l16.65,6.2A2.91,2.91,0,0,1,225.13,158.38Z" style="fill:#fff"/><path d="M172.32,215.83c6.07,1.91,11.75,4,18.08.94,5-2.48,7.38-10.57,8.71-15.42.63-2.3.48-2.41.95-4.34,2.11-1.55,5.16-4.19,2.38-6.74-3.5-3.22-5.49,2.89-5.91,4.89-.67,3.25-6.28,12.52-8.06,13-6.62,1.78-10.72-1.77-16.28-3.43C172.29,208.37,172.42,212.08,172.32,215.83Z" style="fill:#ffd8d9"/><path d="M172.32,215.84c6.1,1.81,11.71,4.15,18.09.9,5.09-2.6,8.26-9.62,9.77-15-1.35-1.41-3.69-2.44-5.17-3.63-.83,2.37-4.76,9.61-6.55,10.07-6.59,1.68-10.73-1.76-16.27-3.46C172.29,208.38,172.43,212.07,172.32,215.84Z" style="fill:#e14294"/><path d="M225.13,158.38a2.78,2.78,0,0,1-.18,1,1,1,0,0,1-.12-.17c-.13-.22-.18-.48-.3-.71a1.35,1.35,0,0,0-1.91-.45l-.12.11a.71.71,0,0,0-.15.15c-.17.19-.32.41-.49.6a1,1,0,0,1-1,.4.56.56,0,0,1-.17-.09,1,1,0,0,1-.35-.92,5.51,5.51,0,0,1,.23-.91,2.45,2.45,0,0,0,.08-.29,1.13,1.13,0,0,0-.3-1.12,1,1,0,0,0-1.37-.26,3.09,3.09,0,0,0-.82.71l-.3.32c-.36.38-1,1.12-1.32.7s0-1.08,0-1.64a.85.85,0,0,0-.07-.39,1.91,1.91,0,0,0-1.54-1.23,1.05,1.05,0,0,0-.53.07,1.07,1.07,0,0,0-.54.49c-.4.66-.51,1.67-1.26,1.84a1.12,1.12,0,0,1-1.2-.83,3.18,3.18,0,0,1,0-1.59l.06-.35a1.33,1.33,0,0,0,0-.4.62.62,0,0,0-.49-.51c-.29,0-.49.18-.67.44a2.59,2.59,0,0,1-.42.5,1,1,0,0,1-1.48-.64,5.63,5.63,0,0,1,0-.59.64.64,0,0,0-.08-.41c-.22-.36-.73-.27-1.12-.06l-.16.09c-.4.27-.92.58-1.31.31s-.29-.67-.28-1.1a1.29,1.29,0,0,0-.16-.81c-.4-.56-1.26-.25-1.94-.37h-.06a2.9,2.9,0,0,1,3.18-.79l16.65,6.2A2.91,2.91,0,0,1,225.13,158.38Z" style="fill:#6177bf"/><path d="M336.81,352.47h26.71l2.34-16.13.26-1.79,2.43-16.85.26-1.8L371.25,299l.26-1.79L374,280.39l.26-1.79,2.44-16.86.25-1.79,2.29-15.79.26-1.79L382,224.44l.26-1.79,2.85-19.72H399.8l2.85,19.72.26,1.79,2.59,17.93.26,1.79L408.05,260l.25,1.79,2.44,16.86.26,1.79,2.44,16.86.26,1.79,2.44,16.86.26,1.8,2.43,16.85.26,1.79,2.34,16.13h26.71l-2.37-16.13-.26-1.79L443,317.7l-.26-1.8L440.29,299l-.26-1.79-2.48-16.86-.26-1.79-2.48-16.86-.26-1.79-2.32-15.79-.26-1.79-2.64-17.93-.26-1.79-2.89-19.72H427v-2.8H358.09v2.8h.68l-2.89,19.72-.26,1.79L353,242.37l-.26,1.79L350.4,260l-.26,1.79-2.48,16.86-.26,1.79-2.48,16.86-.26,1.79-2.48,16.86-.26,1.8-2.48,16.85-.26,1.79Zm83.72-16.13h23.81l2.11,14.34H422.6Zm-2.7-18.64H441.6l2.48,16.85H420.27ZM415.13,299h23.73l2.48,16.86H417.57Zm-2.7-18.65h23.69l2.48,16.86H414.87Zm-2.7-18.65h23.65l2.48,16.86H412.17Zm-2.54-17.58H430.8L433.12,260H409.47Zm-2.85-19.72h23.57l2.63,17.93H406.93Zm-3.11-21.51h23.52l2.89,19.72H404.08Zm-20.36,19.72H357.31l2.89-19.72h23.52ZM378,242.37H354.41l2.64-17.93h23.56ZM375.48,260H351.83l2.32-15.79h23.61Zm-2.7,18.65H349.09l2.48-16.86h23.65Zm-2.7,18.65H346.35l2.48-16.86h23.69Zm-2.7,18.65H343.61L346.09,299h23.73Zm-2.7,18.65H340.87l2.48-16.85h23.77Zm-2.33,16.13H338.5l2.11-14.34h23.81Z" style="fill:#3f4883"/><path d="M479.27,355.87H57.41a1.32,1.32,0,0,1-1.32-1.32h0a1.32,1.32,0,0,1,1.32-1.32H479.27a1.32,1.32,0,0,1,1.32,1.32h0A1.32,1.32,0,0,1,479.27,355.87Z" style="fill:#5dafb0"/><path d="M50.32,355.87h-13A1.33,1.33,0,0,1,36,354.55h0a1.32,1.32,0,0,1,1.32-1.32h13a1.32,1.32,0,0,1,1.32,1.32h0A1.33,1.33,0,0,1,50.32,355.87Z" style="fill:#5dafb0"/><path d="M499.32,355.87h-13a1.33,1.33,0,0,1-1.32-1.32h0a1.32,1.32,0,0,1,1.32-1.32h13a1.32,1.32,0,0,1,1.32,1.32h0A1.33,1.33,0,0,1,499.32,355.87Z" style="fill:#5dafb0"/><path d="M542.26,355.87H506.88a1.33,1.33,0,0,1-1.32-1.32h0a1.32,1.32,0,0,1,1.32-1.32h35.38a1.32,1.32,0,0,1,1.32,1.32h0A1.33,1.33,0,0,1,542.26,355.87Z" style="fill:#5dafb0"/><rect y="353.23" width="33.01" height="2.64" rx="1.32" style="fill:#5dafb0"/><circle cx="460.29" cy="87.96" r="31.75" transform="translate(299.74 528.22) rotate(-80.78)" style="fill:#ffe8f4"/><path d="M447.23,109.26c-1,0-2.06-.05-3.08-.14a.53.53,0,0,1-.47-.57.52.52,0,0,1,.57-.46c1,.09,2,.14,3,.14h.08a.52.52,0,1,1,0,1Zm3.19-.16a.52.52,0,0,1-.05-1c1-.1,2-.25,3-.45a.51.51,0,0,1,.61.4.52.52,0,0,1-.41.61,29.9,29.9,0,0,1-3.13.47Zm-9.3-.43H441c-1-.2-2.07-.45-3.08-.75a.53.53,0,0,1-.34-.65.52.52,0,0,1,.64-.35,29.47,29.47,0,0,0,3,.74.52.52,0,0,1-.1,1Zm15.4-.79a.52.52,0,0,1-.15-1c1-.3,1.94-.65,2.88-1a.52.52,0,1,1,.4,1,31.13,31.13,0,0,1-3,1.08Zm-21.36-1a.71.71,0,0,1-.2,0c-1-.4-1.94-.86-2.86-1.35a.51.51,0,1,1,.48-.91c.9.48,1.83.91,2.77,1.3a.52.52,0,0,1-.19,1Zm27.1-1.41a.49.49,0,0,1-.45-.27.52.52,0,0,1,.21-.7c.89-.48,1.77-1,2.62-1.58a.52.52,0,0,1,.72.14.53.53,0,0,1-.14.72c-.88.58-1.79,1.13-2.71,1.63A.54.54,0,0,1,462.26,105.48ZM429.66,104a.5.5,0,0,1-.28-.08c-.88-.58-1.73-1.22-2.55-1.88a.52.52,0,0,1,.66-.8c.78.64,1.61,1.25,2.46,1.82a.51.51,0,0,1-.29.94ZM467.42,102a.49.49,0,0,1-.39-.19.5.5,0,0,1,.06-.72c.79-.65,1.55-1.35,2.27-2.07a.52.52,0,0,1,.73,0,.51.51,0,0,1,0,.73,31.42,31.42,0,0,1-2.34,2.13A.5.5,0,0,1,467.42,102Zm-42.58-2a.51.51,0,0,1-.36-.15,31.42,31.42,0,0,1-2.13-2.34.51.51,0,1,1,.79-.66c.65.79,1.35,1.55,2.07,2.27a.52.52,0,0,1,0,.73A.51.51,0,0,1,424.84,100Zm47-2.43a.54.54,0,0,1-.32-.11.52.52,0,0,1-.08-.73c.65-.79,1.26-1.62,1.83-2.47a.51.51,0,0,1,.71-.14.52.52,0,0,1,.15.72c-.58.87-1.22,1.73-1.88,2.54A.53.53,0,0,1,471.81,97.6Zm-50.93-2.37a.53.53,0,0,1-.43-.22c-.59-.88-1.14-1.79-1.64-2.71a.52.52,0,0,1,.21-.7.5.5,0,0,1,.7.21c.49.89,1,1.77,1.59,2.62a.5.5,0,0,1-.14.71A.52.52,0,0,1,420.88,95.23Zm54.38-2.81a.53.53,0,0,1-.24-.06.51.51,0,0,1-.21-.7,27.94,27.94,0,0,0,1.3-2.77.52.52,0,1,1,1,.4,31,31,0,0,1-1.35,2.86A.52.52,0,0,1,475.26,92.42Zm-57.33-2.66a.51.51,0,0,1-.48-.32,31.13,31.13,0,0,1-1.08-3,.52.52,0,0,1,1-.3c.3,1,.65,1.94,1,2.88a.52.52,0,0,1-.28.68A.65.65,0,0,1,417.93,89.76Zm59.71-3.09-.15,0a.51.51,0,0,1-.35-.64c.29-1,.54-2,.74-3a.51.51,0,1,1,1,.2c-.2,1-.46,2.07-.76,3.07A.51.51,0,0,1,477.64,86.67ZM416.1,83.81a.5.5,0,0,1-.5-.42c-.21-1-.37-2.08-.48-3.13a.52.52,0,0,1,.47-.56.51.51,0,0,1,.56.46c.1,1,.26,2,.46,3a.52.52,0,0,1-.41.61Zm62.73-3.24h-.05a.51.51,0,0,1-.46-.56c.09-1,.14-2,.14-3v0a.52.52,0,0,1,.52-.52.52.52,0,0,1,.52.52v0c0,1-.05,2.09-.15,3.11A.52.52,0,0,1,478.83,80.57Zm-63.35-2.95a.52.52,0,0,1-.52-.52V77c0-1,.05-2.11.15-3.16a.52.52,0,0,1,1,.1C416,75,416,76,416,77v.11A.51.51,0,0,1,415.48,77.62Zm63.34-3.27a.51.51,0,0,1-.51-.47c-.1-1-.25-2-.45-3a.51.51,0,0,1,.4-.61.52.52,0,0,1,.61.41c.21,1,.36,2.08.47,3.13a.51.51,0,0,1-.47.56Zm-62.74-3H416a.53.53,0,0,1-.41-.61c.21-1,.47-2.07.77-3.07a.52.52,0,0,1,1,.3c-.29,1-.54,2-.74,3A.52.52,0,0,1,416.08,71.32Zm61.52-3.08a.51.51,0,0,1-.49-.36c-.3-1-.65-1.95-1-2.88a.52.52,0,0,1,.28-.68.51.51,0,0,1,.68.28c.4,1,.76,2,1.07,3a.51.51,0,0,1-.34.64A.44.44,0,0,1,477.6,68.24Zm-59.72-2.88a.63.63,0,0,1-.19,0,.52.52,0,0,1-.28-.68,31,31,0,0,1,1.35-2.86.52.52,0,0,1,.91.49,30.48,30.48,0,0,0-1.31,2.77A.52.52,0,0,1,417.88,65.36Zm57.33-2.86a.51.51,0,0,1-.45-.27,30.51,30.51,0,0,0-1.58-2.63.51.51,0,0,1,.14-.71A.52.52,0,0,1,474,59c.58.87,1.13,1.78,1.63,2.71a.52.52,0,0,1-.21.7A.54.54,0,0,1,475.21,62.5Zm-54.39-2.62a.52.52,0,0,1-.43-.81,31,31,0,0,1,1.89-2.54.51.51,0,1,1,.79.66c-.64.78-1.25,1.61-1.82,2.46A.51.51,0,0,1,420.82,59.88Zm50.93-2.54a.53.53,0,0,1-.4-.19,29.62,29.62,0,0,0-2.07-2.27.52.52,0,0,1,0-.73.53.53,0,0,1,.74,0,31.29,31.29,0,0,1,2.12,2.34.5.5,0,0,1-.07.73A.49.49,0,0,1,471.75,57.34Zm-47-2.27a.53.53,0,0,1-.37-.15.52.52,0,0,1,0-.73,29.69,29.69,0,0,1,2.35-2.13.51.51,0,0,1,.72.07.52.52,0,0,1-.07.73c-.78.65-1.55,1.34-2.27,2.06A.51.51,0,0,1,424.77,55.07Zm42.57-2.13a.52.52,0,0,1-.33-.12c-.79-.64-1.61-1.26-2.46-1.82a.52.52,0,0,1,.57-.86c.88.58,1.73,1.22,2.55,1.88a.52.52,0,0,1,.07.73A.5.5,0,0,1,467.34,52.94Zm-37.77-1.82a.52.52,0,0,1-.28-.95A30.87,30.87,0,0,1,432,48.54a.52.52,0,0,1,.7.21.52.52,0,0,1-.21.7A30.51,30.51,0,0,0,429.86,51,.52.52,0,0,1,429.57,51.12Zm32.59-1.63a.53.53,0,0,1-.24-.06c-.9-.48-1.83-.92-2.77-1.31a.52.52,0,0,1,.4-1c1,.4,1.93.86,2.86,1.35a.52.52,0,0,1,.21.7A.51.51,0,0,1,462.16,49.49Zm-27.1-1.31a.52.52,0,0,1-.2-1c1-.4,2-.76,3-1.07a.52.52,0,0,1,.64.35.51.51,0,0,1-.34.64c-1,.3-1.94.65-2.89,1A.65.65,0,0,1,435.06,48.18Zm21.36-1.07-.15,0c-1-.3-2-.54-3-.74a.52.52,0,0,1,.2-1,31.31,31.31,0,0,1,3.07.77.52.52,0,0,1-.14,1ZM441,46.37a.52.52,0,0,1-.51-.42.53.53,0,0,1,.41-.61c1-.2,2.08-.36,3.13-.46a.52.52,0,0,1,.1,1c-1,.1-2,.25-3,.45Zm9.3-.46h-.05c-1-.1-2-.15-3-.15a.52.52,0,0,1-.53-.52.5.5,0,0,1,.5-.51h0c1,0,2.1.05,3.13.15a.52.52,0,0,1-.05,1Z" style="fill:#ffd4e9"/><circle cx="58.18" cy="229.36" r="31.75" style="fill:#ffe8f4"/><path d="M45.19,254h-.08c-1,0-2.06,0-3.08-.15a.51.51,0,0,1-.46-.56.5.5,0,0,1,.56-.47,29.72,29.72,0,0,0,3,.14h.08a.52.52,0,0,1,0,1Zm3.11-.16a.52.52,0,0,1,0-1c1-.1,2-.26,3-.46a.53.53,0,0,1,.61.41.52.52,0,0,1-.41.61c-1,.2-2.08.36-3.13.47Zm-9.3-.43h-.1c-1-.2-2.07-.46-3.07-.76a.52.52,0,1,1,.29-1c1,.29,2,.54,3,.73a.53.53,0,0,1,.41.61A.52.52,0,0,1,39,253.39Zm15.4-.79a.52.52,0,0,1-.15-1,27.52,27.52,0,0,0,2.88-1,.53.53,0,0,1,.68.28.51.51,0,0,1-.28.68,31.07,31.07,0,0,1-3,1.07A.4.4,0,0,1,54.4,252.6ZM33,251.6a.48.48,0,0,1-.2,0c-1-.4-1.93-.85-2.86-1.34a.53.53,0,0,1-.22-.7.52.52,0,0,1,.7-.22c.9.48,1.84.92,2.78,1.31a.51.51,0,0,1-.2,1Zm27.1-1.4a.52.52,0,0,1-.24-1c.9-.49,1.78-1,2.62-1.59a.53.53,0,0,1,.72.14.52.52,0,0,1-.14.72,31,31,0,0,1-2.71,1.64A.54.54,0,0,1,60.14,250.2Zm-32.59-1.52a.52.52,0,0,1-.29-.09c-.87-.58-1.73-1.21-2.55-1.88a.51.51,0,0,1-.07-.72.52.52,0,0,1,.73-.08,30.59,30.59,0,0,0,2.46,1.82.52.52,0,0,1-.28,1Zm37.76-2a.53.53,0,0,1-.4-.19.52.52,0,0,1,.07-.73c.78-.65,1.55-1.34,2.26-2.06a.52.52,0,0,1,.74.73c-.75.74-1.53,1.46-2.34,2.13A.54.54,0,0,1,65.31,246.73Zm-42.58-2a.53.53,0,0,1-.37-.15c-.74-.74-1.46-1.52-2.13-2.33a.52.52,0,1,1,.8-.66c.64.78,1.34,1.54,2.06,2.26a.52.52,0,0,1,0,.73A.51.51,0,0,1,22.73,244.74Zm47-2.42a.52.52,0,0,1-.4-.85c.64-.79,1.26-1.62,1.82-2.46a.52.52,0,0,1,.86.57c-.58.88-1.22,1.73-1.88,2.55A.54.54,0,0,1,69.7,242.32ZM18.76,240a.52.52,0,0,1-.43-.23A30.87,30.87,0,0,1,16.7,237a.51.51,0,0,1,.2-.7.53.53,0,0,1,.71.21,28.9,28.9,0,0,0,1.58,2.62.52.52,0,0,1-.43.81Zm54.39-2.81a.54.54,0,0,1-.25-.06.52.52,0,0,1-.21-.7c.48-.9.92-1.83,1.31-2.77a.51.51,0,0,1,1,.39,30,30,0,0,1-1.35,2.87A.51.51,0,0,1,73.15,237.14Zm-57.34-2.67a.53.53,0,0,1-.48-.31c-.4-1-.77-2-1.08-3a.53.53,0,0,1,.35-.65.51.51,0,0,1,.64.35,30.07,30.07,0,0,0,1,2.88.52.52,0,0,1-.28.67A.48.48,0,0,1,15.81,234.47Zm59.71-3.08-.15,0a.54.54,0,0,1-.35-.65,30,30,0,0,0,.74-3,.52.52,0,0,1,.61-.41.52.52,0,0,1,.41.61c-.21,1-.46,2.06-.77,3.07A.51.51,0,0,1,75.52,231.39ZM14,228.53a.51.51,0,0,1-.5-.42A29.9,29.9,0,0,1,13,225a.52.52,0,1,1,1-.1c.1,1,.25,2,.45,3a.51.51,0,0,1-.4.61Zm62.74-3.25h0a.52.52,0,0,1-.47-.56c.1-1,.14-2,.14-3v-.06a.52.52,0,0,1,1,0v0c0,1.05,0,2.09-.15,3.11A.52.52,0,0,1,76.72,225.28Zm-63.36-2.94a.52.52,0,0,1-.52-.52v-.11a30.26,30.26,0,0,1,.16-3.16.51.51,0,1,1,1,.1c-.09,1-.14,2-.14,3.06v.11A.52.52,0,0,1,13.36,222.34Zm63.34-3.28a.52.52,0,0,1-.51-.47c-.1-1-.25-2-.45-3a.51.51,0,0,1,1-.2,30.3,30.3,0,0,1,.47,3.13.52.52,0,0,1-.46.57ZM14,216h-.1a.5.5,0,0,1-.4-.6,31.27,31.27,0,0,1,.76-3.07.52.52,0,0,1,.65-.35.51.51,0,0,1,.34.65c-.29,1-.54,2-.74,3A.52.52,0,0,1,14,216ZM75.49,213a.52.52,0,0,1-.5-.37,29.93,29.93,0,0,0-1-2.88.51.51,0,0,1,.27-.67.52.52,0,0,1,.68.27,29.42,29.42,0,0,1,1.07,3,.51.51,0,0,1-.34.65Zm-59.72-2.88a.45.45,0,0,1-.2,0,.51.51,0,0,1-.28-.67c.4-1,.86-1.94,1.35-2.87a.52.52,0,0,1,.7-.21.52.52,0,0,1,.21.7c-.48.9-.92,1.83-1.31,2.77A.51.51,0,0,1,15.77,210.08Zm57.33-2.86a.51.51,0,0,1-.46-.28c-.48-.89-1-1.77-1.58-2.62a.52.52,0,0,1,.14-.72.53.53,0,0,1,.72.14c.58.88,1.13,1.79,1.63,2.71a.51.51,0,0,1-.21.7A.44.44,0,0,1,73.1,207.22Zm-54.4-2.63a.51.51,0,0,1-.29-.08.53.53,0,0,1-.14-.72,31.55,31.55,0,0,1,1.89-2.54.52.52,0,0,1,.8.65c-.65.79-1.26,1.62-1.83,2.46A.51.51,0,0,1,18.7,204.59Zm50.93-2.54a.5.5,0,0,1-.4-.19c-.65-.78-1.34-1.55-2.06-2.26a.51.51,0,0,1,0-.74.52.52,0,0,1,.73,0c.74.74,1.46,1.53,2.13,2.34a.52.52,0,0,1-.07.73A.54.54,0,0,1,69.63,202.05Zm-47-2.27a.55.55,0,0,1-.37-.15.52.52,0,0,1,0-.73c.75-.74,1.54-1.46,2.35-2.12a.51.51,0,1,1,.65.79c-.78.65-1.54,1.34-2.26,2.06A.55.55,0,0,1,22.65,199.78Zm42.57-2.12a.54.54,0,0,1-.33-.12,27.41,27.41,0,0,0-2.46-1.82.52.52,0,1,1,.58-.86,30.83,30.83,0,0,1,2.54,1.88.52.52,0,0,1,.07.73A.53.53,0,0,1,65.22,197.66Zm-37.76-1.83a.51.51,0,0,1-.43-.23.5.5,0,0,1,.14-.71,31,31,0,0,1,2.71-1.64.52.52,0,0,1,.49.92c-.9.48-1.78,1-2.63,1.57A.47.47,0,0,1,27.46,195.83Zm32.59-1.63a.54.54,0,0,1-.25-.06A30.48,30.48,0,0,0,57,192.83a.52.52,0,1,1,.4-1,31,31,0,0,1,2.86,1.35.52.52,0,0,1-.24,1Zm-27.11-1.31a.51.51,0,0,1-.2-1,29.42,29.42,0,0,1,3-1.07.52.52,0,1,1,.3,1,29.93,29.93,0,0,0-2.88,1A.48.48,0,0,1,32.94,192.89Zm21.36-1.06-.15,0c-1-.29-2-.54-3-.74a.5.5,0,0,1-.4-.6.51.51,0,0,1,.6-.41c1,.2,2.07.46,3.08.76a.52.52,0,0,1-.15,1Zm-15.41-.75a.51.51,0,0,1-.1-1c1-.2,2.08-.36,3.13-.46a.52.52,0,0,1,.57.46.53.53,0,0,1-.47.57c-1,.1-2,.25-3,.44Zm9.3-.46h0c-1-.1-2-.14-3-.14a.53.53,0,0,1-.53-.52.51.51,0,0,1,.5-.52h.08c1,0,2.06.05,3.08.15a.52.52,0,0,1-.05,1Z" style="fill:#ffd4e9"/><polygon points="252.42 6.66 246.68 4.59 249.58 2.48 252.42 6.66" style="fill:#ffd4e9"/><polygon points="246.73 5.67 240.36 0.38 249.58 3.87 246.73 5.67" style="fill:#ffd4e9"/><polygon points="240.35 0.37 253.84 0 251.12 1.91 240.35 0.37" style="fill:#ffd4e9"/><polygon points="240.36 0.38 249.59 3.9 252.42 6.66 251.13 1.87 240.36 0.38" style="fill:#ffd4e9"/><path d="M329.18,28.07h-.05a.54.54,0,0,1-.48-.58,17.08,17.08,0,0,0,0-1.73.52.52,0,0,1,.5-.55.53.53,0,0,1,.55.5,15.59,15.59,0,0,1,0,1.87A.54.54,0,0,1,329.18,28.07Z" style="fill:#ffd4e9"/><path d="M298.74,28a6.41,6.41,0,0,1-1.5-.18.52.52,0,0,1-.39-.63.53.53,0,0,1,.64-.4,5.21,5.21,0,0,0,3.24-.25.54.54,0,0,1,.7.3.53.53,0,0,1-.3.69A6.36,6.36,0,0,1,298.74,28Zm-4.56-1.85a.5.5,0,0,1-.34-.13,9.74,9.74,0,0,1-.88-.83,4.59,4.59,0,0,1-1.22-2.48.53.53,0,0,1,.43-.61.54.54,0,0,1,.61.44,3.63,3.63,0,0,0,.94,1.92c.27.27.53.52.8.75a.53.53,0,0,1-.34.94Zm9.56-.83a.5.5,0,0,1-.31-.1.53.53,0,0,1-.13-.74,5.17,5.17,0,0,0,1-3v-.14a.52.52,0,0,1,.51-.54.53.53,0,0,1,.55.51v.17a6.27,6.27,0,0,1-1.18,3.56A.52.52,0,0,1,303.74,25.35Zm25-2.69a.54.54,0,0,1-.52-.42,19.61,19.61,0,0,0-1-3.39.53.53,0,0,1,1-.4A20.3,20.3,0,0,1,329.24,22a.53.53,0,0,1-.41.63Zm-36-3a.63.63,0,0,1-.19,0,.53.53,0,0,1-.3-.69,13.67,13.67,0,0,1,1.86-3.28.54.54,0,0,1,.74-.11.53.53,0,0,1,.11.75,13,13,0,0,0-1.73,3A.51.51,0,0,1,292.75,19.62Zm10.64-.95a.53.53,0,0,1-.4-.19,14.94,14.94,0,0,0-2.61-2.35.55.55,0,0,1-.11-.75.54.54,0,0,1,.74-.11,16.69,16.69,0,0,1,2.79,2.52.54.54,0,0,1-.06.75A.53.53,0,0,1,303.39,18.67ZM326,16a.51.51,0,0,1-.43-.23,15.44,15.44,0,0,0-2.29-2.67.53.53,0,0,1,.73-.78,16.27,16.27,0,0,1,2.43,2.86.52.52,0,0,1-.14.73A.53.53,0,0,1,326,16ZM297.61,14.3a.57.57,0,0,1-.25-.06,28.15,28.15,0,0,0-3.25-1.49.53.53,0,0,1-.31-.68.54.54,0,0,1,.69-.31c.78.3,1.55.64,2.3,1a20.73,20.73,0,0,1,2.85-2.13.53.53,0,0,1,.73.17.54.54,0,0,1-.17.73,20.56,20.56,0,0,0-2.39,1.74l.05,0a.53.53,0,0,1-.25,1Zm-29.16-.18h0a24.3,24.3,0,0,1-2.73-.15.53.53,0,0,1,.11-1.05,25,25,0,0,0,2.62.14h0l.93,0a.53.53,0,0,1,0,1.06Zm4.57-.37a.53.53,0,0,1-.08-1.06,35.46,35.46,0,0,0,3.51-.74.53.53,0,1,1,.27,1,34.41,34.41,0,0,1-3.62.77Zm-10.82-.47-.15,0a18.22,18.22,0,0,1-3.47-1.39.52.52,0,0,1-.23-.71.54.54,0,0,1,.72-.23,17,17,0,0,0,3.27,1.31.53.53,0,0,1,.37.66A.53.53,0,0,1,262.2,13.28Zm17.85-1.38a.53.53,0,0,1-.17-1,15.24,15.24,0,0,1,3.67-.81.52.52,0,0,1,.58.47.53.53,0,0,1-.48.58,14.34,14.34,0,0,0-3.42.76A.57.57,0,0,1,280.05,11.9Zm10.78-.2h-.13a23.61,23.61,0,0,0-3.51-.59.52.52,0,0,1-.48-.57.53.53,0,0,1,.57-.49,25.82,25.82,0,0,1,3.67.62.53.53,0,0,1-.12,1Zm29.85-.65a.52.52,0,0,1-.27-.07,17.76,17.76,0,0,0-3.21-1.47.53.53,0,1,1,.35-1,19.06,19.06,0,0,1,3.39,1.55.54.54,0,0,1,.2.73A.53.53,0,0,1,320.68,11.05ZM303.15,9.94a.52.52,0,0,1-.49-.33.53.53,0,0,1,.29-.69A20.86,20.86,0,0,1,306.5,7.8a.53.53,0,1,1,.23,1,19.74,19.74,0,0,0-3.38,1.06A.45.45,0,0,1,303.15,9.94Zm10.7-1.3h-.08a18.49,18.49,0,0,0-3-.24h-.56a.53.53,0,0,1-.55-.51.55.55,0,0,1,.52-.55h.59a19.56,19.56,0,0,1,3.14.26.52.52,0,0,1,.43.6A.53.53,0,0,1,313.85,8.64Z" style="fill:#ffd4e9"/><path d="M255.78,9.91a.54.54,0,0,1-.34-.12c-.47-.39-.93-.82-1.37-1.26a.53.53,0,0,1,0-.75.53.53,0,0,1,.75,0c.41.41.84.81,1.29,1.18a.54.54,0,0,1,.06.75A.5.5,0,0,1,255.78,9.91Z" style="fill:#ffd4e9"/><path d="M494.28,164.54a6.16,6.16,0,0,0-6.82-2.81A6.87,6.87,0,0,0,483.2,166v.4c0-.14,0-.27,0-.4a6.84,6.84,0,0,0-4.26-4.23,6.16,6.16,0,0,0-6.82,2.81c-2.09,3.82,2.3,8.55,2.8,9.09a12.83,12.83,0,0,0,8.33,3.84h.2a12.74,12.74,0,0,0,8-3.84C492,173.08,496.37,168.36,494.28,164.54Z" style="fill:#ffe8f4"/><path d="M57.73,114.05a6.15,6.15,0,0,0-6.82-2.8,6.84,6.84,0,0,0-4.26,4.22v.4c0-.13,0-.27,0-.4a6.84,6.84,0,0,0-4.26-4.22,6.15,6.15,0,0,0-6.82,2.8c-2.09,3.82,2.3,8.56,2.8,9.09A12.71,12.71,0,0,0,46.69,127h.2a12.74,12.74,0,0,0,8-3.84C55.44,122.59,59.82,117.87,57.73,114.05Z" style="fill:#ffe8f4"/><path d="M391.73,9.33a6.15,6.15,0,0,0-6.82-2.8,6.84,6.84,0,0,0-4.26,4.22v0c-.13-.35-1.27-3.41-4.26-4.22a6.17,6.17,0,0,0-6.83,2.8c-2.09,3.82,2.31,8.56,2.81,9.09a12.77,12.77,0,0,0,8.33,3.85h.2a12.74,12.74,0,0,0,8-3.84C389.44,17.88,393.82,13.15,391.73,9.33Z" style="fill:#ffe8f4"/><circle cx="103.12" cy="275.32" r="2.43" style="fill:#ffd4e9"/><path d="M108,197.23a2.43,2.43,0,1,1,2.43,2.43A2.43,2.43,0,0,1,108,197.23Z" style="fill:#ffd4e9"/><path d="M80.18,135.92a2.43,2.43,0,1,1,2.43,2.43A2.43,2.43,0,0,1,80.18,135.92Z" style="fill:#ffd4e9"/><circle cx="157.61" cy="30.89" r="2.43" style="fill:#ffd4e9"/><path d="M240.35,39.07a2.43,2.43,0,1,1,2.43,2.43A2.43,2.43,0,0,1,240.35,39.07Z" style="fill:#ffd4e9"/><circle cx="371.86" cy="58.11" r="2.43" style="fill:#ffd4e9"/><path d="M437.18,138.35a2.43,2.43,0,1,1,2.42,2.43A2.42,2.42,0,0,1,437.18,138.35Z" style="fill:#ffd4e9"/><path d="M454.12,249.65a2.43,2.43,0,1,1,2.43,2.42A2.43,2.43,0,0,1,454.12,249.65Z" style="fill:#ffd4e9"/></g></g></svg>