<svg xmlns="http://www.w3.org/2000/svg" viewBox="0 0 576.22 355.65"><g style="isolation:isolate"><g id="Layer_2" data-name="Layer 2"><g id="Layer_1-2" data-name="Layer 1"><path d="M532.65,243.08a3.73,3.73,0,0,1,4.34-.63c1,.6,1.59,1.7,2.59,2.29,1.52.89,3.51.35,5.21.85a4.26,4.26,0,0,1,3,3.6c.1,1.17-.31,2.43.21,3.49a4.19,4.19,0,0,0,2.31,1.77c2.27.93,4.83,1.5,6.52,3.24a2.49,2.49,0,0,1,.85,1.89c-.07.72-.63,1.32-.72,2a2.32,2.32,0,0,0,1.09,2,15.55,15.55,0,0,0,2.18,1.14c2,1.07,4.12,4.93.65,7.48-1.48,1.09-5-1.86-5.93.86a8,8,0,0,1-3,2.62c-6.16,1.31-12.14-7.74-13.53-11.57-3.85-4.37-4.49-8.07-3.26-12.35-1.16-1-3.37-3-3.69-4.5A4.63,4.63,0,0,1,532.65,243.08Z" style="fill:#3a1569"/><path d="M196,131.16a43.34,43.34,0,0,1-14.69-10,31.19,31.19,0,0,1-5.14-6.73l.23.11c.75.07,5.87.43,8.41-2.85,2.07-2.67,1.57-6.62,1.17-9.78a23.47,23.47,0,0,0-.5-2.68,17.29,17.29,0,0,1-3.76,4.54c-1.49,1.25-2.32,1.49-3.29,2.33-1.25,1.1-2.58,3.06-2.94,6.92a22.62,22.62,0,0,1-1.42-8.2,47.58,47.58,0,0,0-.55-8.35,12.53,12.53,0,0,0-2.64-5.56c1.36.07,5.79.09,8.1-2.88,2.06-2.67,1.56-6.62,1.16-9.78a23.47,23.47,0,0,0-.5-2.68,17.09,17.09,0,0,1-3.76,4.54c-1.49,1.25-2.32,1.49-3.29,2.33-1.27,1.12-2.64,3.15-3,7.18A41.92,41.92,0,0,0,162,84.43c-1.31-.73-2.64-1.39-4-2,1.73,0,5.53-.22,7.6-2.9s1.57-6.62,1.17-9.78a23.47,23.47,0,0,0-.5-2.68,17.13,17.13,0,0,1-3.76,4.54c-1.49,1.25-2.32,1.49-3.29,2.34-1.32,1.15-2.74,3.29-3,7.62-.69-.34-1.38-.68-2.06-1-2.95-1.58-5.54-3.69-6.59-7l.49.25c.74.06,5.87.42,8.41-2.86,2.07-2.66,1.57-6.62,1.17-9.78a21.18,21.18,0,0,0-.51-2.68A16.89,16.89,0,0,1,153.38,63c-1.48,1.25-2.31,1.49-3.28,2.34-1.22,1.06-2.52,3-2.91,6.62a22,22,0,0,1,.16-7.24l.8-.36c.54-.56,4.21-4.44,3.25-8.65-.78-3.42-4.29-5.62-7.09-7.38A24.84,24.84,0,0,0,141.82,47,17.94,17.94,0,0,1,143,53c0,2-.33,2.85-.29,4.18.06,1.83.85,4.39,4.18,7.45a23.71,23.71,0,0,0-.21,7.13A11.14,11.14,0,0,0,149.76,78c-1.54-.79-4.47-1.91-7.09-.73-2.85,1.28-4.16,4.73-5.21,7.49a20.38,20.38,0,0,0-.75,2.42,15.51,15.51,0,0,1,5-2.08c1.76-.38,2.54-.22,3.7-.49,1.63-.38,3.78-1.56,5.92-5.2l-.06-.08a41.9,41.9,0,0,0,6.7,3.6c1.69.81,3.35,1.71,5,2.67l-.13,0c-.69,0-5.45.15-7.49,3.4-1.67,2.65-.85,6.25-.19,9.12a20.19,20.19,0,0,0,.71,2.43,15.82,15.82,0,0,1,3.05-4.53c1.26-1.29,2-1.59,2.82-2.45,1.12-1.2,2.24-3.33,2.05-7.42,1,.62,2,1.27,3,2a21.17,21.17,0,0,1,2.78,2.25.49.49,0,0,1,0,.12l.25.12a11.35,11.35,0,0,1,2.84,4.57,21.13,21.13,0,0,1,.83,5.6l-.72-.33c-.69,0-5.44-.28-7.73,2.8-1.86,2.51-1.32,6.16-.89,9.08a21.52,21.52,0,0,0,.52,2.48,15.5,15.5,0,0,1,3.39-4.28c1.35-1.19,2.12-1.43,3-2.23a8.53,8.53,0,0,0,2.49-5.48c0,.3,0,.59,0,.88a28.51,28.51,0,0,0,1,8.28,16.54,16.54,0,0,0,.87,2.14v0h0a28.19,28.19,0,0,0,4.24,6,43.76,43.76,0,0,0,16.14,11.51A.24.24,0,0,0,196,131.16Z" style="fill:#dfd6ff"/><path d="M371.8,236.55a43.36,43.36,0,0,1,1.62-17.69,31.1,31.1,0,0,1,3.4-7.77v.26c.3.68,2.48,5.34,6.58,6,3.33.52,6.54-1.84,9.11-3.72a21.77,21.77,0,0,0,2.11-1.74,16.81,16.81,0,0,1-5.8-1.09c-1.81-.69-2.43-1.3-3.64-1.74-1.56-.56-3.92-.77-7.47.79a22.32,22.32,0,0,1,6.48-5.22,47.13,47.13,0,0,0,7-4.54,12.32,12.32,0,0,0,3.59-5c.6,1.23,2.73,5.11,6.45,5.68,3.33.52,6.54-1.83,9.11-3.72a21.77,21.77,0,0,0,2.11-1.74,16.81,16.81,0,0,1-5.8-1.09c-1.81-.69-2.43-1.3-3.63-1.74-1.6-.57-4-.78-7.71.89a42.14,42.14,0,0,0,.84-9.17c0-1.5-.07-3-.15-4.47.81,1.53,2.87,4.72,6.21,5.24s6.55-1.84,9.12-3.72a21.77,21.77,0,0,0,2.11-1.74,16.81,16.81,0,0,1-5.8-1.09c-1.81-.69-2.43-1.3-3.64-1.74-1.65-.6-4.21-.8-8.11,1.08,0-.77-.07-1.53-.09-2.3,0-3.35.54-6.64,2.89-9.15l0,.55c.31.68,2.48,5.33,6.58,6,3.33.52,6.54-1.84,9.11-3.72a21.77,21.77,0,0,0,2.11-1.74,16.81,16.81,0,0,1-5.8-1.09c-1.81-.69-2.43-1.3-3.64-1.74-1.52-.55-3.8-.76-7.2.67a22.2,22.2,0,0,1,6.41-3.37l.7.52c.75.21,5.93,1.53,9.14-1.35,2.62-2.34,2.84-6.47,3-9.78a23.73,23.73,0,0,0,0-2.84,17.69,17.69,0,0,1-4.7,3.94c-1.75,1-2.65,1.1-3.79,1.78-1.58.94-3.43,2.87-4.49,7.27a23.68,23.68,0,0,0-6.34,3.27,11.16,11.16,0,0,0-3.95,5.73c-.05-1.74-.49-4.84-2.8-6.57-2.5-1.87-6.15-1.34-9.08-.91a22.07,22.07,0,0,0-2.47.51,15.53,15.53,0,0,1,4.26,3.4c1.19,1.36,1.43,2.13,2.23,3,1.12,1.24,3.19,2.54,7.41,2.65l.05-.09a42,42,0,0,0,.09,7.6c.11,1.88.14,3.77.08,5.65l0-.14c-.35-.6-2.77-4.69-6.61-4.9-3.12-.18-5.87,2.29-8.06,4.26a20.89,20.89,0,0,0-1.78,1.79,15.66,15.66,0,0,1,5.44.48c1.73.47,2.35,1,3.51,1.27,1.59.4,4,.35,7.48-1.8-.06,1.18-.14,2.37-.27,3.54a23.65,23.65,0,0,1-.62,3.53l-.11.05V194a11.35,11.35,0,0,1-2.62,4.69,21.29,21.29,0,0,1-4.49,3.45l-.06-.79c-.29-.63-2.39-4.9-6.2-5.41-3.1-.41-6,1.83-8.37,3.63a21.93,21.93,0,0,0-1.92,1.65,15.56,15.56,0,0,1,5.39.9c1.69.6,2.27,1.15,3.4,1.53a8.47,8.47,0,0,0,6-.48l-.76.44a28.58,28.58,0,0,0-6.76,4.87,16.55,16.55,0,0,0-1.45,1.8l0,0v0a28.2,28.2,0,0,0-3.21,6.63,43.79,43.79,0,0,0-2.25,19.69A.24.24,0,0,0,371.8,236.55Z" style="fill:#dfd6ff"/><path d="M158.55,179.71l.07,0a103.59,103.59,0,0,1,13.56,20.44l1.18-.57A104.21,104.21,0,0,0,160,179.39c1.27-4.15.72-12.35.71-12.44l-1.3.11c.12,1.53.34,7.56-.43,11.13a126.22,126.22,0,0,0-11-11.57c.65-4.27-1.17-12.38-1.19-12.47l-1.27.32c0,.07,1.55,6.94,1.3,11.07-7.35-6.6-15.42-12.09-23.4-14.87L123,151.9c6.65,2.33,13.37,6.58,19.67,11.78-3,1.14-8.35,3-11,2.76l-.11,1.32c3.47.28,10.28-2.32,12.27-3.12A117.81,117.81,0,0,1,154.2,174.7c-1.79,1.15-7.71,4.82-10.86,5.17l.15,1.3c3.58-.4,10-4.45,11.61-5.49,1.19,1.32,2.35,2.65,3.46,4A.06.06,0,0,1,158.55,179.71Z" style="fill:#d3c7ff"/><path d="M147.91,161a128,128,0,0,1-18.37-31.73,128,128,0,0,1-8.37-35.7,128.4,128.4,0,0,1,18.37,31.73A128.39,128.39,0,0,1,147.91,161Z" style="fill:#ffd4dc"/><path d="M160.21,172.54a88.16,88.16,0,0,1,3-60.56,88.16,88.16,0,0,1-3,60.56Z" style="fill:#d3c7ff"/><path d="M76.13,172.47a91.34,91.34,0,0,1,29.65-8.29,91.24,91.24,0,0,1,30.7,2.43,91.34,91.34,0,0,1-29.65,8.29A91.24,91.24,0,0,1,76.13,172.47Z" style="fill:#d3c7ff"/><path d="M94.4,202.1A88.12,88.12,0,0,1,150,177.91a91.32,91.32,0,0,1-25.66,17A91.32,91.32,0,0,1,94.4,202.1Z" style="fill:#ffd4dc"/><path d="M130.31,154.5A128.23,128.23,0,0,1,96.2,141.05a128.45,128.45,0,0,1-28.75-22.78,128.36,128.36,0,0,1,34.12,13.45A128.25,128.25,0,0,1,130.31,154.5Z" style="fill:#ffd4dc"/><path d="M346.23,314.71l0,.06a104,104,0,0,1-22.91,8.75l.3,1.28a103.8,103.8,0,0,0,22.64-8.6c3.77,2.16,11.89,3.42,12,3.43l.18-1.3a49.31,49.31,0,0,1-10.77-2.85,127.23,127.23,0,0,0,13.71-8.23c4,1.57,12.33,1.57,12.42,1.57l0-1.31c-.08,0-7.12,0-11.09-1.16,8.05-5.72,15.17-12.39,19.64-19.57l-1.11-.69c-3.73,6-9.35,11.61-15.8,16.62-.48-3.13-1.09-8.8-.29-11.38l-1.25-.39c-1,3.33,0,10.54.35,12.66a118.48,118.48,0,0,1-12.1,8c-.72-2-3-8.58-2.66-11.72l-1.31-.14c-.39,3.57,2.15,10.73,2.82,12.52q-2.32,1.3-4.66,2.51Z" style="fill:#d3c7ff"/><path d="M366.79,308.42a124.83,124.83,0,0,1,71.65-11.32,125.05,125.05,0,0,1-71.65,11.32Z" style="fill:#ffd4dc"/><path d="M352.86,317.9a88.1,88.1,0,0,1,58.43,16.19,88.1,88.1,0,0,1-58.43-16.19Z" style="fill:#d3c7ff"/><path d="M371.35,235.87a88.1,88.1,0,0,1-7.5,60.17,88.1,88.1,0,0,1,7.5-60.17Z" style="fill:#d3c7ff"/><path d="M338.44,247.21a88.21,88.21,0,0,1,11.42,59.56,88.06,88.06,0,0,1-11.42-59.56Z" style="fill:#ffd4dc"/><path d="M377,292.68a125.09,125.09,0,0,1,49.11-53.4A124.93,124.93,0,0,1,377,292.68Z" style="fill:#ffd4dc"/><path d="M371,134.7c0,5-42.74,9.1-95.46,9.1s-95.45-4.08-95.45-9.1,42.73-9.11,95.45-9.11S371,129.67,371,134.7Z" style="fill:#6a5386"/><path d="M216.39,148.31c-7.21-9.28-4.12-23,5.24-29.56a19.32,19.32,0,0,1,16.51-2.85c2.91.85,6.37,3.63,5.09,7.09-.7,1.89-3,2.26-4.65,1.51-2.43-1.09-3.51-4.08-3.59-6.58a10.22,10.22,0,0,1,2.9-7.24c3.54-3.79,10.13-5.46,13.86-1,1.2,1.46.36,4.54-1.94,3.87-2.07-.6-2.79-3.35-2.87-5.22a13,13,0,0,1,4.46-9.79c3.23-3,7.76-4.38,12-5.19a40.37,40.37,0,0,1,14.08-.27c4.08.68,8.39,2.1,11.29,5.18a10.66,10.66,0,0,1,2.65,5c.48,2.26.57,5.35-1.1,7.12a4.37,4.37,0,0,1-6.5-.19c-2.08-2.31-1.3-5.32.34-7.63,3.26-4.59,9.23-6.26,14.62-6.12a23.62,23.62,0,0,1,8.14,1.64,18.19,18.19,0,0,1,6.83,4.42c1.36,1.57,2.76,4.55.53,6-1.28.85-3.29,1.16-4.53.12a5,5,0,0,1-1.51-4.32c.32-2.86,3.3-5,5.79-6a20.67,20.67,0,0,1,8.73-1.06c5.52.35,11.29,2,15.13,6.18,2.78,3,4.76,7.69,3.51,11.82a5.51,5.51,0,0,1-3.14,3.6c-1.94.77-5.2.61-6.67-1s-1.57-4,.47-5a6.88,6.88,0,0,1,4.67-.29,19.21,19.21,0,0,1,7.39,4c7.67,6.4,8.8,17.29,5.08,26.14a26.77,26.77,0,0,1-9.13,11.48,29.91,29.91,0,0,1-15.39,5c-11.77.7-24.73-4.15-32-13.66-3.29-4.29-6-10.25-4.5-15.72a14.73,14.73,0,0,1,8.49-9.28c2.06-.89,6.92-2.2,7.78,1,.47,1.75-.38,4.09-2.24,4.56a4.45,4.45,0,0,1-4.82-2.65c-1.18-2.63.28-5.61,2.11-7.53a11,11,0,0,1,6.52-3.19,17.25,17.25,0,0,1,14.14,5.07c4.45,4.54,5.57,11.81,3.77,17.75-1.95,6.43-7,11.65-12.8,14.77-6.1,3.27-12.66,3.67-19.42,2.86a54.39,54.39,0,0,1-18.87-5.74c-5.71-3-10.84-7.39-13.86-13.19-2.74-5.26-1.49-12.95,3.11-16.81,2.28-1.91,6.25-3.21,8.83-1.12a3.31,3.31,0,0,1-.05,5,4.6,4.6,0,0,1-4,.91c-4.38-.88-4.86-6.86-3.09-10.12,2.63-4.84,9.69-4.62,13.48-1.36,4.08,3.5,5.68,9.59,4.86,14.78a27.77,27.77,0,0,1-8.56,15.62,30,30,0,0,1-16.39,7.59c-6.13.75-13.43-.39-18.3-4.45a19.26,19.26,0,0,1-6-8.89,5,5,0,0,1,1.72-5.68c.7-.49,2.87-1.48,3.32-.2a2,2,0,0,1-2.16,2.45c-1.86-.48-3.24-2.62-4.09-4.18a20,20,0,0,1-2.29-8.64c-.32-7.11,2.91-14.18,7.2-19.71a39.6,39.6,0,0,1,14.53-11.51c11.21-5.24,23.95-4.33,34.83,1.39a43.41,43.41,0,0,1,15,13c3.61,5,6.68,11.27,7.17,17.51.34,4.45-.44,11.36-5.84,12.38a8.38,8.38,0,0,1-8.3-3.07c-1.76-2.47-2.07-5.71-1.89-8.65a32,32,0,0,1,3-11.15c3.37-7.37,9.24-14.47,17.16-17.08a19.92,19.92,0,0,1,12.54.08c2.71.89,5.6,2.21,7.16,4.72a10,10,0,0,1,.83,9.42,4.91,4.91,0,0,1-9.36-1.62c-.67-5,3.05-9.87,6.87-12.62a33.58,33.58,0,0,1,9.52-4.37,58.58,58.58,0,0,1,10.38-2.33,53.45,53.45,0,0,1,19.68,1.11,55.37,55.37,0,0,1,30.91,21,60.74,60.74,0,0,1,9,17.64c2.6,8.19,4.67,16.57,7.19,24.79,4.25,13.86,8.92,27.62,14.41,41A231.26,231.26,0,0,0,445,219.56a113,113,0,0,0,13.09,18.49,63.43,63.43,0,0,0,12.51,11,54.51,54.51,0,0,0,11.93,5.83,103.48,103.48,0,0,0,10.94,3c.86.2,1.23-1.13.36-1.34a91.58,91.58,0,0,1-13.09-3.8,52.41,52.41,0,0,1-13.86-8.11,78.86,78.86,0,0,1-14.72-16.33,175.26,175.26,0,0,1-15.62-28.43,410.92,410.92,0,0,1-16.5-44.33c-3-9.56-5.7-19.22-8.47-28.86a62.46,62.46,0,0,0-9.85-20,55.15,55.15,0,0,0-58.11-21.26c-7,1.69-14.39,4.29-18.76,10.32-2.54,3.5-4.46,9.25-1.31,13a6.33,6.33,0,0,0,5.64,2.14c3.18-.51,5.16-3.38,5.64-6.39a11.85,11.85,0,0,0-2.46-9.1c-1.95-2.36-5-3.67-7.89-4.53a21.28,21.28,0,0,0-14.06.66c-8.69,3.55-14.92,12-17.95,20.64-2.14,6.13-3.74,16.33,3.06,20.31,3.71,2.17,9,1.8,11.67-1.81,3.35-4.59,2.72-11.36,1.15-16.47a44.73,44.73,0,0,0-31.3-29.68,38.52,38.52,0,0,0-19.37-.27,41.47,41.47,0,0,0-17.33,9.27,37.9,37.9,0,0,0-11.73,19.21c-1.42,6.16-.61,13.76,3.78,18.63,1.11,1.23,2.87,2.61,4.65,2.09a3.71,3.71,0,0,0,2.25-4c-.35-1.63-2.13-2-3.54-1.61a6.11,6.11,0,0,0-4.17,3.8c-1.08,3,.48,6.06,2,8.58a18.81,18.81,0,0,0,8.41,7.74,28.92,28.92,0,0,0,19.82,1.4,30.82,30.82,0,0,0,16.46-11.25c3.71-5,6.16-11.78,5.19-18.08-.85-5.49-4.3-11.32-10.07-12.61-5.37-1.2-10.91,1.53-11.83,7.19-.72,4.38,1.68,9.55,6.73,9.25,3.08-.18,5.92-2.93,5-6.21s-4.67-4-7.48-3.43c-6.64,1.36-10,8.76-9.61,15,.4,6.93,5.75,12.73,11.12,16.61a50.73,50.73,0,0,0,20.47,8.31c7.18,1.32,14.61,1.64,21.46-1.25s12.63-8.19,15.37-15.06c2.52-6.32,1.89-14.21-2.43-19.64A18.67,18.67,0,0,0,307,111.35c-5.33.29-11.28,4.1-11.47,10a6.22,6.22,0,0,0,3.35,5.76,4.77,4.77,0,0,0,5.62-.69c2.65-2.78,1.44-7.44-2.39-8-4.16-.64-8.67,1.89-11.5,4.74A14.56,14.56,0,0,0,287.13,138c4,13.07,17.57,20.89,30.48,22.48a36.08,36.08,0,0,0,18.93-2.52,27.38,27.38,0,0,0,12.24-11.18c5.35-9.19,5.57-21.75-2.22-29.67a22.93,22.93,0,0,0-7.25-4.9c-2.64-1.15-6.31-1.88-8.75.15-2.62,2.16-1.4,6.58,1.59,7.78a9.24,9.24,0,0,0,6.82.07c4-1.75,4.7-6.69,3.77-10.5A17.49,17.49,0,0,0,332.06,98c-5.68-2.27-13.1-3.06-18.85-.69-2.58,1.06-5.2,3.11-6.12,5.85s.31,6.55,3.17,7.46c2.32.74,5.71-.53,6.42-3s-1-5.12-2.69-6.75a21.85,21.85,0,0,0-7.45-4.29,25,25,0,0,0-9.4-1.41c-5.9.24-12.09,2.7-15,8.13a6.81,6.81,0,0,0,.53,7.78,5.88,5.88,0,0,0,6.61,1.79c5-2,4.43-9.27,2.21-13.18s-6.73-6.24-11.06-7.34a40.36,40.36,0,0,0-15.94-.52c-4.7.73-9.72,2.16-13.44,5.26a15,15,0,0,0-5.43,9.72c-.31,3,.77,8,4.55,8.27,3.23.22,4.55-4,2.67-6.18a9.15,9.15,0,0,0-7.33-3.28,12.81,12.81,0,0,0-11.78,10.47c-.67,4.49,2.36,11.74,8.06,10a4.42,4.42,0,0,0,3-4.76c-.3-3.65-3.13-5.86-6.48-6.78a20.77,20.77,0,0,0-18,3.51c-9.68,7.33-12.5,21.48-4.89,31.27.55.71,1.52-.28,1-1Z" style="fill:#997fba"/><path d="M380.86,181.65A113.77,113.77,0,0,1,349,261.31a51.23,51.23,0,0,0-13.16,47.75c2.73,11.36,7.74,24.84,12.73,37.22l-97.52,1c5.83-50.6-14.56-57.23-66-50.25-22.07,3-8.8-25.32-20.39-33.37-4.55-5.82,3.13-10.13,7.11-10.66-20.29-1.82-2.11-14.63-10-23-2.93-2.41-9.73-3-13-7.2-8.48-9.2,20.06-23,22.13-48.67l.09-.91a115.29,115.29,0,0,1,9.57-38.56c65,5.1,128.57,5.43,190.51,0A115.69,115.69,0,0,1,380.86,181.65Z" style="fill:#d8b8ff"/><path d="M380.86,181.65a115.69,115.69,0,0,0-9.87-47q-9,.78-18.08,1.41a115.87,115.87,0,0,1,9.27,45.62,113.77,113.77,0,0,1-31.92,79.66,51.23,51.23,0,0,0-13.16,47.75c2.73,11.36,7.74,24.84,12.73,37.22l-78.79.61c0,.12,0,.23,0,.35l97.52-1c-5-12.38-10-25.86-12.73-37.22A51.23,51.23,0,0,1,349,261.31,113.77,113.77,0,0,0,380.86,181.65Z" style="fill:#c39ef0"/><path d="M532.79,319a46.26,46.26,0,0,1,.37,7.39c-.18,5.7-1.56,10.17-3.35,15.5l.9,4.42H516.63L527,341.22s-2-11.19-2.87-19c-.23-2-.37-3.75-.39-5.07-.13-7.53,7.09-27.82,7.55-29.13l0-.05v0H543.1C547.21,303.45,539.39,306.11,532.79,319Z" style="fill:#f7c1ce"/><path d="M540.08,307.53l-.14.22A98.15,98.15,0,0,0,532.8,319c.28,2.28.83,14.41,1.25,18.63a.8.8,0,0,1-.8.88h-7.59a.79.79,0,0,1-.79-.73c-.31-3.95-1.14-19.46-1.16-20.67-.13-7.53,7.09-27.81,7.55-29.13l0-.05H543.1C545.66,297.59,543.6,302.27,540.08,307.53Z" style="fill:#2b0c54"/><path d="M539.94,307.75A98.15,98.15,0,0,0,532.8,319c.28,2.28.83,14.41,1.25,18.63a.8.8,0,0,1-.8.88h-.82l-1.65-20.28,7-15.71,2.35,5Z" style="fill:#ccc;mix-blend-mode:multiply"/><path d="M553.78,345.21c1.57-3.24,3.18-6.47,4.86-9.65-3.88-3.18-7.49-6.05-11.22-9.6-.89-.84-1.81-1.38-2.95-2.61-8.14-8.83-8.39-23.89-9.66-35.33,3.2,0,6.42.06,9.62.09,6.26,7.33,5.39,15.79,5.94,24.85a13.59,13.59,0,0,0,3.17,7.75c.37.49.69.76,1.09,1.31,2.85,3.83,4.78,8.26,6.82,12.6.89,1.36,1.77,2.71,2.58,4.12Z" style="fill:#f7c1ce"/><path d="M560.47,329.48a.68.68,0,0,1-.2,1,13,13,0,0,0-1.29.91c-.78.53-2.63,1.87-3.55,2.61a.62.62,0,0,1-.74,0c-2.45-1.82-8.62-8.88-9.83-10.21-9.23-10.12-9-23.92-10.76-36,2.51.11,7.81.19,9.54.24l.85,0c.22.35.67.66,1,1,5.17,7.06,4.31,14.61,4.92,23,.26,3.61,1.08,5.49,4.06,9C554.8,321.65,559.26,328.08,560.47,329.48Z" style="fill:#3a1569"/><path d="M560.3,330.5c-.41.18-.81.63-1.22.84a84.66,84.66,0,0,1-10.67-13.65c-.54-5-.72-11.22-.89-16s-2.21-7.44-4.94-10.81c.94-.54,1.92-1.16,2.86-1.75,5.16,7.05,4.32,14.63,4.92,23,.25,3.61,1.08,5.5,4.06,9,.38.45,4.83,6.89,6.06,8.27A.73.73,0,0,1,560.3,330.5Z" style="fill:#ccc;mix-blend-mode:multiply"/><path d="M558.64,335.56c-2.56,3.1-6.65,6.52-5.26,10.87l11.4-7.82c-.95-1.71-1.83-3.37-3.53-4.43C560.38,334.64,559.5,335.08,558.64,335.56Z" style="fill:#2b0c54"/><path d="M534.22,267.75a36.23,36.23,0,0,1-8.83,4.78,10.28,10.28,0,0,1-2.72.53c-5.39.26-15.6-8.46-15.6-8.46-3.23.62-6.26-1.5-6.26-3.8,0-1.35,3.7,1.42,5.11.87,0,0-.34-2.48.71-2.72.61-.13,1.48,1.52,1.91,3.34,5.23.82,8.41,2.08,13.49,3.72.29-.22.72-.5,1.24-.82,2.08-1.29,5.56-3.27,7.22-4.38Z" style="fill:#f7c1ce"/><path d="M534.22,267.75s-3.43,4.23-7.7,5.59L523.11,265c2.08-1.29,5.9-3.65,7.56-4.77Z" style="fill:#bc78ff"/><path d="M478.32,346.16a42.41,42.41,0,1,1,42.4-42.41A42.46,42.46,0,0,1,478.32,346.16Zm0-83.32a40.91,40.91,0,1,0,40.91,40.91A41,41,0,0,0,478.32,262.84Z" style="fill:#997fba"/><path d="M475.88,344.45A42.41,42.41,0,1,1,518.29,302,42.45,42.45,0,0,1,475.88,344.45Zm0-83.32A40.91,40.91,0,1,0,516.79,302,41,41,0,0,0,475.88,261.13Z" style="fill:#997fba"/><path d="M483.46,344.45A42.41,42.41,0,1,1,525.86,302,42.46,42.46,0,0,1,483.46,344.45Zm0-83.32A40.91,40.91,0,1,0,524.37,302,41,41,0,0,0,483.46,261.13Z" style="fill:#997fba"/><path d="M481.25,339.35a42.41,42.41,0,1,1,42.4-42.4A42.46,42.46,0,0,1,481.25,339.35Zm0-83.31A40.91,40.91,0,1,0,522.16,297,41,41,0,0,0,481.25,256Z" style="fill:#997fba"/><path d="M530.37,272.61c0,3.84.91,15.33.91,15.33h13.18s5.5-16.72,4.76-22.4c-.33-2.52-2.92-5.74-7-7.36l-4.94,0a11,11,0,0,0-7.42,3.4S530.41,269.23,530.37,272.61Z" style="fill:#3e3279"/><path d="M530.37,272.61c0,3.84.91,15.33.91,15.33h13.18s5.5-16.72,4.76-22.4c-.33-2.52-2.92-5.74-7-7.36l-4.94,0a11,11,0,0,0-7.42,3.4S530.41,269.23,530.37,272.61Z" style="fill:#3e3279"/><path d="M549.33,268.41c-.08,6-1.57,16.52-2.13,20.29a2,2,0,0,1-.81,1.31,1.92,1.92,0,0,1-.81.32,53.06,53.06,0,0,1-7.94.61c-1,0-2,0-3-.1a36.89,36.89,0,0,1-3.82-.45,2,2,0,0,1-1.61-1.71c-.25-2.31-.73-7.1-1-12.07-.06-1.18-.11-2.37-.14-3.54a44.54,44.54,0,0,1,.54-9.75c.82-3.53,4.78-5.11,8.59-5.11l4.94,0a9.08,9.08,0,0,1,7,7.37A20,20,0,0,1,549.33,268.41Z" style="fill:#af5eff"/><path d="M534.66,290.84a36.89,36.89,0,0,1-3.82-.45,2,2,0,0,1-1.61-1.71c-.25-2.31-.73-7.1-1-12.07C530.68,281.32,530.09,287.42,534.66,290.84Z" style="fill:#ccc;mix-blend-mode:multiply"/><path d="M544.62,272.32a50.17,50.17,0,0,1-6.36,7.79,10.45,10.45,0,0,1-2.17,1.59c-4.74,2.43-16.58,1.75-16.58,1.75-2.2,3.05-8.13,3.13-9.18,1.88-1.86-2.25,4.6-1.63,5-3.14,0,0-2.88-1.18-2.24-2.34s5.69,1.19,5.69,1.19a45.45,45.45,0,0,1,13.77-4.93c.31-.56.62-1.11.94-1.66a30,30,0,0,1,9.18-10.24A8.11,8.11,0,0,1,544.62,272.32Z" style="fill:#f7c1ce"/><path d="M539.33,280.11l-6.64-5.95c2.32-3.93,6.66-12.45,10.66-9.69C548.67,268.15,542.46,277.25,539.33,280.11Z" style="fill:#bc78ff"/><path d="M527,341.22c-4.53,1.56-9.89,1.09-10.34,5.11h14.08a10.1,10.1,0,0,0-.67-5.11Z" style="fill:#2b0c54"/><path d="M50.3,311H98.12a4,4,0,0,0,4-4h0a4,4,0,0,0-4-4H50.3a4,4,0,0,0-4,4h0A4,4,0,0,0,50.3,311Z" style="fill:#f15979"/><path d="M98.69,305.23H50.87a4,4,0,0,0-4,3.85,4,4,0,0,1-.58-2.07,4,4,0,0,1,4-4H98.12a4,4,0,0,1,4,4c0,.06,0,.11,0,.17A4,4,0,0,0,98.69,305.23Z" style="fill:#cf4865"/><polygon points="53.63 348 58.66 342.97 74.8 342.97 74.8 307.12 73.08 307.12 73.08 341.26 57.95 341.26 52.41 346.79 53.63 348" style="fill:#405178"/><polygon points="94.25 348 95.46 346.79 89.92 341.26 74.8 341.26 74.8 307.12 73.08 307.12 73.08 342.97 89.21 342.97 94.25 348" style="fill:#405178"/><path d="M55.88,345.9a2.11,2.11,0,1,0-2.1,2.1A2.11,2.11,0,0,0,55.88,345.9Z" style="fill:#405178"/><circle cx="93.67" cy="346.23" r="2.1" style="fill:#405178"/><path d="M92.48,338c-1.57-7.69-2.42-14-2.21-19.53.16-4.07.57-7.8.91-11.55l-24.36-13.5-7.73-4.3H73.92s21.15,6.65,24.74,12.44c2.41,3.89,1.91,12.67.78,20.63-1.2,8.35-3.1,15.81-3.1,15.81Z" style="fill:#e8a7b8"/><path d="M92.42,337.87l-1.25,4L92,348l1.26.06,1.15-5.38,2,3.57a3.41,3.41,0,0,0,2.49,1.89c3,.37,8.76.47,9-1.41s-5.37-2-7-4.15-3.5-4.76-3.5-4.76Z" style="fill:#2b0c54"/><path d="M99.44,322.23l-5,.81-4.13-4.53-18.2-20-5.25-5.06-4.43-4.3H73.92s21.15,6.65,24.74,12.44C101.07,305.49,100.57,314.27,99.44,322.23Z" style="fill:#2b0c54"/><path d="M96.86,338.27c-4.44-3.68-7.38-8.34-9.68-13.65a73.33,73.33,0,0,1-3.63-11S61,311.81,55.05,303.45c-4-5.7-.8-14.29-.8-14.29,3.85.12,8.91-.7,12.1.3,12,3.77,25,8.74,28,16.8a111.27,111.27,0,0,1,4.22,15.86c1,4.83,1.93,10.43,3.26,16.07Z" style="fill:#f7c1ce"/><path d="M98.54,322.12,91,323.78l-3.83.84a73.33,73.33,0,0,1-3.63-11s-13.29-1.09-22.15-5.37a16.4,16.4,0,0,1-6.35-4.84c-3.7-5.22-1.3-12.85-.87-14.11l.07-.18h0c3.86.11,9.35-1.05,12.53-.05,12,3.77,25.09,8.92,28.1,17C96.68,310.86,97.32,316.29,98.54,322.12Z" style="fill:#3a1569"/><path d="M61.4,308.29a16.4,16.4,0,0,1-6.35-4.84c-3.7-5.22-1.3-12.85-.87-14.11l.07-.18h0L58,290.68C55.36,297.28,56.89,303.07,61.4,308.29Z" style="fill:#2b0c54"/><path d="M68,245.35a3.46,3.46,0,0,0-4-.58c-.93.56-1.48,1.59-2.41,2.13-1.42.83-3.27.33-4.86.8a4,4,0,0,0-2.8,3.35c-.09,1.09.29,2.26-.19,3.25A3.86,3.86,0,0,1,51.52,256c-2.11.87-4.5,1.4-6.07,3a2.33,2.33,0,0,0-.8,1.77c.07.67.6,1.22.68,1.89a2.17,2.17,0,0,1-1,1.9,15.66,15.66,0,0,1-2,1.07c-1.9,1-3.85,4.58-.61,7,1.38,1,4.71-1.73,5.53.81A7.51,7.51,0,0,0,50,275.81C55.72,277,61.3,268.59,62.59,265c3.59-4.08,4.18-7.53,3-11.51,1.08-1,3.14-2.81,3.44-4.2A4.34,4.34,0,0,0,68,245.35Z" style="fill:#3a1569"/><path d="M69.42,274c2.53,3,6.51,6.5,9.1,9.41,1.28-1.07,2.77-1.6,3.84-3C78,274,73.51,265.54,67.2,261.55,68.23,265.73,68.21,269.84,69.42,274Z" style="fill:#af5eff"/><path d="M75,289.51c-6-.77-10.87,1.63-16.95,1.17a20.4,20.4,0,0,1-2.25-.29,2.72,2.72,0,0,1-2.25-2.91l2-18.94,1.76-5.82.41-1.34,3.16-1.64,3.48.12c5.19,2.18,8.76,8.07,5.62,14.59C66.92,280.79,75,289.51,75,289.51Z" style="fill:#af5eff"/><path d="M64.51,259.91c0,1.9-1.83,1.9-3.66,0l.43-2.31.27-1.43,2.75,1.34.21,2.35Z" style="fill:#f7c1ce"/><path d="M59.84,273.33c-1.39,3.65-2.79,12.36-1.8,17.35a20.4,20.4,0,0,1-2.25-.29,2.72,2.72,0,0,1-2.25-2.91l2-18.94,1.76-5.82a10.68,10.68,0,0,1,2.45,2.65A10.46,10.46,0,0,1,59.84,273.33Z" style="fill:#9d4af0"/><path d="M76.57,283c-1.59,2.33-2.55,1.91-4.67,2-2.77-.15-5.73.26-8.53.05-3.37-.26-8.32.8-11.07-1.37s.74-12.87,1.55-15.27c1.07-3.2,2.51-4.52,4.1-7.05-.71,2.45-1.66,4.72-2.37,7.12.45,3.73.82,7.48,1.22,11.2,2.73.36,4.77.59,7.65,1.07,2.54.41,6,1,8.65,1.69C75.43,281.27,78.15,280.7,76.57,283Z" style="fill:#f7c1ce"/><path d="M64.36,280.79c-.28,1.49-.59,2.85-1,4.4-3.56.16-7.88,1.15-11.21-1.56S51.08,270,52.42,267a10.35,10.35,0,0,1,5.66-5.74c5.09,5-.61,12-1.27,18.54C59.34,280.06,61.85,280.39,64.36,280.79Z" style="fill:#af5eff"/><path d="M68.31,291.79l4.12-12a2.41,2.41,0,0,1,2.08-1.19h18.4a2.32,2.32,0,0,1,2.18,3.25l-4.78,10.42A2.59,2.59,0,0,1,88,293.79H69.8A1.53,1.53,0,0,1,68.31,291.79Z" style="fill:#fff"/><path d="M93,278.65a2.23,2.23,0,0,1,.06,2l-4.78,10.42a2.59,2.59,0,0,1-2.35,1.48H68.26a1.55,1.55,0,0,0,1.54,1.24H88a2.59,2.59,0,0,0,2.35-1.48l4.78-10.42A2.31,2.31,0,0,0,93,278.65Z" style="fill:#eadff5"/><path d="M64.44,259.11a6.45,6.45,0,0,1-1,.2,2.6,2.6,0,0,1-2.15-1.71l.27-1.43,2.75,1.34Z" style="fill:#ccc;mix-blend-mode:multiply"/><path d="M66.84,249.54s-1.15,2.36-5,3.24c0,0-1.2-1.28-1.72-.48s.74,2.2.74,2.2c.14,2.31,1.86,4.14,3.64,3.71C68.54,257.23,66.84,249.54,66.84,249.54Z" style="fill:#f7c1ce"/><path d="M536.38,258.69c0,2.05,2,2.05,3.92,0l-.46-2.47-.28-1.54-3,1.44-.22,2.52Z" style="fill:#f7c1ce"/><path d="M536.45,257.83a5.54,5.54,0,0,0,1.09.22,2.79,2.79,0,0,0,2.3-1.83l-.28-1.54-3,1.44Z" style="fill:#ccc;mix-blend-mode:multiply"/><path d="M533.87,247.57s1.24,2.53,5.38,3.47c0,0,1.29-1.36,1.85-.51s-.79,2.36-.79,2.36c-.16,2.48-2,4.45-3.91,4C532.06,255.82,533.87,247.57,533.87,247.57Z" style="fill:#f7c1ce"/><path d="M96.86,338.27l-1.25,4,.78,6.15,1.26.06,1.14-5.38,2,3.57a3.45,3.45,0,0,0,2.49,1.89c3,.37,8.76.47,9-1.41s-5.37-2-7-4.15-3.5-4.76-3.5-4.76Z" style="fill:#3a1569"/><path d="M81.24,288.21a1.66,1.66,0,0,1,0-2.39,1.79,1.79,0,0,1,2.47,0,1.66,1.66,0,0,1,0,2.39A1.79,1.79,0,0,1,81.24,288.21Z" style="fill:#eadff5"/><path d="M293.23,277.38a6.76,6.76,0,0,1-.48-2.36c.12-1.34,1.12-2.56,1.15-3.91,0-1.81-1-3-1.88-4.51a1.77,1.77,0,0,1-.36-.8,6.12,6.12,0,0,1,.59-1.83c.63-2.21.21-4-1.62-5.32-1.1-.84-2.33-.89-3.24-1.92-.28-.31-.2-.73-.42-1.06a3,3,0,0,0-2.12-1.62,3.47,3.47,0,0,0-2.58.84c-.18.13-.27.34-.47.41-.4.14-.83-.07-1.21-.07a3,3,0,0,0-3.21,2.27c-.47,2.66.77,4.35,1.94,6.56-4.2,5.53-5.33,9.53-2.9,16.18a1.7,1.7,0,0,0,1.58.92c.65,0,1.41-.24,2,.15,1.27.85,1.48,2.48,2.38,3.58a3.51,3.51,0,0,0,3.43,1.24c1.33-.18,2.1-1.08,3.11-1.83.22-.16.33-.39.6-.48.6-.19,1.18.15,1.8,0a3.07,3.07,0,0,0,2.6-2.46C294.17,279.93,293.59,278.74,293.23,277.38Z" style="fill:#3a1569"/><path d="M274.63,283.54c-2,1.47-4.71,4-6.87,3.59-6.51-1.18-12.49-5.93-16.41-10.07-3.39-1.65-5.59-3.72-5.12-7.46.38-3,4.38,3,5.39,3.47.49-.79.73-3.23,1.74-2,.64.81.28,2,.59,3.81,1.62,2.22,7.7,3.92,12.18,4.72,1.07.19,2.43-.62,3.29-1.1,2.6-1.47,5.34-2.83,7.88-4.45,1.68.62,3.38,1.27,5,2A50.17,50.17,0,0,1,274.63,283.54Z" style="fill:#f7c1ce"/><path d="M273.16,285.83c-1.79-2.33-3.42-4.67-5.19-7a90.59,90.59,0,0,1,9.06-6c3.07-1.58,8-1.48,6.48,3.06C281.91,280.66,276.63,282.63,273.16,285.83Z" style="fill:#fff"/><path d="M272.4,300.22c-4.59,2.9-9.15,5.91-13.78,8.75-11.19,2.67-22.26,4.27-33.61,6.5-10.66,2.09-23.88,5-34.82,4.15-.76-.07-.47-2.74.39-2.84,7.87-.92,23.15-7.35,29.48-9.18,11.29-3.28,25.36-4.59,33.58-7.17s5.89,1.95,12.42-.36C267.44,302.71,270.27,298.12,272.4,300.22Z" style="fill:#f7c1ce"/><path d="M280.06,301.53c-2.54,7-5.43,11.46-13.08,13.47-11.79,3.1-26.25,3.58-37.68,5.58-12.61,2.22-22.62,5-34.39,4.27-3.74-.23-1.62-1.08-4.9-1.35-1.31.49-3.15-4.15-.74-4.41,11.9-1.25,26.25-7.29,37.88-10.55,12.71-3.56,25.87-6.37,38.49-10.45.71-1.28,1.36-2.62,2-3.93C271.85,296.53,276,298.85,280.06,301.53Z" style="fill:#f7c1ce"/><path d="M272.41,300.22c-4.59,2.9-9.16,5.9-13.78,8.75-11.24,2.65-22.23,4.28-33.66,6.51-10.73,2.08-21,5.33-32.19,4.34-.16-1.36-1-2.38-.12-3.83,7.94-1,21-6.57,27.44-8.41,11.45-3.29,24.26-5.63,32.91-7.71s8.94-.34,16.13-1.55C269.73,299.44,271.31,299.62,272.41,300.22Z" style="fill:#2b0c54"/><path d="M268.62,316.52l-.15.06-1.26.4a1.23,1.23,0,0,1-.22.06l-.32.08c-.76.17-3,.62-4,.79l-.28,0c-10.75,1.8-23.15,1.75-33.55,3.42-12.31,2-22.27,5.05-34.52,4.19-.33-2.38-1.26-4.65-1.79-7,12.27-1.19,22.86-6.7,34.59-10,12.82-3.58,25.87-6.4,38.57-10.47.7-1.28,1.3-2.63,2.12-3.86,3.57,2,7.55,4.24,10.9,6.31.68.42.67.47,1,.65s.09,0,.11.05h0l0,0,0,0H280l.14.09,0,0s.07,0,.08.07a1.92,1.92,0,0,1,0,.35C279.48,311.77,277.62,313,268.62,316.52Z" style="fill:#3a1569"/><path d="M289.3,280a45.7,45.7,0,0,0-5.1,12.8c-.7,2.92-1.41,6.26-2.42,9.24-.14.41-.42,1.08-.62,1.54-.06.15-.16.37-.24.55-.16.34-.34.74-.53,1.08-2.09-.81-4.28-1.69-6.38-2.39s-4.58-1.48-6.54-2a47.29,47.29,0,0,0-5.08-1.23c2.63-2,4.47-2.56,6.26-5.74,1-1.85,1.12-5.17,1.45-7.59.94-6.87,3.7-10.89,9.79-14.24.05-.57.05-.7.09-1.36s.1-1.88.14-2.65c1.13-.23,2.28-.31,3.42-.48.12.81.14,1.37.28,2.23a22.48,22.48,0,0,0,.48,2.84,3.48,3.48,0,0,0,2,2l0,0a7,7,0,0,1,1.75,2.72l.3.79A10.74,10.74,0,0,0,289.3,280Z" style="fill:#f7c1ce"/><path d="M289.47,282.84c-3.8,6.57-6,13.61-8.31,20.83,0,.12-.16.32-.27.55s-.35.75-.48,1c-1.36-.05-2.65-.11-4-.28a23.75,23.75,0,0,1-2.81-.4,71.83,71.83,0,0,1-16.53-5.91c7.05-1.69,11.15-4.8,12.7-11.92,1.62-7.44,3.63-11.05,10.17-14.84,1.43.27,2.88.36,4.34.69,2.21,1,4.56,3.35,5.16,5.47S289.4,280.94,289.47,282.84Z" style="fill:#fff"/><path d="M283.8,269.63a16.23,16.23,0,0,1-3.84,1.29c.07-1,.12-2,.17-2.95,1.13-.16,2.27-.3,3.41-.41C283.63,268.25,283.71,268.94,283.8,269.63Z" style="fill:#b5999a"/><path d="M286,265.11c-.08.11-.13.25-.22.37-1.75,2.33-4.34,5.08-7.17,2.86-1.12-.87-.68-2.38-.54-3.65a28,28,0,0,1,1.34-4.56.62.62,0,0,1,1.06-.33,12.78,12.78,0,0,0,4.22,3.28c.62-.54,1.87-1.16,2.32-.18S286.48,264.42,286,265.11Z" style="fill:#f7c1ce"/><path d="M288.59,280.65c-3.6,7.34-4.78,15.29-7.45,23,0,.12-.14.33-.24.56l-.49,1c-1.34,0-2.66-.16-4-.21.26-.52.54-.58.78-1.19,3-7.7,3.88-15.56,4.22-23.83,2.32-.65,4.68-1.24,7-1.83.33-.09-.4.08,0,0A7.13,7.13,0,0,1,288.59,280.65Z" style="fill:#d44e6a"/><path d="M285.52,290.83c-.94,2.71-1.94,6.39-4.27,7.42-7,3.12-13.15,1.54-20.43,1.73-3.77.79-8.71-.93-10.58-3.64-2-2.88,5.54-.22,6.82-.42,0-1.08-2.61-2.67-.75-2.73.8,0,3.15,1.55,4.25,2.71A54.09,54.09,0,0,0,275.72,292c1.15-.52,1-1.6,1.53-2.62,1.54-3.1,3.28-6.2,4.65-9.41,2-.5,4.07-1,6.11-1.36A57.35,57.35,0,0,1,285.52,290.83Z" style="fill:#f7c1ce"/><path d="M285.61,294c-3.23-1.06-6.32-2.24-9.53-3.29,1.48-3.8,2.89-8.09,4.8-11.62s6.72-6.66,8.21-1.3C290.63,283.32,286.85,288.65,285.61,294Z" style="fill:#fff"/><path d="M190.16,316.9c-3.18-4.51-5.06-10.92-9.65-10.13l3.29,15.43c2-.3,5.08-.64,6.75-1.94Z" style="fill:#2b0c54"/><path d="M190.6,319.08c-3.18-4.51-5.06-10.92-9.65-10.13l3.3,15.43c1.95-.3,5.08-.64,6.75-1.94Z" style="fill:#3a1569"/><path d="M180.74,345.7,186,328.8l86.1-7.73,7.12,24.61a.84.84,0,0,0,1,.57h0a.83.83,0,0,0,.56-1l-7.5-25.92-88.56,7.95-5.62,18a.83.83,0,0,0,.54,1h0A.83.83,0,0,0,180.74,345.7Z" style="fill:#405178"/><path d="M175.34,323.86l93.7-8.59a12.13,12.13,0,0,0,10.32-8L293.43,268a4.35,4.35,0,0,1,3.9-2.74,3.9,3.9,0,0,1,3.52,5.22L285.22,314.1a10.12,10.12,0,0,1-8.61,6.68L175.73,330a2.18,2.18,0,0,1-2.37-2.17V326A2.18,2.18,0,0,1,175.34,323.86Z" style="fill:#cf4865"/><path d="M174.16,326.62,275,317.37a10.13,10.13,0,0,0,8.61-6.67l15.63-43.63a4.55,4.55,0,0,0,.22-1.06,3.9,3.9,0,0,1,1.35,4.46L285.22,314.1a10.12,10.12,0,0,1-8.61,6.68L175.73,330a2.18,2.18,0,0,1-2.37-2.17v-1.32A2.34,2.34,0,0,0,174.16,326.62Z" style="fill:#f15979"/><path d="M323.36,10,181.09,136.69A111.36,111.36,0,0,1,175.73,103a67.8,67.8,0,0,1,.2-7.34h0c1.68-26.38,13-51.69,33.7-70.16C241.12-2.49,285.69-7.1,323.36,10Z" style="fill:#d8b8ff"/><path d="M313.28,6l-135,120.23c.77,3.51,1.71,7,2.82,10.47L323.36,10Q318.4,7.74,313.28,6Z" style="fill:#c39ef0"/><path d="M477.13,38.2h-1.52a5.51,5.51,0,0,0-4.55-8.63,5.42,5.42,0,0,0-2.6.65,8.66,8.66,0,0,0-17.31.55c0,.26,0,.53,0,.79a4.34,4.34,0,0,0-6.74,2.66,5.53,5.53,0,0,0-7.15,4h-1.46A3.85,3.85,0,0,0,432,42.05h0a3.86,3.86,0,0,0,3.85,3.85h41.3A3.85,3.85,0,0,0,481,42.05h0A3.84,3.84,0,0,0,477.13,38.2Z" style="fill:#dfd6ff"/><path d="M97.69,75.54H96.17a5.51,5.51,0,0,0-4.55-8.63,5.42,5.42,0,0,0-2.6.65,8.66,8.66,0,0,0-17.31.55c0,.27,0,.53,0,.79A4.34,4.34,0,0,0,65,71.56a5.82,5.82,0,0,0-1.78-.29,5.53,5.53,0,0,0-5.37,4.27H56.39a3.85,3.85,0,0,0-3.85,3.85h0a3.85,3.85,0,0,0,3.85,3.85h41.3a3.85,3.85,0,0,0,3.85-3.85h0A3.85,3.85,0,0,0,97.69,75.54Z" style="fill:#dfd6ff"/><path d="M575.15,349.1H1.07c-.59,0-1.07-.78-1.07-1.73H0c0-.95.48-1.73,1.07-1.73H575.15c.59,0,1.07.78,1.07,1.73h0C576.22,348.32,575.74,349.1,575.15,349.1Z" style="fill:#d3c7ff"/><path d="M140.63,355.65h-128c-1.25,0-2.26-.64-2.26-1.43h0c0-.8,1-1.44,2.26-1.44h128c1.25,0,2.27.64,2.27,1.44h0C142.9,355,141.88,355.65,140.63,355.65Z" style="fill:#ded6ff"/><path d="M178.83,355.65H155.21c-1.25,0-2.26-.64-2.26-1.43h0c0-.8,1-1.44,2.26-1.44h23.62c1.25,0,2.27.64,2.27,1.44h0C181.1,355,180.08,355.65,178.83,355.65Z" style="fill:#ded6ff"/><path d="M392.31,355.65h128c1.25,0,2.27-.64,2.27-1.43h0c0-.8-1-1.44-2.27-1.44h-128c-1.25,0-2.26.64-2.26,1.44h0C390.05,355,391.06,355.65,392.31,355.65Z" style="fill:#ded6ff"/><path d="M354.11,355.65h23.62c1.25,0,2.26-.64,2.26-1.43h0c0-.8-1-1.44-2.26-1.44H354.11c-1.25,0-2.26.64-2.26,1.44h0C351.85,355,352.86,355.65,354.11,355.65Z" style="fill:#ded6ff"/><path d="M540,355.65h23.62c1.25,0,2.26-.64,2.26-1.43h0c0-.8-1-1.44-2.26-1.44H540c-1.25,0-2.26.64-2.26,1.44h0C537.76,355,538.77,355.65,540,355.65Z" style="fill:#ded6ff"/><path d="M468.44,155.27a.56.56,0,0,1,.12-1.12,11.63,11.63,0,0,0,2.36,0,.56.56,0,0,1,.62.5.57.57,0,0,1-.51.62c-.41,0-.84.06-1.26.06A11.85,11.85,0,0,1,468.44,155.27Zm4.43-.88a.56.56,0,0,1,.36-.71,10.7,10.7,0,0,0,2.16-1,.57.57,0,0,1,.77.21.56.56,0,0,1-.21.77,12.22,12.22,0,0,1-2.37,1.05.57.57,0,0,1-.18,0A.55.55,0,0,1,472.87,154.39Zm-7,.34a12.3,12.3,0,0,1-2.37-1.07.56.56,0,0,1,.57-1,11.89,11.89,0,0,0,2.15,1,.55.55,0,0,1,.36.71.58.58,0,0,1-.53.39A.57.57,0,0,1,465.9,154.73Zm11.36-2.59a.56.56,0,0,1,.05-.8,11.41,11.41,0,0,0,1.58-1.75.57.57,0,0,1,.79-.12.56.56,0,0,1,.12.79,12.68,12.68,0,0,1-1.74,1.92.54.54,0,0,1-.38.14A.58.58,0,0,1,477.26,152.14Zm-15.82,0a12.25,12.25,0,0,1-1.74-1.93.57.57,0,0,1,.13-.79.56.56,0,0,1,.79.13,11.83,11.83,0,0,0,1.57,1.75.57.57,0,0,1-.38,1A.53.53,0,0,1,461.44,152.13Zm18.92-3.83a.57.57,0,0,1-.28-.75,11.1,11.1,0,0,0,.74-2.24.57.57,0,0,1,.67-.43.56.56,0,0,1,.43.67,11.91,11.91,0,0,1-.81,2.47.57.57,0,0,1-.51.33A.69.69,0,0,1,480.36,148.3ZM458.41,148a12.81,12.81,0,0,1-.8-2.48.56.56,0,0,1,.44-.66.55.55,0,0,1,.66.43,11.83,11.83,0,0,0,.73,2.25.56.56,0,0,1-.29.74.46.46,0,0,1-.23.05A.55.55,0,0,1,458.41,148Zm22.66-5v-.05a11.42,11.42,0,0,0-.24-2.35.56.56,0,0,1,1.1-.24,12.51,12.51,0,0,1,.27,2.59V143a.56.56,0,0,1-.56.56A.57.57,0,0,1,481.07,143Zm-23.16.49a.57.57,0,0,1-.56-.57,12.35,12.35,0,0,1,.27-2.58.55.55,0,0,1,.67-.43.54.54,0,0,1,.43.66,11.57,11.57,0,0,0-.24,2.35.58.58,0,0,1-.57.57Zm22.19-5.14a11.51,11.51,0,0,0-1.18-2,.57.57,0,0,1,.91-.67,12.64,12.64,0,0,1,1.3,2.25.57.57,0,0,1-.28.75.68.68,0,0,1-.23,0A.57.57,0,0,1,480.1,138.32Zm-21.39.27a.57.57,0,0,1-.28-.75,12.22,12.22,0,0,1,1.3-2.24.56.56,0,1,1,.91.66,11.51,11.51,0,0,0-1.18,2,.58.58,0,0,1-.52.34A.68.68,0,0,1,458.71,138.59Zm18.63-4.07a11.8,11.8,0,0,0-1.91-1.39.56.56,0,1,1,.57-1,11.56,11.56,0,0,1,2.09,1.53.56.56,0,0,1,.05.79.57.57,0,0,1-.42.19A.55.55,0,0,1,477.34,134.52Zm-15.91-.05a.57.57,0,0,1,0-.8,13.11,13.11,0,0,1,2.1-1.53.57.57,0,0,1,.77.21.56.56,0,0,1-.2.77,10.84,10.84,0,0,0-1.91,1.39.62.62,0,0,1-.38.14A.56.56,0,0,1,461.43,134.47Zm11.85-2.3a11.45,11.45,0,0,0-2.31-.49.56.56,0,0,1,.11-1.12,12.32,12.32,0,0,1,2.55.54.56.56,0,0,1-.18,1.1A.47.47,0,0,1,473.28,132.17Zm-7.7-.37a.57.57,0,0,1,.37-.71,12.23,12.23,0,0,1,2.54-.54.57.57,0,0,1,.12,1.13,11.15,11.15,0,0,0-2.31.48.57.57,0,0,1-.72-.36Z" style="fill:#ffd4dc"/><path d="M477.14,140.3a4,4,0,0,0-4.43-1.82,4.5,4.5,0,0,0-2.77,2.75v0a4.47,4.47,0,0,0-2.77-2.75,4,4,0,0,0-4.43,1.82c-1.36,2.49,1.5,5.56,1.82,5.91A8.3,8.3,0,0,0,470,148.7h.13a8.27,8.27,0,0,0,5.22-2.49C475.65,145.85,478.5,142.78,477.14,140.3Z" style="fill:#ffd4dc"/><path d="M122.64,255.54a.56.56,0,0,1-.5-.62.56.56,0,0,1,.62-.5,11,11,0,0,0,2.36,0,.56.56,0,0,1,.62.5.57.57,0,0,1-.51.62c-.41,0-.84.07-1.26.07A11.87,11.87,0,0,1,122.64,255.54Zm4.43-.88a.55.55,0,0,1,.36-.71,10.7,10.7,0,0,0,2.16-1,.56.56,0,0,1,.56,1,11.49,11.49,0,0,1-2.38,1.05.47.47,0,0,1-.17,0A.55.55,0,0,1,127.07,254.66Zm-7,.34a12.61,12.61,0,0,1-2.37-1.06.58.58,0,0,1-.21-.78.57.57,0,0,1,.78-.2,11.24,11.24,0,0,0,2.15,1,.56.56,0,0,1,.36.71.57.57,0,0,1-.54.39A.51.51,0,0,1,120.1,255Zm11.36-2.59a.57.57,0,0,1,0-.8,11,11,0,0,0,1.59-1.75.57.57,0,0,1,.91.67,12.68,12.68,0,0,1-1.74,1.92.56.56,0,0,1-.8,0Zm-15.83,0a12.69,12.69,0,0,1-1.73-1.93.56.56,0,1,1,.91-.66,12,12,0,0,0,1.58,1.76.56.56,0,0,1,0,.79.54.54,0,0,1-.42.19A.57.57,0,0,1,115.63,252.4Zm18.93-3.83a.57.57,0,0,1-.28-.75,11.53,11.53,0,0,0,.74-2.24.56.56,0,0,1,.67-.43.57.57,0,0,1,.43.67,12.53,12.53,0,0,1-.81,2.47.57.57,0,0,1-.52.33A.68.68,0,0,1,134.56,248.57Zm-22-.35a12.57,12.57,0,0,1-.79-2.48.56.56,0,0,1,1.1-.23,11.16,11.16,0,0,0,.73,2.25.57.57,0,0,1-.29.74.48.48,0,0,1-.23.05A.57.57,0,0,1,112.6,248.22Zm22.67-5v-.05a11.57,11.57,0,0,0-.24-2.35.56.56,0,1,1,1.1-.23,12.35,12.35,0,0,1,.27,2.58v.05a.57.57,0,0,1-1.13,0Zm-23.16.49a.56.56,0,0,1-.56-.57,12.35,12.35,0,0,1,.27-2.58.56.56,0,1,1,1.1.24,11.41,11.41,0,0,0-.25,2.34.56.56,0,0,1-.56.57Zm22.19-5.14a11.88,11.88,0,0,0-1.18-2,.56.56,0,1,1,.91-.66,12.3,12.3,0,0,1,1.3,2.25.56.56,0,0,1-.29.74.59.59,0,0,1-.23.05A.56.56,0,0,1,134.3,238.59Zm-21.39.27a.57.57,0,0,1-.28-.75,12.22,12.22,0,0,1,1.3-2.24.56.56,0,1,1,.91.66,11.88,11.88,0,0,0-1.18,2,.58.58,0,0,1-.52.34A.59.59,0,0,1,112.91,238.86Zm18.63-4.07a12.43,12.43,0,0,0-1.91-1.39.57.57,0,0,1-.21-.77.56.56,0,0,1,.77-.2,12.13,12.13,0,0,1,2.1,1.53.56.56,0,0,1,0,.79.54.54,0,0,1-.42.19A.55.55,0,0,1,131.54,234.79Zm-15.91,0a.57.57,0,0,1,0-.8,12.47,12.47,0,0,1,2.1-1.52.56.56,0,0,1,.57,1,11.45,11.45,0,0,0-1.92,1.39.52.52,0,0,1-.37.14A.56.56,0,0,1,115.63,234.74Zm11.84-2.3a11.17,11.17,0,0,0-2.31-.49.56.56,0,0,1,.12-1.12,12.09,12.09,0,0,1,2.54.54.56.56,0,0,1,.36.71.55.55,0,0,1-.53.39A.57.57,0,0,1,127.47,232.44Zm-7.69-.37a.57.57,0,0,1,.37-.71,12.74,12.74,0,0,1,2.54-.53.56.56,0,1,1,.11,1.12,11.43,11.43,0,0,0-2.31.48.51.51,0,0,1-.17,0A.57.57,0,0,1,119.78,232.07Z" style="fill:#ffd4dc"/><path d="M131.34,240.57a4,4,0,0,0-4.43-1.81,4.46,4.46,0,0,0-2.77,2.74v0a4.46,4.46,0,0,0-2.77-2.74,4,4,0,0,0-4.43,1.81c-1.36,2.49,1.5,5.56,1.82,5.91a8.28,8.28,0,0,0,5.41,2.49h.13a8.27,8.27,0,0,0,5.22-2.49C129.85,246.12,132.69,243.05,131.34,240.57Z" style="fill:#ffd4dc"/><path d="M40.91,157.55a.59.59,0,0,1-.51-.63.57.57,0,0,1,.63-.5,11,11,0,0,0,2.36,0,.56.56,0,0,1,.61.51.55.55,0,0,1-.5.61,10.64,10.64,0,0,1-1.26.07C41.8,157.62,41.35,157.59,40.91,157.55Zm4.42-.89a.57.57,0,0,1,.37-.71,11.53,11.53,0,0,0,2.16-.95.56.56,0,0,1,.77.2.57.57,0,0,1-.21.77A11.49,11.49,0,0,1,46,157a.47.47,0,0,1-.17,0A.57.57,0,0,1,45.33,156.66Zm-7,.34A12.61,12.61,0,0,1,36,155.94a.58.58,0,0,1-.21-.78.57.57,0,0,1,.77-.2,11.61,11.61,0,0,0,2.16,1,.56.56,0,0,1-.18,1.1A.47.47,0,0,1,38.37,157Zm11.36-2.59a.57.57,0,0,1,0-.8,11,11,0,0,0,1.59-1.75.57.57,0,0,1,.91.67,11.81,11.81,0,0,1-1.75,1.92.53.53,0,0,1-.37.15A.57.57,0,0,1,49.73,154.41Zm-15.83,0a12.69,12.69,0,0,1-1.73-1.93.56.56,0,1,1,.91-.66,11,11,0,0,0,1.58,1.76.56.56,0,0,1,0,.79.55.55,0,0,1-.42.19A.57.57,0,0,1,33.9,154.4Zm18.93-3.83a.56.56,0,0,1-.28-.74,11.86,11.86,0,0,0,.74-2.25.56.56,0,0,1,.67-.43.57.57,0,0,1,.43.67,12.53,12.53,0,0,1-.81,2.47.57.57,0,0,1-.52.33A.68.68,0,0,1,52.83,150.57Zm-22-.35a12,12,0,0,1-.79-2.47.56.56,0,0,1,1.1-.24,11,11,0,0,0,.73,2.25.58.58,0,0,1-.29.75.62.62,0,0,1-.23,0A.57.57,0,0,1,30.87,150.22Zm22.67-5v-.05a11.57,11.57,0,0,0-.24-2.35.56.56,0,1,1,1.1-.23,12.35,12.35,0,0,1,.27,2.58v.05a.57.57,0,0,1-1.13,0Zm-23.16.49a.58.58,0,0,1-.57-.57,13.15,13.15,0,0,1,.28-2.58.56.56,0,1,1,1.1.24,11.43,11.43,0,0,0-.25,2.35.56.56,0,0,1-.56.56Zm22.19-5.13a11.6,11.6,0,0,0-1.18-2,.56.56,0,0,1,.12-.79.57.57,0,0,1,.79.13,12.3,12.3,0,0,1,1.3,2.25.56.56,0,0,1-.29.74.59.59,0,0,1-.23.05A.55.55,0,0,1,52.57,140.6Zm-21.39.26a.57.57,0,0,1-.29-.75,12.86,12.86,0,0,1,1.31-2.24.56.56,0,0,1,.91.66,11.93,11.93,0,0,0-1.19,2,.56.56,0,0,1-.51.34A.59.59,0,0,1,31.18,140.86Zm18.63-4.06a11.23,11.23,0,0,0-1.91-1.39.58.58,0,0,1-.21-.78.57.57,0,0,1,.77-.2,12.13,12.13,0,0,1,2.1,1.53.56.56,0,0,1,0,.79.54.54,0,0,1-.42.19A.57.57,0,0,1,49.81,136.8Zm-15.91-.06a.57.57,0,0,1,0-.8,12.08,12.08,0,0,1,2.1-1.52.56.56,0,1,1,.56,1,11.8,11.8,0,0,0-1.91,1.39.55.55,0,0,1-.37.15A.57.57,0,0,1,33.9,136.74Zm11.84-2.3a11.31,11.31,0,0,0-2.31-.49.56.56,0,1,1,.12-1.12,12.23,12.23,0,0,1,2.54.54.56.56,0,0,1-.17,1.1A.57.57,0,0,1,45.74,134.44Zm-7.69-.37a.58.58,0,0,1,.36-.71,13,13,0,0,1,2.55-.53.56.56,0,0,1,.11,1.12,10.81,10.81,0,0,0-2.31.49l-.17,0A.57.57,0,0,1,38.05,134.07Z" style="fill:#ffd4dc"/><path d="M49.61,142.58a4,4,0,0,0-4.43-1.82,4.46,4.46,0,0,0-2.77,2.74v0a4.49,4.49,0,0,0-2.77-2.74,4,4,0,0,0-4.43,1.82c-1.36,2.48,1.49,5.55,1.82,5.9a8.36,8.36,0,0,0,5.41,2.5h.13a8.29,8.29,0,0,0,5.22-2.49C48.12,148.12,51,145.06,49.61,142.58Z" style="fill:#ffd4dc"/><path d="M366.26,58.22a.56.56,0,0,1-.5-.62.57.57,0,0,1,.62-.5,11.73,11.73,0,0,0,2.37,0,.55.55,0,0,1,.61.5.56.56,0,0,1-.5.62q-.63.06-1.26.06A11.9,11.9,0,0,1,366.26,58.22Zm4.43-.88a.57.57,0,0,1,.37-.71,11.57,11.57,0,0,0,2.16-1,.56.56,0,1,1,.56,1,12.31,12.31,0,0,1-2.38,1.05.51.51,0,0,1-.17,0A.58.58,0,0,1,370.69,57.34Zm-7,.34a12.3,12.3,0,0,1-2.37-1.07.56.56,0,0,1-.2-.77.56.56,0,0,1,.77-.2,11.28,11.28,0,0,0,2.16,1,.58.58,0,0,1,.36.72.57.57,0,0,1-.54.38A.55.55,0,0,1,363.72,57.68Zm11.37-2.59a.57.57,0,0,1,0-.8,11.48,11.48,0,0,0,1.59-1.75.57.57,0,1,1,.91.67,12.24,12.24,0,0,1-1.75,1.92.54.54,0,0,1-.37.14A.56.56,0,0,1,375.09,55.09Zm-15.83,0a12.18,12.18,0,0,1-1.73-1.93.56.56,0,0,1,.12-.79.57.57,0,0,1,.79.12A11,11,0,0,0,360,54.24a.57.57,0,0,1,0,.8.59.59,0,0,1-.42.19A.55.55,0,0,1,359.26,55.08Zm18.93-3.83a.57.57,0,0,1-.28-.75,11.07,11.07,0,0,0,.73-2.24.57.57,0,0,1,1.11.24,13.37,13.37,0,0,1-.81,2.46.58.58,0,0,1-.52.34A.59.59,0,0,1,378.19,51.25Zm-22-.36a11.85,11.85,0,0,1-.79-2.47.56.56,0,1,1,1.1-.23,11.13,11.13,0,0,0,.72,2.25.56.56,0,0,1-.28.74.68.68,0,0,1-.23,0A.55.55,0,0,1,356.23,50.89Zm22.67-5v0a10.78,10.78,0,0,0-.25-2.35.57.57,0,0,1,1.11-.24,12.51,12.51,0,0,1,.27,2.59v0a.57.57,0,0,1-.57.57A.56.56,0,0,1,378.9,45.91Zm-23.17.49a.56.56,0,0,1-.56-.56,12.36,12.36,0,0,1,.28-2.58.56.56,0,0,1,.67-.44.57.57,0,0,1,.43.67,11.58,11.58,0,0,0-.25,2.35.56.56,0,0,1-.56.56Zm22.2-5.13a11,11,0,0,0-1.19-2,.57.57,0,0,1,.92-.67,13.28,13.28,0,0,1,1.3,2.25.58.58,0,0,1-.29.75.59.59,0,0,1-.23,0A.56.56,0,0,1,377.93,41.27Zm-21.39.26a.56.56,0,0,1-.29-.74,12.34,12.34,0,0,1,1.31-2.25.56.56,0,0,1,.78-.12.56.56,0,0,1,.13.79,11,11,0,0,0-1.19,2,.55.55,0,0,1-.51.33A.46.46,0,0,1,356.54,41.53Zm18.62-4.06a11.3,11.3,0,0,0-1.9-1.39.56.56,0,1,1,.56-1,12.08,12.08,0,0,1,2.1,1.52.57.57,0,1,1-.76.84Zm-15.91-.06a.57.57,0,0,1,.05-.79,12.68,12.68,0,0,1,2.1-1.53.56.56,0,1,1,.56,1,11.23,11.23,0,0,0-1.91,1.39.59.59,0,0,1-.38.14A.57.57,0,0,1,359.25,37.41Zm11.85-2.29a11.31,11.31,0,0,0-2.31-.49.56.56,0,0,1-.5-.62.56.56,0,0,1,.62-.5,12.23,12.23,0,0,1,2.54.54.55.55,0,0,1,.36.71.56.56,0,0,1-.53.39Zm-7.69-.37a.56.56,0,0,1,.36-.71,12.36,12.36,0,0,1,2.54-.54.57.57,0,0,1,.12,1.13,11.29,11.29,0,0,0-2.31.48l-.17,0A.57.57,0,0,1,363.41,34.75Z" style="fill:#ffd4dc"/><path d="M375,43.25a4,4,0,0,0-4.42-1.82,4.46,4.46,0,0,0-2.77,2.74v0A4.46,4.46,0,0,0,365,41.43a4,4,0,0,0-4.43,1.82c-1.36,2.48,1.49,5.56,1.82,5.91a8.28,8.28,0,0,0,5.4,2.49h.14a8.29,8.29,0,0,0,5.22-2.49C373.48,48.8,376.32,45.73,375,43.25Z" style="fill:#ffd4dc"/><path d="M430.39,259.06a1.59,1.59,0,1,1,1.59,1.59A1.59,1.59,0,0,1,430.39,259.06Z" style="fill:#dfd6ff"/><path d="M148.42,253.35a1.59,1.59,0,1,1,1.59,1.59A1.59,1.59,0,0,1,148.42,253.35Z" style="fill:#dfd6ff"/><path d="M92.81,226.74a1.59,1.59,0,1,1,1.59,1.59A1.59,1.59,0,0,1,92.81,226.74Z" style="fill:#dfd6ff"/><path d="M87.41,191.59A1.59,1.59,0,1,1,89,193.18,1.59,1.59,0,0,1,87.41,191.59Z" style="fill:#dfd6ff"/><circle cx="74.99" cy="145.8" r="1.59" style="fill:#dfd6ff"/><path d="M100,104.92a1.59,1.59,0,1,1,1.59,1.59A1.59,1.59,0,0,1,100,104.92Z" style="fill:#dfd6ff"/><path d="M393.52,144.79a1.59,1.59,0,1,1,1.59,1.59A1.59,1.59,0,0,1,393.52,144.79Z" style="fill:#dfd6ff"/><path d="M410.57,95.08a1.59,1.59,0,1,1,1.59,1.59A1.59,1.59,0,0,1,410.57,95.08Z" style="fill:#dfd6ff"/><circle cx="390.05" cy="247.21" r="1.59" style="fill:#dfd6ff"/><path d="M415.73,227.12a2.79,2.79,0,1,1,2.79,2.79A2.78,2.78,0,0,1,415.73,227.12Z" style="fill:#dfd6ff"/><path d="M142.9,275.22a2.79,2.79,0,1,1,2.78,2.79A2.78,2.78,0,0,1,142.9,275.22Z" style="fill:#dfd6ff"/><circle cx="53.45" cy="190" r="2.79" style="fill:#dfd6ff"/><circle cx="426.13" cy="136.69" r="2.79" style="fill:#dfd6ff"/><path d="M353.77,104.35a2.79,2.79,0,1,1,2.79,2.78A2.79,2.79,0,0,1,353.77,104.35Z" style="fill:#dfd6ff"/></g></g></g></svg>