<svg xmlns="http://www.w3.org/2000/svg" viewBox="0 0 596.44 648.06"><g id="Layer_2" data-name="Layer 2"><g id="_Layer_" data-name="&lt;Layer&gt;"><rect x="553.71" y="488.67" width="31.96" height="61.57" rx="6.29" transform="translate(328.05 -212.66) rotate(29.38)" style="fill:#423651"/><path d="M266.66,542.62,281,617.81l44.56,4.38,145.67-9.26s52.56-4.36,51.69-44.71-32-72.37-95-54.26-125.39,27.33-125.39,27.33Z" style="fill:#423651"/><path d="M296.54,542.62,281,617.81l-43.28,4.38L92,612.93s-52.57-4.36-51.7-44.71,32-72.37,95-54.26,125.39,27.33,125.39,27.33Z" style="fill:#423651"/><polygon points="316.67 427.27 305.77 552.33 266.01 557.91 250.66 370.33 266.91 365.38 304.06 366.79 318.44 375.57 316.67 427.27" style="fill:#423651"/><path d="M284.48,378.75,275,390.94l7,3.15L262.29,514.6l19.95,23.75,26.16-24.62-21.48-120L295,388.5l-6.14-10.33S285.85,377,284.48,378.75Z" style="fill:#fff"/><path d="M266.7,365.58a30.79,30.79,0,0,1,.13-3.9L268.4,322s18.1-2.12,32.42,7.64c1,24.4,1.57,37.06,3.24,37.2,0,0-4.15,8.65-17.28,12C272.84,374.63,266.7,365.58,266.7,365.58Z" style="fill:#e57765"/><path d="M263.73,296.53S265.36,352,295,352c20,0,22.45-10,20-52.46-1.59-18.42-19.89-18.78-27.08-19.39S264.1,283.43,263.73,296.53Z" style="fill:#ff977b"/><path d="M255,318.2a8.72,8.72,0,0,0,8.56,8.7c4.36,0,5.56-3.67,5.56-8.7s-3.53-9.11-7.89-9.11S255,313.17,255,318.2Z" style="fill:#ff977b"/><path d="M287.86,315.25c.16,2.51,1.43,4.48,2.86,4.39s2.45-2.19,2.3-4.7-1.43-4.48-2.85-4.39S287.71,312.74,287.86,315.25Z" style="fill:#423651"/><path d="M305.79,314c.15,2.51,1.29,4.49,2.55,4.41s2.14-2.17,2-4.68-1.29-4.49-2.55-4.42S305.64,311.49,305.79,314Z" style="fill:#423651"/><path d="M293.12,306.22a20.22,20.22,0,0,0-7.82.65,1.48,1.48,0,0,1-1.68-.64c-.27-.46-.51-.84-.71-1.14a1.23,1.23,0,0,1,.78-1.88,22.82,22.82,0,0,1,10.16-.65,1.29,1.29,0,0,1,1.09,1.51c-.1.38-.18.75-.24,1.1A1.42,1.42,0,0,1,293.12,306.22Z" style="fill:#423651"/><path d="M310.4,306.37a12.5,12.5,0,0,0-7.37-2,1.12,1.12,0,0,1-1.15-1.26,12.15,12.15,0,0,1,.27-1.42,1.09,1.09,0,0,1,1-.82,11.33,11.33,0,0,1,9.11,3.41,1.09,1.09,0,0,1,0,1.49c-.16.18-.31.35-.46.49A1.09,1.09,0,0,1,310.4,306.37Z" style="fill:#423651"/><path d="M299.85,334.43h-.35c-2.61-.12-5.11-1.47-7.41-4a.85.85,0,0,1,.06-1.19.84.84,0,0,1,1.18.06c2,2.2,4.09,3.37,6.24,3.46a7.27,7.27,0,0,0,4.83-1.69.84.84,0,0,1,1.18.05.83.83,0,0,1,0,1.18A9,9,0,0,1,299.85,334.43Z" style="fill:#a55f56"/><path d="M301.69,327.08h0a7.24,7.24,0,0,1-3.63-.71.84.84,0,0,1,.9-1.42h0a6.25,6.25,0,0,0,2.75.45h0a3.08,3.08,0,0,0,2.68-1.38c.22-.63-.38-1.3-.93-1.75-3.25-2.65-4.83-8.75-4.9-9a.85.85,0,0,1,.61-1,.84.84,0,0,1,1,.61s1.51,5.82,4.33,8.12c1.84,1.51,1.7,2.91,1.44,3.61C305.39,326.15,303.35,327.08,301.69,327.08Z" style="fill:#a55f56"/><path d="M307.54,624.71c7.09-1.84,18-2.52,18-2.52l-4.19-28-18.87,4.42,4.13,26.47A7.65,7.65,0,0,1,307.54,624.71Z" style="fill:#ff977b"/><path d="M296.48,643.13c2-5.18,3.81-15.53,10.11-18.08l-4.13-26.47-20.22,3,1.5,10.3c1-.05,2.49,0,2.66,1.17s-1.22,1.51-2.23,1.7l4.88,33.34A7.46,7.46,0,0,0,296.48,643.13Z" style="fill:#f4dfdf"/><path d="M303.67,626.89a.72.72,0,0,1-.72-.63l-3.85-26.87a.73.73,0,0,1,.62-.83.76.76,0,0,1,.83.63l3.85,26.86a.73.73,0,0,1-.62.83Z" style="fill:#5d5d75"/><path d="M531.05,525.2s26.3-7.81,27.39-5.22c.8,1.92-6.54,5.62-10.4,7.4a.69.69,0,0,0,.28,1.33c2.93.34,8.16.91,14.48,1.45,2.64.22,4.28,2.61,3.32,4.78-4.89,11-18.52,13-30.77,12.2,0,0-10.85-.46-12.33-10.5-1.37-9.23,8-11.44,8-11.44Z" style="fill:#ff977b"/><path d="M559.34,535.1c-4.06,0-8-.2-8.3-.22a.84.84,0,0,1,.05-1.67h0c.1,0,10.16.54,14.58-.07a.81.81,0,0,1,.94.71.84.84,0,0,1-.71.95A55.13,55.13,0,0,1,559.34,535.1Z" style="fill:#c46f6a"/><path d="M554.38,539.1c-2.32,0-4.08-.05-4.24-.06a.82.82,0,0,1-.81-.86.83.83,0,0,1,.84-.81h0c.09,0,9.23.29,13.54-.45a.82.82,0,0,1,1,.68.85.85,0,0,1-.69,1A66.34,66.34,0,0,1,554.38,539.1Z" style="fill:#c46f6a"/><path d="M550.93,543.46a.82.82,0,0,1-.83-.78.84.84,0,0,1,.77-.9c2-.13,7.57-.63,9.16-1.27a.84.84,0,0,1,.63,1.56c-2.14.85-8.91,1.33-9.67,1.39Z" style="fill:#c46f6a"/><path d="M176.41,136.35H398c23.41,0,42.32-19.61,40.89-43C438,78.11,432.82,61.82,418.26,50c-23.12-18.77-47.75-13.53-62.49-7.31a15.52,15.52,0,0,1-19.62-7.08C327.71,20,309.57-2.53,275.74.23,244.32,2.8,229.58,26,222.87,43.55A15.46,15.46,0,0,1,201.8,52c-11.77-5.35-29.28-7-49.71,11.15-10.61,9.43-15.26,19.35-16.45,28.74C132.62,115.67,152.4,136.35,176.41,136.35Z" style="fill:#86bbd8"/><path d="M287.67,156.34h0a.84.84,0,0,1-.82-.86l.18-8.38a.84.84,0,0,1,.84-.82h0a.84.84,0,0,1,.83.86l-.18,8.38A.85.85,0,0,1,287.67,156.34Z" style="fill:#86bbd8"/><path d="M286,235.15h0a.84.84,0,0,1-.82-.86l.43-19.7a.83.83,0,0,1,.83-.82h0a.83.83,0,0,1,.82.85l-.42,19.71A.85.85,0,0,1,286,235.15Zm.85-39.41h0a.83.83,0,0,1-.82-.85l.42-19.7a.86.86,0,0,1,.84-.83h0a.84.84,0,0,1,.82.86l-.42,19.7A.85.85,0,0,1,286.82,195.74Z" style="fill:#86bbd8"/><path d="M285.36,263.23h0a.85.85,0,0,1-.83-.85l.18-8.39a.85.85,0,0,1,.84-.82h0a.85.85,0,0,1,.82.86l-.18,8.38A.83.83,0,0,1,285.36,263.23Z" style="fill:#86bbd8"/><path d="M398.66,155.56a.72.72,0,0,1-.35-.08.84.84,0,0,1-.41-1.11l3.54-7.6a.83.83,0,0,1,1.11-.41.84.84,0,0,1,.41,1.11l-3.54,7.6A.83.83,0,0,1,398.66,155.56Z" style="fill:#86bbd8"/><path d="M357,245.23a.85.85,0,0,1-.35-.08.83.83,0,0,1-.41-1.11l7-14.95a.83.83,0,0,1,1.11-.41.84.84,0,0,1,.41,1.11l-6.95,15A.84.84,0,0,1,357,245.23Zm13.89-29.89a.93.93,0,0,1-.35-.08.85.85,0,0,1-.41-1.12l6.95-14.94a.84.84,0,0,1,1.53.7l-6.95,14.95A.85.85,0,0,1,370.86,215.34Zm13.9-29.89a.89.89,0,0,1-.35-.08.84.84,0,0,1-.41-1.11L391,169.31a.85.85,0,0,1,1.12-.41.84.84,0,0,1,.4,1.12l-7,14.94A.83.83,0,0,1,384.76,185.45Z" style="fill:#86bbd8"/><path d="M346.48,267.77a.91.91,0,0,1-.35-.07.85.85,0,0,1-.41-1.12l3.54-7.6a.84.84,0,0,1,1.11-.41.85.85,0,0,1,.41,1.12l-3.53,7.6A.86.86,0,0,1,346.48,267.77Z" style="fill:#86bbd8"/><path d="M174.26,164a.83.83,0,0,1-.77-.5l-3.31-7.7a.84.84,0,1,1,1.54-.67l3.31,7.7a.84.84,0,0,1-.44,1.1A.78.78,0,0,1,174.26,164Z" style="fill:#86bbd8"/><path d="M209.6,246.35a.84.84,0,0,1-.77-.51l-5.89-13.71a.84.84,0,0,1,1.54-.67l5.89,13.72a.83.83,0,0,1-.77,1.17Zm-11.78-27.43a.84.84,0,0,1-.77-.51l-5.89-13.72a.84.84,0,0,1,1.54-.66l5.89,13.72a.83.83,0,0,1-.44,1.1A1,1,0,0,1,197.82,218.92ZM186,191.48a.83.83,0,0,1-.77-.5l-5.89-13.72a.83.83,0,0,1,.44-1.1.84.84,0,0,1,1.1.43l5.89,13.72a.84.84,0,0,1-.44,1.1A.78.78,0,0,1,186,191.48Z" style="fill:#86bbd8"/><path d="M218.81,267.77a.83.83,0,0,1-.77-.5l-3.31-7.71a.83.83,0,0,1,.44-1.1.84.84,0,0,1,1.1.44l3.31,7.7a.84.84,0,0,1-.44,1.1A.78.78,0,0,1,218.81,267.77Z" style="fill:#86bbd8"/><path d="M255,263.23a.83.83,0,0,1-.82-.68l-1.56-8.24a.84.84,0,0,1,.67-1,.81.81,0,0,1,1,.67l1.56,8.24a.84.84,0,0,1-.66,1Z" style="fill:#86bbd8"/><path d="M249.82,235.93a.83.83,0,0,1-.82-.68l-3.61-19.06a.85.85,0,0,1,.67-1,.8.8,0,0,1,1,.67l3.6,19.06a.84.84,0,0,1-.67,1Zm-7.21-38.11a.85.85,0,0,1-.82-.69l-3.6-19.06a.83.83,0,0,1,.67-1,.8.8,0,0,1,1,.67l3.61,19.06a.85.85,0,0,1-.67,1Z" style="fill:#86bbd8"/><path d="M235.41,159.69a.83.83,0,0,1-.82-.68L233,150.77a.85.85,0,0,1,.67-1,.81.81,0,0,1,1,.67l1.55,8.24a.84.84,0,0,1-.66,1Z" style="fill:#86bbd8"/><path d="M315.75,263.23a.58.58,0,0,1-.19,0,.83.83,0,0,1-.63-1l1.85-8.18a.84.84,0,0,1,1-.63.83.83,0,0,1,.63,1l-1.85,8.18A.83.83,0,0,1,315.75,263.23Z" style="fill:#86bbd8"/><path d="M321.92,236l-.19,0a.84.84,0,0,1-.63-1l4.32-19.09a.85.85,0,0,1,1-.63.84.84,0,0,1,.63,1l-4.32,19.09A.84.84,0,0,1,321.92,236Zm8.65-38.17-.19,0a.84.84,0,0,1-.63-1l4.32-19.09a.85.85,0,0,1,1-.63.84.84,0,0,1,.63,1l-4.32,19.09A.84.84,0,0,1,330.57,197.8Z" style="fill:#86bbd8"/><path d="M339.21,159.63l-.18,0a.84.84,0,0,1-.64-1l1.86-8.18a.84.84,0,0,1,1.63.37L340,159A.84.84,0,0,1,339.21,159.63Z" style="fill:#86bbd8"/><path d="M209.31,174.51a.83.83,0,0,1-.8-.6l-2.39-8a.84.84,0,0,1,1.61-.48l2.38,8a.83.83,0,0,1-.56,1A.67.67,0,0,1,209.31,174.51Z" style="fill:#86bbd8"/><path d="M225.06,227.64a.84.84,0,0,1-.8-.6l-3.94-13.28a.84.84,0,0,1,1.61-.48l3.93,13.28a.83.83,0,0,1-.56,1A.67.67,0,0,1,225.06,227.64Zm-7.87-26.56a.86.86,0,0,1-.81-.6l-3.93-13.29a.82.82,0,0,1,.56-1,.84.84,0,0,1,1,.57L218,200a.84.84,0,0,1-.57,1A.66.66,0,0,1,217.19,201.08Z" style="fill:#86bbd8"/><path d="M231.38,249a.84.84,0,0,1-.8-.6l-2.38-8a.84.84,0,0,1,.56-1,.83.83,0,0,1,1,.56l2.38,8a.83.83,0,0,1-.56,1A.67.67,0,0,1,231.38,249Z" style="fill:#86bbd8"/><path d="M264.27,164.71a.84.84,0,0,1-.84-.79l-.53-8.36a.83.83,0,0,1,.78-.89c.45-.13.86.32.89.78l.53,8.37a.84.84,0,0,1-.78.89Z" style="fill:#86bbd8"/><path d="M267.71,218.67a.84.84,0,0,1-.84-.78l-.86-13.5a.82.82,0,0,1,.78-.88c.41-.12.86.32.89.78l.86,13.49a.83.83,0,0,1-.78.89Zm-1.72-27a.84.84,0,0,1-.84-.78l-.86-13.5a.84.84,0,0,1,.79-.89c.42-.11.86.33.88.79l.86,13.49a.83.83,0,0,1-.78.89Z" style="fill:#86bbd8"/><path d="M269.1,240.53a.85.85,0,0,1-.84-.79l-.53-8.37a.82.82,0,0,1,.78-.88c.45-.12.86.32.89.78l.53,8.36a.82.82,0,0,1-.78.89Z" style="fill:#86bbd8"/><path d="M311.73,164.69h-.08a.83.83,0,0,1-.75-.91l.8-8.35a.8.8,0,0,1,.92-.75.83.83,0,0,1,.75.92l-.8,8.34A.85.85,0,0,1,311.73,164.69Z" style="fill:#86bbd8"/><path d="M306.24,221.76h-.08a.83.83,0,0,1-.75-.91l1.37-14.27a.84.84,0,0,1,1.67.17L307.08,221A.84.84,0,0,1,306.24,221.76ZM309,193.22h-.08a.86.86,0,0,1-.76-.92L309.52,178a.82.82,0,0,1,.92-.76.84.84,0,0,1,.75.92l-1.37,14.26A.83.83,0,0,1,309,193.22Z" style="fill:#86bbd8"/><path d="M304.06,244.37H304a.84.84,0,0,1-.75-.92l.8-8.35a.8.8,0,0,1,.92-.75.84.84,0,0,1,.75.92l-.8,8.34A.84.84,0,0,1,304.06,244.37Z" style="fill:#86bbd8"/><path d="M361,170a1.09,1.09,0,0,1-.25,0,.84.84,0,0,1-.55-1l2.46-8a.84.84,0,0,1,1.61.49l-2.47,8A.84.84,0,0,1,361,170Z" style="fill:#86bbd8"/><path d="M343.94,225.31a.67.67,0,0,1-.24,0,.82.82,0,0,1-.56-1l4.25-13.85a.84.84,0,0,1,1.61.49l-4.26,13.85A.83.83,0,0,1,343.94,225.31Zm8.51-27.68a1,1,0,0,1-.24,0,.83.83,0,0,1-.56-1.05l4.25-13.84a.87.87,0,0,1,1.05-.56.85.85,0,0,1,.56,1.05L353.25,197A.84.84,0,0,1,352.45,197.63Z" style="fill:#86bbd8"/><path d="M337.22,247.16a1,1,0,0,1-.24,0,.85.85,0,0,1-.56-1l2.46-8a.84.84,0,0,1,1.61.49l-2.46,8A.85.85,0,0,1,337.22,247.16Z" style="fill:#86bbd8"/><path d="M304.06,366.79s-8.76,119.37-5.58,191.12C317.14,553,357,541.29,357,541.29s-20.43-62.67-10.48-104.59c31.44,36.16,68.12,71.26,75.45,74.93s105.32,35.66,105.32,35.66l8.22-23.35-95.2-51.08L361.68,384.3S332.38,366.57,304.06,366.79Z" style="fill:#f4dfdf"/><path d="M346.48,437.54a.79.79,0,0,1-.41-.11.84.84,0,0,1-.32-1.14l15.19-27a.83.83,0,0,1,1.15-.32.84.84,0,0,1,.32,1.14l-15.19,27A.84.84,0,0,1,346.48,437.54Z" style="fill:#914e49"/><path d="M266.91,365.38s8.76,119.37,5.58,191.12C253.83,551.61,214,539.87,214,539.87s20.43-62.66,10.48-104.58c-31.44,36.15-68.12,71.26-75.45,74.93S43.72,545.88,43.72,545.88L35.5,522.52l95.2-51.08,78.59-88.55S238.59,365.16,266.91,365.38Z" style="fill:#f4dfdf"/><path d="M224.48,436.13a.84.84,0,0,1-.73-.43l-15.18-27a.84.84,0,0,1,.31-1.15.86.86,0,0,1,1.15.32l15.19,27a.85.85,0,0,1-.32,1.14A.91.91,0,0,1,224.48,436.13Z" style="fill:#914e49"/><path d="M269,398.24a.82.82,0,0,1-.58-.23.84.84,0,0,1,0-1.18l6.07-6.46a.84.84,0,0,1,1.19,0,.85.85,0,0,1,0,1.19L269.58,398A.85.85,0,0,1,269,398.24Z" style="fill:#4660aa"/><path d="M301.87,395a.8.8,0,0,1-.53-.19l-6.9-5.68a.84.84,0,0,1-.12-1.18.85.85,0,0,1,1.18-.11l6.9,5.68a.83.83,0,0,1-.53,1.48Z" style="fill:#4660aa"/><path d="M35.61,523.57s-26.3-7.81-27.39-5.22c-.8,1.92,6.54,5.61,10.4,7.4a.69.69,0,0,1-.28,1.32c-2.93.35-8.16.92-14.48,1.46-2.64.22-4.28,2.61-3.32,4.78,4.89,11,18.52,13,30.78,12.2,0,0,10.84-.47,12.32-10.5,1.37-9.23-8-11.44-8-11.44Z" style="fill:#ff977b"/><path d="M7.32,533.47a52.74,52.74,0,0,1-6.59-.31.84.84,0,0,1-.72-.94A.85.85,0,0,1,1,531.5c4.42.61,14.48.08,14.58.08a.84.84,0,1,1,.09,1.67C15.36,533.26,11.38,533.47,7.32,533.47Z" style="fill:#c46f6a"/><path d="M12.28,537.47a66.34,66.34,0,0,1-9.63-.53.84.84,0,0,1,.28-1.66c4.31.74,13.44.46,13.54.46h0a.84.84,0,0,1,.84.82.83.83,0,0,1-.81.86C16.36,537.42,14.59,537.47,12.28,537.47Z" style="fill:#c46f6a"/><path d="M15.73,541.83h-.05c-.77-.05-7.55-.54-9.68-1.39a.84.84,0,0,1,.63-1.55c1.6.63,7.15,1.13,9.16,1.27a.84.84,0,0,1-.06,1.68Z" style="fill:#c46f6a"/><path d="M321.33,595a.84.84,0,0,1-.23-1.65c.51-.15,51.62-14.94,71.19-28.56,19.34-13.45,55.34-38.49,86.83-19.85a.85.85,0,0,1,.3,1.15.84.84,0,0,1-1.15.29c-30.57-18.09-66,6.55-85,19.79-19.79,13.77-71.16,28.64-71.68,28.79A.62.62,0,0,1,321.33,595Z" style="fill:#0c173d"/><path d="M255.66,624.71c-7.09-1.84-18-2.52-18-2.52l4.19-28,18.87,4.42-4.13,26.47A7.65,7.65,0,0,0,255.66,624.71Z" style="fill:#ff977b"/><path d="M266.72,643.13c-2-5.18-3.81-15.53-10.11-18.08l4.13-26.47,20.22,3-1.5,10.3c-1-.05-2.49,0-2.65,1.17s1.22,1.51,2.23,1.7l-4.88,33.34A7.47,7.47,0,0,1,266.72,643.13Z" style="fill:#f4dfdf"/><path d="M259.53,626.89h-.11a.73.73,0,0,1-.62-.83l3.85-26.86a.77.77,0,0,1,.83-.63.75.75,0,0,1,.63.83l-3.86,26.87A.72.72,0,0,1,259.53,626.89Z" style="fill:#5d5d75"/><path d="M241.87,595a.66.66,0,0,1-.23,0c-.52-.15-51.89-15-71.68-28.79-19-13.24-54.46-37.89-85-19.79a.83.83,0,0,1-1.15-.29.85.85,0,0,1,.3-1.15c31.5-18.65,67.5,6.39,86.83,19.85,19.57,13.62,70.68,28.41,71.19,28.56a.84.84,0,0,1-.23,1.65Z" style="fill:#0c173d"/><path d="M313.82,297.5s3.94-14.45-1.28-19c-3.13-2.62-7.57.92-7.57.92s-4-6.68-8.14-6.68-7.09,3.93-7.09,3.93-3.39-4.85-8.76-4.72-5.94,6.68-5.94,6.68-4.41-5.11-9.91-3.66-4.06,9.77-4.06,9.77-2.62.18-3.14,4.63,8,22.67,8,22.67l5.24-21.62s6.79,3.15,16.69-2.09c13.83,8,17.42,3.66,17.42,3.66S308.8,297.81,313.82,297.5Z" style="fill:#423651"/><polygon points="322.21 171.05 339.67 172.27 324.48 206.33 346.48 206.33 317.49 250.17 329.02 215.24 314.52 213.84 322.21 171.05" style="fill:#fac748"/><polygon points="275.49 204.68 285.32 204.07 279.36 224.2 291.64 222.57 278.7 249.18 282.55 228.83 274.36 229.12 275.49 204.68" style="fill:#fac748"/><polygon points="213.91 158.18 233.85 150.62 234.43 196.05 258.78 184.82 249.09 248.12 244 203.59 227.25 209.44 213.91 158.18" style="fill:#fac748"/></g></g></svg>