<svg xmlns="http://www.w3.org/2000/svg" viewBox="0 0 571.93 686.98"><g id="Layer_2" data-name="Layer 2"><g id="_Layer_" data-name="&lt;Layer&gt;"><path d="M153.7,387.62c25.61-31,27.6-36.26,23.05-45.39s-16.22-41.52.85-72a226.15,226.15,0,0,1,36.18-49.36,6.71,6.71,0,0,0-.5,2.37c0,17.59,73.18,31.84,163.46,31.84s163.45-14.25,163.45-31.84a6.92,6.92,0,0,0-.15-1.19c36.63,54.93,38.22,128.45,22.25,157.7C529.65,439.55,490.34,458.9,487.17,489c-3.74,35.67,6.55,105.81,10.59,149.05h0v0c.12,1.2.23,2.4.33,3.56.89,8.07,4.06,28.24,14,45.31H294.25c7.25-10.93,11.33-23,12.94-37.55,2.21-16.12,5.76-35.64-3.26-40.65-15.93-8.86-89.34,30.45-116.65,13.84s1.7-61.45-3.42-70.86-8.53-11.35-17.07-11.35-17.93-15.22-2-24.36c-10.25-6.36-10.25-16.6,1.14-21.86s14.79-22.7,2.84-26.3-36.7-11.18-43.82-23.72S128.09,418.62,153.7,387.62Z" style="fill:#f4dfdf"/><path d="M376.74,255.11c-90.28,0-163.46-14.25-163.46-31.84a6.71,6.71,0,0,1,.5-2.37l.08-.07A55.37,55.37,0,0,1,236.23,207c28.5-9.32,80.74-15.57,140.51-15.57,66.73,0,124.09,7.79,149.48,18.95A32,32,0,0,1,540,222l0,.06c0,.07.05.13.07.2C542.93,240.32,468.7,255.11,376.74,255.11Z" style="fill:#ad8c8c"/><path d="M67.53,248.39,36.7,175.32s97.44-29.83,118.53-22.39c15.84,5.58,25.68,21.22,25.62,37.73,0,10.49-4.49,21.06-12.55,27.77s-18.21,8.23-28.24,5.86c-10.84-2.56-20.63-4.11-31,1.51Z" style="fill:#ff977b"/><path d="M144,343.82a52.29,52.29,0,0,1-51.79,35.55,11.47,11.47,0,0,0,.51-1.13l15-44.69a13.61,13.61,0,0,0-8.56-17.23l-8.88-3A13.61,13.61,0,0,0,73,321.89L58,366.58c-.13.4-.18.8-.28,1.21a52.28,52.28,0,0,1,46.46-92.51l6.87,2.31A52.29,52.29,0,0,1,144,343.82Z" style="fill:#86bbd8"/><path d="M234.05,76a52.27,52.27,0,0,0-19.79-59.61c-.09.4-.14.8-.27,1.21L199,62.28a13.6,13.6,0,0,1-17.23,8.55l-8.88-3a13.6,13.6,0,0,1-8.56-17.22l15-44.69a10.67,10.67,0,0,1,.51-1.14,52.28,52.28,0,0,0-18.9,101.78l6.87,2.31A52.3,52.3,0,0,0,234.05,76Z" style="fill:#86bbd8"/><polygon points="162.7 144.02 126.94 250.33 113.55 290.12 92.25 282.96 105.64 243.16 141.4 136.85 154.78 97.06 176.09 104.23 162.7 144.02" style="fill:#86bbd8"/><path d="M113.74,162.37s50.92,9.9,53.51,25.86c-.15,5.7-37.43,2.87-37.43,2.87l-29.66.94Z" style="fill:#ff977b"/><path d="M70.46,216a1.55,1.55,0,0,0,1.37.29c15-4.06,20.55-10.13,25-15,2.93-3.24,5.47-6,10.21-7.74,4.47-1.62,15.9-1.09,27-.58,19.93.91,32.22,1.12,34.81-3.74.9-1.71.51-3.72-1.18-6-11.06-14.84-49.31-22.08-50.94-22.38a1.56,1.56,0,1,0-.56,3.06c.38.07,38.69,7.27,49,21.17.51.69,1.3,1.94.92,2.67-1.85,3.47-19.23,2.67-31.92,2.09-11.88-.55-23.11-1.07-28.16.76-5.47,2-8.38,5.18-11.46,8.58C90.13,204,85.19,209.43,71,213.26a1.55,1.55,0,0,0-1.1,1.9A1.52,1.52,0,0,0,70.46,216Z" style="fill:#c46f6a"/><path d="M167.41,195.23s-24-1-32.29,4.75-15,16.33-12,26.51,16,13.8,23.37,14.14,28.59-22.27,30.3-33.91C172.08,198.8,167.41,195.23,167.41,195.23Z" style="fill:#ff977b"/><path d="M119.41,223.56a1.49,1.49,0,0,0,.87.34,1.56,1.56,0,0,0,1.66-1.45c1.48-22.58,25.66-26.47,26.69-26.62a1.56,1.56,0,0,0-.46-3.08c-.27,0-27.69,4.38-29.34,29.5A1.55,1.55,0,0,0,119.41,223.56Z" style="fill:#c46f6a"/><path d="M132.78,224c6.17,4.94,15.21,9.16,27,6.77a1.56,1.56,0,0,0-.62-3.05c-21.81,4.41-33.28-16.1-33.41-16.31a1.56,1.56,0,0,0-2.73,1.49A42.26,42.26,0,0,0,132.78,224Z" style="fill:#c46f6a"/><path d="M141.85,213c4.05,3.24,9.17,6.17,14.92,6.77,6.39.67,12.43-1.66,18-6.92a1.56,1.56,0,0,0,0-2.2,1.53,1.53,0,0,0-2.2-.06c-4.84,4.61-10.06,6.65-15.49,6.09-12.21-1.28-21.87-15.1-22-15.24a1.55,1.55,0,0,0-2.56,1.76A50.31,50.31,0,0,0,141.85,213Z" style="fill:#c46f6a"/><path d="M147.84,201.56a18.31,18.31,0,0,0,10.32,4.32c5.24.28,10.26-2.31,14.91-7.7a1.57,1.57,0,0,0-.17-2.2l0,0a1.55,1.55,0,0,0-2.15.19c-4,4.62-8.15,6.86-12.37,6.64-7.45-.4-12.94-8.2-13-8.28a1.53,1.53,0,0,0-2.16-.4,1.55,1.55,0,0,0-.4,2.16A27,27,0,0,0,147.84,201.56Z" style="fill:#c46f6a"/><path d="M33.91,166l39,87.94s-11.33,17.94-36.46,16.94a8,8,0,0,0-4.35-4.24L0,283.21,6.38,178.48S14.38,161.53,33.91,166Z" style="fill:#fac748"/><path d="M293.57,164.35a86.93,86.93,0,0,0,12.84,14.2L294,200.45A121.51,121.51,0,0,0,345.16,224c2.24-8.49,4.37-18.09,5.73-24.52a87,87,0,0,0,16.56,1L373,223.91a121.62,121.62,0,0,0,53.51-17.71c-4.06-7.56-8.92-15.82-12.3-21.45a86.7,86.7,0,0,0,16.89-15.39l20.75,11.82A121.76,121.76,0,0,0,475.43,130c-8.46-2.24-18-4.36-24.44-5.73a87.32,87.32,0,0,0,.49-17.43l23.78-5.9A121.62,121.62,0,0,0,457,47.6c-8.07,4.44-16.95,9.81-22.52,13.25a87.09,87.09,0,0,0-12-13.15L436,25.94A121.75,121.75,0,0,0,385.7.44c-2.86,9.37-5.63,20.11-7.19,26.34a86.82,86.82,0,0,0-20.91-.84L350.77,0a121.6,121.6,0,0,0-53,19c5,8.77,11.1,18.48,14.51,23.8a87.29,87.29,0,0,0-15,14.28l-23.81-13A121.65,121.65,0,0,0,250.8,95.74c9.61,2.35,20.62,4.53,26.9,5.72a86.87,86.87,0,0,0-.6,17l-25.57,7a121.73,121.73,0,0,0,19.56,52.86C279.19,173.62,288.1,167.91,293.57,164.35Zm24.91-34.86a48.71,48.71,0,1,1,62.29,29.4A48.72,48.72,0,0,1,318.48,129.49Z" style="fill:#fac748"/><path d="M185.93,89.2a54.16,54.16,0,0,1-16.37-2.85c-11.5-3.67-19.11-9.47-22.64-17.22A26.53,26.53,0,0,1,146.55,49L158,11.14a.84.84,0,0,1,1-.55.82.82,0,0,1,.56,1l-11.5,38c-.07.18-4,9.44.33,18.83,3.34,7.3,10.6,12.78,21.62,16.3,32.24,10.31,39.56-11.26,39.86-12.18l14.14-42.52a.84.84,0,0,1,1.06-.54.85.85,0,0,1,.53,1.06L211.52,73.08a24.13,24.13,0,0,1-11.67,13A29.89,29.89,0,0,1,185.93,89.2Z" style="fill:#488daf"/><path d="M144.27,167.25a.78.78,0,0,1-.26,0,.84.84,0,0,1-.54-1.06l19.12-59a.84.84,0,0,1,1.6.51l-19.12,59A.86.86,0,0,1,144.27,167.25Z" style="fill:#488daf"/><path d="M107.76,277.36a.69.69,0,0,1-.25,0,.83.83,0,0,1-.55-1.05L122.2,228.5a.85.85,0,0,1,1.06-.54.83.83,0,0,1,.54,1l-15.24,47.77A.83.83,0,0,1,107.76,277.36Z" style="fill:#488daf"/><path d="M114.14,375.13a.73.73,0,0,1-.25,0,.85.85,0,0,1-.56-1L128,326.9c.24-.85,5.55-21.52-26.27-31.29s-40,7.81-40.29,8.56l-16.4,45.41a.84.84,0,1,1-1.58-.57L59.9,303.56c.1-.25,8.94-19.81,42.34-9.55s27.45,33.14,27.39,33.37l-14.69,47.16A.85.85,0,0,1,114.14,375.13Z" style="fill:#488daf"/><path d="M33.47,268.19a.83.83,0,0,1-.78-.54l-28-73.5a.84.84,0,1,1,1.57-.6l28,73.5a.83.83,0,0,1-.48,1.08A.8.8,0,0,1,33.47,268.19Z" style="fill:#fadb8f"/><path d="M47.26,252.4h-.44c-4.46-.27-7.84-4.67-7.53-9.8h0c.31-5.13,4.13-9.08,8.67-8.81a7.63,7.63,0,0,1,5.6,3.13,10,10,0,0,1,1.92,6.67C55.18,248.54,51.53,252.4,47.26,252.4ZM41,242.7c-.25,4.2,2.42,7.8,6,8s6.64-3,6.89-7.24a8.34,8.34,0,0,0-1.59-5.56,5.9,5.9,0,0,0-4.37-2.46h-.33c-3.4,0-6.31,3.17-6.56,7.25Z" style="fill:#fadb8f"/><path d="M364.33,185.47A72.43,72.43,0,1,1,436.75,113,72.51,72.51,0,0,1,364.33,185.47Zm0-143.17A70.75,70.75,0,1,0,435.07,113,70.82,70.82,0,0,0,364.33,42.3Z" style="fill:#fadb8f"/><path d="M378.05,279c-2.23,0-4.46,0-6.74,0-169.1-1-175.2-36.73-175.38-38.25a.84.84,0,0,1,1.67-.2c0,.35,6.84,35.83,173.72,36.78l6.65,0c161.4,0,173.16-34,173.26-34.4a.84.84,0,1,1,1.61.47C552.41,244.87,540.61,279,378.05,279Z" style="fill:#fff"/><path d="M303.93,609.62a.84.84,0,0,1-.8-.62.83.83,0,0,1,.58-1c33.23-9.19,89.08-48.35,89.64-48.75a.85.85,0,0,1,1.17.21.84.84,0,0,1-.2,1.17c-.57.39-56.66,39.72-90.16,49A.91.91,0,0,1,303.93,609.62Z" style="fill:#fff"/><path d="M387.89,460.83A26.81,26.81,0,0,1,371,454.6a.84.84,0,0,1,1-1.32c6,4.77,12.64,6.66,19.73,5.58,12.84-1.95,24.6-13.17,30.76-22.19.88-1.29,2.08-2.95,3.51-4.94C438.77,414,472.68,366.92,455.29,338c-3.47-5.78-8.39-9.15-14.63-10-23.66-3.33-59.17,29.63-59.53,30a.83.83,0,1,1-1.14-1.22c1.48-1.38,36.5-33.79,60.9-30.4,6.76.94,12.09,4.58,15.84,10.82,18,29.86-16.42,77.6-29.37,95.57-1.42,2-2.61,3.63-3.49,4.91-6.35,9.3-18.51,20.87-31.89,22.89A26,26,0,0,1,387.89,460.83Z" style="fill:#fff"/><path d="M307.19,650.27a.84.84,0,0,1,0-1.68l191.41-3.76a.83.83,0,0,1,.86.82.86.86,0,0,1-.83.86l-191.41,3.76Z" style="fill:#fff"/></g></g></svg>