<svg xmlns="http://www.w3.org/2000/svg" viewBox="0 0 918.16 659.44"><g id="Layer_2" data-name="Layer 2"><g id="_Layer_" data-name="&lt;Layer&gt;"><path d="M436.18,281.19c-1.37,2.25-1.94,5.06-1.45,9.63.9,8.51.81,17.09-3.52,24.28-2.38,3.95-5.86,6.83-9.37,9.49-4.47,3.4-9.24,5.79-13.09,10s-8.41,7.09-12,11.19c-4.12,4.68-6.43,10.4-12,13.5a29,29,0,0,1-9.63,2.93c-11.53,1.9-24.62-.88-35.47,3.85-6.49,2.83-9.55,6.19-17.51,5.88-13.73-.55-26.19-6-39.54-9.57-1.35-.36-20.22-7.95-20.49-7.59,0,0-23,30-44,37.83s-43.69.56-52.76,11.23c-8.62,10.13-17.9,19.55-28.48,27-6.61,4.67-14,7.75-20.54,12.3s-13.11,7.1-21.07,6c-8.28-1.16-14.1-8.32-22.34-8.82-4.13-.25-7.78.93-12-.6-4.46-1.62-8.25-5.32-11.14-9.6-4.71-7-7-13.75-12.7-19.92-4.19-4.51-9.77-7.22-13.73-12.31-11.23-14.41-8-35.81-17.37-51.45a41.47,41.47,0,0,1-6-21c-.06-14,5.38-26.75,4.62-41.07-.41-7.82-2-14.29,1-21.82,2.65-6.69,8.72-11.89,10.09-19.26,1.42-7.69-1.55-16.32-.2-24.24a57.19,57.19,0,0,1,6.74-18.13c2.45-4.43,7.93-9.49,9.17-14.48,2.88-11.54-3.66-24.88.2-37.06,3.06-9.65,9-17.7,15.9-24.09a23.23,23.23,0,0,0,4.66-5.12c1.48-2.52,2-5.66,2.51-8.69C56.58,100.8,60,89.6,68,83.92c5.39-3.83,12.1-4.57,18.57-5.21,6.72-.67,16,1.12,22.13-2.17,5.51-3,9.53-10.33,14.5-14.42,9.55-7.85,20.54-8,31.75-10.58,9.55-2.15,14.71-13,21.21-20.46,2-2.27,4.07-4.56,6.65-5.9a21,21,0,0,1,6.05-1.8c5.85-1,12.79-.23,18.28-2.16,4.78-1.68,10-6.19,14-9.43a57.69,57.69,0,0,1,10.23-7.08c4.66-2.3,9.8-3.2,14.87-4.09,3.5-.61,7.22-1.19,10.56.47,7.68,3.83,13.67,3.87,21.86,5.62,10,2.15,20-1.81,30.16,2,12.18,4.6,18.81,20,31.05,22.89,6.58,1.56,15.31-1,21.9-1.58,3.27-.28,6.6-.55,9.85.36,15.14,4.21,24.57,24.12,41.38,25.16,5.42.34,10.7.75,15.65,4,13.23,8.75,16.5,29.28,29.12,38.65,6.13,4.56,11.09,8.1,15.82,14.84a41,41,0,0,1,5.57,10.25c4.66,13.73.16,29.58,6.47,43,2.92,6.2,6.84,11.94,8.34,18.9a43.24,43.24,0,0,1,.47,10.9c-.23,5.44-.51,11.09-2.82,15.71-1.84,3.66-4.8,6.35-7.7,9-7.07,6.36-10.06,11-13.83,20.37-2.74,6.81-3.44,14.17-8.46,19.59C454,269,442.51,270.74,436.18,281.19Z" style="fill:#f88dad"/><path d="M96,407.3a4.2,4.2,0,0,1-4-3c-5.68-19.17-20.65-30.09-44.48-32.45-28.37-1.14-39-18.2-39.42-18.92a4.2,4.2,0,0,1,7.17-4.36c.36.59,9,14,32.83,14.92,27.41,2.71,45.29,16,51.94,38.43a4.2,4.2,0,0,1-2.83,5.21A4.16,4.16,0,0,1,96,407.3Z" style="fill:#db6ba3"/><path d="M51.48,422.71A4.19,4.19,0,0,1,49.17,415c.18-.11,17.6-11.77,18.77-25.38.48-5.6-1.88-10.77-7.22-15.8a4.19,4.19,0,0,1,5.75-6.1c7.23,6.81,10.54,14.43,9.82,22.64C74.75,408.05,54.63,421.46,53.78,422A4.15,4.15,0,0,1,51.48,422.71Z" style="fill:#db6ba3"/><path d="M127.88,437.83a4.1,4.1,0,0,1-1.63-.33A4.19,4.19,0,0,1,124,432c6.22-14.77-4.82-24.82-5.29-25.24a4.19,4.19,0,0,1,5.52-6.3c5.61,4.88,14.39,18.44,7.49,34.8A4.19,4.19,0,0,1,127.88,437.83Z" style="fill:#db6ba3"/><path d="M56.26,309c-15.23,0-26-15.34-26.51-16a4.19,4.19,0,0,1,6.88-4.78c.12.17,9,12.94,20.07,12.39,6.9-.21,13.6-5.54,19.9-15.83a4.19,4.19,0,1,1,7.15,4.38C75.87,302,66.84,308.67,56.91,309Z" style="fill:#db6ba3"/><path d="M157.77,368.33a4.68,4.68,0,0,1-.64,0,38.57,38.57,0,0,1-23.47-15.07c-7.54-10.42-9.88-24.56-7-42a4.19,4.19,0,0,1,8.27,1.39c-2.54,15.09-.72,27.07,5.39,35.6a30.52,30.52,0,0,0,18,11.81,4.19,4.19,0,0,1-.65,8.33Z" style="fill:#db6ba3"/><path d="M230.63,383A23.38,23.38,0,0,1,215.49,378c-13.93-11.26-11.8-37.15-11.7-38.24a4.19,4.19,0,0,1,8.35.74c-.54,6.24,0,24,8.63,31,4.51,3.63,11.06,4.16,19.45,1.56a4.19,4.19,0,0,1,2.49,8A41.25,41.25,0,0,1,230.63,383Z" style="fill:#db6ba3"/><path d="M54,258.41c-8,0-14.86-6-18-10.39a4.19,4.19,0,0,1,6.78-4.93h0c.81,1.11,8.17,10.64,16.22,5.24,3.3-2.2,4.6-5.71,6.09-9.77,2.85-7.7,6.39-17.29,24.52-18.75,10.84-.88,18.92-5,22.76-11.52,4-6.88,3.54-16.27-1.44-27.14-4.81-10.51-.84-21.52,3.36-33.18C121.51,128,129,107.39,96.71,83a4.19,4.19,0,0,1,5.06-6.69c37.16,28.12,27.89,53.84,20.44,74.5-3.76,10.44-7,19.45-3.63,26.85,7.79,17,4.87,28.35,1,34.87-5.26,9-15.67,14.53-29.31,15.63-12.8,1-14.7,6.18-17.33,13.31-1.75,4.74-3.74,10.11-9.29,13.83A17.12,17.12,0,0,1,54,258.41Z" style="fill:#db6ba3"/><path d="M90.6,198.25a28.7,28.7,0,0,1-7-.92c-19.7-5-24.4-24.62-24.13-34.27A4.1,4.1,0,0,1,63.76,159a4.18,4.18,0,0,1,4.07,4.29h0c0,.87-.26,21.31,17.82,25.92,5.15,1.32,9.47.68,13.19-2,7.29-5.15,9.84-16.18,10-17.66a4.19,4.19,0,1,1,8.35.75c-.27,3-3.52,16.71-13.48,23.76A22.2,22.2,0,0,1,90.6,198.25Z" style="fill:#db6ba3"/><path d="M182.51,163.3c-8.82,0-15.66-2.52-20.41-7.52-10.1-10.67-6.17-28.27-6-29a4.19,4.19,0,0,1,8.17,1.88h0c0,.14-3.08,14,3.94,21.38,4.38,4.6,12.12,6,23,4.06a4.19,4.19,0,1,1,1.45,8.25A58.86,58.86,0,0,1,182.51,163.3Z" style="fill:#db6ba3"/><path d="M156.83,288.78a24,24,0,0,1-3.59-.22,4.19,4.19,0,0,1,1.24-8.29c.72.1,15.69,2,23.57-12.3,2.53-4.6.29-12.39-2.08-20.65-4.79-16.66-11.34-39.48,19.22-52.89a4.19,4.19,0,1,1,3.36,7.68C174.71,212.57,179.24,228.32,184,245c2.86,10,5.57,19.39,1.36,27C177.2,286.88,163.36,288.78,156.83,288.78Z" style="fill:#db6ba3"/><path d="M202.11,310.65a4.19,4.19,0,0,1-2.84-7.28c1.8-1.67,17.17-16.84,1.38-34.37-5.4-6-9.75-10.12-13.25-13.43-8.92-8.45-13.4-12.7-15.52-29.56a4.19,4.19,0,1,1,8.32-1c1.75,13.89,4.35,16.35,13,24.52,3.6,3.42,8.09,7.66,13.71,13.91,17.34,19.25,6.31,38.61-1.95,46.16A4.13,4.13,0,0,1,202.11,310.65Z" style="fill:#db6ba3"/><path d="M262.12,359a4.2,4.2,0,0,1-3.46-6.56c20.25-29.59-2.62-53.92-3.61-54.94a4.19,4.19,0,1,1,6-5.82c.29.3,28.55,30.34,4.49,65.49A4.18,4.18,0,0,1,262.12,359Z" style="fill:#db6ba3"/><path d="M374.63,360.46a34.06,34.06,0,0,1-9.86-1.51A35.6,35.6,0,0,1,343.46,341c-10.82-20.47,10-41.27,10.9-42.15a4.19,4.19,0,0,1,5.88,6c-.18.17-17.26,17.32-9.37,32.25a27.4,27.4,0,0,0,16.37,13.86c6.15,1.9,10.9,1.05,12.23.34a4.19,4.19,0,1,1,3.93,7.4A19.15,19.15,0,0,1,374.63,360.46Z" style="fill:#db6ba3"/><path d="M345.17,337.92a4.18,4.18,0,0,1-3.95-2.8c-4.55-12.88-16.88-9.43-18.28-9a4.19,4.19,0,0,1-2.57-8c7.37-2.39,22.87-2.5,28.75,14.19a4.19,4.19,0,0,1-2.56,5.35A4.24,4.24,0,0,1,345.17,337.92Z" style="fill:#db6ba3"/><path d="M277.21,268.76a4.19,4.19,0,0,1-4.13-4.89c0-.21,3.45-21.53-8.48-33.27-11.5-11.32-28.58-3.75-28.75-3.67a4.2,4.2,0,1,1-3.47-7.64c.91-.41,22.54-10,38.1,5.34,15.08,14.83,11,39.6,10.86,40.65A4.19,4.19,0,0,1,277.21,268.76Z" style="fill:#db6ba3"/><path d="M263.35,228.15a4.21,4.21,0,0,1-2.4-.76c-21.88-15.24-15.65-40.34-15.37-41.4a4.19,4.19,0,0,1,8.12,2.1h0c-.22.83-5,20.57,12.05,32.43a4.19,4.19,0,0,1-2.4,7.63Z" style="fill:#db6ba3"/><path d="M296.42,167c-13.42,0-25.63-7-26.42-7.51a4.19,4.19,0,0,1,4.24-7.23c.24.14,24.71,14.17,38.16-.23,13.71-14.69-.17-41.77-.31-42a4.19,4.19,0,0,1,7.43-3.89c.69,1.33,16.78,32.62-1,51.66C312,164.72,304,167,296.42,167Z" style="fill:#db6ba3"/><path d="M219.15,100a4.21,4.21,0,0,1-4-3c-.07-.22-3.36-10.7-12.93-14.79-7.41-3.18-16.87-1.9-28.1,3.8a4.19,4.19,0,1,1-3.79-7.48c13.6-6.9,25.48-8.24,35.3-4,13.24,5.73,17.39,19.5,17.56,20.09a4.19,4.19,0,0,1-2.85,5.2A4.3,4.3,0,0,1,219.15,100Z" style="fill:#db6ba3"/><path d="M199.39,81.16a4.17,4.17,0,0,1-3.82-2.48A21.71,21.71,0,0,0,186,68.54a4.19,4.19,0,0,1,3.4-7.66,29.92,29.92,0,0,1,13.87,14.37,4.2,4.2,0,0,1-3.83,5.91Z" style="fill:#db6ba3"/><path d="M223.92,136.51a38,38,0,0,1-10.67-1.44,4.19,4.19,0,0,1,2.55-8c.25.08,11.21,3.35,21.43-2.15,7.43-4,12.83-11.7,16.05-22.88,6.31-25-5.18-46.93-7.55-51.06-7.93-13.83-19-38.41-4-47.66a4.19,4.19,0,0,1,4.39,7.14c-7.62,4.7-1.07,22.52,6.87,36.35,2.64,4.63,15.5,29.12,8.37,57.42-3.93,13.62-10.74,23-20.3,28.14A36.32,36.32,0,0,1,223.92,136.51Z" style="fill:#db6ba3"/><path d="M257.57,75.18a4.18,4.18,0,0,1-4.14-3.59c-1.4-9.59,0-16.53,4.17-21.2C264.24,43,276,43.5,287.43,44c8.42.35,17.12.7,22.77-2.11,4.71-2.34,7.47-5.19,8.21-8.46,1.14-5.07-2.7-10.11-2.73-10.16a4.19,4.19,0,1,1,6.58-5.2c.26.33,6.35,8.19,4.33,17.2-1.32,5.85-5.57,10.6-12.66,14.13-7.57,3.76-17.37,3.36-26.84,3s-19.25-.79-23.26,3.65c-2.4,2.67-3.11,7.5-2.1,14.38a4.17,4.17,0,0,1-4.16,4.8Z" style="fill:#db6ba3"/><path d="M384.24,117.68a3.77,3.77,0,0,1-.58,0c-15.73-2.16-26.62-8.37-32.36-18.46-9.49-16.66-.95-37.37-.58-38.25a4.19,4.19,0,0,1,7.73,3.25c-.08.18-7.3,17.85.15,30.89,4.39,7.68,13.21,12.48,26.2,14.27a4.19,4.19,0,0,1-.56,8.34Z" style="fill:#db6ba3"/><path d="M445.73,210.57a4.2,4.2,0,0,1-2-.53c-.84-.47-20.56-11.79-23.82-33.67-1.31-8.83.9-15.71,3-22.37,3.06-9.52,5.7-17.73-2.41-31.42a4.19,4.19,0,1,1,7.21-4.27c10,16.93,6.39,28.26,3.18,38.25-1.93,6-3.75,11.68-2.72,18.57,2.63,17.76,19.46,27.51,19.63,27.6a4.19,4.19,0,0,1-2.07,7.84Z" style="fill:#db6ba3"/><path d="M484,170c-4.15,0-40.49-1.46-65.2-51.19-16.95-34.09-5.43-58.56-4.93-59.59a4.19,4.19,0,0,1,7.54,3.67c-.42.87-10.12,22,4.89,52.19,23.18,46.64,56.35,46.54,57.82,46.54h.08a4.19,4.19,0,0,1,.13,8.38Z" style="fill:#db6ba3"/><path d="M424.49,263.34a4.19,4.19,0,0,1-4.16-3.74h0c-.15-1.33-4-32.74-37.82-35.67-14.54-1.25-23.77,3.47-31.91,7.64-12.14,6.22-23.61,12.1-44-6.48a4.19,4.19,0,0,1,5.64-6.2c16.13,14.67,23.07,11.11,34.57,5.22,8.7-4.45,19.52-10,36.46-8.53,40.78,3.53,45.39,42.73,45.43,43.13a4.18,4.18,0,0,1-3.73,4.61Z" style="fill:#db6ba3"/><path d="M345.49,278.57a48.81,48.81,0,0,1-14.8-2.36,4.19,4.19,0,0,1,2.78-7.91h0c.13.05,13.44,4.57,23.25-.54,4.67-2.44,7.8-6.63,9.54-12.81,5.23-18.48,12-29.51,20.74-33.72,5-2.42,10.47-2.45,16.14-.08a4.2,4.2,0,0,1-3.25,7.74c-3.41-1.44-6.44-1.47-9.25-.11-4.37,2.11-10.74,8.75-16.31,28.45-2.38,8.42-7,14.48-13.79,18A32.6,32.6,0,0,1,345.49,278.57Z" style="fill:#db6ba3"/><path d="M420.51,284.37a86,86,0,0,0,.4-39.8L402.25,246a60.59,60.59,0,0,0-4.46-11.16c3.9-2.29,10.69-6.37,16.52-10.22A85.93,85.93,0,0,0,387,195.7L374.25,210a61,61,0,0,0-13.38-5.92c1-4.35,2.75-12.26,4-19.27a85.69,85.69,0,0,0-39.79,0l1.64,18.86a61.67,61.67,0,0,0-13.7,5.55c-2.52-3.77-6.92-10.25-11.06-15.79a85.83,85.83,0,0,0-27.33,28.92l14.18,11.24a61.92,61.92,0,0,0-4.87,11.61c-4.52-1-11.7-2.41-18.12-3.44a85.79,85.79,0,0,0,.57,39.79l17.21-1.74a61.5,61.5,0,0,0,4.48,11.47c-3.95,2.44-9.79,6.12-14.88,9.62A85.87,85.87,0,0,0,301,329.34l11-12.8a61.14,61.14,0,0,0,14.9,6.2c-.91,4.55-2.17,11.2-3.06,17.19a85.77,85.77,0,0,0,39.78-1L361.73,322a60.45,60.45,0,0,0,10.77-4.59c2.44,3.95,6.14,9.83,9.66,14.94a86,86,0,0,0,28.43-27.85l-13.51-11.58a61.46,61.46,0,0,0,5.15-12.5C406.72,281.49,414,283.16,420.51,284.37ZM343,297.58a34.39,34.39,0,1,1,34.39-34.39A34.39,34.39,0,0,1,343,297.58Z" style="fill:#fff"/><path d="M201.6,285.41a86,86,0,0,0,.4-39.8l-18.66,1.44a60.87,60.87,0,0,0-4.46-11.16c3.89-2.29,10.69-6.36,16.52-10.22a85.84,85.84,0,0,0-27.33-28.92l-12.73,14.31A61.47,61.47,0,0,0,142,205.15c1-4.36,2.75-12.27,4-19.28a85.85,85.85,0,0,0-39.79,0l1.64,18.87a61,61,0,0,0-13.7,5.54C91.56,206.51,87.16,200,83,194.49a85.81,85.81,0,0,0-27.33,28.93l14.18,11.23A61.92,61.92,0,0,0,65,246.26c-4.52-.95-11.7-2.41-18.12-3.44a85.82,85.82,0,0,0,.57,39.8l17.21-1.75a61.5,61.5,0,0,0,4.48,11.47c-4,2.44-9.79,6.13-14.88,9.63a85.9,85.9,0,0,0,27.86,28.41l11-12.8a61.56,61.56,0,0,0,14.9,6.21c-.91,4.54-2.17,11.19-3.06,17.18a85.85,85.85,0,0,0,39.78-1l-1.89-16.94a61.19,61.19,0,0,0,10.77-4.59c2.44,3.95,6.14,9.82,9.66,14.93a85.91,85.91,0,0,0,28.43-27.85L178.17,294a61.22,61.22,0,0,0,5.15-12.5C187.81,282.54,195.09,284.2,201.6,285.41Zm-77.53,13.22a34.4,34.4,0,1,1,34.39-34.4A34.4,34.4,0,0,1,124.07,298.63Z" style="fill:#fff"/><path d="M295.52,170.7a85.72,85.72,0,0,0,18.9-35l-17.17-7.43a62,62,0,0,0,1.26-11.94c4.51-.22,12.42-.65,19.37-1.35a86,86,0,0,0-10.7-38.33l-17.93,6.73a61.5,61.5,0,0,0-9.08-11.47c2.91-3.38,8.15-9.57,12.5-15.2a85.92,85.92,0,0,0-35.21-18.55L250.12,55.6a61.7,61.7,0,0,0-14.71-1.48c-.47-4.51-1.34-12.29-2.42-19.12a85.78,85.78,0,0,0-37.66,12.85l7.3,16.55a62.1,62.1,0,0,0-9.71,8c-3.56-3-9.23-7.59-14.44-11.49a85.9,85.9,0,0,0-18,35.48l16,6.47a62.13,62.13,0,0,0-1.38,12.24c-4.63.32-11.51.86-17.65,1.58a85.85,85.85,0,0,0,11.41,38.13l15.67-6.21A61.15,61.15,0,0,0,194.82,161c-2.92,3.6-7.14,8.89-10.72,13.78a85.79,85.79,0,0,0,35.65,17.67L226,176.62a62.18,62.18,0,0,0,11.67,1c.32,4.63.86,11.55,1.59,17.71a85.83,85.83,0,0,0,38.13-11.39l-6.55-16.54a61.42,61.42,0,0,0,10.38-8.66C284.66,161.73,290.33,166.6,295.52,170.7Zm-74.75-24.44a34.39,34.39,0,1,1,46.46-14.4A34.39,34.39,0,0,1,220.77,146.26Z" style="fill:#fff"/><path d="M237.67,169a53.2,53.2,0,1,1,53.2-53.2A53.25,53.25,0,0,1,237.67,169Zm0-102.21a49,49,0,1,0,49,49A49.06,49.06,0,0,0,237.67,66.82Z" style="fill:#f88dad"/><path d="M343.39,316.39a53.2,53.2,0,1,1,53.2-53.2A53.25,53.25,0,0,1,343.39,316.39Zm0-102.21a49,49,0,1,0,49,49A49.07,49.07,0,0,0,343.39,214.18Z" style="fill:#f88dad"/><path d="M124.74,317.43a53.2,53.2,0,1,1,53.2-53.2A53.26,53.26,0,0,1,124.74,317.43Zm0-102.21a49,49,0,1,0,49,49A49.07,49.07,0,0,0,124.74,215.22Z" style="fill:#f88dad"/><path d="M728,483,867.71,611.58l27.46-8s-22.7-26.85-35.8-54.36-45.06-80.43-71.79-84.62C752,472.48,728,483,728,483Z" style="fill:#ff977b"/><path d="M618.89,491.87q0-1.25-.09-2.58c0-1.93-.14-3.8-.3-5.62-1.43-22.43-6.1-55.64-6.1-55.64s-3.23-12.79-49.13-23.32c-6.23,7.63-5.37,28.5-5.37,28.5l.4,18.14h0l3.78,171.73,24.79,14.26s3.6-35,14.35-63.48c7.5-19.91,17.52-55,17.63-81.94Z" style="fill:#ff977b"/><path d="M490.74,323.7s-27.42-.89-27.82,1.89c-.29,2.06,7.74,3.78,11.93,4.53a.69.69,0,0,1,.07,1.35c-2.75,1.08-7.66,3-13.64,5.07-2.5.89-3.48,3.62-2,5.47,7.52,9.43,21.2,7.86,32.86,4,0,0,10.37-3.2,9.26-13.29-1-9.27-10.66-9-10.66-9Z" style="fill:#ff977b"/><path d="M459.32,341.83a.84.84,0,0,1-.1-1.67c4.43-.53,14-3.59,14.12-3.62a.83.83,0,1,1,.51,1.59c-.4.13-9.84,3.14-14.43,3.7Z" style="fill:#c46f6a"/><path d="M462.16,345a.84.84,0,0,1-.07-1.67c4.36-.38,13.12-3,13.21-3a.84.84,0,0,1,.48,1.61c-.37.11-9,2.67-13.54,3.06Z" style="fill:#c46f6a"/><path d="M467.2,347.56a6.67,6.67,0,0,1-.83,0,.84.84,0,0,1-.73-.94.83.83,0,0,1,.94-.72c1.71.19,7.2-.72,9.18-1.09a.83.83,0,0,1,1,.67.82.82,0,0,1-.67,1A65.38,65.38,0,0,1,467.2,347.56Z" style="fill:#c46f6a"/><path d="M761.91,266.31s44,43.93,47.16,87.85-17.82,111.51-17.82,111.51-70.73,49.25-115.8,36.16-54.82-92.66-113.6-95.33c44.44-57.15,149.23-145.18,149.23-145.18Z" style="fill:#1d2f6f"/><path d="M633.88,182.9S621.82,177,625,160.54s1.43-20.61-4.16-27.6-1.39-18,0-24.57S604,64,633.88,64.06c23.64-20.89,44.15-9.71,47.69,2.86s19.27,14.49,22.06,27-8.73,27.67,0,34.58,21.66,20.18,15.72,33.46S633.88,182.9,633.88,182.9Z" style="fill:#423651"/><path d="M765.58,266.31c-11.53-18.61-33-61.05-35.63-90.92s-52.9-46.11-75.44-18.34S488.33,323.64,488.33,323.64l21,10L660,207.18s27.44,51.88,46.36,58.75c1.4,5.4,2.32,9.24,2.49,10.58-12,20.67-50.07,75.65-50.07,75.65a30.23,30.23,0,0,0,16.71,9.47c20.44-16.47,59.79-64.84,63.4-77,.58-1.93.41-6.19-.27-12A58.71,58.71,0,0,0,765.58,266.31Z" style="fill:#86bbd8"/><path d="M691.39,142.75c-.33-1.4-1.59-4.75-2-6L676.57,99.15s-14.56,2.24-22.73,14.94c6.37,23.56,9.61,35.81,8.37,36.34A22.34,22.34,0,0,0,679,157.8C688.54,150.58,691.39,142.75,691.39,142.75Z" style="fill:#e57765"/><path d="M673.66,74.39s9.78,55.05-13.65,62.21c-13.21,4-24.39-3-34.45-44.33-3.87-18.08,13.52-23.78,20.23-26.46S669.49,62,673.66,74.39Z" style="fill:#ff977b"/><path d="M688.37,92.55a8.74,8.74,0,0,1-5.65,10.82c-4.17,1.27-6.39-1.88-7.86-6.69s.72-9.75,4.88-11S686.9,87.74,688.37,92.55Z" style="fill:#ff977b"/><path d="M656.05,99.34c.59,2.44-.06,4.7-1.44,5s-3-1.38-3.58-3.83.06-4.7,1.45-5S655.47,96.89,656.05,99.34Z" style="fill:#423651"/><path d="M638.54,103.38c.59,2.44.08,4.67-1.14,5s-2.69-1.45-3.28-3.9-.07-4.67,1.15-5S638,100.93,638.54,103.38Z" style="fill:#423651"/><path d="M648.39,92.23a20.24,20.24,0,0,1,7.67-1.66,1.49,1.49,0,0,0,1.42-1.1c.12-.52.24-1,.35-1.3a1.23,1.23,0,0,0-1.3-1.57,22.81,22.81,0,0,0-9.9,2.35,1.27,1.27,0,0,0-.6,1.76c.19.33.38.67.54,1A1.41,1.41,0,0,0,648.39,92.23Z" style="fill:#423651"/><path d="M631.91,97.43a12.43,12.43,0,0,1,6.44-4.11,1.12,1.12,0,0,0,.74-1.54,13.58,13.58,0,0,0-.67-1.28,1.09,1.09,0,0,0-1.17-.5,11.33,11.33,0,0,0-7.72,5.92,1.11,1.11,0,0,0,.41,1.44,6,6,0,0,0,.58.33A1.1,1.1,0,0,0,631.91,97.43Z" style="fill:#423651"/><path d="M647.74,121.55a8.9,8.9,0,0,1-3.61-.75.84.84,0,1,1,.73-1.51,7.36,7.36,0,0,0,5.13.19c2-.72,3.68-2.44,4.93-5.12A.85.85,0,0,1,656,114a.83.83,0,0,1,.4,1.11c-1.46,3.11-3.45,5.13-5.91,6A8.36,8.36,0,0,1,647.74,121.55Z" style="fill:#a55f56"/><path d="M644.75,114.91a4.07,4.07,0,0,1-3.27-1.37c-.45-.59-1-1.89.33-3.87,2-3,1.77-9,1.76-9a.84.84,0,0,1,.8-.87c.5.06.86.33.88.8,0,.26.28,6.56-2,10-.39.59-.78,1.4-.38,1.94a3.08,3.08,0,0,0,3,.54,6.32,6.32,0,0,0,2.51-1.25.85.85,0,0,1,1.18,0,.82.82,0,0,1,.08,1.16,7.2,7.2,0,0,1-3.27,1.74A5.25,5.25,0,0,1,644.75,114.91Z" style="fill:#a55f56"/><path d="M677.23,86.66s-25.31,5.89-35.83-13.54c-10.72,20.34-17.77,20.51-17.77,20.51S614.72,65.55,653,60.28C680.94,57.16,677.23,86.66,677.23,86.66Z" style="fill:#423651"/><path d="M561.44,639.16c.07-.32.15-.64.19-1a56.91,56.91,0,0,0,.47-9.35c.14-7.4,0-15.38,0-15.38l24.25-.76v28.4l-12.78.11-7.07,6.87a9.24,9.24,0,0,1-6.2,2.69,11,11,0,0,1-5.95-1.37C557.57,646.58,560.49,643.05,561.44,639.16Z" style="fill:#ff977b"/><path d="M547.69,654.1a41.15,41.15,0,0,0,6.66-4.71,11,11,0,0,0,5.95,1.37,9.24,9.24,0,0,0,6.2-2.69l7.07-6.87,12.78-.11v18.35h-8.21l-.37-7s-.83,4.06-9.2,7H543.32S542.62,657,547.69,654.1Z" style="fill:#29293a"/><path d="M886.44,629.21a6.68,6.68,0,0,0-.6-.8,57,57,0,0,0-6.66-6.59c-5.43-5-11.47-10.24-11.47-10.24L883.29,593l11.88,10.61,7.85,7,1.46,1.3-8.43,9.6.42,9.85a9.3,9.3,0,0,1-2.14,6.41,11,11,0,0,1-5,3.54C889.4,637,888.71,632.5,886.44,629.21Z" style="fill:#ff977b"/><path d="M888.43,649.41a40.65,40.65,0,0,0,.92-8.1,11,11,0,0,0,5-3.54,9.3,9.3,0,0,0,2.14-6.41l-.42-9.85,8.43-9.6,13.68,12.22-5.47,6.12-5.49-4.41s2.47,3.32-.89,11.55l-8.17,9.16-6.07,6.8-2.58,2.88S887.18,655.09,888.43,649.41Z" style="fill:#29293a"/><path d="M621.86,458.36a52.28,52.28,0,0,0,61.51-12.7,11.8,11.8,0,0,1-1.17-.42l-42.63-20.13A13.61,13.61,0,0,1,633.08,407l4-8.47A13.6,13.6,0,0,1,655.19,392l42.64,20.14c.38.18.7.43,1.06.64A52.28,52.28,0,0,0,600,382.18l-3.1,6.56A52.31,52.31,0,0,0,621.86,458.36Z" style="fill:#f4dfdf"/><path d="M366.35,337.66a52.29,52.29,0,0,1-29.26-55.58c.36.21.68.46,1.06.64l42.64,20.14a13.59,13.59,0,0,0,18.1-6.49l4-8.47a13.61,13.61,0,0,0-6.49-18.11l-42.64-20.14c-.38-.18-.78-.27-1.17-.41a52.27,52.27,0,0,1,86.47,56.91l-3.1,6.56A52.29,52.29,0,0,1,366.35,337.66Z" style="fill:#f4dfdf"/><polygon points="464.84 333.38 566.25 381.29 604.22 399.23 613.82 378.9 575.86 360.97 474.44 313.06 436.48 295.13 426.88 315.45 464.84 333.38" style="fill:#f4dfdf"/><path d="M389.28,321.31a22.83,22.83,0,0,1-9.42-1.91l-40.43-19.27a.84.84,0,1,1,.72-1.51l40.44,19.27c.88.43,21.49,10.12,36.42-20.28,5.1-10.37,6.18-19.42,3.23-26.87-3.8-9.6-13.16-13.22-13.26-13.26L371.54,239.4a.82.82,0,0,1-.36-1.12.84.84,0,0,1,1.12-.37l35.36,18c.32.12,10,3.86,14.13,14.15,3.15,7.92,2,17.42-3.27,28.26-5.65,11.48-12.78,18.76-21.22,21.62A24.7,24.7,0,0,1,389.28,321.31Z" style="fill:#ad8c8c"/><path d="M599.15,385.1a.78.78,0,0,1-.36-.08l-161-75.75a.83.83,0,0,1-.4-1.11.85.85,0,0,1,1.12-.41l161,75.76a.83.83,0,0,1-.36,1.59Z" style="fill:#ad8c8c"/><path d="M664.48,458.82a.84.84,0,0,1-.37-.09L620,436.64c-.23-.12-20.86-11.66-5.09-42.88s36-24,36.18-23.92l44.2,19.69a.84.84,0,0,1-.69,1.53l-44.14-19.67c-.72-.27-19-6.64-34,23.12s3.57,40.21,4.37,40.64l44.13,22.08a.84.84,0,0,1,.37,1.13A.83.83,0,0,1,664.48,458.82Z" style="fill:#ad8c8c"/><path d="M655.46,354s-22,16.46-20.52,18.88c1.06,1.79,8.41-1.9,12.14-3.94.68-.36,1.29.34.9,1-1.47,2.56-4.13,7.09-7.46,12.49-1.4,2.25-.45,5,1.86,5.51,11.77,2.65,21.45-7.13,28.14-17.43,0,0,6.09-9-1.09-16.16-6.59-6.6-14-.37-14-.37Z" style="fill:#ff977b"/><path d="M641.77,388a.82.82,0,0,1-.58-.24.84.84,0,0,1,0-1.18c3.12-3.19,8.69-11.58,8.75-11.66a.84.84,0,0,1,1.4.92c-.23.35-5.72,8.61-9,11.91A.82.82,0,0,1,641.77,388Z" style="fill:#c46f6a"/><path d="M646,388.7a.85.85,0,0,1-.61-.26.84.84,0,0,1,0-1.19c3.16-3,8.38-10.52,8.43-10.6a.84.84,0,0,1,1.38,1c-.22.31-5.37,7.72-8.65,10.85A.84.84,0,0,1,646,388.7Z" style="fill:#c46f6a"/><path d="M650.91,388a.83.83,0,0,1-.71-.4.84.84,0,0,1,.27-1.15c1.47-.9,5.18-5.07,6.49-6.6a.84.84,0,0,1,1.27,1.09c-.49.58-4.92,5.73-6.88,6.94A.83.83,0,0,1,650.91,388Z" style="fill:#c46f6a"/><path d="M706.32,266.77a.84.84,0,0,1-.8-.6l-23-78.75c-.16-.92-3.17-20,3.4-25.76a.84.84,0,1,1,1.1,1.26c-5.87,5.13-2.9,23.94-2.87,24.12l23,78.66a.84.84,0,0,1-.57,1Z" style="fill:#488daf"/><path d="M738.58,273.53a.83.83,0,0,1-.82-.67c-5.46-26.31-21-100.22-21.21-101a.85.85,0,0,1,.65-1,.84.84,0,0,1,1,.65c.16.74,15.76,74.66,21.21,101a.84.84,0,0,1-.65,1A.52.52,0,0,1,738.58,273.53Z" style="fill:#488daf"/><path d="M660,208a.84.84,0,0,1-.79-.56c-.3-.82-7.25-20.07-9.07-27a.84.84,0,0,1,.6-1,.83.83,0,0,1,1,.6c1.81,6.85,8.95,26.65,9,26.85a.82.82,0,0,1-.5,1.07A.71.71,0,0,1,660,208Z" style="fill:#488daf"/></g></g></svg>