<svg xmlns="http://www.w3.org/2000/svg" viewBox="0 0 815.53 791.85"><g id="Layer_2" data-name="Layer 2"><g id="_Layer_" data-name="&lt;Layer&gt;"><path d="M508,371.67a2.1,2.1,0,0,1-1-3.91l10.62-6.16a16.36,16.36,0,0,0,6.34-21.69l-21.51-41.64a16.4,16.4,0,0,0-22.68-6.72l-8.76,5a2.1,2.1,0,0,1-2.08-3.65l8.77-5a20.59,20.59,0,0,1,28.48,8.43L527.59,338a20.54,20.54,0,0,1-8,27.24L509,371.39A2.09,2.09,0,0,1,508,371.67Z" style="fill:#f88dad"/><path d="M410.68,312.37l45.84,95s32.66-6.05,60-26.73c-16.46-33.79-49.21-94-49.21-94s-15.71-12.34-36.67-2.91S410.68,312.37,410.68,312.37Z" style="fill:#f88dad"/><path d="M435,276.74c1.22,2.94-.93,6.63-4.8,8.24s-8,.54-9.23-2.4.93-6.62,4.8-8.23S433.76,273.81,435,276.74Z" style="fill:#f88dad"/><path d="M440.72,368.79s-10,10.65-20.09,5.24-13.66-25.42-37.2-16.94l.87,4s11.88-4.54,19.39,8.47c5.1,8.84,23.93,46.74,53.44,35.29C458,384.51,440.72,368.79,440.72,368.79Z" style="fill:#f88dad"/><path d="M411.72,313.21a.84.84,0,0,1-.35-1.6l55.54-25.73a.84.84,0,0,1,.71,1.53l-55.54,25.72A.94.94,0,0,1,411.72,313.21Z" style="fill:#c45b7e"/><path d="M466.69,368.93c-8.6,0-17.73-6.92-22.18-17.67-5.48-13.24-1.85-27.36,8.1-31.48s22.5,3.3,28,16.53h0c5.48,13.24,1.85,27.36-8.1,31.48A15.1,15.1,0,0,1,466.69,368.93Zm-8.25-48.62a13.45,13.45,0,0,0-5.19,1c-9.1,3.77-12.32,16.91-7.19,29.29s16.7,19.38,25.79,15.62S484.17,349.33,479,337h0C474.85,326.84,466.36,320.31,458.44,320.31Z" style="fill:#c45b7e"/><path d="M455.57,406.26a.85.85,0,0,1-.84-.81c-1-23.12-16.3-34.09-16.45-34.2a.84.84,0,1,1,1-1.37c.16.11,16.12,11.56,17.17,35.5a.85.85,0,0,1-.8.88Z" style="fill:#c45b7e"/><path d="M425.22,287.48a.83.83,0,0,1-.75-.47.85.85,0,0,1,.38-1.12l8.46-4.16a.84.84,0,0,1,.74,1.51l-8.46,4.16A1,1,0,0,1,425.22,287.48Z" style="fill:#c45b7e"/><path d="M783.74,717.8H566.82v-37H783.74a18.52,18.52,0,0,1,18.52,18.51h0A18.52,18.52,0,0,1,783.74,717.8Z" style="fill:#c45b7e"/><path d="M723,717.8H566.82v-37H723a18.52,18.52,0,0,1,18.52,18.51h0A18.52,18.52,0,0,1,723,717.8Z" style="fill:#f88dad"/><path d="M566.82,690.72h144a8.54,8.54,0,0,1,8.54,8.54v0a8.54,8.54,0,0,1-8.54,8.54h-144a0,0,0,0,1,0,0V690.72A0,0,0,0,1,566.82,690.72Z" style="fill:#f4dfdf"/><path d="M797,754.82H580.09v-37H797a18.51,18.51,0,0,1,18.51,18.51h0A18.51,18.51,0,0,1,797,754.82Z" style="fill:#db9b35"/><path d="M736.24,754.82H580.09v-37H736.24a18.51,18.51,0,0,1,18.51,18.51h0A18.51,18.51,0,0,1,736.24,754.82Z" style="fill:#f6ae2d"/><path d="M580.09,727.75h144a8.54,8.54,0,0,1,8.54,8.54v0a8.54,8.54,0,0,1-8.54,8.54h-144a0,0,0,0,1,0,0V727.75a0,0,0,0,1,0,0Z" style="fill:#f4dfdf"/><path d="M766.63,791.85H549.7v-37H766.63a18.52,18.52,0,0,1,18.51,18.52h0A18.51,18.51,0,0,1,766.63,791.85Z" style="fill:#488daf"/><path d="M705.85,791.85H549.7v-37H705.85a18.52,18.52,0,0,1,18.51,18.52h0A18.51,18.51,0,0,1,705.85,791.85Z" style="fill:#86bbd8"/><path d="M549.7,764.78h144a8.54,8.54,0,0,1,8.54,8.54v0a8.54,8.54,0,0,1-8.54,8.54h-144a0,0,0,0,1,0,0V764.78a0,0,0,0,1,0,0Z" style="fill:#f4dfdf"/><path d="M604.55,190.42l2.94,210.11h32.57l11.33-200.48S634.07,163.67,604.55,190.42Z" style="fill:#86bbd8"/><path d="M628.32,122.74l-84.21,74.37-31.25-74.37s-23.42,8.19-26.3,14.38c11.79,38.32,31.7,80.85,31.7,80.85s12.58,29.08,30,18.6,73.46-57.11,73.46-57.11Z" style="fill:#86bbd8"/><path d="M630.91,118.08s-51.1,28.63-2.32,150.58c22.13,8.19,29.23,0,29.23,0L661,152.74S657.28,121.14,630.91,118.08Z" style="fill:#f6ae2d"/><path d="M491.4,130.94s-2.78,3.1-3.76,3.57-12.72,6.32-14.89,6.37-9.16-.46-9.6-3.36c-.21-1.85,2.6-1.72,5.17-1.38-1.09-1.8-.77-3.46.75-3.95s5.51.41,5.51.41-2.33-2-1.73-3.84c.29-1.51,3.36-1.85,5.69-.21a32.59,32.59,0,0,0,.26-5s-6.47,1.48-9.85.71-2.05-4.64,3.56-5.37l.46-.06a16.67,16.67,0,0,0,9.57-4.7c2.3-2.25,5.56-4.57,9.17-4.49,6.94.15,16,17.33,16,17.33l-14.5,7.35Z" style="fill:#ff977b"/><path d="M481.77,123.57a.84.84,0,0,1-.22-1.65c.08,0,7.56-2.06,9-7a.84.84,0,1,1,1.62.46c-1.71,5.91-9.83,8.12-10.18,8.22Z" style="fill:#c46f6a"/><path d="M491.85,131.31a.75.75,0,0,1-.38-.1.83.83,0,0,1-.36-1.13,39.8,39.8,0,0,0,3.37-9.46.85.85,0,0,1,1-.68.83.83,0,0,1,.68,1,40.52,40.52,0,0,1-3.53,10A.85.85,0,0,1,491.85,131.31Z" style="fill:#c46f6a"/><path d="M478.94,129.48a.84.84,0,0,1-.16-1.66,20.14,20.14,0,0,1,4.46-.26,19.58,19.58,0,0,1,7-7.36.84.84,0,0,1,.81,1.47,18.27,18.27,0,0,0-6.59,7.14l-.25.51-.57,0a18.53,18.53,0,0,0-4.57.2Z" style="fill:#c46f6a"/><path d="M480.33,134.44a16.23,16.23,0,0,1-5.82-1.14.83.83,0,0,1-.44-1.09.84.84,0,0,1,1.09-.45c.07,0,6,2.46,10-.36a.84.84,0,1,1,1,1.37A9.89,9.89,0,0,1,480.33,134.44Z" style="fill:#c46f6a"/><path d="M474.52,138a22.84,22.84,0,0,1-6.47-1,.84.84,0,0,1-.53-1.06.83.83,0,0,1,1.06-.53c.05,0,5.13,1.67,9.25.52a.82.82,0,0,1,1,.58.85.85,0,0,1-.58,1A14,14,0,0,1,474.52,138Z" style="fill:#c46f6a"/><path d="M678.43,265l-49.84,3.65-1.56,366,24.36-.76,27-152.09,28.84,155.8,24.25-3.71s14.35-106-12.13-162.57c13.35-61.48,18.94-83.61,18.94-83.61Z" style="fill:#1d2f6f"/><path d="M655.89,28.2S656.68,0,689.69,0s12,54.58,21.48,65.28c-23.84-5.55-29.86-36.2-32-42.62s-19.68-3.5-18.22,9.45C656.26,32.05,655.89,28.2,655.89,28.2Z" style="fill:#423651"/><path d="M664.88,32.64s2.57-5.31-2.09-8.17-11.87-3.9-13.58.81C661,32.11,664.88,32.64,664.88,32.64Z" style="fill:#fac748"/><path d="M675.34,56.59c0,18.74-15.8,33.93-35.28,33.93s-35.27-15.19-35.27-33.93,15.79-33.93,35.27-33.93S675.34,37.85,675.34,56.59Z" style="fill:#423651"/><path d="M661,116.31a37.05,37.05,0,0,0-.19-3.9l-2-39.7s-14.61-1.85-25.95,8.13c-.34,24.4-.59,37.08-1.93,37.24a11.1,11.1,0,0,0,.52,1c5,9.17,17.72,10.57,25,3.08A28.29,28.29,0,0,0,661,116.31Z" style="fill:#e57765"/><path d="M662.79,48.1s-5.7,55.62-30.19,56.08c-13.81.25-22.63-9.59-21-52.08,1.24-18.45,19.53-19.15,26.72-19.9S662.18,35,662.79,48.1Z" style="fill:#ff977b"/><path d="M671.94,69.6a8.71,8.71,0,0,1-8.4,8.85c-4.35.08-5.62-3.56-5.72-8.59s3.37-9.17,7.72-9.25S671.85,64.57,671.94,69.6Z" style="fill:#ff977b"/><path d="M639,67.26c-.11,2.52-1.35,4.51-2.77,4.45s-2.5-2.15-2.39-4.67,1.34-4.5,2.77-4.44S639.12,64.75,639,67.26Z" style="fill:#423651"/><path d="M621.06,66.34c-.1,2.52-1.21,4.51-2.46,4.46s-2.19-2.13-2.08-4.65,1.21-4.51,2.46-4.46S621.17,63.83,621.06,66.34Z" style="fill:#423651"/><path d="M633.59,58.32a20.55,20.55,0,0,1,7.83.51,1.46,1.46,0,0,0,1.66-.67c.26-.46.49-.84.7-1.15a1.23,1.23,0,0,0-.82-1.87,22.85,22.85,0,0,0-10.17-.45,1.28,1.28,0,0,0-1.06,1.53c.1.37.19.74.26,1.08A1.4,1.4,0,0,0,633.59,58.32Z" style="fill:#423651"/><path d="M616.32,58.8a12.44,12.44,0,0,1,7.32-2.18,1.12,1.12,0,0,0,1.13-1.28,11.24,11.24,0,0,0-.3-1.41,1.09,1.09,0,0,0-1-.81,11.36,11.36,0,0,0-9,3.58,1.1,1.1,0,0,0,0,1.49c.16.18.32.35.47.49A1.11,1.11,0,0,0,616.32,58.8Z" style="fill:#423651"/><path d="M627.22,86.66a9,9,0,0,1-5.57-2,.85.85,0,0,1-.07-1.18.83.83,0,0,1,1.19-.07A7.36,7.36,0,0,0,627.65,85c2.14-.14,4.21-1.34,6.15-3.57a.84.84,0,0,1,1.27,1.1c-2.26,2.59-4.73,4-7.34,4.15Z" style="fill:#a55f56"/><path d="M625.32,79.34c-1.64,0-3.64-.88-4.22-2.42-.27-.69-.44-2.09,1.38-3.63,2.77-2.35,4.16-8.15,4.17-8.21a.84.84,0,0,1,1.64.39c-.07.26-1.54,6.39-4.73,9.1-.54.46-1.14,1.13-.9,1.76s1.58,1.3,2.73,1.34a6.28,6.28,0,0,0,2.75-.51.86.86,0,0,1,1.15.26.84.84,0,0,1-.24,1.15,7.27,7.27,0,0,1-3.62.77Z" style="fill:#a55f56"/><path d="M662.85,60.88S636.9,59.6,632.1,38c-15.88,16.62-22.7,14.85-22.7,14.85s-.87-29.45,37.38-24C674.51,33.52,662.85,60.88,662.85,60.88Z" style="fill:#423651"/><path d="M523.86,286.93s-26.95,5.15-26.72,7.95c.16,2.08,8.38,2,12.63,1.8a.69.69,0,0,1,.36,1.31c-2.45,1.65-6.82,4.56-12.19,7.94-2.24,1.41-2.6,4.29-.75,5.77,9.41,7.55,22.41,3,32.94-3.31,0,0,9.41-5.39,6.12-15-3-8.83-12.39-6.47-12.39-6.47Z" style="fill:#ff977b"/><path d="M497,311.54a.84.84,0,0,1-.28-1.63c4.2-1.49,12.89-6.58,13-6.64a.84.84,0,0,1,.84,1.45c-.36.21-8.91,5.22-13.26,6.77A1,1,0,0,1,497,311.54Z" style="fill:#c46f6a"/><path d="M500.48,314a.84.84,0,0,1-.26-1.64c4.17-1.33,12.15-5.78,12.23-5.82a.83.83,0,0,1,1.14.32.84.84,0,0,1-.32,1.14c-.34.19-8.21,4.58-12.54,5.95A.74.74,0,0,1,500.48,314Z" style="fill:#c46f6a"/><path d="M505.23,315.52a.84.84,0,0,1-.83-.76.83.83,0,0,1,.75-.91c1.72-.17,6.88-2.28,8.73-3.08a.84.84,0,1,1,.66,1.54c-.7.3-6.94,3-9.23,3.21Z" style="fill:#c46f6a"/><path d="M707.27,634.64l24.25-.76v15.93l-24.25.21C707.45,642.88,707.27,634.64,707.27,634.64Z" style="fill:#ff977b"/><path d="M692.28,672.4c4.83-2.72,12.71-5.39,14.32-12a7.88,7.88,0,0,0,.2-1,58.57,58.57,0,0,0,.47-9.39l24.25-.21v31h-9.86c-.1-1-.41-2.45-1.55-2.45s-1.31,1.42-1.36,2.45l-30.27-.3A7.48,7.48,0,0,1,692.28,672.4Z" style="fill:#29293a"/><path d="M707.27,654.34a.73.73,0,1,1,0-1.46l24.24-.13h0a.74.74,0,0,1,0,1.47l-24.25.12Z" style="fill:#5d5d75"/><path d="M627,634.64l24.36-.76-2.52,15.93-24.28.21C625.9,642.88,627,634.64,627,634.64Z" style="fill:#ff977b"/><path d="M606.06,672.4c5.26-2.72,13.56-5.39,16.22-12a8.29,8.29,0,0,0,.35-1,62.21,62.21,0,0,0,2-9.39l24.28-.21-1.67,10.52L644,680.77h-9.86c.06-1,0-2.45-1.16-2.45s-1.54,1.42-1.74,2.45l-30.23-.3A8.73,8.73,0,0,1,606.06,672.4Z" style="fill:#29293a"/><path d="M624,654.34a.73.73,0,1,1,0-1.46l24.27-.13h0a.74.74,0,0,1,0,1.47l-24.26.12Z" style="fill:#5d5d75"/><path d="M664.88,397.21h84.63s21.66-110.48-49.6-157.3c8.38-54.69,1.25-123.36-38.93-123.6C640.7,115,611.42,218,611.42,218l-83.9,65.76S538,316.22,548,319.36c26.72-17.29,87-68.26,98-79.45C653.27,293.69,664.88,397.21,664.88,397.21Z" style="fill:#86bbd8"/><path d="M646,240.75a.9.9,0,0,1-.39-.1.83.83,0,0,1-.35-1.13c.26-.49,25.79-48.78,39.24-85.5a.83.83,0,0,1,1.08-.5.85.85,0,0,1,.5,1.08c-13.49,36.83-39.08,85.22-39.34,85.7A.83.83,0,0,1,646,240.75Z" style="fill:#488daf"/><path d="M678.42,482.63a.83.83,0,0,1-.82-.7l-13.54-84.59a.83.83,0,0,1,.69-1,.85.85,0,0,1,1,.7l13.54,84.58a.83.83,0,0,1-.69,1Z" style="fill:#4660aa"/><polygon points="604.55 168.19 622.21 171.6 618.79 190.73 604.55 186.01 604.55 168.19" style="fill:#fff"/><path d="M699.36,342.47h-7a18.84,18.84,0,0,1-18.86-17.21l-2.65-28.95a.82.82,0,0,1,.21-.63.83.83,0,0,1,.6-.28l43.44-1.5a.78.78,0,0,1,.87.77L718.22,322a18.94,18.94,0,0,1-18.86,20.52ZM672.57,297l2.57,28.07a17.16,17.16,0,0,0,17.19,15.68h7a17.26,17.26,0,0,0,17.2-18.7l-2.23-26.49Z" style="fill:#488daf"/><path d="M696.77,261.17h-.13a.84.84,0,0,1-.7-1l3.14-20.42a.85.85,0,0,1,1-.7.84.84,0,0,1,.7.95l-3.15,20.42A.84.84,0,0,1,696.77,261.17Z" style="fill:#488daf"/><path d="M205.24,404.77c94.93,0,171.87-15,171.87-33.47a7.07,7.07,0,0,0-.52-2.49l-.08-.09A58.37,58.37,0,0,0,353,354.2c-30-9.81-84.89-16.38-147.74-16.38-70.16,0-130.48,8.19-157.17,19.93A33.85,33.85,0,0,0,33.58,370l0,.06a1.8,1.8,0,0,0-.08.21C30.49,389.22,108.54,404.77,205.24,404.77Z" style="fill:#ad8c8c"/><path d="M111.72,392.4a.83.83,0,0,1-.74-1.24c15.63-28.35,10.3-84.44-12.13-127.69-23.08-44.52,8.51-99.43,8.84-100a.83.83,0,0,1,1.14-.3.84.84,0,0,1,.3,1.15c-.31.54-31.45,54.66-8.79,98.36s28,100.48,12.11,129.27A.84.84,0,0,1,111.72,392.4Z" style="fill:#566b32"/><path d="M180,409.3a.85.85,0,0,1-.74-.44c-.15-.29-15.42-29.45,2.2-64.38a.83.83,0,0,1,1.13-.37.84.84,0,0,1,.37,1.13c-17.22,34.11-2.37,62.54-2.22,62.82a.84.84,0,0,1-.34,1.14A.82.82,0,0,1,180,409.3Z" style="fill:#566b32"/><path d="M235.13,410.67a.75.75,0,0,1-.38-.1.83.83,0,0,1-.37-1.12c35.22-68.62.33-150.72,0-151.54a.83.83,0,0,1,.43-1.1.85.85,0,0,1,1.11.43c.36.83,35.56,83.64,0,153A.83.83,0,0,1,235.13,410.67Z" style="fill:#566b32"/><path d="M342.48,414.89a.84.84,0,0,1-.52-.18c-26.33-21-8-62.18-4-70.22,8.61-17.54,7.42-39.3,7.41-39.51a.84.84,0,1,1,1.67-.11c0,.23,1.24,22.41-7.57,40.36-3.85,7.84-21.78,48,3.54,68.17a.83.83,0,0,1,.14,1.18A.86.86,0,0,1,342.48,414.89Z" style="fill:#566b32"/><path d="M299.59,417.77a.78.78,0,0,1-.39-.1.83.83,0,0,1-.35-1.13c16.55-31.39,0-98.12-13.84-145.58-13.16-45,17.92-106.81,18.24-107.43a.84.84,0,0,1,1.13-.36.83.83,0,0,1,.36,1.12c-.31.62-31.1,61.79-18.12,106.2,13.95,47.74,30.55,114.91,13.71,146.83A.83.83,0,0,1,299.59,417.77Z" style="fill:#566b32"/><path d="M64.58,239.67s-27-20.89,0-66.78C87.47,215.43,64.58,239.67,64.58,239.67Z" style="fill:#758e4f"/><path d="M25.77,225.62s29-1.86,37.89,35C33.76,266.94,25.77,225.62,25.77,225.62Z" style="fill:#758e4f"/><path d="M72.87,257.58s-7.16-25.35,25.07-44.91C100.42,250.69,72.87,257.58,72.87,257.58Z" style="fill:#758e4f"/><path d="M139.57,227.15s-3-34,49-45.33C172.91,227.51,139.57,227.15,139.57,227.15Z" style="fill:#758e4f"/><path d="M123.54,189.12s21,20,0,51.59C98.62,223,123.54,189.12,123.54,189.12Z" style="fill:#758e4f"/><path d="M132.05,245.4s13.75-22.46,50-12.08C155.81,261,132.05,245.4,132.05,245.4Z" style="fill:#758e4f"/><path d="M144.26,361.31s-34.15.58-41.73-52.13C147,328.08,144.26,361.31,144.26,361.31Z" style="fill:#758e4f"/><path d="M105.18,374.6s21.44-19.55,51.47,3.66C137.24,401.87,105.18,374.6,105.18,374.6Z" style="fill:#758e4f"/><path d="M161.93,370.11s-21.43-15.31-8.49-50.72C179.13,347.52,161.93,370.11,161.93,370.11Z" style="fill:#758e4f"/><path d="M254.49,262s22.5,12.79,11.1,44.67C240.21,296.76,254.49,262,254.49,262Z" style="fill:#758e4f"/><path d="M325.36,213.79s4.7-30.11,52.19-28.72C354.15,221.26,325.36,213.79,325.36,213.79Z" style="fill:#758e4f"/><path d="M319.65,177.41s13.91,21.83-11.08,44.68C290.79,201.43,319.65,177.41,319.65,177.41Z" style="fill:#758e4f"/><path d="M314.93,228s16.73-16.5,45.88.28C332.16,246.54,314.93,228,314.93,228Z" style="fill:#758e4f"/><path d="M248.74,170.29s-3.48-24.46,33.85-36.68C273,168,248.74,170.29,248.74,170.29Z" style="fill:#758e4f"/><path d="M235.66,143.92s16,12.89,2,37.44C218.87,170.45,235.66,143.92,235.66,143.92Z" style="fill:#758e4f"/><path d="M244,184.1s9.12-17.35,35.81-12.61C261.81,193.56,244,184.1,244,184.1Z" style="fill:#758e4f"/><path d="M310.05,370.37s-24.69.82-32.8-37.62C310.37,346.06,310.05,370.37,310.05,370.37Z" style="fill:#758e4f"/><path d="M282.42,380.53S297,366,319.86,382.61C307,400.09,282.42,380.53,282.42,380.53Z" style="fill:#758e4f"/><path d="M323.27,376.6s-16.27-11-8.66-37C334.6,359.89,323.27,376.6,323.27,376.6Z" style="fill:#758e4f"/><path d="M372.12,339.73s-3.48-24.46,33.85-36.68C396.32,337.42,372.12,339.73,372.12,339.73Z" style="fill:#758e4f"/><path d="M359,313.36s16,12.89,2,37.44C342.24,339.89,359,313.36,359,313.36Z" style="fill:#758e4f"/><path d="M367.36,353.55s9.12-17.36,35.81-12.62C385.19,363,367.36,353.55,367.36,353.55Z" style="fill:#758e4f"/><path d="M216.58,286.81s2.2-24.26-40-22.52C192.76,298.88,216.58,286.81,216.58,286.81Z" style="fill:#758e4f"/><path d="M74.76,351.56s-14.28-21-43.3-6.81C54.6,372.91,74.76,351.56,74.76,351.56Z" style="fill:#758e4f"/><path d="M206.66,159.14s-3.17-23.86-32.87-25.53C171.4,164.28,206.66,159.14,206.66,159.14Z" style="fill:#758e4f"/><path d="M97.21,122s-16.16,37.1,10.28,48.49,40.77-22,40.77-22,5.51-11.2-1.1-15.43-15.06,3.86-15.06,3.86,3.67-11.76-4.41-14.88c-6.06-2.57-14,6.06-14,6.06s2.93-11.38-3.49-14.32S98.16,119.6,97.21,122Z" style="fill:#f88dad"/><path d="M166.42,302.64s-11.23,38.88,16.46,46.75,37.58-27.13,37.58-27.13,4-11.82-3.09-15.15-14.43,5.77-14.43,5.77,2.12-12.13-6.29-14.18c-6.34-1.77-13.06,7.81-13.06,7.81s1.44-11.67-5.31-13.75S167,300.09,166.42,302.64Z" style="fill:#f88dad"/><path d="M322.82,263.2s-7.42,39.78,20.9,44.94,34.78-30.63,34.78-30.63,2.86-12.15-4.53-14.79-13.81,7.14-13.81,7.14.94-12.28-7.64-13.5c-6.48-1.15-12.24,9-12.24,9s.31-11.76-6.61-13.18S323.19,260.61,322.82,263.2Z" style="fill:#f88dad"/><path d="M292.1,122.15s-14.18,37.9,12.84,47.87,39.54-24.16,39.54-24.16,4.91-11.48-1.91-15.35-14.84,4.65-14.84,4.65,3-11.94-5.19-14.63c-6.18-2.24-13.61,6.79-13.61,6.79s2.33-11.52-4.25-14.12S292.92,119.66,292.1,122.15Z" style="fill:#f88dad"/><path d="M194.08,103.81s8.28,39.61,36.44,33.59S251,95.84,251,95.84s-2-12.32-9.83-11.94-10.05,11.86-10.05,11.86-3.8-11.72-12.2-9.59c-6.43,1.41-7.88,13-7.88,13s-4.19-11-11.13-9.66S193.44,101.27,194.08,103.81Z" style="fill:#f88dad"/><path d="M36.43,302.58s18.33,36.07,43.94,22.92S89.32,280,89.32,280s-5.13-11.38-12.6-9-6.61,14.07-6.61,14.07-6.73-10.31-14.28-6.07c-5.84,3-4.2,14.63-4.2,14.63s-6.92-9.52-13.27-6.43S35.15,300.29,36.43,302.58Z" style="fill:#f88dad"/><path d="M221,244.09a.83.83,0,0,1-.74-.45c-.74-1.39-17.95-34.29-4-51.06,13.37-16,5.81-58.39,5.73-58.82a.84.84,0,0,1,1.65-.3c.32,1.77,7.78,43.55-6.09,60.19-13.25,15.9,4,48.88,4.17,49.21a.83.83,0,0,1-.35,1.13A.78.78,0,0,1,221,244.09Z" style="fill:#566b32"/><path d="M248.74,170.29s-3.48-24.46,33.85-36.68C273,168,248.74,170.29,248.74,170.29Z" style="fill:#758e4f"/><path d="M235.66,143.92s16,12.89,2,37.44C218.87,170.45,235.66,143.92,235.66,143.92Z" style="fill:#758e4f"/><path d="M244,184.1s9.12-17.35,35.81-12.61C261.81,193.56,244,184.1,244,184.1Z" style="fill:#758e4f"/><path d="M227.23,236a.84.84,0,0,1-.83-.74c-4.41-40.06,24.72-66,25-66.27a.84.84,0,0,1,1.1,1.27c-.29.25-28.76,25.65-24.46,64.81a.84.84,0,0,1-.74.93Z" style="fill:#566b32"/><path d="M217,194a.82.82,0,0,1-.75-1.21c8.41-17-9.89-32.8-10.08-33a.84.84,0,1,1,1.08-1.28c.2.17,19.5,16.79,10.5,35A.84.84,0,0,1,217,194Z" style="fill:#566b32"/><path d="M113.65,299.7a.84.84,0,0,1-.81-.61c-9.65-33,25.72-73.63,26.08-74a.84.84,0,1,1,1.25,1.11c-.35.4-35.12,40.38-25.72,72.46a.83.83,0,0,1-.57,1A1,1,0,0,1,113.65,299.7Z" style="fill:#566b32"/><path d="M106,417.77a.84.84,0,0,1-.66-1.35c.38-.5,38-51.1-3.31-83.68-42.28-33.37-38.31-95.86-38.27-96.49a.82.82,0,0,1,.9-.78.85.85,0,0,1,.78.9c0,.62-4,62.24,37.63,95.05,42.58,33.61,4,85.5,3.6,86A.83.83,0,0,1,106,417.77Z" style="fill:#566b32"/><path d="M106,394.31a.52.52,0,0,1-.17,0,.83.83,0,0,1-.65-1c2.91-13.49,1.35-23.9-4.65-30.94-9.1-10.7-25.54-10-25.71-10a.8.8,0,0,1-.88-.79.83.83,0,0,1,.79-.88c.7,0,17.43-.79,27.07,10.53,6.36,7.46,8,18.36,5,32.39A.83.83,0,0,1,106,394.31Z" style="fill:#566b32"/><path d="M91.19,394.31a.68.68,0,0,1-.2,0,.84.84,0,0,1-.62-1c6.32-26.57-13-65.89-13.2-66.29a.85.85,0,0,1,.38-1.12.83.83,0,0,1,1.12.38c.82,1.63,19.8,40.25,13.33,67.42A.83.83,0,0,1,91.19,394.31Z" style="fill:#566b32"/><path d="M250.69,351.64l-.17,0a.83.83,0,0,1-.65-1c8.69-42.71-33.22-62.86-33.65-63.06a.83.83,0,0,1-.4-1.11.85.85,0,0,1,1.12-.41c.43.21,43.52,20.93,34.57,64.92A.83.83,0,0,1,250.69,351.64Z" style="fill:#566b32"/><path d="M248.33,371.21h0a.84.84,0,0,1-.81-.86c.95-33.22,28.06-78.8,28.34-79.26a.84.84,0,0,1,1.15-.28.83.83,0,0,1,.28,1.15c-.27.45-27.16,45.65-28.1,78.44A.83.83,0,0,1,248.33,371.21Z" style="fill:#566b32"/><path d="M174.54,390.71h0a.84.84,0,0,1-.8-.88c0-.26,1.61-26.3,27.11-25.47a.84.84,0,0,1,0,1.67h-1.06c-22.86,0-24.3,22.9-24.35,23.89A.85.85,0,0,1,174.54,390.71Z" style="fill:#566b32"/><path d="M331.91,400.73h0a.84.84,0,0,1-.83-.86c.35-22-24.39-29-24.64-29.06a.84.84,0,0,1,.44-1.62c.26.07,26.25,7.35,25.88,30.71A.84.84,0,0,1,331.91,400.73Z" style="fill:#566b32"/><path d="M328.9,400.73l-.15,0a.84.84,0,0,1-.68-1C331,383.69,369.84,341,371.5,339.16a.84.84,0,0,1,1.18-.05.83.83,0,0,1,.05,1.18c-.4.44-40.22,44.17-43,59.74A.84.84,0,0,1,328.9,400.73Z" style="fill:#566b32"/><path d="M294.3,298.08a.83.83,0,0,1-.78-.55c-17.42-47.82,30.85-84.06,31.34-84.42a.86.86,0,0,1,1.18.18.84.84,0,0,1-.18,1.17c-.48.36-47.75,35.87-30.77,82.5a.83.83,0,0,1-.5,1.07A.71.71,0,0,1,294.3,298.08Z" style="fill:#566b32"/><path d="M176.54,403.5a.85.85,0,0,1-.81-.62c-6.81-25.11-33.91-43.89-34.18-44.08a.82.82,0,0,1-.22-1.16.84.84,0,0,1,1.16-.22c.28.19,27.88,19.31,34.86,45a.85.85,0,0,1-.59,1A.83.83,0,0,1,176.54,403.5Z" style="fill:#566b32"/><path d="M198.11,365.47s13,17.17,38-7.42C205.62,344.33,198.11,365.47,198.11,365.47Z" style="fill:#758e4f"/><path d="M202.8,227.73S208,267.86,236.55,264s23.64-39.86,23.64-39.86-1-12.45-8.88-12.67-10.93,11.05-10.93,11.05-2.89-12-11.43-10.49c-6.52.91-8.85,12.37-8.85,12.37s-3.34-11.27-10.36-10.49S202.36,225.15,202.8,227.73Z" style="fill:#f88dad"/><path d="M118.6,314.2a.84.84,0,0,1-.83-.81c0-.22-.59-22.19,22.61-29.81a.83.83,0,0,1,1.06.53.84.84,0,0,1-.54,1.06c-22,7.22-21.49,27.31-21.46,28.16a.84.84,0,0,1-.81.87Z" style="fill:#566b32"/><path d="M136.64,285.93s-3-14.39,30.92-7.05C151.66,294.21,136.64,285.93,136.64,285.93Z" style="fill:#758e4f"/><path d="M276.55,291.52s-9.92-28.81,32.7-49.79C305.49,284.66,276.55,291.52,276.55,291.52Z" style="fill:#758e4f"/><path d="M274,308.94s7.07-22.41,40.69-21.2C297.87,317.3,274,308.94,274,308.94Z" style="fill:#758e4f"/><path d="M57.77,388.49s153.28,36.77,304.43-3.55a323.92,323.92,0,0,1-11.71,46l-281.2,4.41Z" style="fill:#f4dfdf"/><path d="M281.79,776.65c10.49-5.84,44.68-.63,75.83,6.39H403.2c.42-.23.86-.42,1.26-.66,28.72-17.46-1.8-55.79,3.59-65.69s9-11.93,17.95-11.93,18.85-16,2.09-25.61c10.77-6.7,10.77-17.46-1.19-23s-15.56-23.87-3-27.65,38.6-11.76,46.08-24.94-3.29-26.87-30.22-59.46-29-38.13-24.23-47.73,17.05-43.66-.9-75.67c-6.27-11.18-17.83-31.25-38-51.91a7.17,7.17,0,0,1,.52,2.5c0,18.48-76.95,33.47-171.87,33.47s-171.86-15-171.86-33.47a6.79,6.79,0,0,1,.16-1.26C-5,427.8-6.66,505.11,10.14,535.86c34.31,62.84,75.65,83.19,79,114.86,3.52,33.48-4.71,95.79-9.55,141.13H275.69C275.88,784.77,277.42,779.08,281.79,776.65Z" style="fill:#f4dfdf"/><path d="M403.2,783H357.62C375.52,787.07,392.38,788.74,403.2,783Z" style="fill:#f4dfdf"/></g></g></svg>