<svg xmlns="http://www.w3.org/2000/svg" viewBox="0 0 610.24 710.75"><g id="Layer_2" data-name="Layer 2"><g id="_Layer_" data-name="&lt;Layer&gt;"><path d="M556.29,561.15s-19.38,82.27-186.53,70.21c-13.1-.52,8.38-51.87-6.29-60.25s-82.26,28.82-107.41,13.1,1.57-58.16-3.15-67.07-7.86-10.74-15.72-10.74-16.5-14.41-1.83-23.06c-9.43-6-9.43-15.72,1-20.69S250,441.16,239,437.76s-33.8-10.59-40.35-22.45,2.88-24.19,26.46-53.53,25.42-34.32,21.22-43-14.93-39.29.79-68.11S316.49,127.27,478.22,143c128.55,12.57,146.89,166.65,123.14,211.37-30.06,56.56-66.26,74.88-69.17,103.39C527.3,505.61,562.44,547.66,556.29,561.15Z" style="fill:#f4dfdf"/><path d="M273.42,323.62s-32-56.53,18.86-98.8S406,153.93,491.44,175c97.6,24.07,100,148.61,72.26,188.84-17.1,24.76-53.1,57.64-54.84,83.49s-36.68,84.88-127.15,84.88c-61.14.35-99.91-22.36-107.59-42.27s1.24-55.26-16.95-73.7C219.45,378,284.42,346.8,273.42,323.62Z" style="fill:#f88dad"/><path d="M318,270.06H267.65a2.1,2.1,0,0,1,0-4.19H316l3.33-62.73a2.13,2.13,0,0,1,2.2-2,2.1,2.1,0,0,1,2,2.2l-3.44,64.71A2.1,2.1,0,0,1,318,270.06Z" style="fill:#c45b7e"/><path d="M300.66,241.76H279.44a2.1,2.1,0,0,1,0-4.19h21.22a2.1,2.1,0,1,1,0,4.19Z" style="fill:#c45b7e"/><path d="M419.87,270.06H357.25a2.1,2.1,0,0,1-2.09-2.16l2.36-81.74a2.06,2.06,0,0,1,2.15-2,2.1,2.1,0,0,1,2,2.15l-2.3,79.59h58.44l2.2-57.92-35.86-.23-.69,28.54h14.36a2.1,2.1,0,1,1,0,4.19h-16.5a2.05,2.05,0,0,1-1.5-.63,2.08,2.08,0,0,1-.6-1.51l.79-32.75a2.09,2.09,0,0,1,2.09-2.05h0l40.08.27a2.06,2.06,0,0,1,1.5.64,2.11,2.11,0,0,1,.58,1.53L422,268A2.09,2.09,0,0,1,419.87,270.06Z" style="fill:#c45b7e"/><path d="M498.2,410.22a2.09,2.09,0,0,1-2.09-2.09V307.92H450.78a2.1,2.1,0,0,1-2.09-2.13l2.09-133.49a2.1,2.1,0,1,1,4.19.07l-2.06,131.35H498.2a2.1,2.1,0,0,1,2.1,2.1V408.13A2.1,2.1,0,0,1,498.2,410.22Z" style="fill:#c45b7e"/><path d="M553.74,364.9h-27a2.1,2.1,0,0,1-2.1-2.1v-57a2.1,2.1,0,0,1,2.1-2.1h50.82a2.1,2.1,0,0,1,0,4.2H528.85v52.79h22.78l-.24-29.33a2.09,2.09,0,0,1,2.07-2.11h0a2.09,2.09,0,0,1,2.1,2.07l.26,31.44a2.15,2.15,0,0,1-.61,1.5A2.12,2.12,0,0,1,553.74,364.9Z" style="fill:#c45b7e"/><path d="M535.14,270.06H491.39a2.1,2.1,0,0,1-2.1-2.1V177.58a2.1,2.1,0,0,1,4.2,0v88.29h39.56v-39h-20.7a2.1,2.1,0,1,1,0-4.19h22.79a2.09,2.09,0,0,1,2.1,2.09V268A2.1,2.1,0,0,1,535.14,270.06Z" style="fill:#c45b7e"/><path d="M461.26,492.22H425.37a2.09,2.09,0,0,1-2.1-2.09V449.78a2.09,2.09,0,0,1,2-2.09l80.43-2.36a2.23,2.23,0,0,1,2.16,2,2.11,2.11,0,0,1-2,2.16l-78.39,2.3V488h31.72l.22-20-12.89-.46a2.08,2.08,0,0,1-2-2.16,2.13,2.13,0,0,1,2.16-2l14.94.52a2.1,2.1,0,0,1,2,2.12l-.26,24.1A2.09,2.09,0,0,1,461.26,492.22Z" style="fill:#c45b7e"/><path d="M382.67,374.59a2.1,2.1,0,0,1-2.1-2.09V303.83H288.28L286,371a2.1,2.1,0,0,1-2.09,2H254.82a2.1,2.1,0,1,1,0-4.19h27.05l2.29-67.17a2.09,2.09,0,0,1,2.09-2h96.42a2.1,2.1,0,0,1,2.09,2.09V372.5A2.1,2.1,0,0,1,382.67,374.59Z" style="fill:#c45b7e"/><path d="M328.7,525a2.1,2.1,0,0,1-2.1-2.09V490.13a2.1,2.1,0,0,1,2.1-2.1h61.83v-79.9a2.09,2.09,0,0,1,2.09-2.1H466V336.41H413.32a2.1,2.1,0,1,1,0-4.19h54.75a2.09,2.09,0,0,1,2.1,2.09v73.82a2.1,2.1,0,0,1-2.1,2.09H394.72v79.91a2.09,2.09,0,0,1-2.1,2.09H330.79v30.66A2.09,2.09,0,0,1,328.7,525Z" style="fill:#c45b7e"/><path d="M434,374.59H369a2.1,2.1,0,0,1,0-4.19h62.88V352.06a2.1,2.1,0,1,1,4.19,0V372.5A2.1,2.1,0,0,1,434,374.59Z" style="fill:#c45b7e"/><path d="M364.06,470.87a2.1,2.1,0,0,1-2.09-2.09V410.17l-48.52-1.26a2.09,2.09,0,0,1-2-2.13l1.31-69.7a2.09,2.09,0,0,1,2.09-2.06h27.77a2.1,2.1,0,0,1,2.1,2.09v36.7a2.1,2.1,0,0,1-4.19,0v-34.6H316.87l-1.23,65.56L364.12,406a2.09,2.09,0,0,1,2,2.1v60.65A2.1,2.1,0,0,1,364.06,470.87Z" style="fill:#c45b7e"/><path d="M331.58,469.69H298.83a2.1,2.1,0,1,1,0-4.19h30.65V439.25L282.27,438a2.09,2.09,0,0,1-2-2.09V401.58H248.79a2.1,2.1,0,0,1,0-4.2h33.54a2.1,2.1,0,0,1,2.09,2.1v34.38l47.21,1.25a2.09,2.09,0,0,1,2,2.1V467.6A2.09,2.09,0,0,1,331.58,469.69Z" style="fill:#c45b7e"/><path d="M20.63,277.3S1.6,309.43.2,351s4.36,78.25,24.36,134.14c4.63,17.12-14.23,41.57-9,76.5s28,118.92,28,118.92l26.27-.16,11-287.26,29,94.45s5.59,31.78,0,57.63,28.47,96.87,29.61,134.54c16.85,1.7,26.27-.16,26.27-.16S160,387.24,120.45,278.26C89.27,254.94,20.63,277.3,20.63,277.3Z" style="fill:#86bbd8"/><path d="M166.27,688.5a6.29,6.29,0,0,1-.19-1c-.8-7.28-.32-7.92-.32-7.92l-26.27.16v9h0v4.92l3.18,0s16.13.34,17.65-.34,1.71-4.76,1.71-4.76h0Z" style="fill:#ff977b"/><path d="M182.69,701.13c-4.18-2.36-12.23-5.15-15.35-10.16a11.47,11.47,0,0,1-.82-5.9L166,685a3.45,3.45,0,0,0-4,3.55h0s-.18,4.09-1.71,4.76-17.65.34-17.65.34l-3.18,0V709.2h10.4c.1-1,.41-2.46,1.55-2.46s1.31,1.43,1.36,2.46h33.69A7.46,7.46,0,0,0,182.69,701.13Z" style="fill:#29293a"/><rect x="138.73" y="704.29" width="47.93" height="5.16" rx="0.84" style="fill:#29293a"/><path d="M185.81,705H139.57a.74.74,0,0,1,0-1.47h46.24a.74.74,0,0,1,0,1.47Z" style="fill:#5d5d75"/><path d="M184,709.83a.73.73,0,0,1-.73-.72l-.06-4.74a.76.76,0,0,1,.73-.74.73.73,0,0,1,.73.72l.07,4.73A.8.8,0,0,1,184,709.83Z" style="fill:#5d5d75"/><path d="M177.93,709.83a.73.73,0,0,1-.73-.72l-.06-4.74a.74.74,0,0,1,.73-.74.73.73,0,0,1,.73.72l.07,4.73A.82.82,0,0,1,177.93,709.83Z" style="fill:#5d5d75"/><path d="M171.82,709.83a.73.73,0,0,1-.73-.72l-.06-4.74a.72.72,0,0,1,.73-.74.73.73,0,0,1,.73.72l.06,4.73a.73.73,0,0,1-.72.75Z" style="fill:#5d5d75"/><path d="M165.71,709.83a.73.73,0,0,1-.73-.72l-.06-4.74a.7.7,0,0,1,.73-.74.73.73,0,0,1,.73.72l.07,4.73a.74.74,0,0,1-.73.75Z" style="fill:#5d5d75"/><path d="M159.6,709.83a.73.73,0,0,1-.73-.72l-.06-4.74a.72.72,0,0,1,.72-.74.81.81,0,0,1,.74.72l.07,4.73A.74.74,0,0,1,159.6,709.83Z" style="fill:#5d5d75"/><path d="M153.49,709.83a.73.73,0,0,1-.73-.72l-.07-4.74a.73.73,0,0,1,.73-.74.79.79,0,0,1,.74.72l.06,4.73A.74.74,0,0,1,153.49,709.83Z" style="fill:#5d5d75"/><path d="M147.38,709.83a.73.73,0,0,1-.73-.72l-.06-4.74a.77.77,0,0,1,.73-.74.73.73,0,0,1,.73.72l.06,4.73A.77.77,0,0,1,147.38,709.83Z" style="fill:#5d5d75"/><path d="M141.27,709.83a.73.73,0,0,1-.73-.72l-.06-4.74a.75.75,0,0,1,.73-.74.73.73,0,0,1,.73.72l.06,4.73A.79.79,0,0,1,141.27,709.83Z" style="fill:#5d5d75"/><path d="M181,710a.74.74,0,0,1-.74-.72l-.06-4.74c0-.41.36-.83.73-.74a.74.74,0,0,1,.74.72l.06,4.74A.71.71,0,0,1,181,710Z" style="fill:#5d5d75"/><path d="M174.85,710a.74.74,0,0,1-.74-.72l-.06-4.74c0-.41.33-.83.73-.74a.73.73,0,0,1,.73.72l.07,4.74A.72.72,0,0,1,174.85,710Z" style="fill:#5d5d75"/><path d="M168.74,710a.73.73,0,0,1-.74-.72l-.06-4.74c0-.41.3-.83.73-.74a.73.73,0,0,1,.73.72l.07,4.74a.73.73,0,0,1-.72.74Z" style="fill:#5d5d75"/><path d="M162.63,710a.73.73,0,0,1-.74-.72l-.06-4.74a.74.74,0,0,1,1.47,0l.06,4.74a.73.73,0,0,1-.72.74Z" style="fill:#5d5d75"/><path d="M156.52,710a.73.73,0,0,1-.74-.72l-.06-4.74a.72.72,0,0,1,.72-.74.69.69,0,0,1,.74.72l.07,4.74A.67.67,0,0,1,156.52,710Z" style="fill:#5d5d75"/><path d="M150.4,710a.73.73,0,0,1-.73-.72l-.06-4.74a.72.72,0,0,1,.72-.74.68.68,0,0,1,.74.72l.07,4.74A.69.69,0,0,1,150.4,710Z" style="fill:#5d5d75"/><path d="M144.3,710a.73.73,0,0,1-.74-.72l-.06-4.74a.72.72,0,0,1,.72-.74.66.66,0,0,1,.74.72l.07,4.74A.7.7,0,0,1,144.3,710Z" style="fill:#5d5d75"/><path d="M172,695.4a25.76,25.76,0,0,1-3.18-.22.74.74,0,0,1-.63-.82l-.58-1,.62-.41c.14-1.82.6-5.08,2.21-5.85a2.11,2.11,0,0,1,2.31.42,2.33,2.33,0,0,1,1.08,2.2,2.71,2.71,0,0,1-.44,1.18,4,4,0,0,1,1.26.08,2.54,2.54,0,0,1,1.67,1.33,1.73,1.73,0,0,1,0,1.9C175.58,695.15,173.72,695.4,172,695.4Zm-2.13-1.58c2.31.21,4.81.09,5.22-.48.06-.08,0-.29-.08-.38a1,1,0,0,0-.72-.57,5.62,5.62,0,0,0-3.19.67C170.66,693.34,170.24,693.6,169.85,693.82Zm1.35-5.45-.15,0c-.61.3-1.05,2-1.27,3.65l.53-.26c1.09-.75,2-1.58,2.05-2.25,0-.12,0-.44-.52-.87A1.16,1.16,0,0,0,171.2,688.37Z" style="fill:#5d5d75"/><path d="M70.39,689.3a7.88,7.88,0,0,1-.2-1c-.79-7.28-.31-7.91-.31-7.91l-26.27.16v9h0v4.92l3.18,0s16.12.34,17.65-.34,1.7-4.76,1.7-4.76h0Z" style="fill:#ff977b"/><path d="M86.81,701.92c-4.18-2.35-12.23-5.15-15.36-10.15a11.5,11.5,0,0,1-.81-5.9l-.49-.08a3.46,3.46,0,0,0-4,3.55h0s-.17,4.08-1.7,4.76-17.65.34-17.65.34l-3.18,0V710H54c.09-1,.41-2.45,1.54-2.45S56.87,709,56.91,710h33.7A7.48,7.48,0,0,0,86.81,701.92Z" style="fill:#29293a"/><rect x="42.84" y="705.09" width="47.93" height="5.16" rx="0.84" style="fill:#29293a"/><path d="M89.93,705.83H43.69a.74.74,0,1,1,0-1.47H89.93a.74.74,0,0,1,0,1.47Z" style="fill:#5d5d75"/><path d="M88.16,710.63a.73.73,0,0,1-.73-.73l-.07-4.73a.74.74,0,0,1,.73-.75c.46.07.74.32.74.73l.06,4.73A.71.71,0,0,1,88.16,710.63Z" style="fill:#5d5d75"/><path d="M82.05,710.63a.73.73,0,0,1-.73-.73l-.07-4.73a.74.74,0,0,1,.73-.75h0a.73.73,0,0,1,.73.73l.06,4.73A.73.73,0,0,1,82.05,710.63Z" style="fill:#5d5d75"/><path d="M75.94,710.63a.73.73,0,0,1-.73-.73l-.07-4.73a.82.82,0,0,1,.74-.75.74.74,0,0,1,.73.73l.06,4.73A.75.75,0,0,1,75.94,710.63Z" style="fill:#5d5d75"/><path d="M69.83,710.63a.73.73,0,0,1-.73-.73L69,705.17a.8.8,0,0,1,.74-.75.74.74,0,0,1,.73.73l.06,4.73A.77.77,0,0,1,69.83,710.63Z" style="fill:#5d5d75"/><path d="M63.72,710.63a.73.73,0,0,1-.73-.73l-.07-4.73a.77.77,0,0,1,.74-.75.74.74,0,0,1,.73.73l.06,4.73A.8.8,0,0,1,63.72,710.63Z" style="fill:#5d5d75"/><path d="M57.61,710.63a.73.73,0,0,1-.73-.73l-.07-4.73a.74.74,0,1,1,1.47,0l.06,4.73a.74.74,0,0,1-.72.75Z" style="fill:#5d5d75"/><path d="M51.5,710.63a.73.73,0,0,1-.73-.73l-.07-4.73a.74.74,0,0,1,.72-.75c.45.07.75.32.75.73l.06,4.73A.7.7,0,0,1,51.5,710.63Z" style="fill:#5d5d75"/><path d="M45.39,710.63a.73.73,0,0,1-.73-.73l-.07-4.73a.74.74,0,0,1,.73-.75h0a.74.74,0,0,1,.73.73l.06,4.73A.72.72,0,0,1,45.39,710.63Z" style="fill:#5d5d75"/><path d="M85.07,710.75a.73.73,0,0,1-.73-.73l-.06-4.73a.73.73,0,0,1,.72-.75h0a.73.73,0,0,1,.73.73l.07,4.73a.74.74,0,0,1-.73.75Z" style="fill:#5d5d75"/><path d="M79,710.75a.73.73,0,0,1-.73-.73l-.06-4.73a.73.73,0,0,1,.72-.75h0a.73.73,0,0,1,.73.73L79.7,710a.74.74,0,0,1-.73.75Z" style="fill:#5d5d75"/><path d="M72.85,710.75a.73.73,0,0,1-.73-.73l-.06-4.73c0-.41.38-.81.73-.75a.73.73,0,0,1,.73.73l.06,4.73a.73.73,0,0,1-.72.75Z" style="fill:#5d5d75"/><path d="M66.74,710.75A.73.73,0,0,1,66,710L66,705.29a.71.71,0,0,1,.73-.75.73.73,0,0,1,.73.73l.07,4.73a.74.74,0,0,1-.73.75Z" style="fill:#5d5d75"/><path d="M60.63,710.75a.73.73,0,0,1-.73-.73l-.06-4.73a.7.7,0,0,1,.73-.75.73.73,0,0,1,.73.73l.07,4.73a.74.74,0,0,1-.73.75Z" style="fill:#5d5d75"/><path d="M54.52,710.75a.73.73,0,0,1-.73-.73l-.06-4.73a.68.68,0,0,1,.73-.75.73.73,0,0,1,.73.73l.06,4.73a.73.73,0,0,1-.72.75Z" style="fill:#5d5d75"/><path d="M48.41,710.75a.73.73,0,0,1-.73-.73l-.06-4.73a.67.67,0,0,1,.73-.75.73.73,0,0,1,.73.73l.06,4.73a.73.73,0,0,1-.72.75Z" style="fill:#5d5d75"/><path d="M76.09,696.2a26.08,26.08,0,0,1-3.18-.22.75.75,0,0,1-.63-.82l-.57-1c.08,0,.3-.21.62-.4.14-1.83.6-5.08,2.2-5.85a2.12,2.12,0,0,1,2.32.42,2.35,2.35,0,0,1,1.08,2.2,3,3,0,0,1-.44,1.18,3.76,3.76,0,0,1,1.26.08,2.5,2.5,0,0,1,1.66,1.33,1.73,1.73,0,0,1,0,1.9C79.7,696,77.83,696.2,76.09,696.2ZM74,694.62c2.31.21,4.81.09,5.21-.48.06-.08,0-.28-.08-.39a1.05,1.05,0,0,0-.71-.57,5.68,5.68,0,0,0-3.19.68C74.78,694.14,74.36,694.4,74,694.62Zm1.35-5.45a.33.33,0,0,0-.15,0c-.61.3-1,2-1.27,3.65l.53-.26c1.08-.75,2-1.59,2-2.26,0-.12,0-.44-.51-.86A1.19,1.19,0,0,0,75.32,689.17Z" style="fill:#5d5d75"/><path d="M250.88,83.83l-29-46.29a3.24,3.24,0,0,1,1.05-4.49h0a3.25,3.25,0,0,1,4.45,1l29.67,46.55,1.41,9.59Z" style="fill:#29293a"/><path d="M244.56,86.13l-19.54-5s9-24.33,13.74-27.45a10.06,10.06,0,0,1,11.59.63A9.32,9.32,0,0,1,254,61.11a8,8,0,0,1-3.16,6.62c-2.19,1.8-4,3.54-4.47,6.5Z" style="fill:#dc7265"/><polygon points="248.79 80.36 231.06 52.17 236.6 48.64 253.81 75.55 248.79 80.36" style="fill:#29293a"/><path d="M235.43,62.81s8.09-7.72,11.72-6.2c1.26.46-4.62,7.52-4.62,7.52l-4.13,5.36Z" style="fill:#dc7265"/><path d="M238.36,81a.91.91,0,0,1-.32-.06.84.84,0,0,1-.46-1.09,10.08,10.08,0,0,0,.74-6.68,7.4,7.4,0,0,1,0-3.85c.44-1.39,2.22-3.51,4.27-6,1.67-2,4.43-5.29,4.43-6.27h-.32c-3.51,0-9.48,4.72-11.49,6.54a.84.84,0,1,1-1.13-1.24c.31-.29,7.74-7,12.62-7h.06a1.78,1.78,0,0,1,1.79.94c.71,1.55-1.21,4-4.67,8.09-1.7,2-3.62,4.33-4,5.4a5.74,5.74,0,0,0,0,3,11.73,11.73,0,0,1-.84,7.61A.82.82,0,0,1,238.36,81Z" style="fill:#9e5452"/><path d="M249.2,57.71s-3.92,4.71-4,7.27,1,5.57,3.53,6.51,5.25-1.11,6.46-2.55-.1-9.22-2.19-11.36A11.12,11.12,0,0,0,249.2,57.71Z" style="fill:#dc7265"/><path d="M247.58,69.89a6.2,6.2,0,0,1-1.14-.08.83.83,0,0,1-.68-1,.82.82,0,0,1,1-.69,7,7,0,0,0,7.39-4,.83.83,0,0,1,1.12-.39.84.84,0,0,1,.39,1.12A8.62,8.62,0,0,1,247.58,69.89Z" style="fill:#9e5452"/><path d="M246.09,66.39h-.39a.84.84,0,0,1,.09-1.67s3.91.18,5.83-1.86a4.44,4.44,0,0,0,1-3.77.84.84,0,0,1,.74-.93.8.8,0,0,1,.93.75,6.1,6.1,0,0,1-1.5,5.11C250.76,66.2,247.25,66.39,246.09,66.39Z" style="fill:#9e5452"/><path d="M245.76,63.31h-.17a.84.84,0,0,1-.8-.87.87.87,0,0,1,.88-.8A4.64,4.64,0,0,0,249,60.42a3.53,3.53,0,0,0,.47-3.14.84.84,0,0,1,1.64-.35,5.15,5.15,0,0,1-.83,4.59A6.17,6.17,0,0,1,245.76,63.31Z" style="fill:#9e5452"/><path d="M11.73,271.18S25.09,244.3,24.83,231,9.89,149.88,9.89,149.88s-7.6-26.46,4.72-35.36S58.76,95.24,58.76,95.24l37.36,1.21,100,61.56,25.25-80.17s20.49,4.26,25.92,8.29c-1.91,24.46-21.63,105.41-21.63,105.41s-6,25.94-43.42,6-53.18-28-53.18-28l-5.24,32,66,7.07L186.38,245l-64.62-4.2s.12,20.44,5.69,38.78a179.43,179.43,0,0,1-23.24,6.29s-16,1-21-12.58C74.6,287.17,64.33,289,58.72,288.21S27.44,284.81,11.73,271.18Z" style="fill:#f4dfdf"/><path d="M85.48,120.86a.85.85,0,0,1-.57-.22c-2.41-2.2-5.44-7.59-6.75-10a42,42,0,0,1-8.84,9,.86.86,0,0,1-.95,0c-2.83-1.89-9.19-19-10.43-22.42a.84.84,0,0,1,1.57-.57c2.63,7.19,7.3,18.74,9.39,21.21a44.48,44.48,0,0,0,8.67-9.34.91.91,0,0,1,.75-.37.85.85,0,0,1,.7.45c0,.08,3.6,7.07,6.41,10.15,4.88-6.06,9.85-20.62,9.9-20.78a.83.83,0,0,1,1.06-.52.84.84,0,0,1,.53,1.06c-.23.66-5.53,16.22-10.82,22a.87.87,0,0,1-.59.28Z" style="fill:#fff"/><rect x="93.6" y="147.79" width="28.56" height="18.86" transform="translate(9.66 -6.21) rotate(3.45)" style="fill:#fff"/><path d="M129,171.16l-.17,0a.84.84,0,0,1-.66-1c.05-.22,4.55-22.72,3.66-28.79a.84.84,0,0,1,.71-1,.83.83,0,0,1,1,.71c.93,6.36-3.48,28.43-3.67,29.37A.84.84,0,0,1,129,171.16Z" style="fill:#fff"/><path d="M120.45,214.39a.86.86,0,0,1-.56-.22c-8.32-7.54-66.12-72.75-68.58-75.52a.84.84,0,0,1,1.26-1.11c.6.68,60.19,67.91,68.44,75.38a.84.84,0,0,1-.56,1.47Z" style="fill:#fff"/><path d="M123.86,202.33a.65.65,0,0,1-.2,0l-19.26-4.7a.84.84,0,1,1,.39-1.63l19.26,4.7a.84.84,0,0,1,.62,1A.82.82,0,0,1,123.86,202.33Z" style="fill:#fff"/><path d="M121.76,241.63h-.09l-13.12-1.42A67.75,67.75,0,0,1,76,227.61c-17.44-12.69-40.65-33.06-52.22-58a.84.84,0,0,1,1.52-.7c11.42,24.6,34.41,44.76,51.68,57.34a66.09,66.09,0,0,0,31.73,12.28L121.85,240a.84.84,0,0,1-.09,1.67Z" style="fill:#fff"/><path d="M210.05,167a.79.79,0,0,1-.42-.12l-13.89-8.12a.84.84,0,1,1,.85-1.45l13.88,8.12a.84.84,0,0,1,.3,1.15A.82.82,0,0,1,210.05,167Z" style="fill:#fff"/><path d="M83.25,274.12a.84.84,0,0,1-.84-.78l-2.94-43.78a.84.84,0,0,1,.78-.89.89.89,0,0,1,.9.78l2.94,43.77a.84.84,0,0,1-.79.9Z" style="fill:#fff"/><path d="M80.89,170.11a.83.83,0,0,1-.83-.8l-2.63-60.26a.84.84,0,0,1,.8-.87.88.88,0,0,1,.88.8l2.62,60.25a.84.84,0,0,1-.8.88Z" style="fill:#fff"/><path d="M80.89,397.53a.85.85,0,0,1-.84-.84v-82a.84.84,0,0,1,1.68,0v82A.84.84,0,0,1,80.89,397.53Z" style="fill:#488daf"/><path d="M124.9,532.7a.86.86,0,0,1-.79-.56l-14.49-40.78a.84.84,0,1,1,1.59-.57l14.48,40.79a.83.83,0,0,1-.51,1.07A.87.87,0,0,1,124.9,532.7Z" style="fill:#488daf"/><path d="M33.73,521.43a.84.84,0,0,1-.81-.62l-9.17-35.46a.84.84,0,0,1,.6-1,.85.85,0,0,1,1,.6l9.17,35.45a.86.86,0,0,1-.61,1Z" style="fill:#488daf"/><polygon points="186.38 145.96 203.11 285.33 266.73 285.33 328.2 251.39 311.79 124.3 250.73 152.59 186.38 145.96" style="fill:#fac748"/><path d="M266.72,286.17a.84.84,0,0,1-.83-.74l-16-132.74a.84.84,0,1,1,1.66-.2l16,132.74a.83.83,0,0,1-.73.93Z" style="fill:#fff"/><path d="M58.4,95.89a30.72,30.72,0,0,1,.14-3.9l1.57-39.73s18.1-2.11,32.41,7.64c1,24.4,1.58,37.07,3.25,37.2,0,0-4.16,8.65-17.28,12C64.55,104.94,58.4,95.89,58.4,95.89Z" style="fill:#e57765"/><path d="M55.44,26.85s1.63,55.5,31.23,55.5c20,0,22.44-10,20-52.45-1.58-18.42-19.88-18.79-27.08-19.4S55.8,13.75,55.44,26.85Z" style="fill:#ff977b"/><path d="M46.68,48.51a8.73,8.73,0,0,0,8.57,8.7c4.35,0,5.56-3.67,5.56-8.7s-3.54-9.11-7.89-9.11S46.68,43.48,46.68,48.51Z" style="fill:#ff977b"/><path d="M79.57,45.57C79.72,48.08,81,50,82.42,50s2.46-2.2,2.31-4.71-1.43-4.48-2.86-4.39S79.42,43.05,79.57,45.57Z" style="fill:#423651"/><path d="M97.5,44.31c.15,2.52,1.29,4.49,2.54,4.41s2.15-2.17,2-4.68-1.29-4.49-2.54-4.41S97.34,41.8,97.5,44.31Z" style="fill:#423651"/><path d="M84.83,36.53a20.28,20.28,0,0,0-7.83.65,1.46,1.46,0,0,1-1.67-.64c-.27-.46-.51-.83-.72-1.14a1.23,1.23,0,0,1,.78-1.88,23,23,0,0,1,10.16-.64,1.28,1.28,0,0,1,1.09,1.51c-.09.37-.17.75-.24,1.09A1.41,1.41,0,0,1,84.83,36.53Z" style="fill:#423651"/><path d="M102.1,36.69a12.41,12.41,0,0,0-7.36-2,1.11,1.11,0,0,1-1.15-1.26A13.5,13.5,0,0,1,93.85,32a1.11,1.11,0,0,1,1-.82,11.33,11.33,0,0,1,9.11,3.41A1.11,1.11,0,0,1,104,36c-.16.19-.32.35-.46.5A1.12,1.12,0,0,1,102.1,36.69Z" style="fill:#423651"/><path d="M91.56,64.75H91.2c-2.61-.12-5.1-1.46-7.41-4A.84.84,0,0,1,85,59.6c2,2.21,4.09,3.37,6.24,3.46a7.61,7.61,0,0,0,4.82-1.68.84.84,0,0,1,1.19,0,.85.85,0,0,1-.05,1.19A8.91,8.91,0,0,1,91.56,64.75Z" style="fill:#a55f56"/><path d="M93.4,57.39h0a7.17,7.17,0,0,1-3.64-.71.85.85,0,0,1-.26-1.16.84.84,0,0,1,1.16-.25h0a6.43,6.43,0,0,0,2.75.44h0a3,3,0,0,0,2.68-1.38c.23-.63-.38-1.3-.93-1.75-3.24-2.65-4.83-8.75-4.89-9a.84.84,0,1,1,1.62-.41c0,.06,1.52,5.83,4.33,8.13,1.85,1.5,1.7,2.91,1.45,3.61C97.1,56.46,95.06,57.39,93.4,57.39Z" style="fill:#a55f56"/><path d="M59.22,40.86s-5.87-.36-4.76-6C48.17,27.71,45.75,15,57.7,11.81,67.56-3,75.42-2.68,83.45,6.22c10-6.63,21-.35,20.79,9.26,11.17,7.86,2.22,12.67,2.22,12.67l-4.41-7.72S92.71,24.74,87.64,16c-8.9,8.21-16.76,10-21.83,7C66,38,63.81,40.73,59.22,40.86Z" style="fill:#423651"/><path d="M191,212.48s27.42-.88,27.81,1.9c.3,2.06-7.74,3.77-11.93,4.52a.69.69,0,0,0-.06,1.36c2.74,1.07,7.66,3,13.63,5.07,2.5.89,3.48,3.62,2,5.47-7.53,9.43-21.2,7.85-32.86,4,0,0-10.37-3.2-9.26-13.29,1-9.27,10.67-9,10.67-9Z" style="fill:#ff977b"/><path d="M222.43,230.62h-.1c-4.59-.56-14-3.57-14.43-3.7a.84.84,0,0,1-.54-1.06.83.83,0,0,1,1-.54c.1,0,9.69,3.09,14.12,3.63a.84.84,0,0,1-.1,1.67Z" style="fill:#c46f6a"/><path d="M219.59,233.78h-.08c-4.52-.39-13.17-3-13.54-3.05a.84.84,0,0,1,.48-1.61c.09,0,8.85,2.62,13.21,3a.84.84,0,0,1-.07,1.68Z" style="fill:#c46f6a"/><path d="M214.56,236.35a66,66,0,0,1-8.89-1.15.84.84,0,0,1,.32-1.65c2,.38,7.48,1.31,9.18,1.09a.84.84,0,0,1,.21,1.67A6.61,6.61,0,0,1,214.56,236.35Z" style="fill:#c46f6a"/><path d="M189.88,208.57s5.05,18.6-3.5,36.42c-9.6-5.24-10.65-19.91-10.65-19.91l2.62-13.45Z" style="fill:#f4dfdf"/></g></g></svg>