<svg xmlns="http://www.w3.org/2000/svg" viewBox="0 0 848.79 708.42"><g id="Layer_2" data-name="Layer 2"><g id="_Layer_" data-name="&lt;Layer&gt;"><path d="M365.38,446.13c-1.75,1.09-3.09,2.83-4.24,6.12-2.13,6.13-5,12-10.58,15.49-3.06,1.93-6.59,2.75-10.06,3.42-4.43.86-8.74.92-13,2.53S319,475.78,315,477.4c-4.6,1.85-8.19,5-13.3,5.32a25.33,25.33,0,0,1-8.09-1.17c-9.16-2.49-17.94-8.71-27.52-9-5.74-.2-9.11,1.09-14.89-1.74-10-4.9-17.4-12.77-26.13-19.59-.88-.69-12.35-12.11-12.67-12,0,0-26.89,13-45,11.44s-32.53-14-42.75-9.69c-9.71,4.11-19.67,7.51-30,9.15-6.43,1-12.91.7-19.25,1.67s-12,.54-17.56-2.84c-5.75-3.53-7.7-10.35-13.64-13.41-3-1.53-6.07-1.93-8.69-4.37-2.77-2.58-4.36-6.37-5.1-10.25-1.19-6.34-.64-11.73-2.85-17.84-1.61-4.47-4.85-8.18-6.11-13-3.58-13.58,5.88-27.17,4.05-41A29.46,29.46,0,0,1,28,332.75c4.57-9.65,12.77-16.57,16.92-26.64,2.27-5.49,3.23-10.45,7.91-14.63,4.16-3.72,10.37-5.29,13.8-9.89,3.58-4.8,4.22-11.7,7.82-16.68a43,43,0,0,1,11-10.21c3.27-2.23,9-3.89,11.55-6.9,5.92-7,5.47-18.27,12.33-25.35,5.44-5.61,12.47-9.18,19.69-11.28a18.79,18.79,0,0,0,5.13-2,19.5,19.5,0,0,0,4.72-5.13c4.92-6.7,11.11-13.26,18.9-14.52,5.25-.85,10.46.86,15.45,2.54,5.2,1.76,11.49,6,17.1,5.81,5-.21,10.45-3.94,15.47-5.11,9.65-2.24,17.86,1.25,27,3.21,7.78,1.67,15.17-4.09,22.43-7a20.36,20.36,0,0,1,6.87-1.85,17.85,17.85,0,0,1,5.07.76c4.67,1.21,9.53,4,14.24,4.54,4.09.42,9.42-1,13.47-1.85a47.87,47.87,0,0,1,9.9-1.48c4.2,0,8.3,1,12.35,2.09,2.79.73,5.74,1.56,7.66,3.8,4.42,5.16,8.84,7.16,14.33,11.06,6.72,4.77,15.4,5.35,21.66,11.33,7.5,7.17,7.35,19.9,15.46,25.93,4.35,3.24,11.66,4.34,16.72,6.13a23.92,23.92,0,0,1,7.18,3.49c9.82,7.88,10.26,24.63,22.36,30.89,3.9,2,7.67,4,10.26,7.91,6.92,10.36,2.59,25.52,8.85,36.1,3,5.14,5.54,9.21,6.83,15.38a29.38,29.38,0,0,1,.75,8.87c-1.07,10.94-9.61,20.33-9.34,31.6.12,5.21,1.14,10.44,0,15.7a30.87,30.87,0,0,1-3.23,7.63c-2,3.65-4,7.44-7.26,9.84-2.57,1.91-5.64,2.78-8.64,3.61-7.33,2-11.08,4.25-16.94,9.41-4.27,3.77-7.2,8.58-12.7,10.64C382.53,443.65,373.5,441.05,365.38,446.13Z" style="fill:#f88dad"/><path d="M73.47,421.8a3.77,3.77,0,0,1-.58,0A4.17,4.17,0,0,1,69.32,417c2-14.54-5.32-26.62-21.85-35.91-21-10.28-23.28-26-23.37-26.63a4.19,4.19,0,0,1,8.31-1.15c.09.57,2.11,12.09,19,20.37,19.76,11.09,28.77,26.44,26.25,44.48A4.19,4.19,0,0,1,73.47,421.8Z" style="fill:#db6ba3"/><path d="M35.46,417.72a4.19,4.19,0,0,1-.52-8.35c4.66-.6,17.65-3.75,21.72-11,1.85-3.27,1.73-7.16-.36-11.89A4.19,4.19,0,0,1,64,383.1c3.19,7.23,3.19,13.77,0,19.42C57,414.9,36.85,417.58,36,417.69Z" style="fill:#db6ba3"/><path d="M87.06,453.26a4.19,4.19,0,0,1-2.73-7.38,14.76,14.76,0,0,0,4.09-17.68A4.19,4.19,0,0,1,96,424.54a23.27,23.27,0,0,1-6.18,27.72A4.2,4.2,0,0,1,87.06,453.26Z" style="fill:#db6ba3"/><path d="M83.23,342.72A20.75,20.75,0,0,1,74.9,341c-11.78-5.1-14.88-19.8-15-20.42a4.19,4.19,0,0,1,8.22-1.68h0c0,.11,2.39,11.09,10.15,14.42,5,2.15,11.58.76,19.51-4.15a4.19,4.19,0,1,1,4.42,7.13C95.3,340.58,89,342.72,83.23,342.72Z" style="fill:#db6ba3"/><path d="M132,415.45a4.07,4.07,0,0,1-2.21-.64,31.46,31.46,0,0,1-13-19.4c-1.91-9.77,1.13-20.29,9-31.29a4.19,4.19,0,0,1,6.81,4.9c-6.46,9-9,17.29-7.63,24.67a23.26,23.26,0,0,0,9.23,14,4.19,4.19,0,0,1-2.27,7.72Z" style="fill:#db6ba3"/><path d="M189.76,451.86a5.65,5.65,0,0,1-.58,0c-10.09-1.41-16.82-5.52-20-12.23-6.11-12.79,3.93-29.73,4.36-30.44a4.19,4.19,0,0,1,7.18,4.31c-2.28,3.82-7.43,15.3-4,22.53,1.92,4,6.5,6.53,13.61,7.52a4.2,4.2,0,0,1-.57,8.35Z" style="fill:#db6ba3"/><path d="M95.76,306.81c-10.28,0-15.23-9.52-16.44-14.92A4.19,4.19,0,0,1,87.5,290h0c.22,1,2.42,9.28,9.54,8.3,2.92-.39,4.84-2.19,7.27-4.46,4.54-4.26,10.77-10.08,25-5,8.45,3,15.75,2.79,20.57-.65,4.57-3.27,6.94-9.41,6.84-17.75-.12-9.32,6.94-16,13.75-22.51,12.09-11.51,23.51-22.37,8.11-48.95a4.19,4.19,0,1,1,7.25-4.2c18.71,32.29,2.36,47.85-9.58,59.22-6,5.73-11.22,10.68-11.15,16.33.17,14.17-5.54,21.24-10.36,24.68-7.12,5.08-17.15,5.69-28.25,1.72-9.45-3.37-12.4-.61-16.48,3.21-2.81,2.63-6.3,5.9-11.88,6.65A18.3,18.3,0,0,1,95.76,306.81Z" style="fill:#db6ba3"/><path d="M144.74,278.1a21.57,21.57,0,0,1-13.24-4.78c-13.44-10.32-10.32-26-6.8-32.78a4.19,4.19,0,0,1,7.46,3.83c-.32.63-6.72,13.73,4.45,22.31,3.33,2.56,6.67,3.48,10.23,2.84,6.54-1.19,11.74-7.42,12.3-8.32a4.19,4.19,0,0,1,7.18,4.33c-1.2,2-8.12,10.38-17.84,12.21A19.82,19.82,0,0,1,144.74,278.1Z" style="fill:#db6ba3"/><path d="M225,285.53a3.85,3.85,0,0,1-1.06-.13c-11.67-3.06-18.81-8.37-21.21-15.79-3.58-11,5.16-21.85,5.54-22.31a4.19,4.19,0,0,1,6.48,5.31c-.14.17-6.21,7.83-4,14.44,1.85,5.62,9.37,8.67,15.35,10.24a4.19,4.19,0,0,1-1.06,8.24Z" style="fill:#db6ba3"/><path d="M167.89,362.87a29.94,29.94,0,0,1-14.77-4,4.19,4.19,0,0,1,4.44-7.11c.46.27,10.63,6.33,20.78-.61,3-2,3.87-7.89,4.79-14.07,1.88-12.64,4.59-31.72,32.52-30.85a4.19,4.19,0,0,1-.28,8.38c-20.34-.72-22,10.63-24,23.71-1.15,7.69-2.33,15.63-8.34,19.75A26.52,26.52,0,0,1,167.89,362.87Z" style="fill:#db6ba3"/><path d="M183.81,390.52a4.19,4.19,0,0,1-1.16-8.22c.19-.06,8.17-2.51,11.46-8.88,1.83-3.55,1.9-7.86.21-12.79-2-5.85-3.87-10.09-5.36-13.49-4-9-5.92-13.52-1.81-26.22a4.19,4.19,0,0,1,8,2.59c-3.14,9.67-2.15,11.91,1.5,20.26,1.56,3.55,3.49,8,5.61,14.14,2.48,7.21,2.24,13.75-.72,19.43-5,9.63-16.09,12.88-16.56,13A4.14,4.14,0,0,1,183.81,390.52Z" style="fill:#db6ba3"/><path d="M212.36,443.41a4.19,4.19,0,0,1-2-7.86c23.73-13.07,15.28-36.47,14.9-37.46a4.2,4.2,0,0,1,7.84-3c.12.31,11.51,31.16-18.69,47.79A4.11,4.11,0,0,1,212.36,443.41Z" style="fill:#db6ba3"/><path d="M300.4,482.88c-7.76,0-22.85-8.95-24.1-26.11-1.35-18.5,21.63-26.15,22.61-26.47a4.19,4.19,0,0,1,2.59,8c-.18.06-17.71,6-16.84,17.88.95,13,12.82,18.48,15.78,18.33a4.26,4.26,0,0,1,4.35,4,4.19,4.19,0,0,1-4,4.35Z" style="fill:#db6ba3"/><path d="M280.75,456.35h-.36a4.2,4.2,0,0,1-3.82-4.53c.78-9.24-8.16-10.94-10-11.19a4.2,4.2,0,0,1,1.08-8.32c6.48.82,18.42,6.1,17.23,20.21A4.19,4.19,0,0,1,280.75,456.35Z" style="fill:#db6ba3"/><path d="M253.17,386.54a4.13,4.13,0,0,1-2.45-.79,4.19,4.19,0,0,1-.95-5.85h0c.1-.13,9.25-13.1,4.53-24.46-4.56-11-19.34-11.52-19.49-11.53a4.2,4.2,0,0,1-4.09-4.28,4.31,4.31,0,0,1,4.27-4.1c.83,0,20.37.6,27.05,16.69,6.53,15.73-5,31.91-5.47,32.59A4.19,4.19,0,0,1,253.17,386.54Z" style="fill:#db6ba3"/><path d="M256.28,354.13a4.2,4.2,0,0,1-3.55-1.95c-9.3-14.68-2.53-29.19,2.36-34.82a4.19,4.19,0,0,1,6.34,5.49c-.45.52-9.84,11.86-1.62,24.85a4.19,4.19,0,0,1-3.53,6.43Z" style="fill:#db6ba3"/><path d="M310.41,325.25c-16,0-28-15.82-28.62-16.6a4.19,4.19,0,0,1,6.72-5c.13.17,13.35,17.47,27.59,12.19S329.05,288.24,329,288a4.19,4.19,0,0,1,8.37-.57c.08,1.17,1.75,28.76-18.38,36.23A24.8,24.8,0,0,1,310.41,325.25Z" style="fill:#db6ba3"/><path d="M265.68,251.73c-.2,0-.4,0-.6,0a4.2,4.2,0,0,1-3.56-4.73c0-.22.87-7.59-4.08-13.12-4.26-4.76-11.63-7.1-22-6.86a4.3,4.3,0,0,1-4.28-4.11,4.2,4.2,0,0,1,4.11-4.28c13-.18,22.55,3,28.5,9.77,7.55,8.54,6.1,19.32,6,19.78A4.19,4.19,0,0,1,265.68,251.73Z" style="fill:#db6ba3"/><path d="M257.25,232.28a4.2,4.2,0,0,1-4.19-4.18,15.35,15.35,0,0,0-3.53-9.42,4.19,4.19,0,0,1,6.11-5.74,23.72,23.72,0,0,1,5.81,15.13,4.2,4.2,0,0,1-4.18,4.21Z" style="fill:#db6ba3"/><path d="M268.8,280.8a35.14,35.14,0,0,1-20.87-7.46A4.19,4.19,0,0,1,253.4,267c1.78,1.51,17.77,14.13,35-4.66,9.72-11.37,12-26.82,10.89-36.56-1.08-9.91-1.15-23.23,4.65-30.37a12.86,12.86,0,0,1,8.91-4.84,4.19,4.19,0,0,1,.82,8.34,4.43,4.43,0,0,0-3.22,1.78c-3,3.71-4.07,12.75-2.82,24.18.45,4.13,1.95,25.6-13,43C285.61,277.78,276.52,280.8,268.8,280.8Z" style="fill:#db6ba3"/><path d="M350.76,247.91c-6.9,0-14-3.48-20.84-6.86s-14-6.87-18.12-5.07c-2.27,1-4.12,3.81-5.5,8.39a4.19,4.19,0,1,1-8-2.42c2.15-7.15,5.48-11.62,10.17-13.66,7.7-3.35,16.58,1,25.17,5.24,6.06,3,12.35,5.93,17.29,6,4.12-.05,6.92-1,8.33-2.88,2-2.61,1-6.65,1-6.68a4.2,4.2,0,0,1,8.1-2.19c.21.81,2,8.09-2.4,13.92-3.05,4-8.07,6.13-14.92,6.21Z" style="fill:#db6ba3"/><path d="M382.06,318.22a4.16,4.16,0,0,1-2.18-.61c-11.42-7-17.59-15.25-18.34-24.64-1.18-14.87,12-26.33,12.6-26.81a4.19,4.19,0,0,1,5.45,6.37h0c-.1.09-10.55,9.23-9.68,19.82.53,6.54,5.36,12.63,14.34,18.1a4.19,4.19,0,0,1-2.19,7.77Z" style="fill:#db6ba3"/><path d="M397.05,402.18a4.18,4.18,0,0,1-3.3-1.62c-.48-.62-11.68-15.29-6.72-31.93,2-6.76,6.2-11,9.89-14.82,5.39-5.52,9.65-9.88,8.22-21.35a4.19,4.19,0,0,1,8.32-1c1.92,15.49-4.7,22.27-10.55,28.25-3.44,3.53-6.42,6.58-7.84,11.35-3.71,12.46,5.21,24.29,5.3,24.4a4.2,4.2,0,0,1-3.32,6.76Z" style="fill:#db6ba3"/><path d="M438.9,387.05a4.15,4.15,0,0,1-1.6-.32c-1.23-.51-30.12-13-32.16-57.5-1.37-29.57,15.65-42.91,16.38-43.46a4.19,4.19,0,1,1,5.08,6.66c-.56.44-14.24,11.43-13.09,36.42,1.79,38.95,26,49.71,27,50.15a4.19,4.19,0,0,1-1.63,8.05Z" style="fill:#db6ba3"/><path d="M364,431.36a4.2,4.2,0,0,1-4-5.56c.32-.95,7.43-22.93-15.91-35.68-10.21-5.58-18.53-5.38-25.85-5.21-11.23.27-21.85.53-31.07-19.39A4.19,4.19,0,1,1,294.8,362c6.91,14.92,12.73,14.8,23.26,14.53,8-.19,17.88-.42,30.07,6.23C377.81,399,368,428.25,367.94,428.54A4.19,4.19,0,0,1,364,431.36Z" style="fill:#db6ba3"/><path d="M310.61,418.12c-11.83,0-21.74-8.93-22.17-9.32a4.19,4.19,0,0,1,5.65-6.2c.66.6,16.21,14.41,27.68,1.79,10-11,18.74-16.43,26.72-16.58a16.76,16.76,0,0,1,12.7,5.46,4.19,4.19,0,0,1-6,5.85,8.87,8.87,0,0,0-6.54-2.93c-3.77.07-10.41,2.53-20.68,13.84-4.6,5.06-10.07,7.78-16.28,8.07Z" style="fill:#db6ba3"/><path d="M4.67,364l-.34,0a2.09,2.09,0,0,1-1.73-2.4C3,359.36,39.28,146,225.5,150.2,411.3,154.38,476.76,324,477.4,325.73a2.09,2.09,0,1,1-3.91,1.48c-.63-1.69-65.17-168.7-248.09-172.81-1.76-.05-3.53-.07-5.26-.07-178,0-213.07,205.76-213.41,207.85A2.1,2.1,0,0,1,4.67,364Z" style="fill:#1d2f6f"/><path d="M249.31,394.2h-.05a2.1,2.1,0,0,1-2-2.15c4.44-197.21-28.42-238-28.75-238.44a2.1,2.1,0,0,1,.22-3,2.06,2.06,0,0,1,2.93.2c1.4,1.6,34.27,41.56,29.78,241.29A2.1,2.1,0,0,1,249.31,394.2Z" style="fill:#1d2f6f"/><path d="M102.54,389.3a2.1,2.1,0,0,1-2.09-2.05c0-1.89-2.76-189.89,113.24-236.89a2.1,2.1,0,0,1,1.57,3.89C101.94,200.16,104.59,385.3,104.63,387.16a2.08,2.08,0,0,1-2,2.14Z" style="fill:#1d2f6f"/><path d="M389.21,367.23a2.09,2.09,0,0,1-2.07-1.84c-.25-2-25.92-196.66-158.58-210.91a2.09,2.09,0,0,1-1.85-2.31,2.06,2.06,0,0,1,2.3-1.86c136,14.6,162,212.57,162.27,214.57a2.08,2.08,0,0,1-1.81,2.33A1.18,1.18,0,0,1,389.21,367.23Z" style="fill:#1d2f6f"/><path d="M174.75,397.19a2.09,2.09,0,0,1-2.08-2c-.1-1.61-8.85-162.29,41.77-243.92A2.09,2.09,0,1,1,218,153.5C168.06,234,176.75,393.37,176.84,395a2.08,2.08,0,0,1-2,2.21Z" style="fill:#1d2f6f"/><path d="M48.85,377.73l-.27,0a2.1,2.1,0,0,1-1.81-2.35c.25-1.95,26.58-196,156.45-224.58a2.09,2.09,0,0,1,.9,4.09c-127,28-152.95,219.1-153.2,221A2.09,2.09,0,0,1,48.85,377.73Z" style="fill:#1d2f6f"/><path d="M319,386.52a2.09,2.09,0,0,1-2.08-2c-.09-2.08-9.64-208.41-94.57-230.24a2.09,2.09,0,0,1,1-4.06c87.93,22.59,97.36,225.49,97.71,234.12a2.09,2.09,0,0,1-2,2.19Z" style="fill:#1d2f6f"/><path d="M445.07,342.15a2.08,2.08,0,0,1-2-1.41c-.55-1.62-56.15-161.45-160.67-179.38a2.1,2.1,0,0,1,.71-4.13c107,18.35,163.36,180.52,163.91,182.15a2.09,2.09,0,0,1-1.3,2.66A2,2,0,0,1,445.07,342.15Z" style="fill:#1d2f6f"/><path d="M223.74,242.12c-113.12,0-130.35-43.06-131-45a2.09,2.09,0,0,1,3.92-1.47c.19.51,18.88,45.72,141.49,42C360,234,361.63,193.45,361.63,193a2.1,2.1,0,0,1,2.09-2.09h0a2.08,2.08,0,0,1,2.09,2.06c0,1.83-.89,45-127.58,48.89C233.24,242.05,228.4,242.12,223.74,242.12Z" style="fill:#1d2f6f"/><path d="M212.48,319.94c-144.7,0-176.35-43-177.72-45a2.09,2.09,0,1,1,3.42-2.4h0c.36.5,37.53,50.17,210.89,42.35,120.15-4.71,163.11-46,170.5-54.21,5.22-5.79,6.47-9.56,6.38-10.87a2.11,2.11,0,0,1,1.95-2.23,2.08,2.08,0,0,1,2.22,2c.22,3.42-2.42,8.37-7.44,14-22,24.45-79.08,51.89-173.44,55.59Q229.76,320,212.48,319.94Z" style="fill:#1d2f6f"/><path d="M469,664.18c6.19-11.37,10.32-13.71,20.63-13.71S511.24,632.07,492,621c12.38-7.7,12.38-20.07-1.38-26.43s-17.88-27.42-3.43-31.77,44.35-13.51,52.94-28.66-3.78-30.88-34.72-68.34S472.05,422,477.55,411s19.6-50.17-1-87l-1.08-1.91C262.31,440.19,53,375.76,3.34,357.5c-6.78,41-2.71,78.66,8.33,98.87,39.44,72.21,86.94,95.6,90.77,132,3,28.8-1.52,76.18-6.33,120H477.88C474.43,689.26,465.58,670.37,469,664.18Z" style="fill:#f4dfdf"/><path d="M305.51,260.33c-2.88,5.47,32.14,82.32,39.33,85.66s76.8-28.58,82.76-35.93-30.71-85-37.34-86.52S310.57,250.73,305.51,260.33Z" style="fill:#1d2f6f"/><path d="M327.61,259.08c.36,4.67,26.56,71,33.06,73.41s60-21,61.21-26.54S397,235.18,390.29,231.77,326.89,249.9,327.61,259.08Z" style="fill:#fff"/><path d="M386.74,264.33c-2.86-9-11-14.37-18.16-12.08s-10.66,11.41-7.8,20.37c2.59,8.11,9.5,13.25,16.11,12.46,2,6.3,7.1,21.82,8.54,22,1.81.23,6.46-1.6,7.41-3.35.73-1.34-6-15.5-9.19-22C387.47,277.76,388.87,271,386.74,264.33Z" style="fill:#1d2f6f"/><path d="M194.08,412.37C77.7,412.37,1.37,378.88.5,378.49a.84.84,0,0,1-.43-1.11A.85.85,0,0,1,1.18,377c1,.45,101.26,44.43,247.34,31.29S482.43,341,483.3,340.42a.84.84,0,1,1,.89,1.42c-.87.55-89,54.91-235.52,68.08C229.66,411.63,211.43,412.37,194.08,412.37Z" style="fill:#ad8c8c"/><path d="M578.78,444.89s-13.19,189-14,233.18c7.6,1.73,40.35,0,40.35,0s33.53-99.4,27.24-177.47c-2.09-25.67,22.53-131,27.77-163.5C663.31,371.7,686,488,681.49,505.84s6.44,107.63,16.4,172.23c11,2.25,48,0,48,0s-1.52-199-3-236.68-33.64-171.6-33.64-171.6L613,274.69Z" style="fill:#1d2f6f"/><polygon points="637.74 262.98 688.46 262.98 688.46 276.6 635.53 276.6 637.74 262.98" style="fill:#ad8c8c"/><polygon points="608.29 224.27 636.41 265.51 694.57 265.34 721.47 218.7 711.76 135.6 683.5 99.26 646.27 104.37 611.96 197.41 608.29 224.27" style="fill:#fac748"/><path d="M646.27,104.37s-50.29,11.37-58.42,19-24.45,53.71-30,103.75c0,25.93,2,55.8,30,54.49-3.66,24.1-19.12,170-19.12,170s31.7,2.62,46.89,0C625.84,412.31,648.27,274.69,646.27,104.37Z" style="fill:#86bbd8"/><path d="M683.4,103.11s49.88,13.07,57.74,20.94,22.62,54.5,26.52,104.7c-.88,25.92-3.9,55.71-31.87,53.45,2.85,24.21,13.36,170.58,13.36,170.58s-31.77,1.54-46.87-1.59C693.4,411.57,675.64,273.27,683.4,103.11Z" style="fill:#86bbd8"/><path d="M683.64,103.15a30.63,30.63,0,0,0-.14-3.89l-1.57-39.73s-18.1-2.12-32.41,7.64c-1,24.4-1.58,37.06-3.25,37.2a15.2,15.2,0,0,0,1.81,2.67c6.84,8.39,19.2,9.5,28,3.25A31.71,31.71,0,0,0,683.64,103.15Z" style="fill:#e57765"/><path d="M686.6,34.11S685,89.62,655.37,89.62c-20,0-22.44-10-20-52.46,1.58-18.42,19.88-18.79,27.08-19.4S686.23,21,686.6,34.11Z" style="fill:#ff977b"/><path d="M695.35,55.78a8.71,8.71,0,0,1-8.56,8.69c-4.36,0-5.56-3.66-5.56-8.69s3.53-9.11,7.89-9.11S695.35,50.75,695.35,55.78Z" style="fill:#ff977b"/><path d="M662.47,52.83c-.15,2.51-1.43,4.48-2.86,4.39s-2.45-2.19-2.3-4.7,1.43-4.48,2.86-4.4S662.62,50.32,662.47,52.83Z" style="fill:#423651"/><path d="M644.54,51.58c-.15,2.51-1.29,4.49-2.54,4.41s-2.15-2.17-2-4.69,1.3-4.48,2.55-4.41S644.7,49.07,644.54,51.58Z" style="fill:#423651"/><path d="M657.21,43.79a20.46,20.46,0,0,1,7.82.66,1.48,1.48,0,0,0,1.68-.64c.27-.46.51-.84.72-1.15a1.22,1.22,0,0,0-.79-1.87,22.79,22.79,0,0,0-10.15-.65,1.28,1.28,0,0,0-1.09,1.51c.09.37.17.75.24,1.09A1.39,1.39,0,0,0,657.21,43.79Z" style="fill:#fff"/><path d="M639.94,44a12.46,12.46,0,0,1,7.36-2.05,1.11,1.11,0,0,0,1.15-1.26,12.33,12.33,0,0,0-.27-1.41,1.1,1.1,0,0,0-1-.83,11.4,11.4,0,0,0-9.12,3.42,1.11,1.11,0,0,0,0,1.49c.16.18.31.35.46.49A1.11,1.11,0,0,0,639.94,44Z" style="fill:#fff"/><path d="M650.48,72a9,9,0,0,1-5.69-2.14.84.84,0,0,1,1.14-1.23,7.78,7.78,0,0,0,4.85,1.69c2.14-.1,4.23-1.27,6.22-3.46a.84.84,0,0,1,1.19-.06.83.83,0,0,1,0,1.18c-2.3,2.55-4.79,3.9-7.4,4Z" style="fill:#a55f56"/><path d="M648.64,64.66c-1.66,0-3.7-.93-4.26-2.5-.25-.7-.4-2.1,1.45-3.61,2.81-2.3,4.31-8.07,4.32-8.13a.84.84,0,0,1,1.63.42c-.07.25-1.65,6.36-4.89,9-.55.45-1.16,1.11-.93,1.74A3,3,0,0,0,648.64,63h0a6.21,6.21,0,0,0,2.76-.46.86.86,0,0,1,1.15.29.85.85,0,0,1-.26,1.14,7.35,7.35,0,0,1-3.64.71Z" style="fill:#a55f56"/><path d="M731.28,687a6.29,6.29,0,0,1-.19-1c-.79-7.28-.32-7.92-.32-7.92l-26.27.16v9h0v4.92l3.18,0s16.13.34,17.66-.33S727,687,727,687h0Z" style="fill:#ff977b"/><path d="M747.7,699.6c-4.18-2.36-12.23-5.15-15.35-10.16a11.58,11.58,0,0,1-.82-5.9l-.48-.08a3.45,3.45,0,0,0-4,3.55h0s-.18,4.09-1.7,4.77-17.66.33-17.66.33l-3.18,0v15.52h10.41c.09-1,.41-2.46,1.54-2.46s1.31,1.43,1.36,2.46H751.5A7.46,7.46,0,0,0,747.7,699.6Z" style="fill:#29293a"/><rect x="703.74" y="702.76" width="47.93" height="5.16" rx="0.84" style="fill:#29293a"/><path d="M750.82,703.5H704.58a.74.74,0,0,1,0-1.47h46.24a.74.74,0,0,1,0,1.47Z" style="fill:#5d5d75"/><path d="M749.06,708.3a.73.73,0,0,1-.74-.72l-.06-4.74a.72.72,0,0,1,.72-.74h0a.74.74,0,0,1,.74.72l.06,4.74A.74.74,0,0,1,749.06,708.3Z" style="fill:#5d5d75"/><path d="M742.94,708.3a.73.73,0,0,1-.73-.72l-.06-4.74a.79.79,0,0,1,.73-.74.73.73,0,0,1,.73.72l.07,4.74A.76.76,0,0,1,742.94,708.3Z" style="fill:#5d5d75"/><path d="M736.83,708.3a.73.73,0,0,1-.73-.72l-.06-4.74a.77.77,0,0,1,.73-.74.73.73,0,0,1,.73.72l.07,4.74A.79.79,0,0,1,736.83,708.3Z" style="fill:#5d5d75"/><path d="M730.72,708.3a.73.73,0,0,1-.73-.72l-.06-4.74a.75.75,0,0,1,.73-.74.73.73,0,0,1,.73.72l.07,4.74A.81.81,0,0,1,730.72,708.3Z" style="fill:#5d5d75"/><path d="M724.62,708.3a.73.73,0,0,1-.74-.72l-.06-4.74a.73.73,0,0,1,1.46,0l.07,4.74a.74.74,0,0,1-.72.74Z" style="fill:#5d5d75"/><path d="M718.5,708.3a.73.73,0,0,1-.73-.72l-.06-4.74a.72.72,0,0,1,.72-.74h0a.73.73,0,0,1,.73.72l.07,4.74A.71.71,0,0,1,718.5,708.3Z" style="fill:#5d5d75"/><path d="M712.39,708.3a.73.73,0,0,1-.73-.72l-.06-4.74a.72.72,0,0,1,.72-.74h0a.73.73,0,0,1,.73.72l.07,4.74A.73.73,0,0,1,712.39,708.3Z" style="fill:#5d5d75"/><path d="M706.28,708.3a.73.73,0,0,1-.73-.72l-.06-4.74a.81.81,0,0,1,.73-.74.73.73,0,0,1,.73.72l.07,4.74A.74.74,0,0,1,706.28,708.3Z" style="fill:#5d5d75"/><path d="M746,708.42a.73.73,0,0,1-.73-.72l-.07-4.74a.74.74,0,0,1,.73-.74.71.71,0,0,1,.74.72l.06,4.74a.73.73,0,0,1-.72.74Z" style="fill:#5d5d75"/><path d="M739.86,708.42a.74.74,0,0,1-.74-.72l-.06-4.74c0-.41.39-.81.73-.74a.73.73,0,0,1,.74.72l.06,4.74a.73.73,0,0,1-.72.74Z" style="fill:#5d5d75"/><path d="M733.75,708.42a.73.73,0,0,1-.73-.72L733,703c0-.41.36-.81.73-.74a.73.73,0,0,1,.74.72l.06,4.74a.73.73,0,0,1-.72.74Z" style="fill:#5d5d75"/><path d="M727.64,708.42a.73.73,0,0,1-.73-.72l-.07-4.74a.7.7,0,0,1,.74-.74.73.73,0,0,1,.73.72l.06,4.74a.73.73,0,0,1-.72.74Z" style="fill:#5d5d75"/><path d="M721.53,708.42a.74.74,0,0,1-.74-.72l-.06-4.74a.67.67,0,0,1,.73-.74.74.74,0,0,1,.74.72l.06,4.74a.73.73,0,0,1-.72.74Z" style="fill:#5d5d75"/><path d="M715.42,708.42a.74.74,0,0,1-.74-.72l-.06-4.74a.66.66,0,0,1,.73-.74.74.74,0,0,1,.74.72l.06,4.74a.73.73,0,0,1-.72.74Z" style="fill:#5d5d75"/><path d="M709.31,708.42a.74.74,0,0,1-.74-.72l-.06-4.74a.73.73,0,0,1,.72-.74.72.72,0,0,1,.75.72l.06,4.74a.73.73,0,0,1-.72.74Z" style="fill:#5d5d75"/><path d="M737,693.87a25.92,25.92,0,0,1-3.18-.22.73.73,0,0,1-.63-.81l-.58-1,.63-.41c.13-1.83.6-5.08,2.2-5.85a2.12,2.12,0,0,1,2.32.42,2.38,2.38,0,0,1,1.08,2.2,2.86,2.86,0,0,1-.45,1.18,3.74,3.74,0,0,1,1.26.08,2.52,2.52,0,0,1,1.67,1.33,1.73,1.73,0,0,1,0,1.9C740.59,693.62,738.73,693.87,737,693.87Zm-2.13-1.58c2.31.22,4.81.09,5.22-.48.06-.08,0-.27-.08-.38a1,1,0,0,0-.72-.57,5.52,5.52,0,0,0-3.19.67C735.67,691.82,735.25,692.07,734.86,692.29Zm1.35-5.45-.15,0c-.61.3-1,2-1.26,3.65l.52-.26c1.09-.75,2-1.59,2-2.25,0-.12,0-.44-.51-.87A1.18,1.18,0,0,0,736.21,686.84Z" style="fill:#5d5d75"/><path d="M569,687a7.73,7.73,0,0,0,.2-1c.79-7.28.32-7.92.32-7.92l26.27.16v9h0v4.92l-3.19,0s-16.12.34-17.65-.33-1.7-4.77-1.7-4.77h0Z" style="fill:#ff977b"/><path d="M552.6,699.6c4.19-2.36,12.23-5.15,15.36-10.16a11.58,11.58,0,0,0,.82-5.9l.48-.08a3.46,3.46,0,0,1,4,3.55h0s.17,4.09,1.7,4.77,17.65.33,17.65.33l3.19,0v15.52H585.4c-.09-1-.41-2.46-1.54-2.46s-1.32,1.43-1.36,2.46H548.8A7.48,7.48,0,0,1,552.6,699.6Z" style="fill:#29293a"/><rect x="548.64" y="702.76" width="47.93" height="5.16" rx="0.84" style="fill:#29293a"/><path d="M595.73,703.5H549.49a.74.74,0,1,1,0-1.47h46.24a.74.74,0,0,1,0,1.47Z" style="fill:#5d5d75"/><path d="M551.25,708.3c-.39.09-.74-.34-.73-.74l.06-4.74a.78.78,0,0,1,.75-.72.73.73,0,0,1,.72.74l-.07,4.74A.73.73,0,0,1,551.25,708.3Z" style="fill:#5d5d75"/><path d="M557.36,708.3h0a.73.73,0,0,1-.72-.74l.06-4.74a.76.76,0,0,1,.75-.72.73.73,0,0,1,.72.74l-.07,4.74A.73.73,0,0,1,557.36,708.3Z" style="fill:#5d5d75"/><path d="M563.47,708.3h0a.73.73,0,0,1-.72-.74l.06-4.74a.74.74,0,0,1,1.47,0l-.07,4.74A.73.73,0,0,1,563.47,708.3Z" style="fill:#5d5d75"/><path d="M569.58,708.3h0a.73.73,0,0,1-.72-.74l.06-4.74a.74.74,0,0,1,.74-.72.68.68,0,0,1,.73.74l-.07,4.74A.73.73,0,0,1,569.58,708.3Z" style="fill:#5d5d75"/><path d="M575.69,708.3h0a.73.73,0,0,1-.72-.74l.06-4.74a.73.73,0,0,1,.74-.72.67.67,0,0,1,.73.74l-.07,4.74A.73.73,0,0,1,575.69,708.3Z" style="fill:#5d5d75"/><path d="M581.8,708.3h0a.73.73,0,0,1-.72-.74l.06-4.74a.82.82,0,0,1,.75-.72.73.73,0,0,1,.72.74l-.07,4.74A.73.73,0,0,1,581.8,708.3Z" style="fill:#5d5d75"/><path d="M587.91,708.3c-.41.09-.74-.34-.73-.74l.06-4.74a.79.79,0,0,1,.75-.72.72.72,0,0,1,.72.74l-.07,4.74A.73.73,0,0,1,587.91,708.3Z" style="fill:#5d5d75"/><path d="M594,708.3h0a.73.73,0,0,1-.72-.74l.06-4.74a.77.77,0,0,1,.75-.72.72.72,0,0,1,.72.74l-.06,4.74A.74.74,0,0,1,594,708.3Z" style="fill:#5d5d75"/><path d="M554.34,708.42a.74.74,0,0,1-.73-.74l.06-4.74a.67.67,0,0,1,.74-.72.72.72,0,0,1,.72.74l-.06,4.74A.73.73,0,0,1,554.34,708.42Z" style="fill:#5d5d75"/><path d="M560.45,708.42a.76.76,0,0,1-.73-.74l.06-4.74a.65.65,0,0,1,.74-.72.72.72,0,0,1,.72.74l-.06,4.74A.73.73,0,0,1,560.45,708.42Z" style="fill:#5d5d75"/><path d="M566.56,708.42a.8.8,0,0,1-.74-.74l.07-4.74a.73.73,0,0,1,.73-.72.76.76,0,0,1,.74.74l-.07,4.74A.73.73,0,0,1,566.56,708.42Z" style="fill:#5d5d75"/><path d="M572.67,708.42h0a.73.73,0,0,1-.72-.74l.06-4.74a.73.73,0,0,1,.73-.72.74.74,0,0,1,.74.74l-.07,4.74A.73.73,0,0,1,572.67,708.42Z" style="fill:#5d5d75"/><path d="M578.78,708.42h0a.73.73,0,0,1-.72-.74l.06-4.74a.71.71,0,0,1,.74-.72.72.72,0,0,1,.72.74l-.06,4.74A.73.73,0,0,1,578.78,708.42Z" style="fill:#5d5d75"/><path d="M584.89,708.42a.71.71,0,0,1-.73-.74l.06-4.74a.7.7,0,0,1,.74-.72.74.74,0,0,1,.73.74l-.07,4.74A.73.73,0,0,1,584.89,708.42Z" style="fill:#5d5d75"/><path d="M591,708.42a.73.73,0,0,1-.73-.74l.06-4.74a.68.68,0,0,1,.74-.72.74.74,0,0,1,.73.74l-.07,4.74A.73.73,0,0,1,591,708.42Z" style="fill:#5d5d75"/><path d="M563.32,693.87c-1.74,0-3.61-.25-4.29-1.21a1.73,1.73,0,0,1,0-1.9,2.5,2.5,0,0,1,1.67-1.33,3.73,3.73,0,0,1,1.26-.08,2.86,2.86,0,0,1-.45-1.18,2.36,2.36,0,0,1,1.08-2.2,2.12,2.12,0,0,1,2.32-.42c1.6.77,2.07,4,2.2,5.85l.63.41-.58,1a.74.74,0,0,1-.63.82A25.92,25.92,0,0,1,563.32,693.87Zm-1.77-3.07a2.12,2.12,0,0,0-.52.06,1,1,0,0,0-.72.57c-.06.11-.14.3-.08.38.4.57,2.9.7,5.21.48-.38-.22-.81-.47-1.22-.76A7.16,7.16,0,0,0,561.55,690.8Zm3.43-.54.54.26c-.23-1.77-.68-3.36-1.28-3.65-.18-.08-.44,0-.79.27-.56.43-.53.75-.51.87C563,688.67,563.89,689.51,565,690.26Z" style="fill:#5d5d75"/><rect x="490.05" y="227.09" width="290.98" height="16.07" style="fill:#1d2f6f"/><path d="M810.89,290.31a37.94,37.94,0,0,1-37.9-37.9V217.83a37.9,37.9,0,1,1,75.8,0v34.58A37.94,37.94,0,0,1,810.89,290.31Zm0-97.8a25.35,25.35,0,0,0-25.32,25.32v34.58a25.33,25.33,0,1,0,50.65,0V217.83A25.35,25.35,0,0,0,810.89,192.51Z" style="fill:#1d2f6f"/><path d="M557.81,241.24S518,236.7,504,243.16V309.7h21.91c0-7,.05-17.94,0-25.24,5.51-4.32,11.4,0,11.4,0V309.7h20.52Z" style="fill:#1d2f6f"/><path d="M636.35,182.87a.85.85,0,0,1-.82-.67l-8.15-38.51a.84.84,0,0,1,.28-.82l14.81-12.36-14.36-1.62a.89.89,0,0,1-.6-.35.86.86,0,0,1-.12-.68l4.45-18.6a.83.83,0,0,1,1-.62.84.84,0,0,1,.62,1l-4.23,17.68,15.37,1.73a.83.83,0,0,1,.7.59.82.82,0,0,1-.26.88l-15.92,13.3,8,38a.86.86,0,0,1-.65,1Z" style="fill:#488daf"/><path d="M688.46,182.87a.76.76,0,0,1-.21,0,.85.85,0,0,1-.61-1l10.86-42.39-15.29-10.15a.82.82,0,0,1-.36-.86.83.83,0,0,1,.66-.66l14.82-3-6.21-16.63a.84.84,0,0,1,.5-1.08.85.85,0,0,1,1.08.49l6.55,17.55a.86.86,0,0,1-.06.7.82.82,0,0,1-.57.42L685.83,129l14.09,9.35a.84.84,0,0,1,.35.91l-11,43A.85.85,0,0,1,688.46,182.87Z" style="fill:#488daf"/><path d="M688.29,46.89s3.83-17.51,1.74-24.15-6.81-11.88-15.55-7.69c-9.78-5.24-17.18-.7-17.18-.7S639.9-6.6,627,2.13,623.86,32.87,642.27,33s22.81-7.68,22.81-7.68,4.55,11.18,16.41,9.26c-3.86,8.2-3.82,19-3.82,19S682,47.46,688.29,46.89Z" style="fill:#f4dfdf"/><path d="M623.29,183.9s6.23-26.72,9-26.38c2.07.25,1.65,8.46,1.29,12.69a.69.69,0,0,0,1.29.42c1.75-2.38,4.84-6.64,8.43-11.86,1.5-2.18,4.39-2.43,5.79-.52,7.17,9.71,2.11,22.51-4.62,32.78,0,0-5.77,9.19-15.23,5.51-8.69-3.38-6-12.64-6-12.64Z" style="fill:#ff977b"/><path d="M640.9,171.71a.81.81,0,0,1-.45-.13.84.84,0,0,1-.26-1.16c.06-.09,5.49-8.57,7.15-12.71a.85.85,0,0,1,1.09-.46.84.84,0,0,1,.47,1.09c-1.72,4.29-7.07,12.63-7.3,13A.84.84,0,0,1,640.9,171.71Z" style="fill:#c46f6a"/><path d="M644.06,174.57a.8.8,0,0,1-.44-.13.84.84,0,0,1-.28-1.15c0-.08,4.82-7.88,6.31-12a.83.83,0,0,1,1.07-.5.85.85,0,0,1,.51,1.08c-1.55,4.27-6.26,12-6.46,12.28A.83.83,0,0,1,644.06,174.57Z" style="fill:#c46f6a"/><path d="M648.27,176.09a.8.8,0,0,1-.36-.09.82.82,0,0,1-.39-1.11c.87-1.82,3.19-6.89,3.42-8.6a.83.83,0,0,1,.95-.71.82.82,0,0,1,.71.94c-.31,2.28-3.24,8.4-3.57,9.09A.86.86,0,0,1,648.27,176.09Z" style="fill:#c46f6a"/><path d="M691.41,187.17s1.66,9.51-7.36,11.88c-9.81,2.59-14.51-7.19-14.51-7.19-5.53-11-9.11-24.26-.89-33.09,1.61-1.74,4.45-1.17,5.7,1.16,3,5.6,5.56,10.18,7,12.74a.69.69,0,0,0,1.33-.27c.12-4.25.63-12.45,2.71-12.46,2.81,0,6,27.23,6,27.23Z" style="fill:#ff977b"/><path d="M675.38,173.07a.84.84,0,0,1-.75-.47c-.18-.38-4.56-9.27-5.78-13.72a.84.84,0,0,1,1.61-.45c1.19,4.3,5.63,13.34,5.68,13.43a.84.84,0,0,1-.39,1.12A.78.78,0,0,1,675.38,173.07Z" style="fill:#c46f6a"/><path d="M671.92,175.55a.86.86,0,0,1-.76-.48c-.16-.35-4-8.52-5-12.94a.84.84,0,0,1,1.63-.39c1,4.25,4.87,12.54,4.91,12.62a.83.83,0,0,1-.4,1.11A.78.78,0,0,1,671.92,175.55Z" style="fill:#c46f6a"/><path d="M667.57,176.59a.85.85,0,0,1-.8-.56c-.25-.73-2.47-7.15-2.52-9.44a.83.83,0,0,1,.81-.86h0a.83.83,0,0,1,.84.82c0,1.72,1.77,7,2.44,8.92a.84.84,0,0,1-.52,1.07A.86.86,0,0,1,667.57,176.59Z" style="fill:#c46f6a"/><path d="M565.59,250.93l46.63-71s22.27,11.27,30.13,22c-8.65,21-19.39,63.14-52.92,78.59C572.4,259.84,565.59,250.93,565.59,250.93Z" style="fill:#86bbd8"/><path d="M667,203.51s25.7-15.72,33.3-20.17c14.14,17.29,56.32,71.26,56.32,71.26l-22.79,25.93s-22.27,2.62-46.9-42.18C675.36,217.66,667,203.51,667,203.51Z" style="fill:#86bbd8"/><path d="M755.59,254.18a.84.84,0,0,1-.66-.32l-55.26-69.41-7.11,4.46a.84.84,0,1,1-.9-1.42l7.75-4.86a.84.84,0,0,1,1.1.18l55.73,70a.84.84,0,0,1-.13,1.18A.85.85,0,0,1,755.59,254.18Z" style="fill:#488daf"/><path d="M735.79,283h-.1c-21.09-2.37-45.17-37-46.19-38.45a.84.84,0,0,1,1.38-1c.25.36,24.66,35.45,45,37.73a.84.84,0,0,1-.09,1.68Z" style="fill:#488daf"/><path d="M587.85,282.42a.84.84,0,0,1-.11-1.67c15.82-2.19,35.7-35.93,35.89-36.27a.85.85,0,0,1,1.15-.3.84.84,0,0,1,.3,1.15c-.83,1.42-20.48,34.78-37.11,37.08Z" style="fill:#488daf"/><path d="M635,222.21a1,1,0,0,1-.3-.05.86.86,0,0,1-.49-1.09l7.22-19-4.28-5a.84.84,0,0,1,.09-1.18.83.83,0,0,1,1.18.08l4.6,5.33a.85.85,0,0,1,.15.85l-7.39,19.43A.83.83,0,0,1,635,222.21Z" style="fill:#488daf"/><path d="M562.88,254.18a.86.86,0,0,1-.54-.2.85.85,0,0,1-.11-1.18c5-6,48.85-72.66,49.29-73.33a.83.83,0,0,1,1.11-.27l10.67,6.07a.84.84,0,1,1-.83,1.46l-10-5.68c-4.86,7.38-44.14,67-49,72.82A.84.84,0,0,1,562.88,254.18Z" style="fill:#488daf"/></g></g></svg>