<svg xmlns="http://www.w3.org/2000/svg" viewBox="0 0 781.68 721.04"><g id="Layer_2" data-name="Layer 2"><g id="_Layer_" data-name="&lt;Layer&gt;"><path d="M327.83,464.53c1.88,1.72,3.07,4.09,3.56,8.19.92,7.66,2.87,15.19,8.82,20.7,3.28,3,7.45,4.92,11.58,6.6,5.29,2.16,10.65,3.36,15.48,6.34,4.67,2.87,10.07,4.66,14.64,7.59,5.21,3.34,8.79,7.94,15.08,9.64a34.68,34.68,0,0,0,10.42.77c12.14-.48,24.85-5.38,36.9-3.25,7.21,1.28,11.05,3.66,19.07,1.9,13.84-3,25.31-10.21,38.12-15.82,1.3-.57,18.84-10.77,19.19-10.51,0,0,29.88,22.08,52.92,25.05s44.54-7.69,56.07,0c11,7.3,22.42,13.84,34.79,18.43,7.74,2.87,15.91,4.2,23.54,7s14.87,3.78,22.72,1.32c8.17-2.57,12.53-10,20.81-11.94,4.14-1,8.11-.64,12.07-2.78,4.19-2.25,7.24-6.22,9.25-10.52,3.29-7,4.12-13.41,8.61-19.9,3.28-4.75,8.37-8.19,11.3-13.4,8.29-14.78.34-33,6.53-48.51a32.53,32.53,0,0,0,1.52-19.59c-3-12.36-11.25-22.52-13.58-35.26-1.27-7-1.07-12.94-5.73-19-4.13-5.39-11.43-8.83-14.41-15.06-3.11-6.49-2-14.64-5-21.35a51.12,51.12,0,0,0-10.78-14.7c-3.45-3.43-10.11-6.85-12.45-11-5.42-9.62-1.66-22.58-8.22-32.57-5.19-7.91-13-13.89-21.37-18.22a24.37,24.37,0,0,1-5.85-3.62c-2-1.95-3.23-4.61-4.43-7.18-4.24-9-10.11-18.25-19.47-21.75-6.31-2.36-13.29-1.76-20-1.12-7,.67-16,4-23,2.24-6.24-1.57-11.92-7.3-17.86-10-11.41-5.12-22.63-3.24-34.56-3.36-10.18-.11-17.77-8.72-26-14a26.64,26.64,0,0,0-8-4,25.12,25.12,0,0,0-6.54-.45c-6.18.18-13,2.19-19,1.52-5.22-.58-11.48-3.58-16.28-5.68A65.77,65.77,0,0,0,476.26,183c-5.23-1.14-10.64-1-16-.82-3.69.12-7.6.31-10.64,2.4-7,4.8-13.05,6-21,9-9.73,3.77-20.72,2.15-30.22,7.43-11.39,6.34-14.81,21.11-26.62,26-6.35,2.6-15.78,1.95-22.6,2.7-3.38.37-6.83.76-9.94,2.16-14.48,6.54-19.76,25.81-36.62,29.88-5.44,1.31-10.72,2.66-15,6.46C276,278.37,277.14,297,266.34,307.64c-5.25,5.16-9.52,9.2-12.87,16A33.34,33.34,0,0,0,250,333.71c-1.76,13,6.24,26.05,2.72,39-1.63,6-4.38,11.79-4.39,18.19a34,34,0,0,0,1.88,9.67c1.4,4.74,2.91,9.66,6.27,13.29,2.66,2.89,6.25,4.7,9.76,6.45,8.56,4.27,12.61,7.82,18.46,15.33,4.26,5.47,6.56,11.82,12.84,15.65C307.14,457.16,319.14,456.52,327.83,464.53Z" style="fill:#f88dad"/><path d="M700.07,512.29h-.38a4.2,4.2,0,0,1-3.8-4.56c1.93-21.22,17.24-36.37,44.28-43.83,24.32-5.38,30.19-18.65,30.43-19.21a4.19,4.19,0,0,1,7.77,3.15c-.29.72-7.45,17.85-36.18,24.19-23.5,6.49-36.34,18.77-38,36.46A4.18,4.18,0,0,1,700.07,512.29Z" style="fill:#db6ba3"/><path d="M748.62,517.53a4.22,4.22,0,0,1-1.34-.22c-1-.35-25.37-8.73-30.1-24.86-2.08-7.06-.22-14.27,5.52-21.44a4.19,4.19,0,1,1,6.55,5.23c-4,5-5.3,9.5-4,13.84,2.9,9.91,18.85,17.29,24.75,19.29a4.19,4.19,0,0,1-1.35,8.16Z" style="fill:#db6ba3"/><path d="M674.22,545.13a4.2,4.2,0,0,1-3.27-1.57c-10.85-13.48-4.68-27.46.1-33a4.19,4.19,0,0,1,6.34,5.49c-.95,1.12-8.86,11.1.09,22.23a4.19,4.19,0,0,1-3.26,6.82Z" style="fill:#db6ba3"/><path d="M715.14,418.74c-8.69,0-17.74-4.25-27-12.69a4.19,4.19,0,1,1,5.65-6.19c9,8.18,17.27,11.6,24.72,10.17,11.13-2.14,17.18-14.37,17.24-14.49a4.19,4.19,0,0,1,7.54,3.66c-.32.65-8,16.14-23.2,19.06A25.92,25.92,0,0,1,715.14,418.74Z" style="fill:#db6ba3"/><path d="M628.81,489.59a4.2,4.2,0,0,1-1.32-8.18c.25-.08,11.67-4.06,16.4-15,3.56-8.19,2.61-18.39-2.83-30.31a4.19,4.19,0,1,1,7.63-3.48c6.49,14.22,7.44,26.76,2.84,37.24-6.32,14.41-20.81,19.28-21.42,19.48A4.21,4.21,0,0,1,628.81,489.59Z" style="fill:#db6ba3"/><path d="M550.82,516.74c-1.49,0-3-.06-4.65-.19a4.19,4.19,0,1,1,.66-8.36c10,.81,17-1.25,20.68-6.09,6-7.85,2.84-22.2,1.11-27.07a4.19,4.19,0,1,1,7.9-2.81c.31.89,7.64,21.95-2.35,35C569.31,513.54,561.47,516.74,550.82,516.74Z" style="fill:#db6ba3"/><path d="M707.9,373.7a20.7,20.7,0,0,1-6.76-1.19c-6.38-2.21-9.57-6.58-12.38-10.43-4.08-5.6-7.3-10-20.89-8.49-15.15,1.7-27.4-1.84-34.46-10-4.43-5.1-8.88-14.42-4.91-29.82,1.74-6.74-3.41-13.92-9.39-22.25-11.57-16.12-27.41-38.2,4.71-70.31a4.19,4.19,0,1,1,5.93,5.93c-27.09,27.08-15.26,43.56-3.83,59.5,6.9,9.61,13.42,18.69,10.7,29.23-2.42,9.4-1.35,17.08,3.12,22.23,5.21,6,14.87,8.52,27.2,7.14,18.41-2.07,24,5.66,28.59,11.87,2.49,3.41,4.46,6.11,8.35,7.46,9.82,3.39,15.28-6.44,15.87-7.57a4.19,4.19,0,0,1,7.45,3.84C724.64,365.86,717.78,373.7,707.9,373.7Z" style="fill:#db6ba3"/><path d="M656.22,327.78a25.68,25.68,0,0,1-10.34-2.19c-10.79-4.72-16.63-15.56-17.5-18a4.19,4.19,0,0,1,7.9-2.82c.42,1.16,5,9.68,13,13.13,4.73,2.06,9.88,1.93,15.29-.38,17.1-7.32,12.62-24.69,12.42-25.43a4.19,4.19,0,0,1,8.08-2.24c2.42,8.66,1.94,27.19-17.2,35.38A29.56,29.56,0,0,1,656.22,327.78Z" style="fill:#db6ba3"/><path d="M549.51,314.84a4.19,4.19,0,0,1-.13-8.38c12.17-.37,20.25-3.41,23.36-8.77,4.26-7.36-1.16-17.73-1.21-17.83a4.19,4.19,0,0,1,7.38-4c.32.58,7.69,14.52,1.11,25.95-4.69,8.15-14.92,12.53-30.38,13Z" style="fill:#db6ba3"/><path d="M605.92,420a34.24,34.24,0,0,1-24.79-10c-6.12-6.12-5.36-15.51-4.62-24.59,1.3-16,2.42-29.77-24.07-34.51a4.19,4.19,0,1,1,1.48-8.25c34,6.07,32.23,27.67,31,43.44-.64,7.83-1.19,14.6,2.19,18,11.31,11.31,26.55,6.65,27.19,6.45a4.19,4.19,0,0,1,2.58,8A37.7,37.7,0,0,1,605.92,420Z" style="fill:#db6ba3"/><path d="M571.25,447.15a4.15,4.15,0,0,1-1.89-.46c-.55-.28-13.36-6.92-16.62-19.37-1.86-7.07-.3-14.41,4.63-21.8,4.38-6.56,8-11.15,11-14.83,6.86-8.63,8.93-11.24,7.74-23.44a4.19,4.19,0,0,1,8.34-.82c1.53,15.58-2.16,20.23-9.52,29.47-2.83,3.57-6.36,8-10.54,14.27-3.54,5.3-4.72,10.34-3.51,15,2.27,8.8,12.23,14,12.33,14.07a4.2,4.2,0,0,1-1.92,7.93Z" style="fill:#db6ba3"/><path d="M520.69,500.87a4.13,4.13,0,0,1-2.66-1c-32.52-26.8-9.88-59.08-9.65-59.41a4.19,4.19,0,0,1,6.81,4.9c-.77,1.09-18.2,26.31,8.17,48a4.19,4.19,0,0,1-2.67,7.43Z" style="fill:#db6ba3"/><path d="M402.45,523.69a16.71,16.71,0,0,1-4-.43,4.19,4.19,0,1,1,2-8.14c4.44,1.09,21.34-2.27,26.4-17.67,4.6-14-16.17-25.73-16.38-25.85a4.19,4.19,0,0,1,4-7.34c1.11.61,27.07,15.19,20.3,35.8C429.3,516.85,412.62,523.69,402.45,523.69Z" style="fill:#db6ba3"/><path d="M431.72,497.9a3.35,3.35,0,0,1-.63,0,4.18,4.18,0,0,1-3.52-4.76c2.41-16,18-18.88,25.91-18.16a4.21,4.21,0,0,1,3.8,4.55,4.15,4.15,0,0,1-4.54,3.8h0c-1.54-.11-15.08-.9-16.88,11.05A4.19,4.19,0,0,1,431.72,497.9Z" style="fill:#db6ba3"/><path d="M485.85,424.35a4.18,4.18,0,0,1-3.81-2.44c-.42-.9-10.08-22.38,2.31-38.61s36.13-12,37.13-11.79a4.19,4.19,0,1,1-1.57,8.23c-.18,0-19.63-3.49-28.89,8.64s-1.44,29.86-1.36,30a4.2,4.2,0,0,1-2.07,5.56A4.14,4.14,0,0,1,485.85,424.35Z" style="fill:#db6ba3"/><path d="M491.15,386a4.19,4.19,0,0,1-2.84-7.27c14.34-13.25,5.55-29.2,5.17-29.87a4.19,4.19,0,0,1,7.26-4.18c4.43,7.66,8.72,25.92-6.74,40.21A4.21,4.21,0,0,1,491.15,386Z" style="fill:#db6ba3"/><path d="M437.84,339a31.81,31.81,0,0,1-16.77-4.6c-22.5-13.62-12.73-44.71-12.3-46a4.19,4.19,0,0,1,8,2.58c-.08.26-8.13,26.11,8.66,36.28,17.15,10.36,39.29-6.78,39.51-6.95a4.19,4.19,0,0,1,5.2,6.58C469.3,327.51,454.53,339,437.84,339Z" style="fill:#db6ba3"/><path d="M508.38,265.05a2.48,2.48,0,0,1-.38,0,4.17,4.17,0,0,1-3.79-4.52A29.91,29.91,0,0,1,516,240.39c9-6.59,21.87-8,38.12-4.3a4.19,4.19,0,1,1-1.88,8.17c-13.71-3.15-24.21-2.19-31.21,2.84a21.39,21.39,0,0,0-8.48,14.16A4.2,4.2,0,0,1,508.38,265.05Z" style="fill:#db6ba3"/><path d="M524.39,244.76a4.44,4.44,0,0,1-1-.12,4.19,4.19,0,0,1-3-5.08A27.48,27.48,0,0,1,531.45,224a4.19,4.19,0,0,1,4.45,7.11,19.1,19.1,0,0,0-7.45,10.43A4.18,4.18,0,0,1,524.39,244.76Z" style="fill:#db6ba3"/><path d="M503.87,298.66c-11.22,0-25.37-4.31-36.26-22-13.63-24-5.75-48.29-4-52.92,4.75-12.78,6-23.57,3.41-28.87a6.7,6.7,0,0,0-4.29-3.63,4.19,4.19,0,0,1,2.48-8,15.17,15.17,0,0,1,9.33,7.94c5,10.17.23,26.6-3.07,35.49-1.49,4-8.33,25.08,3.38,45.73,17,27.57,42.93,15.34,44,14.81a4.19,4.19,0,0,1,3.71,7.52A46.86,46.86,0,0,1,503.87,298.66Z" style="fill:#db6ba3"/><path d="M463.94,250.39a4.2,4.2,0,0,1-4.18-3.87c-.43-5.76-1.93-9.51-4.58-11.48-5.08-3.78-15.44-1.49-25.45.73-9.46,2.1-19.24,4.26-27.58,2.41s-13.88-5.59-16.3-11.05c-3.39-7.67,1-15.47,1.16-15.8a4.19,4.19,0,0,1,7.29,4.13c-.06.11-2.45,4.57-.76,8.31,1.61,3.58,6.56,5.36,10.43,6.23,6.53,1.45,15.39-.51,23.95-2.41,11.85-2.63,24.1-5.34,32.27.72,4.71,3.5,7.3,9.25,7.93,17.58a4.19,4.19,0,0,1-3.86,4.49Z" style="fill:#db6ba3"/><path d="M344.38,311.48a4.19,4.19,0,0,1-1.25-8.19C356.53,299.1,364.56,293,367,285c3.72-12.15-6.65-25.33-6.76-25.46a4.2,4.2,0,0,1,6.54-5.26C367.31,255,380,271,375,287.43c-3.27,10.77-13.16,18.79-29.39,23.86A4.22,4.22,0,0,1,344.38,311.48Z" style="fill:#db6ba3"/><path d="M301.94,404.7a4.19,4.19,0,0,1-2.55-7.52c.16-.13,14.95-11.69,13.82-27.38-.43-6-3.46-10.61-6.67-15.45-5.53-8.35-11.8-17.82-5.1-35a4.19,4.19,0,1,1,7.81,3c-5.12,13.14-1,19.4,4.28,27.33C317,355,321,361,321.57,369.2c1.46,20.27-16.34,34.07-17.09,34.65A4.18,4.18,0,0,1,301.94,404.7Z" style="fill:#db6ba3"/><path d="M254,376.22a4.19,4.19,0,0,1-.67-8.33c1.54-.26,35.37-6.44,48.78-51.58,8.59-28.91-5.59-45.41-6.2-46.1a4.19,4.19,0,0,1,6.24-5.59c.74.82,18,20.47,8,54.08-15,50.46-53.83,57.21-55.48,57.47A4.89,4.89,0,0,1,254,376.22Z" style="fill:#db6ba3"/><path d="M334.94,447.14a4.2,4.2,0,0,1-4.16-3.68c0-.36-3.89-36.24,36.89-47,16.72-4.41,28.81-1.59,38.53.69,13.21,3.08,21.18,5,34.51-11.1a4.19,4.19,0,0,1,6.45,5.35c-16.64,20-29.38,17.07-42.87,13.91-9.28-2.17-19.79-4.63-34.48-.75-33.59,8.87-30.83,36.73-30.7,37.91a4.2,4.2,0,0,1-3.68,4.64Z" style="fill:#db6ba3"/><path d="M411.68,446.44c-9.5,0-19.36-3.44-25.88-14.14C374,413,363,406.25,353.08,412.23a4.19,4.19,0,1,1-4.31-7.19c10.1-6.07,26-7,44.19,22.9,11.33,18.6,35.78,6.08,36.81,5.54a4.19,4.19,0,0,1,3.91,7.42A49.54,49.54,0,0,1,411.68,446.44Z" style="fill:#db6ba3"/><rect x="583.58" width="179.72" height="139.38" rx="19.65" style="fill:#f4dfdf"/><path d="M662.88,56.49H646.09q0-15.54,8.43-20.57a36.87,36.87,0,0,1,19.24-5,40.35,40.35,0,0,1,14.74,2.39,19.42,19.42,0,0,1,9.18,6.87,18.43,18.43,0,0,1,3.11,10.78q0,7.43-3.5,11.63a42.35,42.35,0,0,1-9.24,8A24.45,24.45,0,0,0,681.52,76c-1.47,1.86-2.2,4.51-2.2,7.93H665.7c-.07-.73-.11-1.77-.11-3.14q0-6.7,2.61-10.43a28.51,28.51,0,0,1,7.21-6.92A50.88,50.88,0,0,0,680,59.87a12.81,12.81,0,0,0,2.67-3.47,9.65,9.65,0,0,0,1-4.59,7.39,7.39,0,0,0-2.78-6.24,11.7,11.7,0,0,0-7.35-2.14q-6.6,0-8.64,3.84A19.43,19.43,0,0,0,662.88,56.49Zm.64,52V91.27h18v17.21Z" style="fill:#fff"/><path d="M534.14,194.32a.83.83,0,0,1-.63-1.4l54.88-60.21a.84.84,0,1,1,1.24,1.13l-54.88,60.21A.82.82,0,0,1,534.14,194.32Z" style="fill:#ddd0c0"/><path d="M149.9,156.17s10.47-13.28-4.55-29.52c17.12-33.89,5.07-67.42-13.27-74.06-14.15-4.54-21.31,0-21.31,0s-12.57-8.9-21.31,3.67-3.84,22-11.35,27.44-25,18.67-8.21,43.82c-19.73,15.2-11.7,34.41-9.43,36.16S149.9,156.17,149.9,156.17Z" style="fill:#f4dfdf"/><path d="M128.41,145.9l82.09,24.33,48.21-58.81,22,16.36-45.84,61.05s-12.32,17.55-40.87,11-35.37-9.69-35.37-9.69S166,274.32,186.4,317.51s18.16,140.64,18.16,140.64L60.47,467.93l17-202.08Z" style="fill:#86bbd8"/><path d="M193.33,672.47l-24.25.41.77,15.91,24.23-1C193.58,680.44,193.33,672.47,193.33,672.47Z" style="fill:#dc7265"/><path d="M209.71,712.36c-5-2.47-12.53-7.72-14.46-14.24a7.79,7.79,0,0,1-.24-1,58,58,0,0,1-.93-9.32l-24.23,1,.52,10.52,1,20.27,8.2-.4-.5-14.2s1.55,11.17,10.06,13.73l12.26-.6,9.1-.44,3.86-.19S214.91,715,209.71,712.36Z" style="fill:#29293a"/><path d="M170.41,693a.74.74,0,0,1,0-1.47l23.15-.79a.75.75,0,0,1,.76.71.74.74,0,0,1-.71.76l-23.16.79Z" style="fill:#5d5d75"/><path d="M60.53,673.84,36.4,671.37l-1.12,15.89,24.17,1.92C59.83,681.79,60.53,673.84,60.53,673.84Z" style="fill:#dc7265"/><path d="M72.05,715.41c-4.62-3-11.52-9.16-12.66-15.87a8.28,8.28,0,0,1-.13-1,57.3,57.3,0,0,1,.19-9.36l-24.17-1.92-.74,10.5L33.11,718l8.19.58,1.2-14.16s.2,11.27,8.35,14.83l12.24.86,9.09.65L76,721S76.9,718.6,72.05,715.41Z" style="fill:#29293a"/><path d="M58.51,693.45h-.06l-23.09-2a.73.73,0,0,1,.12-1.46l23.09,2a.74.74,0,0,1,.67.8A.73.73,0,0,1,58.51,693.45Z" style="fill:#5d5d75"/><path d="M147.08,267.42s41.41,228.64,46.65,410.78c-15.72,5-32.95,4-32.95,4s-37.26-110.32-27.3-168c5.24-20.43-28.3-115.27-28.3-115.27L60.47,677.69l-37.55-4.82s2.1-72.72,0-105.21,7.33-50.83,20.43-69.16c0-17.3-13.62-51.88-13.62-51.88l54.41-179.2Z" style="fill:#1d2f6f"/><path d="M128.41,145.9l26.38,32.45s20.05,22-7.71,32.75c-11.24,23.31,8.4,59.47,8.4,59.47s-39.82,12.31-72.3,5c5.24-44,15.14-130.85,15.14-130.85Z" style="fill:#f88dad"/><path d="M98.32,144.69c-20.91,2.74-35.87,3.53-47.77,23.44S7.46,237.29,7.46,237.29-5.64,256.68,9,280s23.58,39.82,23.58,39.82S-4.15,382,.39,467.93c25.15.7,60.08,0,60.08,0S85.33,363.31,86.61,309.34,110,192.06,98.32,144.69ZM54.21,285.59,36.54,252.23l31.79-47.51S82.19,236.51,54.21,285.59Z" style="fill:#86bbd8"/><path d="M98.32,144.69a37.81,37.81,0,0,1,.11-3.9l1.27-39.73s14.57-2.12,26.1,7.64c.78,24.4,1.27,37.06,2.61,37.2a22.32,22.32,0,0,1-13.92,12A32.11,32.11,0,0,1,98.32,144.69Z" style="fill:#c46058"/><path d="M95.36,75.64s5.62,55.51,31.23,55.51c15.66,0,22.45-10,20-52.46C145,60.27,126.71,59.91,119.52,59.3S95.73,62.54,95.36,75.64Z" style="fill:#dc7265"/><path d="M86.61,97.31a8.73,8.73,0,0,0,8.56,8.7c4.36,0,5.56-3.67,5.56-8.7S97.2,88.2,92.84,88.2,86.61,92.28,86.61,97.31Z" style="fill:#dc7265"/><path d="M119.49,94.36c.16,2.52,1.44,4.48,2.86,4.39s2.46-2.19,2.3-4.7-1.43-4.48-2.85-4.39S119.34,91.85,119.49,94.36Z" style="fill:#5b2222"/><path d="M137.42,93.11c.15,2.51,1.29,4.49,2.55,4.41s2.14-2.17,2-4.68-1.29-4.49-2.55-4.42S137.27,90.6,137.42,93.11Z" style="fill:#5b2222"/><path d="M124.75,85.33a20.22,20.22,0,0,0-7.82.65,1.48,1.48,0,0,1-1.68-.64c-.27-.46-.5-.83-.71-1.14a1.23,1.23,0,0,1,.78-1.88,23.12,23.12,0,0,1,10.16-.65,1.29,1.29,0,0,1,1.09,1.51c-.1.38-.18.75-.24,1.1A1.41,1.41,0,0,1,124.75,85.33Z" style="fill:#f4dfdf"/><path d="M142,85.48a12.5,12.5,0,0,0-7.37-2,1.12,1.12,0,0,1-1.15-1.26,12.15,12.15,0,0,1,.27-1.42,1.09,1.09,0,0,1,1-.82,11.33,11.33,0,0,1,9.11,3.41,1.11,1.11,0,0,1,0,1.49c-.16.19-.32.35-.47.5A1.11,1.11,0,0,1,142,85.48Z" style="fill:#f4dfdf"/><path d="M131.49,113.55h-.36c-2.61-.12-5.1-1.47-7.41-4A.84.84,0,0,1,125,108.4c2,2.19,4.07,3.36,6.21,3.46a7.22,7.22,0,0,0,4.85-1.68.84.84,0,0,1,1.19,0,.85.85,0,0,1-.05,1.19A9,9,0,0,1,131.49,113.55Z" style="fill:#914e49"/><path d="M133.32,106.19h0a7.26,7.26,0,0,1-3.64-.71.84.84,0,0,1-.26-1.16.85.85,0,0,1,1.16-.26h0a6.3,6.3,0,0,0,2.75.45,3.08,3.08,0,0,0,2.7-1.38c.22-.63-.38-1.3-.93-1.75-3.25-2.65-4.83-8.75-4.9-9a.84.84,0,0,1,1.63-.41c0,.05,1.51,5.82,4.33,8.12,1.84,1.51,1.7,2.91,1.45,3.61C137,105.26,135,106.19,133.32,106.19Z" style="fill:#914e49"/><path d="M95.67,87.14S121.59,85.38,126,63.72c16.19,16.33,23,14.42,23,14.42s.33-29.45-37.82-23.31C83.5,60,95.67,87.14,95.67,87.14Z" style="fill:#f4dfdf"/><path d="M276.52,125.37l-16.1-12.15s17.65-19,23.24-20a10.06,10.06,0,0,1,10.45,5,9.31,9.31,0,0,1,.78,7.72,8,8,0,0,1-5.47,4.89c-2.71.82-5.06,1.72-6.63,4.28Z" style="fill:#dc7265"/><polygon points="251.01 55.4 309.17 146.05 367.68 110.47 310.92 21.34 251.01 55.4" style="fill:#f4dfdf"/><path d="M263.2,47.18l2.59,3.72a10.32,10.32,0,0,0,13.42,3.17l18.25-9.93a10.33,10.33,0,0,0,4.28-13.74l-2-3.88Z" style="fill:#ad8c8c"/><path d="M275.73,100.54s12.47-4.31,15.08-1.13c.69,1.28-7.88,5.41-7.88,5.41l-6.41,4Z" style="fill:#dc7265"/><path d="M273.09,118.31a.86.86,0,0,1-.59-.24.84.84,0,0,1,0-1.19,10.05,10.05,0,0,0,3.25-5.88,7.41,7.41,0,0,1,1.52-3.54c.94-1.11,3.4-2.39,6.24-3.86,2.31-1.2,6.12-3.18,6.5-4.09a1.22,1.22,0,0,1-.25-.11c-3.21-1.38-10.6.68-13.17,1.6a.86.86,0,0,1-1.07-.51.84.84,0,0,1,.51-1.07c.4-.15,9.91-3.49,14.39-1.56a1.79,1.79,0,0,1,1.29,1.55c.06,1.7-2.78,3.26-7.42,5.67-2.35,1.22-5,2.6-5.73,3.46a5.7,5.7,0,0,0-1.17,2.82,11.78,11.78,0,0,1-3.7,6.7A.82.82,0,0,1,273.09,118.31Z" style="fill:#9e5452"/><path d="M72.73,334.7s18.69,20.08,16.85,22.21c-1.36,1.57-7.94-3.36-11.25-6-.6-.48-1.33.1-1.06.84,1,2.78,2.8,7.71,5.13,13.61,1,2.47-.44,5-2.8,5.1C67.54,371,59.75,359.62,55,348.3c0,0-4.4-9.92,3.93-15.71,7.66-5.33,13.82,2.11,13.82,2.11Z" style="fill:#dc7265"/><path d="M80.34,370.58a.84.84,0,0,1-.7-.37c-2.59-3.82-6.53-12.91-6.7-13.3a.85.85,0,0,1,.44-1.1.83.83,0,0,1,1.1.44c0,.09,4,9.33,6.55,13a.85.85,0,0,1-.22,1.17A.92.92,0,0,1,80.34,370.58Z" style="fill:#9e5452"/><path d="M76.09,370.51a.84.84,0,0,1-.68-.34C72.73,366.5,69,358.3,68.81,358a.84.84,0,0,1,.42-1.11.83.83,0,0,1,1.11.42c0,.08,3.84,8.39,6.42,11.92a.83.83,0,0,1-.18,1.17A.82.82,0,0,1,76.09,370.51Z" style="fill:#9e5452"/><path d="M71.34,368.93a.82.82,0,0,1-.55-.21c-1.72-1.53-5.16-7.39-5.55-8.05a.83.83,0,0,1,.3-1.14.85.85,0,0,1,1.15.3c1,1.73,3.93,6.49,5.21,7.63a.84.84,0,0,1,.07,1.19A.87.87,0,0,1,71.34,368.93Z" style="fill:#9e5452"/><path d="M126.22,215a85.05,85.05,0,0,1-22.33-2.91.84.84,0,1,1,.49-1.6c.22.06,21.72,6.46,42.45-.18a.83.83,0,1,1,.51,1.59A69.34,69.34,0,0,1,126.22,215Z" style="fill:#c45b7e"/><path d="M68.33,205.56a.85.85,0,0,1-.77-.5c-.26-.61-6.44-14.87-6.44-25.14a.84.84,0,1,1,1.67,0c0,9.92,6.25,24.32,6.31,24.46a.84.84,0,0,1-.43,1.11A.83.83,0,0,1,68.33,205.56Z" style="fill:#488daf"/><path d="M36.54,253.07a.86.86,0,0,1-.72-.41L26.65,237.2a.85.85,0,0,1,.3-1.15.83.83,0,0,1,1.14.29l9.17,15.46A.83.83,0,0,1,37,253,.82.82,0,0,1,36.54,253.07Z" style="fill:#488daf"/><path d="M48.86,350.26a.84.84,0,0,1-.74-.43c-5.24-9.43-16.24-29.61-16.24-29.61l1.47-.8s10.45,19.16,15.83,28.86c8.61-4.95,21.45-17.33,23.92-19.74l-19.65-42.6a.84.84,0,0,1,1.53-.7l19.89,43.14a.83.83,0,0,1-.17.94c-.64.64-15.76,15.61-25.44,20.84A.85.85,0,0,1,48.86,350.26Z" style="fill:#488daf"/><path d="M105.19,401.35h-.13a.84.84,0,0,1-.71-.95l15.72-106.11a.85.85,0,0,1,1-.7.84.84,0,0,1,.71.95L106,400.63A.84.84,0,0,1,105.19,401.35Z" style="fill:#4660aa"/><path d="M141.34,531.82a.83.83,0,0,1-.81-.63l-7.81-29.81a.84.84,0,1,1,1.62-.42l7.81,29.81a.83.83,0,0,1-.6,1Z" style="fill:#4660aa"/><path d="M45.19,522.39a.85.85,0,0,1-.84-.78l-1.89-24.87a.84.84,0,1,1,1.67-.13L46,521.49a.82.82,0,0,1-.77.89Z" style="fill:#4660aa"/><path d="M224.91,175.52a.77.77,0,0,1-.25,0L210.25,171a.84.84,0,0,1-.55-1.05.82.82,0,0,1,1.05-.55l14.41,4.45a.84.84,0,0,1-.25,1.64Z" style="fill:#488daf"/><path d="M87.54,276.47a.84.84,0,0,1-.84-.8l-3-70.92a.81.81,0,0,1,.43-.76l15-8.2-15-8.68a.86.86,0,0,1-.39-1l10.79-40.33a.84.84,0,0,1,1.63.44L85.55,186l15.7,9.11a.84.84,0,0,1,.42.73.87.87,0,0,1-.44.73l-15.8,8.65,2.95,70.4a.84.84,0,0,1-.8.87Z" style="fill:#488daf"/><path d="M147.85,170.66a.83.83,0,0,1-.79-.58l-6.71-20.14a.84.84,0,0,1,1.6-.53l6.7,20.15a.84.84,0,0,1-.53,1.06A1.26,1.26,0,0,1,147.85,170.66Z" style="fill:#488daf"/><path d="M148.5,253.07h-.12a.84.84,0,0,1-.71-.95l5.94-43.31a.84.84,0,1,1,1.66.23l-5.94,43.31A.85.85,0,0,1,148.5,253.07Z" style="fill:#488daf"/><path d="M45.8,333.27,68,322.18l2,9.23s-12.84,12.45-17.94,15.07C48.86,342.94,45.8,333.27,45.8,333.27Z" style="fill:#86bbd8"/><path d="M151.47,298.65c-12.49,0-14.78-22-14.87-22.94a.84.84,0,0,1,1.67-.16c0,.22,2.22,21.42,13.2,21.42a.84.84,0,0,1,0,1.68Z" style="fill:#4660aa"/></g></g></svg>