<svg xmlns="http://www.w3.org/2000/svg" viewBox="0 0 658.09 700.69"><g id="Layer_2" data-name="Layer 2"><g id="_Layer_" data-name="&lt;Layer&gt;"><path d="M307.47,255.68s20.34-18.41,22.44-16.54c1.56,1.38-3.46,7.89-6.17,11.16a.69.69,0,0,0,.82,1.08c2.79-1,7.76-2.7,13.69-4.95,2.47-.94,5,.51,5.05,2.88.36,12.06-11.08,19.7-22.47,24.3,0,0-10,4.27-15.65-4.14-5.23-7.73,2.29-13.79,2.29-13.79Z" style="fill:#ff977b"/><path d="M329.36,255.84a.84.84,0,0,1-.32-1.62c.09,0,9.39-3.91,13.11-6.36a.85.85,0,0,1,1.17.23.86.86,0,0,1-.24,1.17c-3.86,2.54-13,6.35-13.39,6.51A.78.78,0,0,1,329.36,255.84Z" style="fill:#c46f6a"/><path d="M330.33,260a.82.82,0,0,1-.76-.51.83.83,0,0,1,.42-1.1c.09,0,8.45-3.73,12-6.26a.84.84,0,0,1,1,1.37c-3.7,2.63-12,6.27-12.3,6.42A.81.81,0,0,1,330.33,260Z" style="fill:#c46f6a"/><path d="M332.93,263.64a.84.84,0,0,1-.73-.43.84.84,0,0,1,.31-1.14c1.76-1,6.55-3.85,7.72-5.11a.82.82,0,0,1,1.18,0,.84.84,0,0,1,0,1.18c-1.55,1.69-7.45,5.06-8.12,5.44A.87.87,0,0,1,332.93,263.64Z" style="fill:#c46f6a"/><path d="M312.18,243.18l-82.27,3.93s-1.78-6.4-4.31-15.84a344.2,344.2,0,0,0-31.18,27.84c9.87,22,31,20.23,31,20.23s59.73-1.84,86.72-4.19C314.54,267.55,312.18,243.18,312.18,243.18Z" style="fill:#1d2f6f"/><path d="M176.47,273.57s-61.13-10.3-105.84-1.22a103.82,103.82,0,0,0-11.28,12.58H178.6Z" style="fill:#f4dfdf"/><path d="M178.6,284.93H59.35C15.21,342.58,31.1,441.17,35,456.09c4.19,16.07,4.19,38.43-17.47,80.34S.42,653.11.42,653.11l54.14,4.19s54.49-178.15,70.91-225c17.12,55.19,31.41,63.05,27.92,83.31C140.82,576.43,179.61,651,179.61,651h67.77Z" style="fill:#f6ae2d"/><path d="M125.47,433.18l-.2,0a.83.83,0,0,1-.61-1l27.92-113.7a.83.83,0,0,1,1-.62.85.85,0,0,1,.62,1l-27.92,113.7A.84.84,0,0,1,125.47,433.18Z" style="fill:#b77711"/><path d="M332.26,187.82s-11.73,6.29-4.29,17.11L73.25,398.28s-27.75,23.81-7.51,52.26c9.45,13.3,22,14.79,32.1,13A46.5,46.5,0,0,0,121.54,451L349,231.88s7.75,12.88,18.92-1.8C367.19,208.78,332.26,187.82,332.26,187.82Z" style="fill:#f4dfdf"/><path d="M214.54,679c-1.94-7.28-6.28-38.48-6.28-38.48H176.47l11.68,39.72L214.9,680A8.18,8.18,0,0,1,214.54,679Z" style="fill:#ff977b"/><path d="M233.32,692.62c-5.26-2.72-15.77-6-18.42-12.63l-26.75.26,3.24,20.44H201.8c-.06-1,0-2.46,1.15-2.46s1.54,1.43,1.75,2.46h33.69A8.74,8.74,0,0,0,233.32,692.62Z" style="fill:#29293a"/><path d="M216.05,683.77h0l-27.15-.07a.74.74,0,0,1,0-1.47h0l27.16.08a.73.73,0,1,1,0,1.46Z" style="fill:#5d5d75"/><path d="M27,679c-.79-7.28,4.15-34.64,4.15-34.64L.42,640.53v39.72L27.2,680A7.73,7.73,0,0,1,27,679Z" style="fill:#ff977b"/><path d="M43.62,692.62c-4.83-2.72-14.81-6-16.42-12.63l-26.78.26v20.44h10.4c.09-1,.41-2.46,1.54-2.46s1.32,1.43,1.36,2.46h33.7A7.46,7.46,0,0,0,43.62,692.62Z" style="fill:#29293a"/><path d="M27.87,683.77h0L.73,683.7a.74.74,0,0,1,0-1.47h0l27.14.08a.73.73,0,1,1,0,1.46Z" style="fill:#5d5d75"/><path d="M120,343.25s19.51,19.29,17.77,21.49c-1.3,1.63-8.07-3-11.49-5.54-.62-.46-1.33.15-1,.88,1.11,2.73,3.12,7.59,5.7,13.39,1.07,2.42-.23,5-2.59,5.21-12,1-20.29-10-25.52-21.09,0,0-4.81-9.73,3.27-15.86,7.43-5.65,13.89,1.52,13.89,1.52Z" style="fill:#f48369"/><path d="M129.06,378.79a.82.82,0,0,1-.67-.34c-2.76-3.71-7.07-12.63-7.25-13a.83.83,0,1,1,1.5-.73c0,.09,4.43,9.16,7.09,12.74a.83.83,0,0,1-.17,1.17A.88.88,0,0,1,129.06,378.79Z" style="fill:#c46f6a"/><path d="M124.81,378.9a.84.84,0,0,1-.66-.32c-2.83-3.55-6.92-11.59-7.1-11.93a.84.84,0,0,1,1.5-.76c0,.08,4.19,8.22,6.91,11.65a.83.83,0,0,1-.13,1.17A.8.8,0,0,1,124.81,378.9Z" style="fill:#c46f6a"/><path d="M120,377.52a.83.83,0,0,1-.53-.2c-1.77-1.45-5.46-7.15-5.87-7.8a.83.83,0,1,1,1.4-.91c1.09,1.7,4.21,6.33,5.53,7.42a.84.84,0,0,1-.53,1.49Z" style="fill:#c46f6a"/><path d="M209.74,163a60.55,60.55,0,0,0-21-37.35l-36-17.46-37.21-3.61s-19.81,5-41.3,9.69-28.12,36.5-28.12,36.5S35,192.36,30.46,225.54s2.44,40.57,2.44,40.57,48.9,74,62.88,93c6.28-2.27,29-19.59,29-19.59l-30.34-66h82l3.14-54s4.72,15.71,14.41,38.67c.13.3.27.54.4.83a344.2,344.2,0,0,1,31.18-27.84C220.39,211.78,212,179.26,209.74,163Z" style="fill:#1d2f6f"/><path d="M94.47,274.41a.83.83,0,0,1-.75-.45L74.07,236.18a.84.84,0,0,1,.36-1.13.83.83,0,0,1,1.13.35l19.65,37.79a.83.83,0,0,1-.74,1.22Z" style="fill:#4660aa"/><path d="M73.25,261.06h0a.83.83,0,0,1-.79-.88c.14-2.75,3.46-67.58,7.37-80.37a.85.85,0,0,1,1-.56.84.84,0,0,1,.55,1c-3.85,12.59-7.26,79.3-7.3,80A.84.84,0,0,1,73.25,261.06Z" style="fill:#4660aa"/><path d="M94.47,203.94a.8.8,0,0,1-.58-.24c-16-15.5-17.8-43.76-17.81-44a.85.85,0,0,1,.79-.89h0a.84.84,0,0,1,.84.79c0,.28,1.75,27.89,17.3,42.94a.84.84,0,0,1-.58,1.44Z" style="fill:#4660aa"/><path d="M179.61,220.44a.84.84,0,0,1-.84-.83V201.53a.84.84,0,0,1,1.68,0v18.08A.84.84,0,0,1,179.61,220.44Z" style="fill:#4660aa"/><path d="M173.85,205.77a.83.83,0,0,1-.82-.67.85.85,0,0,1,.64-1c.21-.05,11.5-3.24,20.58-42.59a.85.85,0,0,1,1-.63.84.84,0,0,1,.63,1c-9.45,40.93-21.37,43.76-21.88,43.87Z" style="fill:#4660aa"/><path d="M147.39,136.35a.81.81,0,0,1-.34-.08c-6.44-2.86-9.78-10.8-11.08-14.76-1.67,3.39-5.69,9.68-13.12,11.66a.85.85,0,0,1-.89-.3c-6.11-8-7.17-27.41-7.21-28.23a.85.85,0,0,1,.8-.88.86.86,0,0,1,.88.79c0,.2,1,19,6.53,26.85,8.88-2.72,12.34-12.53,12.37-12.63a.9.9,0,0,1,.83-.57.84.84,0,0,1,.78.65c0,.12,2.86,11.81,10.19,15.61C154.92,123.84,152,110,152,109.88a.84.84,0,0,1,.64-1,.83.83,0,0,1,1,.64c.13.62,3.22,15.19-5.57,26.5A.84.84,0,0,1,147.39,136.35Z" style="fill:#4660aa"/><path d="M137.87,273.19a.84.84,0,0,1-.84-.83c0-.21-.2-21.14-2.38-40.39-1.32-11.66,1.6-17.67,4.41-23.48,1.91-4,3.72-7.69,3.95-13,2.28-25.48-6.83-73.18-6.92-73.66a.83.83,0,0,1,.66-1,.84.84,0,0,1,1,.66c.1.48,9.25,48.42,7,74.09-.24,5.64-2.12,9.52-4.11,13.64-2.71,5.59-5.52,11.38-4.25,22.56,2.19,19.34,2.38,40.36,2.38,40.57a.82.82,0,0,1-.83.84Z" style="fill:#4660aa"/><circle cx="431.46" cy="142.47" r="110.56" transform="translate(193.66 529.65) rotate(-76.72)" style="fill:#f4dfdf"/><circle cx="431.46" cy="142.47" r="71.93" transform="translate(-11.94 43.21) rotate(-5.65)" style="fill:#fff"/><path d="M44.08,520.16a.85.85,0,0,1-.84-.77c0-.42-3.52-41.89-7.11-51.82a.84.84,0,0,1,1.58-.57c3.66,10.13,7.06,50.53,7.2,52.25a.82.82,0,0,1-.76.9Z" style="fill:#b77711"/><path d="M633.45,462.31c-20.39-24.69-22-28.87-18.35-36.15s12.91-33.06-.68-57.3-60-103.84-199.84-90.62c-111.18,10.58-127,140.21-106.5,177.83,26,47.59,57.3,63,59.82,87,3,28.41-5.21,84.26-8.43,118.7h0v0c-.09,1-.18,1.9-.26,2.83C358.5,671,356,687.1,348,700.69H521.53c-5.77-8.7-9-18.34-10.31-29.9-1.76-12.84-4.58-28.38,2.6-32.37,12.69-7,71.14,24.24,92.89,11s-1.36-48.93,2.72-56.43,6.8-9,13.6-9,14.27-12.12,1.58-19.4c8.16-5.07,8.16-13.22-.9-17.41s-11.79-18.07-2.27-20.94,29.23-8.9,34.89-18.89S653.84,487,633.45,462.31Z" style="fill:#f4dfdf"/><path d="M490.89,506.57c-10.61,0-20.54-4.43-30.18-8.72-2.1-.94-4.24-1.89-6.39-2.8a26.81,26.81,0,0,1-14.44,5.36c-9,.44-17.43-4.58-20.22-12-.09-.25-.18-.5-.26-.76a125.31,125.31,0,0,0-28.74,2.87c-7.14,1.51-19.09,4.05-25.45-3.39-2-2.35-3.21-5.54-3.66-9.75-.1-.9-.16-1.79-.2-2.68-1.93-9.19-8.31-15-15.06-21.22-6.44-5.91-13.11-12-16.19-21.37-4.68-14.17-1.94-29.23.47-42.52,1.11-6.08,2.25-12.36,5.32-18.09,2.94-5.49,7.35-9.89,11.61-14.15L384,320.92c3.8-3.79,8.52-8.51,14.78-10.25s12.44-.26,18.48,1.16c2.61.61,5.3,1.24,7.88,1.58,10.17,1.34,20.51-1.63,30.51-4.5,1.72-.49,3.44-1,5.14-1.46,11.26-3.09,25.74-5.84,37.95.39a57.84,57.84,0,0,1,9,6.12,54,54,0,0,0,8.22,5.62c5.88,3,12.61,3.84,19.74,4.67,7.75.92,15.77,1.86,22.62,6,9,5.44,13.7,14.65,18.46,25.24,1.12,2.51,2.28,5.1,3.44,7.75a18.52,18.52,0,0,1,9.9,3.71c6.12,4.82,7.22,12.85,7.49,20.07.26,7-.12,15.45-5,21.44a62.8,62.8,0,0,1-.94,13.3c-2.29,12.55-8.78,23.92-14.17,32.42-3.4,5.34-7.53,11.37-13.63,15.37a48.3,48.3,0,0,1-9.49,4.54.5.5,0,0,1,0,.13c-2,7.85-6.62,13.3-12.53,15a17.37,17.37,0,0,1-12.11-1.32L527,490c-9.77,7.5-19.86,15.26-32.68,16.44Q492.57,506.57,490.89,506.57Zm-33-14.56c1.53.66,3.06,1.34,4.56,2,10.63,4.74,20.63,9.2,31.48,8.22,11.6-1.06,20.78-8.12,30.5-15.58l1.32-1a87.74,87.74,0,0,1-7.93-5.82c-4.73-3.75-10.88-8.19-18-10.78l-6.15,6.62c-4.69,5.05-9.44,9.66-16,10.68-4.21.65-8.69-.3-13.32-2.83a57.92,57.92,0,0,1-3.86,5.63A33.41,33.41,0,0,1,457.86,492ZM424,487.84c2.49,5.18,9.15,8.76,15.68,8.38a21.93,21.93,0,0,0,9.89-3.08l-1.6-.58A89.21,89.21,0,0,0,424,487.84Zm-1.17-4.26a93.85,93.85,0,0,1,26.54,5c1.42.51,2.85,1,4.27,1.63a28.8,28.8,0,0,0,3.54-3.69,54.57,54.57,0,0,0,3.59-5.26c-.74-.51-1.47-1.07-2.21-1.66-1.54-1.24-3-2.56-4.5-3.87-3.26-2.91-6.35-5.65-10-7.55-6-3.1-12.94-3.61-20-3.37a45.69,45.69,0,0,1-.64,9.51A38.15,38.15,0,0,0,422.8,483.58Zm-65.08-55.27.81.73c4.42,3.94,9,8,10.39,14,1,4.36,0,8.79-.85,12.69-1.71,7.61-3.08,14.46-2.36,21.24.37,3.39,1.21,5.77,2.68,7.48,4.38,5.11,13,3.8,21.4,2a130,130,0,0,1,28.78-3,44.16,44.16,0,0,1,.62-9.68,41.93,41.93,0,0,0,.6-8.74l-4.3.3c-2.19.17-4.36.32-6.51.43-7,.34-19.37-.42-23.67-9.47-2.43-5.13-1.3-11.69,3.09-18,1.28-1.85,2.73-3.59,4.15-5.26A13.92,13.92,0,0,0,391,430c-3-4.35-9-5.71-13.81-5.57a58.74,58.74,0,0,0-12.35,2.26c-1.51.4-3,.79-4.55,1.13C359.49,428,358.61,428.16,357.72,428.31Zm176,56.55a12,12,0,0,0,7,.26c4.76-1.34,7.37-5.77,8.7-9.16-1,.38-1.95.78-2.9,1.21A74.16,74.16,0,0,0,533.76,484.86Zm-30.91-19.12c7,2.83,12.91,7.13,17.55,10.81a70.15,70.15,0,0,0,8.94,6.36,83.84,83.84,0,0,1,15.47-9.56c2-.89,4-1.66,6.05-2.42a36.26,36.26,0,0,0-.16-14.6,39.45,39.45,0,0,1-17.44-1.92l-1.78-.58c-4.07-1.35-7.91-2.62-11.63-2-4.53.79-8,4.21-11.79,8.27Zm-36.36,14.19c3.19,1.7,6.82,2.84,10.47,2.28,5.25-.81,9.42-4.9,13.59-9.39l4.74-5.11c-8.3-1.9-16.72-.4-22.1,4A32.06,32.06,0,0,0,466.49,479.93Zm-39.58-19.35c6.6,0,13.08.83,19,3.89,4.14,2.15,7.57,5.2,10.89,8.15,1.43,1.27,2.86,2.54,4.34,3.73.55.45,1.15.9,1.78,1.35a36,36,0,0,1,7.6-9.26c6.65-5.41,16.54-7.14,26.51-4.62l1.48.41,6.46-7c3.31-3.57,7.85-8.45,14.14-9.55,4.75-.82,9.28.67,13.66,2.12l1.75.57c2.54.81,8.93,2.56,15,1.86-.54-1.63-1.16-3.29-1.77-4.9-2-5.39-4.1-10.93-3.52-16.55a38.69,38.69,0,0,1-4.14.22h0c-1.48,0-3-.06-4.5-.12-5.44-.2-10.56-.4-14.61,2-3.47,2.08-5.61,5.82-7.87,9.77-2.87,5-5.83,10.16-11.77,12.11-6.24,2.05-12.58-.58-18.54-3.45L465.52,443c-4.23-2-8.59-4.14-13.18-4.92-4.85-.83-9.33,0-12.27,2.4a22.77,22.77,0,0,0-4.12,4.91c-1.68,2.41-3.41,4.91-6.15,6.62a15.94,15.94,0,0,1-8.64,2.23,29.86,29.86,0,0,0,1.1,3.41c.35,1,.7,2,1,3C424.47,460.61,425.69,460.58,426.91,460.58Zm127.87-5.21a40.16,40.16,0,0,1,.6,13.82,37,37,0,0,0,6.25-3.17c5.41-3.55,9.23-9.15,12.39-14.12,5.19-8.18,11.43-19.08,13.58-30.93a56.69,56.69,0,0,0,.89-8.79,43.45,43.45,0,0,1-6.8,3.45c-3.2,1.39-6.21,2.71-8.38,4.9-3.46,3.5-4.25,8.63-5.09,14.06-.88,5.67-1.78,11.53-5.85,16A17.63,17.63,0,0,1,554.78,455.37Zm-150-141.3a18,18,0,0,0-4.91.64c-5.21,1.45-9.32,5.55-12.94,9.17l-36.5,36.44c-4.05,4-8.23,8.22-10.89,13.17-2.75,5.14-3.83,11.09-4.88,16.85-2.33,12.8-5,27.3-.62,40.45,2.74,8.33,8.72,13.8,15,19.6,4.73,4.33,9.57,8.77,12.87,14.48.49-3.28,1.21-6.62,2-10.1s1.67-7.39.86-10.8c-1.11-4.66-5-8.13-9.11-11.81-1.3-1.15-2.61-2.33-3.87-3.57a13.94,13.94,0,0,1-3.44-.79c-6-2.25-8.9-8.59-9.13-13.87-.37-8.65,3.91-18.31,11.16-25.22,1.51-1.43,3.16-2.78,4.83-4.12,4.07-3.31,7.93-6.44,9.61-11a27.28,27.28,0,0,0,1.21-8.39,34.6,34.6,0,0,1,1.14-8.73c2.44-8,10.75-14.35,21.17-16.27a59.26,59.26,0,0,1,14.75-.56,28.6,28.6,0,0,1,6.61-5.88c14.85-9.57,34.36-9.65,53.22-9.72h1.2a35.56,35.56,0,0,1,9.5-4.06c16.18-4.06,31.91,6.75,38.48,19,.74,1.37,1.42,2.8,2.1,4.24l.18.39c5.55-1.52,11.77-1.47,18.17-1.21a12.23,12.23,0,0,1,5.27,1.05c3.11,1.61,4.2,4.91,5.08,7.55l.42,1.26a18.65,18.65,0,0,0,3.55,6.08,20.85,20.85,0,0,1,7.6,4.85,25,25,0,0,0,6.66.78c.48-1.89,1.12-3.83,1.75-5.74,1.78-5.43,3.63-11,.93-13.11l1.64-2.14a30.24,30.24,0,0,0-9.35-9.19c-6.07-3.65-13.3-4.5-20.95-5.4-7.19-.85-14.62-1.72-21.17-5.11a58.63,58.63,0,0,1-8.87-6,53.31,53.31,0,0,0-8.36-5.7c-10.93-5.57-24.41-3-34.92-.07-1.7.46-3.4.95-5.1,1.44-10.42,3-21.19,6.09-32.22,4.63-2.79-.37-5.58-1-8.29-1.66A51.2,51.2,0,0,0,404.82,314.07ZM394,437.79c-.78.95-1.51,1.9-2.2,2.89-1.66,2.39-5.25,8.51-2.74,13.82,3.37,7.1,14.88,7.32,19.67,7.07,2.12-.1,4.26-.26,6.41-.41,1.25-.1,2.5-.19,3.76-.27q-.3-.88-.63-1.77a26.74,26.74,0,0,1-1.48-5.18c-.77-.11-1.57-.26-2.4-.43-6.41-1.34-14.88-4.46-18.75-11.68A23.14,23.14,0,0,1,394,437.79Zm154.58-7.7c-1,5,1,10.27,3.12,15.82.67,1.78,1.36,3.62,2,5.46a13.27,13.27,0,0,0,5.57-3.6c3.23-3.54,4-8.53,4.81-13.82.91-5.85,1.85-11.9,6.26-16.36,2.73-2.77,6.27-4.31,9.68-5.8,3-1.29,5.73-2.5,7.88-4.4l.51-.48c-.79-13.74-5.73-27.38-11-39.66-2.49,0-5.28.21-8.07.46-1.55.14-3.11.28-4.67.37a8.56,8.56,0,0,0,.09,3,64.32,64.32,0,0,0,3.64,9.92c3,7,6.09,14.2,3.57,21.64a21.21,21.21,0,0,1-5.45,8.22,11.06,11.06,0,0,1-.34,5.32C563.86,423.77,556.58,428.27,548.62,430.09Zm-94.76,4.05c4.84,1,9.23,3.08,13.48,5.12l17.32,8.33c5.19,2.5,10.65,4.81,15.41,3.25,4.41-1.45,6.85-5.71,9.44-10.22,2.44-4.24,5-8.63,9.36-11.27,5.12-3.07,11.13-2.83,16.93-2.61,1.45.06,2.91.12,4.33.12h0a33.82,33.82,0,0,0,5.16-.41c2.17-5.72,7.14-9.56,11.94-13.28,1.57-1.21,3.1-2.4,4.51-3.62-.12-.26-.25-.52-.4-.78a21,21,0,0,0-7.05-6.91c-4.35,1.2-9.37-.05-13.3-1-5.42-1.34-13.3-2.75-19.06.58-2.62,1.52-4.87,4.05-7.05,6.5-3.68,4.13-7.49,8.41-13.53,8.75-4.11.24-7.53-1.43-10.48-3.9-1.18.79-2.35,1.59-3.51,2.39L470.07,427C465.88,429.85,460.27,433.68,453.86,434.14Zm-32.93,15.95a11.89,11.89,0,0,0,6.65-1.59c2-1.26,3.42-3.3,4.93-5.46a26.33,26.33,0,0,1,4.93-5.79,17.93,17.93,0,0,1,10.84-3.62,22.13,22.13,0,0,1-13.35-10.78c-.32-.58-.62-1.15-.9-1.74-3.54,1.29-6.53,3.13-8.29,6.12-1.3,2.21-1.77,4.94-2.23,7.57l-2.06,11.82C421.25,447.77,421.05,448.94,420.93,450.09ZM397.26,434l.24.83a26.86,26.86,0,0,0,1.87,5.07c3.11,5.8,10.38,8.4,15.92,9.56.51.1,1,.2,1.47.28.13-1.32.35-2.59.56-3.79l2.06-11.82c.5-2.86,1.06-6.1,2.75-9,2.36-4,6.09-6.36,10.36-7.92A58.09,58.09,0,0,1,430.2,404l0-.47c-.09-1.15-.18-2.3-.32-3.44-2.19,3.73-4.73,7.29-8.72,9.56-5,2.84-11.42,3-18.4.58,3.27,5,2.27,11.77-.43,16.68A45.19,45.19,0,0,1,397.26,434Zm40.84-14.07c.15.31.31.61.48.91,3,5.39,8.34,9,13.53,9.19s10.25-2.81,15.6-6.46L485,411.69l2.81-1.9c-1.42-1.54-2.74-3.19-4-4.77l-1.48-1.83a54.75,54.75,0,0,0-20.39-15.26,68.75,68.75,0,0,1,.26,14.92c-.14,2.34-.33,5.56-2,8.24-2.44,3.88-7.07,5.41-10.35,6.22-1.85.46-3.79.86-5.75,1.26S440.05,419.39,438.1,419.88Zm-60.05.31c7.16,0,13.26,2.73,16.45,7.41a14.28,14.28,0,0,1,1.05,1.8,33.24,33.24,0,0,0,3.07-4.51c2.27-4.14,3.08-9.9-.24-13.42a18.46,18.46,0,0,0-4.23-3c-.81-.47-1.62-.94-2.39-1.45a23.63,23.63,0,0,1-6.87-7c-4.94-3.26-10.08-6.14-15.74-6.69a19.76,19.76,0,0,0-18.28,8.58,18,18,0,0,0,.22,19.36,25.55,25.55,0,0,0,2.63,3.26,26.82,26.82,0,0,0,5.68-.79c1.48-.34,3-.72,4.43-1.1a61.2,61.2,0,0,1,13.26-2.39C377.42,420.19,377.74,420.19,378.05,420.19Zm184.24-5.64-2.47,1.93c-3.57,2.76-7,5.41-9.14,8.65,5.37-1.84,10-5.18,11.51-10.21C562.23,414.8,562.26,414.67,562.29,414.55ZM397.58,343.66a46,46,0,0,0-8.4.7c-8.9,1.64-15.94,6.88-17.92,13.37a30.94,30.94,0,0,0-1,7.68,30.87,30.87,0,0,1-1.47,9.67c-2.08,5.6-6.57,9.24-10.9,12.76-1.58,1.28-3.15,2.55-4.58,3.91-6.4,6.09-10.18,14.52-9.86,22a12.82,12.82,0,0,0,2.78,7.5,22.23,22.23,0,0,1,1.07-21.65,24,24,0,0,1,22.22-10.48A32.23,32.23,0,0,1,382,393.29a21.79,21.79,0,0,1-.39-9.27,23.51,23.51,0,0,1,16.16-17.93,27.4,27.4,0,0,1-1.24-6.59,28.19,28.19,0,0,1,3.84-15.79C399.43,343.68,398.51,343.66,397.58,343.66ZM433,394.5a42,42,0,0,1,1.32,8.68l0,.47A54.17,54.17,0,0,0,436.5,416c2.2-.58,4.48-1,6.74-1.5,1.9-.39,3.78-.77,5.58-1.22,4.09-1,6.57-2.4,7.81-4.38,1-1.64,1.24-3.81,1.39-6.26.35-5.68.55-11.21-.7-16.41-4.55-1.44-11.82-2.85-17.33.42C437,388.4,434.92,391.27,433,394.5Zm61.55,15.81a10.2,10.2,0,0,0,6.56,2.18c4.31-.25,7.24-3.54,10.64-7.36,2.39-2.69,4.88-5.48,8.09-7.34l.17-.1a63.14,63.14,0,0,0-6.34,2.16A109.45,109.45,0,0,0,494.57,410.31ZM388.06,397.05c.9.6,1.78,1.2,2.67,1.81,1.45,1,2.89,2,4.35,2.92,4.42,2.85,15.61,9,24,4.22,4-2.26,6.28-6.39,8.72-10.76l.65-1.15a10.79,10.79,0,0,0-1.53-2.55c-2.17-2.65-5.61-4.07-9.26-5.58-1.64-.68-3.29-1.36-4.85-2.15A30.63,30.63,0,0,1,399.32,370c-6.87,2-12.41,8-13.6,14.74A18.57,18.57,0,0,0,388.06,397.05Zm72.69-14.11a58.29,58.29,0,0,1,24.83,17.59l1.5,1.86c1.39,1.73,2.79,3.48,4.26,5A116,116,0,0,1,512.12,396c7.87-3.17,19.82-6.27,32-3.09a44.63,44.63,0,0,1,10.57,4.32,6.28,6.28,0,0,0,1-.7c1.85-1.63,2.44-4.46,2.75-6.75,1.06-7.92-.89-17.08-6.14-22.83q-.71-.24-1.41-.54a19.6,19.6,0,0,1-6.34-4.38l-.12,0a37.08,37.08,0,0,0-9.66-1c-4.91-.1-10-.21-14.43-2.82-3.79-2.23-6.11-5.66-8-9.31a17.16,17.16,0,0,0-3.19,1.84,33.79,33.79,0,0,0-5.75,5.88c-1,1.13-1.89,2.26-2.91,3.34-3.16,3.37-8.35,7.53-15,8.12s-13.28-3.16-15.11-8.77c-1.38-4.2-.05-8.44,1.12-12.19l.46-1.51a51.33,51.33,0,0,0,2.11-17.41c-2.83.07-5.74.1-8.68.11-2.63,1.65-5.18,3.58-7.81,5.55-4.84,3.65-9.84,7.43-15.75,9.61-8.84,3.26-18.57,2.56-27,1.65l-2.85-.32c-2.27-.25-4.56-.51-6.86-.71a24.3,24.3,0,0,0-4.41,15.22,23.26,23.26,0,0,0,1.17,5.94,59.06,59.06,0,0,1,11.35-.15l21.16,1.12c5,.26,10.59.55,15.51,3.13S458.75,376.82,460.75,382.94Zm97.71,16.71a23.5,23.5,0,0,1,6.42,6.83,15.59,15.59,0,0,0,3.13-5.21c2-5.91-.65-12.09-3.45-18.63a68.53,68.53,0,0,1-3.87-10.59,12.28,12.28,0,0,1-.23-3.86c-.71,0-1.41,0-2.11-.1a35.32,35.32,0,0,1,4.27,22.22c-.41,3-1.25,6.79-4.16,9.34Zm23.73-31.89c4.34,10.35,8.32,21.61,9.85,33.17,1.46-4.22,1.58-9.16,1.4-13.79-.23-6.26-1.11-13.16-5.9-16.92A13.14,13.14,0,0,0,582.19,367.76Zm-42.63,28.45c.86.18,1.68.37,2.46.56s1.82.45,2.8.67c-.6-.19-1.18-.36-1.75-.51Q541.31,396.48,539.56,396.21Zm-135.95-27a26.29,26.29,0,0,0,11.08,10.87c1.46.75,3,1.38,4.54,2,4,1.63,8.07,3.32,10.91,6.8a13.11,13.11,0,0,1,.78,1.06,22,22,0,0,1,6.93-6.95c5.59-3.31,12.2-3,17.77-1.64a18.09,18.09,0,0,0-7.68-8.36c-4.1-2.15-9.24-2.42-13.78-2.66L413,369.23A62.64,62.64,0,0,0,403.61,369.2Zm74.31-45.38.17,2A56,56,0,0,1,476,346.75l-.48,1.56c-1.08,3.45-2.1,6.71-1.13,9.64,1.36,4.17,6.53,6.25,10.75,5.9,5.37-.48,9.68-4,12.35-6.82.95-1,1.84-2.09,2.74-3.16a37,37,0,0,1,6.5-6.57,21.6,21.6,0,0,1,3.81-2.24h0c-.65-1.38-1.29-2.75-2-4.06-5.81-10.83-19.72-20.06-33.1-17.08l.54,0Zm91.5,25.86a45,45,0,0,1-2.48,9.89c-.47,1.42-.94,2.86-1.34,4.25l3.38-.29c2.2-.19,4.43-.4,6.62-.45-.88-2-1.77-4-2.63-5.9C571.81,354.58,570.64,352.06,569.42,349.68Zm-53-2.2c1.58,2.92,3.4,5.46,6.12,7,3.5,2.07,7.82,2.15,12.39,2.24,2,0,4,.09,6.07.3a22.83,22.83,0,0,1-1.5-3.38l-.45-1.34c-.74-2.22-1.43-4.32-3-5.14a8.76,8.76,0,0,0-3.52-.59C526.74,346.39,521.2,346.32,516.37,347.48Zm-107.92-7.34,4,.44,2.83.31c8,.86,17.1,1.54,25.09-1.41,5.33-2,9.87-5.39,14.68-9,1-.73,1.93-1.45,2.9-2.17-16.63.13-33.35.94-45.9,9A24,24,0,0,0,408.45,340.14Z" style="fill:#8390fa"/><path d="M441,505.53c-6.68,0-13.44-1.19-19.49-4.69a58.42,58.42,0,0,1-8.69-6.57,54,54,0,0,0-7.92-6c-5.71-3.34-12.4-4.48-19.47-5.69-7.69-1.31-15.65-2.67-22.28-7.14-9.44-6.36-13.71-17.34-17.12-26.16-1-2.56-2-5.2-3-7.92a18.37,18.37,0,0,1-9.68-4.21c-5.87-5.14-6.55-13.21-6.45-20.43.1-7,.94-15.42,6.07-21.15a62.84,62.84,0,0,1,1.63-13.24c2.94-12.42,10-23.43,15.84-31.64,3.66-5.16,8.1-11,14.4-14.65a49.1,49.1,0,0,1,9.71-4,.5.5,0,0,0,0-.13c2.47-7.72,7.31-12.93,13.3-14.29,4.3-1,8.31,0,12,1.94l2.91-2c10.14-7,20.62-14.21,33.48-14.72,11.88-.5,22.68,5,33.08,10.3,2.05,1,4.14,2.11,6.24,3.12a26.88,26.88,0,0,1,14.7-4.6c8.94,0,17.17,5.48,19.57,13,.08.26.15.52.22.77A127,127,0,0,0,538.92,324c7.21-1.15,19.28-3,25.24,4.7a14.33,14.33,0,0,1,2.41,5l4.14-.62c1.49,9.89,7,18.47,12.93,27.55,5.05,7.78,10.27,15.83,12.73,24.84,3.93,14.39.41,29.29-2.68,42.43-1.42,6-2.88,12.22-6.25,17.79-3.23,5.34-7.86,9.5-12.33,13.52l-38.35,34.5c-4,3.59-9,8-15.28,9.47s-12.44-.39-18.4-2.12c-2.57-.74-5.22-1.51-7.79-2-10.07-1.86-20.55.57-30.67,2.91-1.76.41-3.5.81-5.24,1.19A86.47,86.47,0,0,1,441,505.53Zm-93.39-63.84c.78,2.05,1.56,4.06,2.32,6,3.94,10.16,7.84,19,15.57,24.2,5.87,3.95,13,5.18,20.64,6.48,7.13,1.21,14.5,2.47,20.87,6.2a58.42,58.42,0,0,1,8.55,6.49,53.81,53.81,0,0,0,8.05,6.12c10.62,6.13,24.21,4.23,34.87,1.89,1.72-.38,3.46-.78,5.19-1.18,10.55-2.44,21.44-5,32.39-2.95a83.22,83.22,0,0,1,8.19,2.09c5.7,1.65,11.1,3.21,16.32,2.05s9.58-5.07,13.4-8.5l38.34-34.49c4.24-3.82,8.63-7.77,11.54-12.58,3-5,4.42-10.89,5.76-16.58,3-12.66,6.36-27,2.71-40.37-2.29-8.38-7.32-16.15-12.19-23.66-5.31-8.19-10.78-16.63-13-26.14.08.6.13,1.22.16,1.86.4,7.45-1.4,14.57-3.61,22.45-1,3.57-2.05,7.27-1.42,10.74.86,4.71,4.56,8.37,8.48,12.26,1.24,1.22,2.49,2.47,3.68,3.77a14,14,0,0,1,3.4,1c5.86,2.55,8.44,9,8.39,14.32-.08,8.66-4.85,18.09-12.45,24.61-1.58,1.35-3.3,2.6-5,3.86-4.25,3.09-8.26,6-10.18,10.46a27.15,27.15,0,0,0-1.64,8.31,34.64,34.64,0,0,1-1.6,8.66c-2.84,7.83-11.47,13.78-22,15.15a59.27,59.27,0,0,1-14.76-.2,28.94,28.94,0,0,1-6.9,5.53c-15.33,8.79-34.82,7.85-53.66,6.95l-1.2-.06a35.8,35.8,0,0,1-9.7,3.57c-16.43,3.22-31.52-8.4-37.44-21-.67-1.41-1.27-2.87-1.87-4.34-.06-.14-.11-.27-.17-.4-5.61,1.23-11.83.85-18.21.26a12.37,12.37,0,0,1-5.2-1.33c-3-1.77-3.95-5.12-4.68-7.82l-.36-1.26a18.61,18.61,0,0,0-3.22-6.26,20.88,20.88,0,0,1-7.35-5.23,22.87,22.87,0,0,0-4.75-1c.48,5.55,1.12,10.71,4.92,13.95l-2.73,3.19c-5.21-4.45-5.88-11-6.42-17.35-1.75,0-3.6.06-5.41.13C352,441.66,349.8,441.74,347.61,441.69Zm64.08,21.37v0c.58,1.4,1.16,2.8,1.79,4.14,5.24,11.12,18.63,21,32.16,18.78h-.53l-2,0-.07-2a55.76,55.76,0,0,1,3.22-20.81l.55-1.53c1.26-3.39,2.44-6.6,1.64-9.57-1.14-4.23-6.19-6.58-10.43-6.45-5.39.2-9.88,3.47-12.69,6.18-1,.95-2,2-2.89,3a38.25,38.25,0,0,1-6.84,6.24A22.19,22.19,0,0,1,411.69,463.06Zm51.62,19.48c16.63.72,33.36.78,46.3-6.63a24.9,24.9,0,0,0,3.74-2.64l-4-.65-2.83-.46c-7.88-1.28-17-2.42-25.12.11-5.42,1.69-10.14,4.87-15.12,8.25C465.33,481.19,464.33,481.87,463.31,482.54Zm-16.09-.69c2.83.07,5.73.2,8.67.34,2.72-1.52,5.37-3.31,8.09-5.15,5-3.39,10.21-6.9,16.23-8.77,9-2.81,18.67-1.6,27-.25l2.85.47c2.25.37,4.52.75,6.8,1.07a24.3,24.3,0,0,0,5.19-15,23,23,0,0,0-.86-6,60.29,60.29,0,0,1-11.34-.45l-21.07-2.2c-4.95-.52-10.56-1.11-15.33-3.93s-8.46-8-10.14-14.2A58.29,58.29,0,0,1,439.46,409L438.07,407c-1.31-1.81-2.62-3.63-4-5.25a116.39,116.39,0,0,1-21.35,10.36c-8,2.75-20.11,5.23-32.12,1.42a44.19,44.19,0,0,1-10.33-4.86,5.33,5.33,0,0,0-1,.65c-2,1.53-2.68,4.33-3.11,6.59-1.47,7.86,0,17.11,5,23.12.46.19.92.39,1.37.61a19.62,19.62,0,0,1,6.11,4.71l.12,0a37.31,37.31,0,0,0,9.59,1.5c4.9.36,10,.72,14.26,3.57,3.67,2.42,5.81,6,7.53,9.71a17.37,17.37,0,0,0,3.27-1.67,33.7,33.7,0,0,0,6.06-5.58c1-1.08,2-2.16,3.06-3.18,3.35-3.21,8.74-7.09,15.44-7.33s13.1,3.84,14.64,9.53c1.15,4.27-.39,8.44-1.75,12.12l-.55,1.49A51.66,51.66,0,0,0,447.22,481.85Zm74.4-11.73a51.11,51.11,0,0,0,11.2-.07c9-1.17,16.27-6.05,18.58-12.42a30.64,30.64,0,0,0,1.36-7.63,31.06,31.06,0,0,1,2-9.57c2.37-5.5,7-8.9,11.56-12.19,1.64-1.19,3.26-2.37,4.76-3.66,6.71-5.75,10.92-14,11-21.46a12.82,12.82,0,0,0-2.39-7.63,22.2,22.2,0,0,1-2.19,21.56c-4.93,6.88-14.09,10.61-22.73,9.32a32.29,32.29,0,0,1-12.2-4.82,22,22,0,0,1-.08,9.29,23.52,23.52,0,0,1-17.08,17.06,27.18,27.18,0,0,1,.9,6.65A28.27,28.27,0,0,1,521.62,470.12ZM381.91,449.49a23.12,23.12,0,0,1,1.32,3.46l.38,1.34c.62,2.26,1.2,4.4,2.75,5.31a8.75,8.75,0,0,0,3.48.76c5.7.53,11.24.89,16.12,0-1.43-3-3.12-5.63-5.75-7.37-3.39-2.23-7.69-2.54-12.25-2.87C386,450,383.92,449.81,381.91,449.49Zm86.48-19.83a18,18,0,0,0,7.23,8.74c4,2.36,9.1,2.9,13.62,3.37L510.32,444a62.84,62.84,0,0,0,9.38.51,26.4,26.4,0,0,0-10.51-11.43c-1.41-.82-2.92-1.53-4.42-2.24-3.88-1.84-7.9-3.74-10.55-7.36-.26-.36-.51-.73-.73-1.1a21.84,21.84,0,0,1-7.28,6.57C480.47,432,473.88,431.29,468.39,429.66Zm27.82-11.31A10.52,10.52,0,0,0,497.6,421c2,2.76,5.4,4.36,9,6,1.6.76,3.21,1.53,4.72,2.4A30.62,30.62,0,0,1,524,443.92c7-1.67,12.8-7.34,14.34-14a18.48,18.48,0,0,0-1.7-12.41c-.86-.64-1.71-1.29-2.56-1.94-1.4-1.06-2.79-2.13-4.2-3.14-4.27-3.08-15.13-9.77-23.71-5.46-4.08,2.05-6.61,6.05-9.28,10.29Zm-132.7,19.06c.54,0,1.07.1,1.6.17A35.19,35.19,0,0,1,362,415.17c.55-3,1.58-6.71,4.62-9.11h0a23.44,23.44,0,0,1-6.06-7.15,15.39,15.39,0,0,0-3.39,5c-2.32,5.81,0,12.11,2.47,18.79A67.43,67.43,0,0,1,363,433.51C363.21,434.78,363.38,436.1,363.51,437.41Zm-17.5,0c2.56.17,5.3.06,8.08,0,1.72-.07,3.46-.13,5.19-.14-.11-1-.25-2-.43-3a65,65,0,0,0-3.13-10.1c-2.63-7.12-5.35-14.49-2.44-21.79a21.28,21.28,0,0,1,5.87-7.93,11.14,11.14,0,0,1,.61-5.29c2.74-7.48,10.23-11.6,18.27-13,1.21-4.94-.5-10.3-2.29-16-.58-1.82-1.17-3.69-1.66-5.55a13.27,13.27,0,0,0-5.76,3.29c-3.4,3.37-4.43,8.32-5.52,13.56-1.21,5.8-2.45,11.79-7.09,16-2.88,2.62-6.49,4-10,5.29-3,1.13-5.85,2.19-8.09,4-.19.15-.37.3-.54.46C337.18,411,341.41,424.89,346,437.43ZM333.16,403c-1.68,4.13-2.05,9.06-2.12,13.69-.09,6.26.44,13.2,5,17.21a13,13,0,0,0,5.22,2.73C337.49,426.11,334.09,414.66,333.16,403Zm133.78,21.71c4.46,1.68,11.66,3.45,17.32.47,3.11-1.63,5.31-4.39,7.37-7.52a41.51,41.51,0,0,1-.86-8.72l0-.48a54.56,54.56,0,0,0-1.48-12.41c-2.23.46-4.53.81-6.81,1.15-1.92.29-3.81.57-5.63.92-4.14.81-6.69,2.07-8,4-1.11,1.58-1.44,3.74-1.71,6.18C466.45,414,466,419.48,466.94,424.75ZM437.7,399.6c1.34,1.61,2.57,3.32,3.77,5l1.36,1.89a54.81,54.81,0,0,0,19.58,16.29,68.56,68.56,0,0,1,.51-14.91c.27-2.33.63-5.53,2.45-8.12,2.64-3.75,7.34-5,10.66-5.68,1.87-.36,3.83-.66,5.81-.95s4.06-.61,6-1c-.14-.31-.29-.62-.44-.93-2.74-5.54-7.85-9.42-13-9.88-5.36-.5-10.38,2.27-15.92,5.65L440.6,397.84ZM540,414.73c4.76,3.5,9.75,6.65,15.37,7.49a19.82,19.82,0,0,0,18.71-7.61,18,18,0,0,0,.78-19.35,24.28,24.28,0,0,0-2.46-3.39,25.82,25.82,0,0,0-5.71.49c-1.5.26-3,.57-4.48.87a60.36,60.36,0,0,1-13.37,1.7c-7.58-.13-13.93-3.23-17-8.28a13.68,13.68,0,0,1-1-1.86,32.07,32.07,0,0,0-3.29,4.35c-2.49,4-3.59,9.72-.47,13.41a18.49,18.49,0,0,0,4.08,3.22c.78.51,1.56,1,2.31,1.57A23.62,23.62,0,0,1,540,414.73Zm-46.64-19.66a58.61,58.61,0,0,1,1.6,13.3v.49c0,1.14.07,2.3.14,3.44,2.39-3.62,5.11-7,9.22-9.1,5.13-2.58,11.55-2.39,18.4.38-3-5.16-1.66-11.88,1.29-16.64a45.22,45.22,0,0,1,5.39-6.78c-.06-.28-.13-.55-.2-.83a26.48,26.48,0,0,0-1.6-5.17c-2.81-6-9.93-8.93-15.41-10.37l-1.45-.36c-.18,1.28-.47,2.53-.75,3.75l-2.68,11.7c-.64,2.83-1.37,6-3.2,8.82C501.53,391.61,497.69,393.73,493.34,395.07ZM380.12,409c.59.22,1.17.42,1.73.6,1.16.36,2.32.67,3.48.91-.85-.23-1.66-.46-2.43-.7S381.09,409.23,380.12,409Zm44.48-12.76h-.05c-4.32,0-7.42,3.16-11,6.79-2.54,2.57-5.16,5.22-8.47,6.91l-.18.1a61.65,61.65,0,0,0,6.45-1.84A109.2,109.2,0,0,0,431,398.72,10.12,10.12,0,0,0,424.6,396.21Zm-50.68,7.54c3.54,0,7.19,1.11,10.2,2,5.35,1.63,13.15,3.44,19.06.41,2.7-1.38,5.08-3.79,7.38-6.12,3.89-3.94,7.91-8,14-8.05h.08c4.11,0,7.38,1.85,10.19,4.45l3.63-2.2,17.89-10.91c4.34-2.65,10.15-6.18,16.57-6.31-4.8-1.22-9.07-3.55-13.2-5.82L442.81,362c-5.05-2.77-10.39-5.37-15.22-4.05-4.48,1.22-7.14,5.35-9.95,9.72-2.65,4.11-5.4,8.36-9.93,10.77-5.28,2.8-11.27,2.25-17,1.72-1.46-.13-2.91-.26-4.33-.34a33.64,33.64,0,0,0-5.19.14c-2.46,5.61-7.62,9.19-12.62,12.65-1.62,1.12-3.21,2.23-4.68,3.38a7.93,7.93,0,0,0,.36.8,20.83,20.83,0,0,0,6.68,7.26A14,14,0,0,1,373.92,403.75Zm-.61-67a37.36,37.36,0,0,0-6.41,2.84c-5.58,3.26-9.69,8.66-13.1,13.46-5.61,7.9-12.4,18.46-15.17,30.18a56.52,56.52,0,0,0-1.34,8.73,45,45,0,0,1,7-3.09c3.26-1.22,6.34-2.38,8.62-4.46,3.64-3.31,4.7-8.39,5.82-13.77,1.17-5.62,2.37-11.43,6.67-15.69a17.6,17.6,0,0,1,7.83-4.37A40.14,40.14,0,0,1,373.31,336.77Zm105.11,41.07A22.07,22.07,0,0,1,491.2,389.3c.29.59.55,1.18.8,1.78,3.6-1.11,6.69-2.79,8.59-5.68,1.42-2.15,2-4.84,2.63-7.45l2.68-11.7c.26-1.17.52-2.31.69-3.43a12.06,12.06,0,0,0-6.72,1.24c-2.07,1.15-3.59,3.12-5.21,5.2a26.43,26.43,0,0,1-5.23,5.52A18,18,0,0,1,478.42,377.84ZM375.72,381c-5.46,1.56-10.22,4.66-12,9.6-.05.12-.09.24-.13.37.85-.61,1.72-1.21,2.57-1.8C369.85,386.61,373.4,384.14,375.72,381Zm158.33.32a13.75,13.75,0,0,0,1.34,3.14c2.74,4.5,8.77,6.19,13.5,6.27,4.25.1,8.19-.75,12.46-1.62,1.53-.31,3.06-.62,4.6-.89.85-.14,1.73-.28,2.64-.39l-.78-.77c-4.2-4.16-8.55-8.47-9.65-14.48-.81-4.42.42-8.78,1.5-12.63,2.11-7.5,3.83-14.27,3.47-21.09-.19-3.39-.92-5.81-2.29-7.6-4.11-5.33-13.13-4.4-21.27-3.12a131.06,131.06,0,0,1-28.9,1.47,43.33,43.33,0,0,1-1.11,9.64A42.75,42.75,0,0,0,508.5,348c1.44,0,2.89-.05,4.32-.08,2.19,0,4.36-.12,6.52-.08,7,0,19.32,1.42,23.14,10.68,2.16,5.25.7,11.75-4,17.82C537.08,378.07,535.55,379.73,534.05,381.33Zm-23.16-22.15c.76.16,1.55.34,2.37.56,6.33,1.67,14.63,5.22,18.12,12.64a23.06,23.06,0,0,1,1.43,4.11c.82-.91,1.61-1.82,2.34-2.77,1.79-2.3,5.69-8.22,3.45-13.66-3-7.27-14.47-8.07-19.27-8.08q-3.2,0-6.42.09l-3.77.07c.17.6.35,1.2.53,1.8A26.7,26.7,0,0,1,510.89,359.18ZM384.58,375.59c.67,0,1.33,0,2,.05,1.48.08,3,.22,4.49.36,5.42.49,10.52,1,14.69-1.25,3.57-1.9,5.91-5.51,8.37-9.35,3.12-4.84,6.35-9.84,12.39-11.48,6.33-1.71,12.52,1.23,18.33,4.41l16.86,9.22c4.11,2.24,8.36,4.57,12.91,5.59,4.82,1.08,9.33.44,12.38-1.76a22.66,22.66,0,0,0,4.37-4.69c1.8-2.32,3.66-4.72,6.48-6.29a15.94,15.94,0,0,1,8.75-1.78,31.28,31.28,0,0,0-.92-3.46c-.3-1-.6-2-.84-3-7.85-.1-15.61-1-22.45-5-4-2.35-7.29-5.57-10.45-8.69-1.36-1.34-2.72-2.68-4.14-4-.53-.47-1.1-1-1.71-1.44a36.06,36.06,0,0,1-8.08,8.86c-6.91,5.06-16.9,6.27-26.7,3.23-.49-.15-1-.31-1.46-.48L423,351.28c-3.5,3.39-8.28,8-14.61,8.8-4.84.58-9.25-1.15-13.54-2.82l-1.72-.66c-2.5-1-8.77-3-14.92-2.64.45,1.66,1,3.34,1.5,5,1.75,5.49,3.54,11.13,2.67,16.72C383.13,375.61,383.86,375.59,384.58,375.59ZM380,349.73a42,42,0,0,1,14.64,2.94l1.76.68c4,1.55,7.71,3,11.51,2.56,4.56-.55,8.22-3.78,12.2-7.64l5.5-5.33c-6.83-3.2-12.53-7.8-17-11.71a71.53,71.53,0,0,0-8.6-6.81,84.08,84.08,0,0,1-15.95,8.74c-2,.79-4.09,1.45-6.16,2.1a36.1,36.1,0,0,0-.6,14.6A26,26,0,0,1,380,349.73Zm88.47-20.13c.7.55,1.41,1.15,2.11,1.78,1.48,1.32,2.88,2.71,4.29,4.1,3.11,3.07,6.05,6,9.63,8.06,5.83,3.4,12.74,4.26,19.82,4.4a46.1,46.1,0,0,1,1.14-9.47,37.89,37.89,0,0,0,1-9.2,93.78,93.78,0,0,1-26.24-6.39c-1.4-.58-2.8-1.2-4.19-1.84a27.79,27.79,0,0,0-3.71,3.5A51.84,51.84,0,0,0,468.46,329.6Zm-35.22,11.76c8.21,2.33,16.68,1.27,22.28-2.82a32.46,32.46,0,0,0,7.12-7.88c-3.1-1.87-6.68-3.2-10.34-2.82-5.27.53-9.66,4.4-14.05,8.66Zm-29.45-19.49a87.57,87.57,0,0,1,7.61,6.22c4.53,4,10.44,8.74,17.43,11.7l6.5-6.29c4.95-4.8,9.93-9.16,16.54-9.83,4.26-.45,8.67.74,13.16,3.51a57.27,57.27,0,0,1,4.15-5.42,33,33,0,0,1,2.7-2.72q-2.25-1.12-4.44-2.25c-10.38-5.28-20.18-10.25-31-9.84-11.64.46-21.18,7-31.27,14Zm-12.67-.51a10.45,10.45,0,0,0-2.35.26c-4.83,1.09-7.66,5.38-9.16,8.7,1-.33,2-.68,2.95-1.06a74,74,0,0,0,13.15-7A13.21,13.21,0,0,0,391.12,321.36Zm89.12-3c.53.23,1.05.45,1.58.66A88.61,88.61,0,0,0,505.51,325c-2.22-5.29-8.57-9.18-15.23-9.18A22.12,22.12,0,0,0,480.24,318.34Z" style="fill:#8390fa"/><path d="M115.59,104.6a30.73,30.73,0,0,1,.38-3.88l4.13-39.55s18.2-1,31.85,9.71c-.59,24.41-.81,37.09.85,37.33,0,0-4.7,8.37-18,10.83C121.14,114,115.59,104.6,115.59,104.6Z" style="fill:#e57765"/><path d="M117.07,35.51s-1.94,55.5,27.6,57.4c20,1.29,23-8.54,23.33-51.06-.39-18.49-18.63-20-25.77-21.1S118.28,22.46,117.07,35.51Z" style="fill:#ff977b"/><path d="M106.94,56.57a8.73,8.73,0,0,0,8,9.23c4.35.28,5.78-3.31,6.11-8.32s-2.94-9.32-7.29-9.6S107.27,51.55,106.94,56.57Z" style="fill:#ff977b"/><path d="M140,55.74c0,2.52,1.14,4.56,2.57,4.57s2.59-2,2.6-4.55-1.14-4.56-2.57-4.57S140,53.22,140,55.74Z" style="fill:#423651"/><path d="M157.92,55.64c0,2.52,1,4.56,2.26,4.57s2.28-2,2.29-4.55-1-4.56-2.26-4.57S157.93,53.13,157.92,55.64Z" style="fill:#423651"/><path d="M145.78,47.06a20.3,20.3,0,0,0-7.85.15,1.46,1.46,0,0,1-1.63-.75c-.24-.47-.46-.86-.64-1.18a1.23,1.23,0,0,1,.9-1.83,22.84,22.84,0,0,1,10.17,0,1.27,1.27,0,0,1,1,1.58c-.11.36-.22.74-.3,1.07A1.4,1.4,0,0,1,145.78,47.06Z" style="fill:#fff"/><path d="M163,48.33a12.49,12.49,0,0,0-7.22-2.52,1.11,1.11,0,0,1-1.07-1.33,12.9,12.9,0,0,1,.36-1.4,1.11,1.11,0,0,1,1-.76,11.35,11.35,0,0,1,8.87,4,1.11,1.11,0,0,1-.06,1.49c-.17.17-.34.32-.49.46A1.12,1.12,0,0,1,163,48.33Z" style="fill:#fff"/><path d="M151.21,75.67a6.58,6.58,0,0,1-.88,0c-2.6-.28-5-1.79-7.14-4.48a.84.84,0,0,1,1.31-1c1.84,2.32,3.85,3.61,6,3.85a7.1,7.1,0,0,0,5-1.37.84.84,0,0,1,1.17.13.82.82,0,0,1-.12,1.17A8.94,8.94,0,0,1,151.21,75.67Z" style="fill:#a55f56"/><path d="M153.29,68.44H153a7.07,7.07,0,0,1-3.58-.94.84.84,0,0,1,1-1.36h0a6.26,6.26,0,0,0,2.71.63,3,3,0,0,0,2.79-1.21c.26-.62-.3-1.32-.82-1.81-3.07-2.85-4.26-9-4.31-9.3a.85.85,0,0,1,.67-1,.83.83,0,0,1,1,.67c0,.06,1.14,5.91,3.8,8.39,1.75,1.62,1.51,3,1.21,3.69C156.78,67.65,154.89,68.44,153.29,68.44Z" style="fill:#a55f56"/><path d="M117.53,48.55l7.59,2.54V33.77s16.67,6.47,24.75-9.6c9.66,3,15.06,9.81,17.69,13.46,7-7.17.44-14.51.44-14.51s7.25-5.24,4.1-12.23-12.75-7.51-21.13,0C140.84-5.7,120-2,120.05,13,100.84,15.61,111.69,39.06,117.53,48.55Z" style="fill:#f4dfdf"/><path d="M165.23,534.3a.83.83,0,0,1-.78-.55l-10.54-29a.85.85,0,0,1,.5-1.08.83.83,0,0,1,1.07.51l10.54,29a.83.83,0,0,1-.5,1.07A.74.74,0,0,1,165.23,534.3Z" style="fill:#b77711"/><path d="M349,232.71a.74.74,0,0,1-.43-.12c-12.82-7.69-21-26.53-21.34-27.33a.84.84,0,1,1,1.54-.66c.08.2,8.31,19.15,20.66,26.56a.83.83,0,0,1-.43,1.55Z" style="fill:#ad8c8c"/><path d="M65.73,451.38a.84.84,0,0,1-.64-.3.83.83,0,0,1,.11-1.18L337.93,221.61A.84.84,0,0,1,339,222.9L66.27,451.19A.85.85,0,0,1,65.73,451.38Z" style="fill:#ad8c8c"/><path d="M365.59,232.11a.8.8,0,0,1-.42-.11c-20.76-12.17-34.24-41.48-34.38-41.77a.84.84,0,0,1,1.53-.7c.13.29,13.4,29.13,33.7,41a.85.85,0,0,1,.3,1.15A.86.86,0,0,1,365.59,232.11Z" style="fill:#ad8c8c"/><circle cx="467.92" cy="394.61" r="58.21" transform="translate(-144.03 408.45) rotate(-41.44)" style="fill:#8390fa"/><path d="M457.63,380.23h-18.3q0-16.94,9.2-22.42a40.14,40.14,0,0,1,21-5.48,44.1,44.1,0,0,1,16.07,2.6,21.08,21.08,0,0,1,10,7.5,20,20,0,0,1,3.4,11.74q0,8.08-3.82,12.67a45.83,45.83,0,0,1-10.07,8.73,26.65,26.65,0,0,0-7.12,5.95q-2.4,3-2.4,8.64H460.71c-.08-.79-.12-1.94-.12-3.42,0-4.87,1-8.67,2.84-11.37a31.09,31.09,0,0,1,7.86-7.54,53.89,53.89,0,0,0,5-3.92,14.07,14.07,0,0,0,2.92-3.78,10.57,10.57,0,0,0,1.14-5,8.05,8.05,0,0,0-3-6.8,12.76,12.76,0,0,0-8-2.34q-7.18,0-9.41,4.19A21.21,21.21,0,0,0,457.63,380.23Zm.7,47.29h0a9.38,9.38,0,0,1,9.38-9.39h.84a9.38,9.38,0,0,1,9.38,9.39h0a9.38,9.38,0,0,1-9.38,9.38h-.84A9.38,9.38,0,0,1,458.33,427.52Z" style="fill:#fff"/></g></g></svg>