<svg xmlns="http://www.w3.org/2000/svg" width="126.559" height="158.557" viewBox="0 0 126.559 158.557">
  <g id="Layer_2" data-name="Layer 2" transform="translate(0.004 -0.039)">
    <g id="Ñëîé_1" data-name="Ñëîé 1">
      <path id="Path_340" data-name="Path 340" d="M83.09,87.3a10.12,10.12,0,0,1,10,3.44c2.54,2.82,5.2,5.56,9.09,6.58,1.4.37,1.45,1.38,1.15,2.61-.86,3.44-3,5.29-6.59,5.33A3.79,3.79,0,0,0,93.17,107a5.78,5.78,0,0,1-5.36,2.79c-2.85-.36-4.68,1.32-7,2.16-4.64,1.69-9.71,1.25-14.61.48-1.42-.22-1.66-1.55-1.66-2.83V64.03c0-3.21,2.11-2.43,3.89-2.54,2.65-.18,3.34,1.59,3.2,3.64a33.05,33.05,0,0,1-1.91,8.45c-.47,1.37-1.17,2.76-.53,4.34,1.69-4.71,3.54-9.39,3.12-14.57-.21-2.51-2-3.1-4.07-2.92-2.94.25-3.51-1-3.78-3.8-.59-6.15,3.06-10.09,6.52-14.18,1.26-1.49,7.16-2,8.87-1.08a2.7,2.7,0,0,1,1.28,1.92,13.16,13.16,0,0,1,.26,1.78c.86,9.38,7.11,13.13,16.08,9.63a3.21,3.21,0,0,0,2.36-2.83c.1-4.16,0-8.32,0-12.56-1.36.27-1,1.13-1,1.72-.06,1.7.12,3.42-.08,5.09-.29,2.45,1.37,5.73-1.53,7.14a13.79,13.79,0,0,1-11.65.12c-2.86-1.26-2.61-4.5-2.94-7.11-.3-2.35.34-5.43-2.65-6-3.28-.61-6.94-1.51-9.88,1.5a28.22,28.22,0,0,0-3.64,4.73c-.28.44-.61.89-1.15.77a1,1,0,0,1-.66-1.21c.42-3.16-1.412-16.131.968-19.061.16-.2,8.408,1.758,8.318,1.678-.158-.133,9.641-1.093,9.154-1.317-3.12-1.554-18.3,2.637-18.39,0-.28-7-.1-14-.09-21a7.84,7.84,0,0,1,.23-2.67c.51-1.33,1.5-2.7,3-2.55,1.73.17,1,1.9,1,3,.1,3.29-.05,6.6,0,9.89.15,5,6.8,9,11.35,7,1.75-.78,2.4-4,1.41-7.09-.82-2.53-1.59-2.95-5-2.21,2.35.42,4.28.9,4.14,3.12-.12,1.91,1.36,4.72-2.18,5.22-3.9.56-8.19-1.84-8.48-5-.4-4.27-.45-8.58-.63-12.86,0-.84.11-1.78,1.09-1.88,1.75-.19,3.58-.53,5.17.72a5.9,5.9,0,0,1,2,3.9c.22,1.25.45,1.72,1.9,1.16,6.13-2.41,9.48-.57,11,6.12.47,2,.7,2.91,3.14,1.73a6.31,6.31,0,0,1,9.15,5.39c.18,2,.88,3.13,2.77,3.67a5,5,0,0,1,2.57,2c.85,1.14,1.67,2.44,1.12,3.86-.62,1.64-2.23.92-3.43.93-3.8,0-7.6-.08-11.39,0-2.33,0-4.25-.46-4.75-3.06-.53-2.76.89-4.34,3.42-5.14a4.31,4.31,0,0,0,1.81-1c-2.27-.87-4,.27-5.42,1.86a4.71,4.71,0,0,0-.28,6.11c1.45,2,1,3.61.76,5.75C89.62,37.9,90,41.55,90,46c1.23-1.69.88-2.8.93-3.81.11-2.29.1-4.59.27-6.87.2-2.91,2-4.22,4.76-4.28,3.9-.07,7.8,0,11.69-.06,1.35,0,2.4.42,2.54,1.94.1,1.11.9,1.69,1.52,2.47A12.07,12.07,0,0,1,113.48,48c-.28.72-1,1.36-.48,2.19,1.7,2.62.68,5.76,1.5,8.39,1.61,5.14,1.78,9.65-.51,14.82-1.19,2.69-.53,6.16-2.58,9.15-.79,1.15-2,3.83-.76,6.24.74,1.45-.28,3.1-1.4,4.34-1.79,2-9.34-.31-11.78.05-2.11.31,1.207-.722,0-8.043-.292-1.774,6.769-.059,10.2-5.551,1.627-2.6.693-18.424,0-18.1h-1.207l1.207,11.02-1.207,7.981c-.033.44-6.457-20.5-6.457-20.5s-.6-2.9-.8-3.378h-.357l.769,3.694c.042.322-2.889-.007-6.619,0-3.135.005-6.151,1.208-6.646,2.664s-.444,1.008.492,4.228a13.271,13.271,0,0,0,2.611,5.309c1.236,1.368,2.152,1.207,4.421,1.076a63.264,63.264,0,0,0,7.568-1.076c-.431-.967-7.4,2.065-10.836,0-3.15-1.634-4.269-8.951-3.765-9.538a6.661,6.661,0,0,1,3.185-1.721A21.969,21.969,0,0,1,98,60.72c1.789.2,2.116-.8,2.884,0,.684.7,5.764,19.25,5.578,19.771s1.635-1.752,1.207-.905C105.247,84.409,96.758,93.454,96.5,93.18c-1.1-1.17-2.49-2.33-3.6-3.6-2.9-3.35-8.32-4.5-12.22-3.226a4.944,4.944,0,0,1-1.309.276c1.288-.132-.041,0-.4,0a8.805,8.805,0,0,1-2.988,0,6.923,6.923,0,0,0-5.882.64c-2.22,1.325-3.405,5.443-2.766,8.81.9,4.247,4.25,7.656,7.716,10.27a14.207,14.207,0,0,0,3.92,1.841c3.732.521,5.817-1.042,9.5-1.841a3.2,3.2,0,0,0,2-4.3,8.72,8.72,0,0,0-4.19-4.49,8.7,8.7,0,0,1,4.14,4.36,3.21,3.21,0,0,1-2.05,4.47,26.74,26.74,0,0,1-10.64.46c-3.75-.51-5.7-3.79-7.53-6.76a12.55,12.55,0,0,1-2-6.51c0-4.73,2-6.64,6.85-6.43C77.7,87.12,80.39,87.49,83.09,87.3Z" fill="#323335"/>
      <path id="Path_341" data-name="Path 341" d="M63.17,158.53H31.38c-.95,0-2.15.39-2.69-.73-.44-.9.25-1.7.72-2.47,5.41-8.85,13-14.79,23.22-17.06.91-.2,1.93-.37,2-1.45a74.862,74.862,0,0,0,.21-7.78c-.06-1.74-1.61-1.47-2.76-1.47a64.3,64.3,0,0,1-14.57-1.41c-19-4.38-35.76-23.92-37.14-43.41C-.18,74.94,0,67.15.14,59.36c0-2.19,1-2.84,2.9-2.71a10.53,10.53,0,0,0,2.1,0c2.33-.29,3.11.61,3.1,3,0,7.19-.39,14.41.3,21.58C10,96.05,17.6,107.07,30,114.73a32.11,32.11,0,0,0,17.4,4.86c9.69-.11,19.39-.23,29.08-.07,12.29.22,22.28-4.53,30.53-13.4,7.67-8.26,11.77-17.88,11.45-29.29-.16-5.69,0-11.39-.09-17.08,0-2.25.62-3.21,3.11-3.1,5.08.22,5.14.08,5.06,5.16-.09,6.89,0,13.81-.47,20.67a49,49,0,0,1-47,45.09h-.89c-6.36.29-6.29.29-6.19,6.57,0,2.34.76,3.48,3.22,4.12C85,140.83,92,147.1,97.38,155.45c1.42,2.21.83,3.09-2.13,3C84.55,158.15,73.86,158.6,63.17,158.53Z" fill="#42a5f5"/>
      <path id="Path_342" data-name="Path 342" d="M60.19,15.51c0,4.19-.08,8.39,0,12.58.06,2.23-.91,3-3,3-5.29.15-10.57.42-15.86.68-7.73.37-15.28,1.59-22.36,4.93-.45.21-1,.27-1.43.46-2.44,1-3.48.25-3.48-2.44a32.56,32.56,0,0,1,4.36-16A41,41,0,0,1,30.84,5.15c.91-.64,1.86-1.45,3-.94s.84,1.92.84,3c0,3.69,0,7.39-.17,11.08-.08,2.05.57,3.38,2.71,3.47,2.3.1,2.78-1.41,2.75-3.36-.09-4.8-.18-9.59-.15-14.38,0-2.69,1.5-3.48,5.26-3.63,2.74-.11,2.82,1.49,2.8,3.43,0,4.8,0,9.59-.11,14.39,0,1.92.34,3.49,2.61,3.53s2.5-1.56,2.5-3.31V4.35c0-3.82.5-4.12,4-4.3,3.25-.17,3.49,1.59,3.4,4.11-.13,3.79,0,7.59,0,11.39Z" fill="#42a5f5"/>
      <path id="Path_343" data-name="Path 343" d="M60.32,99.49v10.49c0,1.65-.48,2.68-2.33,2.74-9,.34-17.94.18-26.19-4.47-6.05-3.41-10.19-8.53-13.83-14.2-.6-1-.46-1.52.7-2a67.35,67.35,0,0,1,20.18-5.26c6.14-.69,12.36-.6,18.54-1,2.38-.16,2.9.86,2.83,3-.11,3.59,0,7.19,0,10.78Z" fill="#42a5f5"/>
      <path id="Path_344" data-name="Path 344" d="M51.52,72.08C41.23,72.55,31,73.34,21.2,76.84c-1.31.47-2.58,1-3.9,1.47-1.48.5-3.05.93-3.52-1.28-.42-1.94-.44-3.74,1.88-4.72,12.05-5.12,24.76-6.68,37.7-7a17.45,17.45,0,0,0,3-.1c2.83-.59,4.08.36,4,3.35s-.45,3.56-4,3.54C54.71,72.07,53.12,72.08,51.52,72.08Z" fill="#42a5f5"/>
      <path id="Path_345" data-name="Path 345" d="M60.26,48.66c.83,2.49-.81,2.6-2.91,2.73-9.93.6-19.93.45-29.7,2.86-3.22.8-6.1,2.52-9.26,3.36-1.39.37-3.54,2.19-4.54-.5-1.08-2.93.26-4.92,3.14-5.69,5.56-1.49,10.77-4.05,16.57-4.88A173.6,173.6,0,0,1,58,44.7C60.15,44.7,60.15,44.78,60.26,48.66Z" fill="#42a5f5"/>
      <path id="Path_346" data-name="Path 346" d="M50.5,34.7c2.29-.14,4.59-.24,6.88-.45s3.08.9,3,3c-.11,1.92.49,4.14-2.78,4.1a146.35,146.35,0,0,0-23,1.36c-5.54.83-11,2-16,4.56-1.49.77-3.47,1.87-4.41-.84s.08-4.81,2.82-5.41c5.93-1.32,11.37-4.17,17.49-5.05C39.77,35.21,45.13,35,50.5,34.7Z" fill="#42a5f5"/>
      <path id="Path_347" data-name="Path 347" d="M50.43,82.45a128.861,128.861,0,0,0-27.22,3.83,21.34,21.34,0,0,0-4.56,2.21c-1.29.68-2.91,1.06-3.29-1-.34-1.78-2.31-4,.92-5.28,13.36-5.46,27.39-6.62,41.62-6.67,2.48,0,2.59,1.34,2.47,3s.87,4.09-2.46,3.89C55.42,82.34,52.92,82.45,50.43,82.45Z" fill="#42a5f5"/>
      <path id="Path_348" data-name="Path 348" d="M17.91,61.46c9-3.9,18.49-5.54,28.23-6,3.68-.16,7.37-.21,11-.54,2.25-.2,3.06.58,3.09,2.79s.15,3.92-2.88,4A214.93,214.93,0,0,0,34.12,63.3,64.23,64.23,0,0,0,17.4,68.15c-1.37.31-2.73.69-3.14-1.35-.53-2.58.07-4.1,2-4.7A4.69,4.69,0,0,0,17.91,61.46Z" fill="#42a5f5"/>
    </g>
  </g>
</svg>
