<svg xmlns="http://www.w3.org/2000/svg" viewBox="0 0 882.96 639.03"><g id="Layer_2" data-name="Layer 2"><g id="File_not_Found" data-name="File not Found"><g id="File_not_Found-2" data-name="File not Found"><g id="Background"><path d="M811.53,376.24c-.72,4.92-1.33,8-1.48,8.68A208.78,208.78,0,0,1,792,436h0q-3.51,6.94-7.51,13.69a261.88,261.88,0,0,1-26.61,37q-9,10.57-19.28,20.5c-29.54,28.74-65.93,53.32-105.86,73.2q-11.25,5.61-22.86,10.7a574.26,574.26,0,0,1-75.46,27q-8,2.25-16,4.26c-9.29,2.34-18.62,4.44-27.93,6.29q-18.87,3.76-37.6,6.2c-16,2.08-31.8,3.4-47.32,4a538.62,538.62,0,0,1-55.58-.94c-9.49-.62-19.12-1.5-28.83-2.63H321q-12.91-1.49-26-3.56c-2.38-.38-4.76-.78-7.15-1.18-16.15-2.77-32.35-6.23-48.38-10.4-.29-.07-.58-.14-.87-.23l-.48-.12-1.35-.36c-14.28-3.78-28.39-8.13-42.19-13.07-9.71-3.47-19.27-7.24-28.6-11.31q-6.66-2.89-13.15-6-5.94-2.83-11.74-5.85c-22.81-11.84-43.79-25.69-61.92-41.65a231.74,231.74,0,0,1-23-23.27A191.36,191.36,0,0,1,29,476.78,172.87,172.87,0,0,1,19.94,454q-1.55-4.85-2.83-9.86a210.68,210.68,0,0,1-6.32-46.62q-.15-5.65,0-11.36a217.93,217.93,0,0,1,4.55-39.38C22.53,312.63,38.24,281,63.41,260c43.34-36.3,110.25-37.62,151.7-34.16,16.15,1.35,28.44,3.42,34,4.44,8.21,1.51,16.25,3.38,24.38,5.34,30.13,7.25,61.53,15.63,107.25,10.49,4.76-.54,21.35-2.54,51.72-11a449,449,0,0,0,66.31-23.71l2.85-1.3c2.43-1.13,4.77-2.24,7.06-3.35l1.74-.85c4.61-2.26,9-4.49,13.12-6.67h0L524,199l1.69-.89a.83.83,0,0,0,.16-.09c6.06-3.19,11.75-6.28,17.31-9.21l3.44-1.8c.8-.41,1.6-.83,2.4-1.23l1.64-.84h0c3.34-1.68,6.66-3.3,10-4.84,5.27-2.41,10.68-4.63,16.44-6.63,4.54-1.59,9.29-3,14.37-4.32,50.36-12.81,125.67-8.72,173.58,35.62,39,36.13,48.44,88.39,49.18,127.37A277.13,277.13,0,0,1,811.53,376.24Z" style="fill:#e6edfa"/><path d="M490.42,348.68V628.52a534,534,0,0,1-84.93,10.17c-73,2.67-163.6-10.73-239.5-43.79a390.51,390.51,0,0,1-36.86-18.36h0q-10.85-6.16-21-13-9.27-6.22-17.9-13c-3.77-3-7.45-6-11-9.17C51.74,517.22,30.81,488.23,19.94,454c-1-3.23-2-6.51-2.82-9.85a210.25,210.25,0,0,1-6.34-46.62V386.16a219.63,219.63,0,0,1,4.55-39.37H88.64V447.86h12.55V246.34H179V549.56h47.71V299.08L412.57,392V348.68A36.43,36.43,0,0,1,449,312.26h5A36.42,36.42,0,0,1,490.42,348.68Z" style="fill:#d8dff3"/><path d="M811.52,346.48v29.77c-.71,4.91-1.32,8-1.47,8.67-25.14,118.57-155.6,203.15-291.7,237.32V276.48H596.2V537.63h12.55V381l77.85-34.18v-.31a62.46,62.46,0,1,1,124.92,0Z" style="fill:#d8dff3"/><path d="M784.44,449.65a262.11,262.11,0,0,1-26.61,37V464.52c0-8.22,11.24-14.87,25.12-14.87Z" style="fill:#bdcfd3"/><path d="M295,631.56q-3.57-.57-7.15-1.18a559.7,559.7,0,0,1-93.27-24.17l45.49-122Z" style="fill:#cad4ef"/><path d="M152.85,588.9c-38.07-18.18-71.76-41.61-96.68-70.78l35.15-94.3Z" style="fill:#cad4ef"/><path d="M792,436c-2.34,4.64-4.84,9.19-7.51,13.69a262.11,262.11,0,0,1-26.61,37q-9,10.57-19.28,20.5C686,558.25,611.72,596.22,534.37,618q-8,2.24-16,4.26-13.94,3.5-27.94,6.29-18.86,3.75-37.59,6.2a50.25,50.25,0,0,1,5.72-4.08c11.53-7,25-10.73,35.64-19-5.52-4.21-1.16-13,3.82-17.83a116.31,116.31,0,0,1,41.59-25.93c-2.5-19.52,18.93-37.92,37.85-32.5.25-9.47,8-18.18,17.43-19.45a20.81,20.81,0,0,1,22,14.09,63.27,63.27,0,0,1,5.69-19.75c2.59-5.45,10.69-5,12.59.69l0,.12c6.28-12.63,26-15.56,35.68-5.3-3.38-12.57,11.76-25.68,23.72-20.55-5.74-8.42-7.29-20.19-1.88-28.83s18.56-12.07,26.44-5.6c-5.6-9.54,1.45-23.76,12.43-25.1,5.6-.68,11.16,1.48,16.8,1.63a15.45,15.45,0,0,0,8.29-2.22c6.25-3.95,14.42-3.36,19.4,2.09a40.6,40.6,0,0,1,7.76,13C786.62,438.86,789.31,437.4,792,436Z" style="fill:#cad4ef"/><path d="M281.92,190.17c-33.65-7.25-69.29-21.18-85.85-51.35-5.95-10.84-8.95-24.08-4.58-35.64,5.88-15.52,23.18-23.72,39.61-26.11a97.91,97.91,0,0,1,59.84,10.49c24.94,13.35,44.94,37.85,72.95,41.8,21.42,3,42.22-6.89,62.86-13.4s45.88-8.69,61.4,6.39c3.71,3.61,4.32,8.41,4.68,10.36,3,16.5-13.31,31.64-19.22,37.12-8.07,7.47-26.8,21.59-85.44,26.32C356.62,198.7,324.45,199.33,281.92,190.17Z" style="fill:#e6edfa"/><path d="M201,190.82H4.14a31,31,0,0,1,41.16-43,47.66,47.66,0,1,1,91.11,23C157.92,177.71,179,186.06,201,190.82Z" style="fill:#dae8eb"/><path d="M623.15,252.44h106a16.69,16.69,0,0,0-22.16-23.12,25.64,25.64,0,1,0-49,12.39C646.34,245.38,635,249.88,623.15,252.44Z" style="fill:#d8dff3"/><path d="M526.4,118.51H795a42.27,42.27,0,0,0-56.16-58.6,65,65,0,1,0-124.3,31.41C585.21,100.63,556.42,112,526.4,118.51Z" style="fill:#dae8eb"/></g><g id="Human"><g style="opacity:0.14"><path d="M495.28,627.37c-1.88.39-3.75.78-5.63,1.15h0c-1.57.32-3.14.62-4.71.92l-3.36.63c-1.35.25-2.71.5-4.06.73-1,.19-2,.36-2.95.52l-3.75.63-4.55.74-.44.06-4.4.67q-4.69.69-9.37,1.3-3,.39-6,.74l-5.3.6c-1,.12-2,.22-3,.31l-2.34.24-2.87.27c-1.28.13-2.57.24-3.85.34l-.77.07c-1.83.16-3.66.3-5.48.43l-.31,0c-1.7.12-3.4.24-5.1.34l-.87,0-4.33.24c-2.39.13-4.77.23-7.14.32q-9,.33-18.39.33l-5.3,0c-1.58,0-3.18,0-4.77-.07l-2,0-4.26-.11h-.21c-1.87,0-3.74-.12-5.62-.2q-5.14-.21-10.35-.51l-.59,0-1.76-.11c-1.46-.09-2.93-.18-4.4-.29l-4.06-.3q-3.44-.25-6.87-.57l-2.26-.2-2.66-.25-2-.2q-5.94-.6-11.92-1.32c-1.75-.21-3.5-.42-5.25-.65l-3.74-.5-3-.41c-3.69-.51-7.38-1.07-11.07-1.65h0l-3.54-.57-3.58-.6-3.45-.61q-3.52-.62-7.06-1.3c-1.15-.21-2.29-.43-3.43-.66-.92-.17-1.84-.35-2.75-.54h0l2-29.29h0l1.1-15.94h22.92l88.87,0H490.58v0l1.9,18.27,1.89,18.25v.12l.17,1.71h0Z" style="fill:#858300"/></g><polygon points="490.58 581.97 272.42 597.96 273.51 582.02 490.58 581.97"/><polygon points="384.51 620.21 388.32 620.23 388.12 581.93 384.31 581.91 384.51 620.21"/><path d="M392.66,608.75a13,13,0,0,0,9.38-3.4c7.51-7.18,4.16-23.05,4-23.72l-3.72.78c0,.14,3,14.45-2.94,20.16-2.64,2.52-6.87,3-12.57,1.46l-1,3.7A26.53,26.53,0,0,0,392.66,608.75Z"/><path d="M272.69,624.24a18.47,18.47,0,0,0,14-5.63c10.84-11.3,7.9-35.65,7.77-36.69l-3.82.43c0,.24,2.84,23.6-6.75,33.59-3.27,3.41-7.55,4.84-13.05,4.37l-.27,3.83C271.27,624.2,272,624.23,272.69,624.24Z"/><path d="M491.38,620.67a15.86,15.86,0,0,0,3.36-.35l-.77-3.73a9.56,9.56,0,0,1-8.6-2c-9.24-7.79-8.79-32.45-8.79-32.69l-3.78-.12c0,1.09-.48,26.76,10.16,35.73A12.77,12.77,0,0,0,491.38,620.67Z"/><path d="M589,431.26,520.6,486.43l-29.53-59.05V582H273.52V425.05l-33.41,53.61-67.6-61.38,67.82-109.56a55.75,55.75,0,0,1,47.42-26.41H475.08a55.73,55.73,0,0,1,43.49,20.87,55.17,55.17,0,0,1,5.63,8.5Z" style="fill:#2196f3;opacity:0.75"/><path d="M439.48,182.39s4.75,22,.61,26.34S419.56,170.68,439.48,182.39Z" style="fill:#32477b"/><path d="M377.73,156.54l56.18,16.77c22.71,92.05-17.47,91.48-17.47,91.48l1.33,14.27a30,30,0,0,1-31.25,32.82h0a30.06,30.06,0,0,1-28.68-31.36l2.77-61.76-10.78-.48h0a16.34,16.34,0,0,1-15.61-17.07h0a17.63,17.63,0,0,1,.16-1.77,19.53,19.53,0,0,1,22-16.72l5.65.77Z" style="fill:#ffc1c2"/><path d="M436.38,183h-.23c-19,1.09-41.7-2.74-51.93-4.74a6.51,6.51,0,0,0-7.18,3.89c-2.69,6.23-7.21,11.83-10.78,15.64a2.85,2.85,0,0,1-4.91-2.12l.54-9.57a2.85,2.85,0,0,0-2.46-3l-3-.42a19.54,19.54,0,0,0-22,16.71c-.08.59-.13,1.18-.16,1.78,0,.25,0,.49,0,.74a16.36,16.36,0,0,0,15.63,16.33l10.78.48-1.17,26.05c-62.78-71.92-13.07-107.37-13.07-107.37-.12-6.09,5-7.89,9.71-8.27a16.47,16.47,0,0,1,9.31,2.22c9.93,5.55,26.41-5.86,43.73-10.24,6.63-1.67,31-7.83,41.28,3C464.39,139,449.46,182.17,436.38,183Z" style="fill:#32477b"/><path d="M343.3,203.38c0-.06-1.57-5.56,1.18-8.79,1.83-2.14,5.23-2.92,10.14-2.31l.37-3c-6-.74-10.31.4-12.84,3.37-3.8,4.49-1.85,11.31-1.77,11.6Z" style="fill:#ed9c9c"/><polygon points="428.89 222.37 419.12 201.3 416.36 202.58 424.89 220.99 413.42 226.85 414.81 229.56 428.89 222.37" style="fill:#ed9c9c"/><path d="M431.81,200.9c.21,2.15,1.4,3.79,2.65,3.68s2.1-2,1.89-4.12a6,6,0,0,0-.25-1.25,4.41,4.41,0,0,0-.82-1.62,20.11,20.11,0,0,0-2.8,0,3.81,3.81,0,0,0-.61,1.59A6.7,6.7,0,0,0,431.81,200.9Z" style="fill:#32477b"/><path d="M386.92,189.64a.86.86,0,0,1,.67-1l16.72-3.46a3.82,3.82,0,0,1,4.26,2.21l.35.79a2.47,2.47,0,0,1,.19,1.14,2.44,2.44,0,0,1-2.59,2.27l-18.81-1.25A.87.87,0,0,1,386.92,189.64Z" style="fill:#32477b"/><path d="M441.56,187.49a.75.75,0,0,0-.67-.82L426,185.22a3.33,3.33,0,0,0-3.51,2.32l-.23.72a2.2,2.2,0,0,0-.07,1,2.13,2.13,0,0,0,2.48,1.72l16.26-2.84A.74.74,0,0,0,441.56,187.49Z" style="fill:#32477b"/><path d="M417.79,279.25A51.28,51.28,0,0,1,387,263.47c9,3.47,29.48,1.32,29.48,1.32Z" style="fill:#ed9c9c"/><path d="M513.89,106.2a22,22,0,0,0-14.72,0,4.17,4.17,0,0,0-2.32,5.92l0,.08a4.25,4.25,0,0,0,5.07,2,11.89,11.89,0,0,1,7.66,0c4.65,1.66,6.32,5.55,4.81,9.82-2.45,6.9-14,8.14-19.16,16.73a4.81,4.81,0,0,0-.71,2.54,4.93,4.93,0,0,0,3.29,4.66,4.85,4.85,0,0,0,5.86-2.08c4.81-8.39,17.41-8.83,21-19C528.22,117.1,523.33,109.54,513.89,106.2Zm-18.38,48.2a7.48,7.48,0,1,0,4.21,9.46A7.16,7.16,0,0,0,495.51,154.4Z" style="fill:#32477b"/><path d="M282.48,147a15.45,15.45,0,0,0-8.1,6.4,2.93,2.93,0,0,0,1.28,4.27l0,0a3,3,0,0,0,3.66-1.1,8.34,8.34,0,0,1,4.23-3.32c3.28-1.09,5.89.32,6.9,3.34,1.64,4.86-4.19,10.54-3.33,17.52a3.4,3.4,0,0,0,.71,1.71,3.45,3.45,0,0,0,3.83,1.14,3.39,3.39,0,0,0,2.33-3.68c-1-6.71,5.79-12.4,3.38-19.59C295.1,146.79,289.13,144.73,282.48,147Zm10.72,34.55a5.24,5.24,0,1,0,6.42,3.4A5,5,0,0,0,293.2,181.52Z" style="fill:#32477b"/><path d="M418.85,243.49l.67-2.66a97.16,97.16,0,0,0-10.42-2,95,95,0,0,0-10.4-.81l-.06,2.74a92.4,92.4,0,0,1,20.21,2.72Z" style="fill:#ed9c9c"/><path d="M423.07,199.29h.1l15.88-.71a1.08,1.08,0,1,0-.1-2.16l-15.87.7a1.09,1.09,0,0,0,0,2.17Z" style="fill:#32477b"/><path d="M399.19,201.15c.21,2.14,1.4,3.79,2.65,3.67s2.1-2,1.89-4.12a6.92,6.92,0,0,0-.25-1.25,4.52,4.52,0,0,0-.82-1.61,21.79,21.79,0,0,0-2.8,0,3.85,3.85,0,0,0-.61,1.6A5.88,5.88,0,0,0,399.19,201.15Z" style="fill:#32477b"/><path d="M390.76,199.73h.1l15.88-.7a1.09,1.09,0,0,0-.1-2.17l-15.88.71a1.08,1.08,0,0,0,0,2.16Z" style="fill:#32477b"/><polygon points="491.07 388.53 520.6 486.43 491.07 427.38 491.07 388.53" style="fill:#2196f3"/><polygon points="273.52 388.53 240.11 478.66 273.52 425.05 273.52 388.53" style="fill:#2196f3;opacity:0.75"/><rect x="489.86" y="378.43" width="2.42" height="48.95" style="fill:#2196f3"/><rect x="272.31" y="378.43" width="2.42" height="48.95" style="fill:#2196f3"/><path d="M233,472.2l-20.16,26.9a24.51,24.51,0,0,1-38.09,1.4l-128.25-147,40.94-36.4Z" style="fill:#ffc1c2"/><path d="M522.11,485.05l19.37,26.23a24.93,24.93,0,0,0,39,1.43L706.94,365.37,668.78,331Z" style="fill:#ffc1c2"/><rect x="689.68" y="150.56" width="152.29" height="203.57" rx="11.65" transform="translate(300.79 -406.37) rotate(36.54)" style="fill:#2196f3;opacity:0.75"/><path d="M755.32,356.7l-90.59-64.61a6.08,6.08,0,0,1-.54-9.81A454.55,454.55,0,0,0,764.94,146.33a6.07,6.07,0,0,1,9.43-2.42L859.49,207a9.72,9.72,0,0,1,2.93,11.31,455.19,455.19,0,0,1-95.24,137.5A9.61,9.61,0,0,1,755.32,356.7Z" style="fill:#2196f3"/><path d="M753.09,350.2l-85-62.95c-3.39-2.51-3.55-6.84-.43-9.73a439.94,439.94,0,0,0,97.23-131.19c1.85-3.82,6-4.93,9.43-2.42l84.94,63a9.67,9.67,0,0,1,2.83,11.51,439.73,439.73,0,0,1-97.22,131.19A9.67,9.67,0,0,1,753.09,350.2Z" style="fill:#fff"/><rect x="800.95" y="162.93" width="44.68" height="23.75" rx="3.59" transform="translate(265.92 -455.83) rotate(36.54)" style="fill:#2196f3"/><path d="M836.64,228.42l-66.59-49.35a3.08,3.08,0,0,1-.42-4.5h0a3.08,3.08,0,0,1,4.43-.91L840.65,223a3.68,3.68,0,0,1,1,4.92h0A3.66,3.66,0,0,1,836.64,228.42Z" style="fill:#2196f3"/><path d="M820,256.72l-66.59-49.35a3.07,3.07,0,0,1-.42-4.5h0a3.08,3.08,0,0,1,4.43-.91L824,251.31a3.67,3.67,0,0,1,1,4.92h0A3.65,3.65,0,0,1,820,256.72Z" style="fill:#2196f3"/><path d="M800.58,282.94,734,233.59a3.07,3.07,0,0,1-.42-4.5h0a3.08,3.08,0,0,1,4.43-.91l66.58,49.35a3.66,3.66,0,0,1,1,4.91h0A3.68,3.68,0,0,1,800.58,282.94Z" style="fill:#2196f3"/><path d="M732.54,354.36c-8.68,7.57-20.41,16.13-30.25,17.45C684.13,374.24,666.76,337,666.76,337s-.11-9.47,5.92-27c1.65-4.8,3.76-10.21,6.46-16.19a6.5,6.5,0,0,1,7.34-3.67l13.84,3.1,3.94.87a4,4,0,0,1,.64.2,3.81,3.81,0,0,1,1.54,5.87c-1.72,2.13-4.68,4.28-9.75,4.91a25,25,0,0,1-3.46.19s.34,1.46.61,3.55c.55,4.34.76,11.4-3.22,13.75l0,0,.08.06L722.65,347l3.42,2.59Z" style="fill:#ffc1c2"/><polygon points="580.36 423.85 531.18 497.33 522.11 485.05 580.36 423.85" style="fill:#ed9c9c"/><polygon points="179.4 415.08 226.16 481.31 232.99 472.2 179.4 415.08" style="fill:#ed9c9c"/><rect x="52.67" y="219.38" width="13.7" height="131.81" rx="5.51" transform="translate(245.34 60.78) rotate(51.4)" style="fill:#9bcfdc"/><rect x="31.64" y="252.49" width="23.89" height="91.03" rx="6.05" transform="translate(249.28 78.02) rotate(51.4)" style="fill:#32477b"/><circle cx="131.16" cy="228.09" r="45.17" style="fill:#9bcfdc"/><circle cx="131.16" cy="228.09" r="37.08" style="fill:#32477b"/><path d="M103.42,218.78a2.51,2.51,0,0,1-.34-2.59,30.82,30.82,0,0,1,38.5-16.63,2.51,2.51,0,1,1-1.67,4.74,25.81,25.81,0,0,0-32.23,13.92,2.51,2.51,0,0,1-3.31,1.29A2.4,2.4,0,0,1,103.42,218.78Z" style="fill:#fff"/><path d="M103.06,240.23l-.11-.15a17.94,17.94,0,0,1-2.39-14.55,2.51,2.51,0,0,1,4.8,1.48,12.83,12.83,0,0,0,1.74,10.23,2.51,2.51,0,0,1-4,3Z" style="fill:#fff"/><path d="M96.18,326.11l-6.51-6.36a9.69,9.69,0,0,1-2.79-5.29c-1.71-10-7.94-41.11-19.45-42.95l-4.67-4.67c-2-3.44-8-4.23-11.36-1.94-2.89,2-5.76,5.9-4.22,9.05l.13-.39s-13.63.15-15,7.74c0,0-12-1.51-13.7,8.59-1.64-.13-7-.33-10.62,3.33a12,12,0,0,0-2.48,4.06c-.61,1.82-2,8,18.84,33.25,5.24,6.36,8,9.62,11.94,13.33,4.75,4.41,6.87,5.47,10.76,9.94,1.72,2,11.19,10.65,11.19,10.65L69,377.51Z" style="fill:#ffc1c2"/><rect x="59.73" y="292.81" width="2.5" height="6.47" transform="translate(-145.29 75.11) rotate(-31.39)" style="fill:#e29474"/><path d="M62.87,312a8.26,8.26,0,0,1-2.67,1.86c-2.86,1.23-6.36.72-10.41-1.5l1.2-2.19c3.34,1.84,6.11,2.3,8.22,1.39,2.75-1.18,4-4.54,4.49-6.44l2.41.63A14.1,14.1,0,0,1,62.87,312Z" style="fill:#ed9c9c"/><path d="M69.85,312.84c-2.35-.88-4.39-3.21-6.08-6.91a40.42,40.42,0,0,1-2.32-6.82c-.51-2-.85-3.76-1.07-5l-7.69,4.38a15.25,15.25,0,0,1-9.21,2.78c-7.59-.38-12.4-7.08-12.6-7.36l-.78-1.09,36.68-22.36,1.3,2.13L33.77,293.5c1.56,1.73,5.13,5,9.83,5.26a12.91,12.91,0,0,0,7.78-2.4l11-6.26.23,1.86a61.22,61.22,0,0,0,1.29,6.54A37.73,37.73,0,0,0,66,304.89c1.41,3.09,3,5,4.68,5.61Z" style="fill:#ed9c9c"/><path d="M49.19,318.75a7.19,7.19,0,0,1-.76.68c-2.36,1.77-5.75,1.92-10.1.45a8.88,8.88,0,0,1-2.4,6.2c-2.1,2-5.36,2.58-9.69,1.67l.5-2.37c3.49.74,6,.39,7.51-1,2.21-2.11,1.59-6,1.58-6.05l-.35-2.13,2,.82c4.37,1.79,7.56,2,9.49.51,2.35-1.77,2.32-5.67,2.27-6.69L42.76,300.2l2.06-1.26L51.59,310l0,.27C51.64,310.53,52.17,315.7,49.19,318.75Z" style="fill:#ed9c9c"/><rect x="26.54" y="287.87" width="2.5" height="32.96" transform="translate(-161.61 64.5) rotate(-33.08)" style="fill:#ed9c9c"/><rect x="48.33" y="273.19" width="2.41" height="8.66" transform="translate(-137.41 66.52) rotate(-31.42)" style="fill:#ed9c9c"/><path d="M388,323.08c-18.9,0-35.18-14.6-39.57-35.51l-1.28-6.05,2-.41,1.27,6.05c4.2,20,19.67,33.92,37.62,33.92,16,0,30.5-11.48,36.17-28.57L427.94,281l1.89.63L426,293.14C420.08,311.05,404.78,323.08,388,323.08Z" style="fill:#fff"/><path d="M289.83,283.85a25.94,25.94,0,0,1-45,17.6,55.8,55.8,0,0,1,42.91-20.14h2C289.79,282.14,289.83,283,289.83,283.85Z" style="fill:#fff"/><path d="M518.57,302.18a25.94,25.94,0,0,1-44.29-18.33c0-.86,0-1.71.12-2.54h.68A55.73,55.73,0,0,1,518.57,302.18Z" style="fill:#fff"/><rect x="212.74" y="390.02" width="2" height="91.98" transform="translate(-247.91 285.43) rotate(-45.82)" style="fill:#fff"/><rect x="501.32" y="440.76" width="89.09" height="2" transform="translate(-154.03 498.96) rotate(-43.65)" style="fill:#fff"/><path d="M273.52,450.66l13.33,70.8a53.91,53.91,0,0,0,47.21,43.63l157,16.91H273.52Z" style="fill:#2196f3"/><ellipse cx="442.61" cy="387.97" rx="23.47" ry="16.07" style="fill:#fff"/><ellipse cx="442.61" cy="387.97" rx="16.47" ry="8.68" style="fill:#2196f3"/></g></g></g></g></svg>